<svg width="24" height="24" viewBox="0 0 24 24" fill="none" xmlns="http://www.w3.org/2000/svg">
<g clip-path="url(#clip0_55_28)">
<path d="M11.9659 2.31891C14.998 2.31891 15.3571 2.33096 16.5546 2.38777C17.6618 2.44032 18.263 2.63265 18.6632 2.79437C19.1564 2.98367 19.6026 3.28552 19.9688 3.67772C20.346 4.05863 20.6363 4.5226 20.8183 5.03551C20.9738 5.45162 21.1588 6.07688 21.2093 7.22823C21.2639 8.47346 21.2755 8.84691 21.2755 12.0001C21.2755 15.1533 21.2639 15.5266 21.2093 16.772C21.1588 17.9233 20.9738 18.5485 20.8183 18.9647C20.6294 19.474 20.34 19.9365 19.9688 20.3225C19.5977 20.7085 19.1529 21.0094 18.6632 21.2058C18.263 21.3676 17.6618 21.5599 16.5546 21.6124C15.3574 21.6692 14.9983 21.6813 11.9659 21.6813C8.93348 21.6813 8.57449 21.6692 7.37714 21.6124C6.26998 21.5599 5.66876 21.3675 5.26858 21.2058C4.77535 21.0165 4.32919 20.7147 3.96291 20.3225C3.58576 19.9416 3.29549 19.4776 3.11345 18.9647C2.95794 18.5486 2.77294 17.9233 2.72246 16.772C2.66783 15.5268 2.65624 15.1533 2.65624 12.0001C2.65624 8.84691 2.66783 8.47355 2.72246 7.22823C2.77299 6.07688 2.95794 5.45166 3.11345 5.03551C3.29551 4.52257 3.58581 4.05859 3.963 3.67768C4.32928 3.28548 4.77544 2.98363 5.26867 2.79432C5.66881 2.6326 6.27007 2.44022 7.37723 2.38772C8.57467 2.33091 8.93379 2.31887 11.966 2.31887L11.9659 2.31891ZM11.966 0.191162C8.88196 0.191162 8.49511 0.204756 7.2841 0.262225C6.07539 0.3196 5.24996 0.519193 4.52766 0.811131C3.76996 1.10764 3.08358 1.57246 2.51637 2.17318C1.93858 2.76298 1.49148 3.47677 1.20624 4.26474C0.925732 5.01591 0.733799 5.87429 0.678851 7.13124C0.623363 8.39058 0.610291 8.79287 0.610291 12C0.610291 15.2071 0.623363 15.6093 0.678851 16.8687C0.734024 18.1256 0.925957 18.984 1.20669 19.7351C1.49183 20.5231 1.93881 21.2369 2.51646 21.8267C3.08367 22.4274 3.77005 22.8922 4.52775 23.1887C5.25009 23.4807 6.07553 23.6803 7.28419 23.7376C8.49538 23.7951 8.88209 23.8087 11.9661 23.8087C15.05 23.8087 15.4369 23.7951 16.6479 23.7376C17.8566 23.6803 18.6821 23.4807 19.4044 23.1887C20.1587 22.8853 20.8438 22.4214 21.4156 21.8267C21.9875 21.232 22.4337 20.5196 22.7254 19.7351C23.0061 18.984 23.1981 18.1256 23.2533 16.8687C23.3085 15.6091 23.3216 15.207 23.3216 12C23.3216 8.79291 23.3085 8.39058 23.2533 7.13124C23.1981 5.87429 23.0061 5.01591 22.7254 4.26479C22.4403 3.47685 21.9933 2.76307 21.4156 2.17322C20.8484 1.57239 20.162 1.10747 19.4042 0.810896C18.6819 0.519193 17.8564 0.3196 16.6477 0.262459C15.4367 0.204756 15.0499 0.191162 11.9659 0.191162H11.966Z" fill="#E8C548"/>
<path d="M11.9659 5.93604C10.8126 5.93604 9.68516 6.29168 8.72621 6.958C7.76727 7.62432 7.01986 8.57138 6.57851 9.67943C6.13716 10.7875 6.02168 12.0067 6.24668 13.183C6.47168 14.3593 7.02705 15.4398 7.84256 16.2879C8.65808 17.136 9.69711 17.7135 10.8283 17.9475C11.9594 18.1815 13.1319 18.0614 14.1974 17.6024C15.2629 17.1434 16.1736 16.3662 16.8144 15.369C17.4551 14.3718 17.7971 13.1994 17.7971 12C17.7971 10.3918 17.1828 8.84935 16.0892 7.71213C14.9956 6.57492 13.5124 5.93604 11.9659 5.93604ZM11.9659 15.9363C11.2172 15.9362 10.4854 15.7054 9.86297 15.2729C9.24051 14.8403 8.75536 14.2256 8.46888 13.5063C8.1824 12.7871 8.10744 11.9956 8.2535 11.2321C8.39956 10.4685 8.76006 9.76715 9.28943 9.21666C9.81879 8.66618 10.4932 8.29129 11.2275 8.13942C11.9617 7.98754 12.7228 8.06549 13.4145 8.36342C14.1061 8.66134 14.6973 9.16586 15.1132 9.81317C15.5291 10.4605 15.7511 11.2215 15.7511 12C15.7511 13.044 15.3523 14.0452 14.6424 14.7834C13.9325 15.5215 12.9698 15.9363 11.9659 15.9363Z" fill="#E8C548"/>
<path d="M18.0275 7.11361C18.7801 7.11361 19.3902 6.47918 19.3902 5.69658C19.3902 4.91397 18.7801 4.27954 18.0275 4.27954C17.2749 4.27954 16.6649 4.91397 16.6649 5.69658C16.6649 6.47918 17.2749 7.11361 18.0275 7.11361Z" fill="#E8C548"/>
</g>
<defs>
<clipPath id="clip0_55_28">
<rect width="23.0789" height="24" fill="white" transform="translate(0.426437)"/>
</clipPath>
</defs>
</svg>
