<svg width="165" height="57" viewBox="0 0 165 57" fill="none" xmlns="http://www.w3.org/2000/svg">
<g filter="url(#filter0_d_20:130)">
<path d="M37.056 23.76H37.176C37.288 23.76 37.392 23.712 37.488 23.616C37.584 23.52 37.664 23.408 37.728 23.28C37.808 23.152 37.864 23.016 37.896 22.872C37.928 22.712 37.944 22.568 37.944 22.44V9.648C37.944 9.536 37.928 9.408 37.896 9.264C37.864 9.12 37.816 8.984 37.752 8.856C37.688 8.728 37.608 8.624 37.512 8.544C37.416 8.448 37.304 8.4 37.176 8.4H37.056V8.16H41.688C42.952 8.16 44.088 8.384 45.096 8.832C46.104 9.264 46.952 9.856 47.64 10.608C48.344 11.344 48.88 12.192 49.248 13.152C49.616 14.112 49.8 15.112 49.8 16.152C49.8 17.128 49.624 18.088 49.272 19.032C48.92 19.96 48.392 20.792 47.688 21.528C46.984 22.264 46.104 22.864 45.048 23.328C43.992 23.776 42.768 24 41.376 24H37.056V23.76ZM48.168 16.512C48.168 15.488 47.984 14.52 47.616 13.608C47.248 12.696 46.728 11.904 46.056 11.232C45.4 10.544 44.616 10 43.704 9.6C42.808 9.2 41.832 9 40.776 9H39.552V23.16H40.824C41.688 23.16 42.552 23.032 43.416 22.776C44.296 22.504 45.088 22.096 45.792 21.552C46.496 20.992 47.064 20.296 47.496 19.464C47.944 18.632 48.168 17.648 48.168 16.512ZM58.9251 15.672C58.7331 15.352 58.5331 15.152 58.3251 15.072C58.1171 14.992 57.8771 14.952 57.6051 14.952C57.4291 14.952 57.2371 14.992 57.0291 15.072C56.8371 15.152 56.6451 15.256 56.4531 15.384C56.2611 15.512 56.0691 15.656 55.8771 15.816C55.7011 15.96 55.5491 16.096 55.4211 16.224V22.464C55.4211 22.592 55.4371 22.728 55.4691 22.872C55.5011 23.016 55.5491 23.16 55.6131 23.304C55.6931 23.432 55.7731 23.544 55.8531 23.64C55.9491 23.72 56.0611 23.76 56.1891 23.76V24H53.0691V23.76C53.1811 23.76 53.2851 23.72 53.3811 23.64C53.4771 23.544 53.5571 23.432 53.6211 23.304C53.7011 23.16 53.7571 23.016 53.7891 22.872C53.8211 22.728 53.8371 22.592 53.8371 22.464V15.768C53.8371 15.544 53.7651 15.32 53.6211 15.096C53.4771 14.872 53.2691 14.728 52.9971 14.664V14.472L55.4211 13.752V15.192C55.5651 15.016 55.7171 14.848 55.8771 14.688C56.0371 14.512 56.2131 14.36 56.4051 14.232C56.6131 14.088 56.8371 13.976 57.0771 13.896C57.3171 13.8 57.5971 13.752 57.9171 13.752C58.1411 13.752 58.4291 13.8 58.7811 13.896C59.1331 13.992 59.4211 14.096 59.6451 14.208L58.9251 15.672ZM68.691 24V22.776L68.571 22.896C68.171 23.296 67.707 23.608 67.179 23.832C66.667 24.056 66.043 24.168 65.307 24.168C64.747 24.168 64.267 24.104 63.867 23.976C63.467 23.848 63.139 23.672 62.883 23.448C62.627 23.208 62.435 22.936 62.307 22.632C62.195 22.328 62.139 22.008 62.139 21.672C62.139 21.128 62.283 20.648 62.571 20.232C62.875 19.816 63.307 19.448 63.867 19.128C64.427 18.808 65.107 18.52 65.907 18.264C66.723 17.992 67.651 17.728 68.691 17.472C68.659 16.848 68.531 16.344 68.307 15.96C68.083 15.576 67.819 15.28 67.515 15.072C67.211 14.848 66.891 14.704 66.555 14.64C66.219 14.56 65.931 14.52 65.691 14.52C65.275 14.52 64.907 14.584 64.587 14.712C64.283 14.84 64.011 15.008 63.771 15.216C63.547 15.408 63.355 15.624 63.195 15.864C63.035 16.088 62.907 16.304 62.811 16.512H62.595V14.76C62.723 14.744 62.843 14.704 62.955 14.64C63.067 14.576 63.203 14.512 63.363 14.448C63.603 14.352 63.931 14.216 64.347 14.04C64.763 13.848 65.347 13.752 66.099 13.752C66.979 13.752 67.691 13.864 68.235 14.088C68.779 14.312 69.195 14.608 69.483 14.976C69.787 15.344 69.987 15.768 70.083 16.248C70.179 16.712 70.227 17.192 70.227 17.688V22.44C70.227 22.76 70.299 23.064 70.443 23.352C70.587 23.624 70.779 23.76 71.019 23.76V24H68.691ZM68.691 21.72V18.288L68.451 18.336C68.067 18.432 67.595 18.56 67.035 18.72C66.491 18.88 65.971 19.088 65.475 19.344C64.979 19.6 64.555 19.904 64.203 20.256C63.851 20.608 63.675 21.016 63.675 21.48C63.675 21.992 63.883 22.416 64.299 22.752C64.715 23.088 65.259 23.256 65.931 23.256C66.459 23.256 66.923 23.144 67.323 22.92C67.723 22.68 68.091 22.376 68.427 22.008L68.691 21.72ZM74.6917 22.968C74.6917 22.648 74.7957 22.376 75.0037 22.152C75.2277 21.928 75.4997 21.816 75.8197 21.816C76.1397 21.816 76.4117 21.928 76.6357 22.152C76.8597 22.376 76.9717 22.648 76.9717 22.968C76.9717 23.288 76.8597 23.56 76.6357 23.784C76.4117 23.992 76.1397 24.096 75.8197 24.096C75.4997 24.096 75.2277 23.992 75.0037 23.784C74.7957 23.56 74.6917 23.288 74.6917 22.968ZM87.9863 23.76H88.1063C88.2343 23.76 88.3463 23.72 88.4423 23.64C88.5383 23.544 88.6183 23.432 88.6823 23.304C88.7623 23.176 88.8183 23.04 88.8503 22.896C88.8983 22.752 88.9223 22.616 88.9223 22.488V9.648C88.9223 9.536 88.8983 9.408 88.8503 9.264C88.8183 9.12 88.7623 8.984 88.6823 8.856C88.6183 8.728 88.5383 8.624 88.4423 8.544C88.3463 8.448 88.2343 8.4 88.1063 8.4H87.9863V8.16H91.4423V8.4H91.3223C91.1943 8.4 91.0823 8.448 90.9863 8.544C90.8903 8.624 90.8103 8.728 90.7463 8.856C90.6823 8.984 90.6263 9.12 90.5783 9.264C90.5463 9.408 90.5303 9.536 90.5303 9.648V23.112H95.7863C96.0903 23.112 96.3543 23.04 96.5783 22.896C96.8023 22.752 96.9863 22.576 97.1303 22.368C97.2903 22.144 97.4023 21.912 97.4663 21.672C97.5463 21.416 97.5863 21.184 97.5863 20.976H97.8263V24H87.9863V23.76ZM106.679 24V22.776L106.559 22.896C106.159 23.296 105.695 23.608 105.167 23.832C104.655 24.056 104.031 24.168 103.295 24.168C102.735 24.168 102.255 24.104 101.855 23.976C101.455 23.848 101.127 23.672 100.871 23.448C100.615 23.208 100.423 22.936 100.295 22.632C100.183 22.328 100.127 22.008 100.127 21.672C100.127 21.128 100.271 20.648 100.559 20.232C100.863 19.816 101.295 19.448 101.855 19.128C102.415 18.808 103.095 18.52 103.895 18.264C104.711 17.992 105.639 17.728 106.679 17.472C106.647 16.848 106.519 16.344 106.295 15.96C106.071 15.576 105.807 15.28 105.503 15.072C105.199 14.848 104.879 14.704 104.543 14.64C104.207 14.56 103.919 14.52 103.679 14.52C103.263 14.52 102.895 14.584 102.575 14.712C102.271 14.84 101.999 15.008 101.759 15.216C101.535 15.408 101.343 15.624 101.183 15.864C101.023 16.088 100.895 16.304 100.799 16.512H100.583V14.76C100.711 14.744 100.831 14.704 100.943 14.64C101.055 14.576 101.191 14.512 101.351 14.448C101.591 14.352 101.919 14.216 102.335 14.04C102.751 13.848 103.335 13.752 104.087 13.752C104.967 13.752 105.679 13.864 106.223 14.088C106.767 14.312 107.183 14.608 107.471 14.976C107.775 15.344 107.975 15.768 108.071 16.248C108.167 16.712 108.215 17.192 108.215 17.688V22.44C108.215 22.76 108.287 23.064 108.431 23.352C108.575 23.624 108.767 23.76 109.007 23.76V24H106.679ZM106.679 21.72V18.288L106.439 18.336C106.055 18.432 105.583 18.56 105.023 18.72C104.479 18.88 103.959 19.088 103.463 19.344C102.967 19.6 102.543 19.904 102.191 20.256C101.839 20.608 101.663 21.016 101.663 21.48C101.663 21.992 101.871 22.416 102.287 22.752C102.703 23.088 103.247 23.256 103.919 23.256C104.447 23.256 104.911 23.144 105.311 22.92C105.711 22.68 106.079 22.376 106.415 22.008L106.679 21.72ZM118.367 15.672C118.175 15.352 117.975 15.152 117.767 15.072C117.559 14.992 117.319 14.952 117.047 14.952C116.871 14.952 116.679 14.992 116.471 15.072C116.279 15.152 116.087 15.256 115.895 15.384C115.703 15.512 115.511 15.656 115.319 15.816C115.143 15.96 114.991 16.096 114.863 16.224V22.464C114.863 22.592 114.879 22.728 114.911 22.872C114.943 23.016 114.991 23.16 115.055 23.304C115.135 23.432 115.215 23.544 115.295 23.64C115.391 23.72 115.503 23.76 115.631 23.76V24H112.511V23.76C112.623 23.76 112.727 23.72 112.823 23.64C112.919 23.544 112.999 23.432 113.063 23.304C113.143 23.16 113.199 23.016 113.231 22.872C113.263 22.728 113.279 22.592 113.279 22.464V15.768C113.279 15.544 113.207 15.32 113.063 15.096C112.919 14.872 112.711 14.728 112.439 14.664V14.472L114.863 13.752V15.192C115.007 15.016 115.159 14.848 115.319 14.688C115.479 14.512 115.655 14.36 115.847 14.232C116.055 14.088 116.279 13.976 116.519 13.896C116.759 13.8 117.039 13.752 117.359 13.752C117.583 13.752 117.871 13.8 118.223 13.896C118.575 13.992 118.863 14.096 119.087 14.208L118.367 15.672ZM122.133 24V23.76C122.261 23.76 122.373 23.712 122.469 23.616C122.565 23.52 122.645 23.408 122.709 23.28C122.773 23.152 122.821 23.016 122.853 22.872C122.885 22.712 122.901 22.568 122.901 22.44V15.792C122.901 15.52 122.861 15.264 122.781 15.024C122.701 14.768 122.469 14.632 122.085 14.616V14.4L124.485 13.632V22.44C124.485 22.568 124.501 22.712 124.533 22.872C124.565 23.016 124.613 23.152 124.677 23.28C124.741 23.408 124.821 23.52 124.917 23.616C125.013 23.712 125.125 23.76 125.253 23.76V24H122.133ZM122.253 11.328C122.253 11.008 122.357 10.736 122.565 10.512C122.789 10.288 123.061 10.176 123.381 10.176C123.701 10.176 123.973 10.288 124.197 10.512C124.421 10.736 124.533 11.008 124.533 11.328C124.533 11.648 124.421 11.912 124.197 12.12C123.973 12.328 123.701 12.432 123.381 12.432C123.061 12.432 122.789 12.328 122.565 12.12C122.357 11.912 122.253 11.648 122.253 11.328ZM136.821 21.264C136.821 21.68 136.717 22.064 136.509 22.416C136.301 22.768 136.013 23.08 135.645 23.352C135.293 23.608 134.877 23.816 134.397 23.976C133.917 24.12 133.397 24.192 132.837 24.192C132.149 24.192 131.589 24.104 131.157 23.928C130.725 23.736 130.357 23.544 130.053 23.352C129.845 23.224 129.653 23.12 129.477 23.04C129.301 22.944 129.109 22.896 128.901 22.896V21.072H129.141C129.189 21.296 129.325 21.544 129.549 21.816C129.789 22.072 130.069 22.312 130.389 22.536C130.725 22.76 131.085 22.952 131.469 23.112C131.869 23.256 132.269 23.328 132.669 23.328C132.957 23.328 133.253 23.296 133.557 23.232C133.861 23.168 134.133 23.064 134.373 22.92C134.629 22.776 134.837 22.6 134.997 22.392C135.173 22.168 135.261 21.904 135.261 21.6C135.261 21.296 135.173 21.032 134.997 20.808C134.821 20.584 134.597 20.392 134.325 20.232C134.053 20.056 133.741 19.904 133.389 19.776C133.037 19.648 132.685 19.528 132.333 19.416C131.917 19.288 131.493 19.144 131.061 18.984C130.645 18.824 130.269 18.64 129.933 18.432C129.597 18.208 129.325 17.944 129.117 17.64C128.909 17.32 128.805 16.944 128.805 16.512C128.805 16.144 128.869 15.792 128.997 15.456C129.141 15.12 129.365 14.832 129.669 14.592C129.989 14.336 130.397 14.136 130.893 13.992C131.389 13.832 131.989 13.752 132.693 13.752C133.317 13.752 133.797 13.808 134.133 13.92C134.485 14.016 134.773 14.12 134.997 14.232C135.141 14.312 135.285 14.376 135.429 14.424C135.573 14.456 135.733 14.472 135.909 14.472V16.152H135.717C135.429 15.624 134.989 15.224 134.397 14.952C133.805 14.68 133.197 14.544 132.573 14.544C132.173 14.544 131.829 14.6 131.541 14.712C131.253 14.808 131.013 14.936 130.821 15.096C130.645 15.24 130.509 15.408 130.413 15.6C130.333 15.792 130.293 15.984 130.293 16.176C130.293 16.448 130.365 16.68 130.509 16.872C130.669 17.064 130.877 17.232 131.133 17.376C131.405 17.52 131.701 17.656 132.021 17.784C132.357 17.912 132.709 18.032 133.077 18.144C133.525 18.288 133.973 18.448 134.421 18.624C134.869 18.784 135.269 18.984 135.621 19.224C135.973 19.464 136.261 19.752 136.485 20.088C136.709 20.408 136.821 20.8 136.821 21.264ZM147.888 21.264C147.888 21.68 147.784 22.064 147.576 22.416C147.368 22.768 147.08 23.08 146.712 23.352C146.36 23.608 145.944 23.816 145.464 23.976C144.984 24.12 144.464 24.192 143.904 24.192C143.216 24.192 142.656 24.104 142.224 23.928C141.792 23.736 141.424 23.544 141.12 23.352C140.912 23.224 140.72 23.12 140.544 23.04C140.368 22.944 140.176 22.896 139.968 22.896V21.072H140.208C140.256 21.296 140.392 21.544 140.616 21.816C140.856 22.072 141.136 22.312 141.456 22.536C141.792 22.76 142.152 22.952 142.536 23.112C142.936 23.256 143.336 23.328 143.736 23.328C144.024 23.328 144.32 23.296 144.624 23.232C144.928 23.168 145.2 23.064 145.44 22.92C145.696 22.776 145.904 22.6 146.064 22.392C146.24 22.168 146.328 21.904 146.328 21.6C146.328 21.296 146.24 21.032 146.064 20.808C145.888 20.584 145.664 20.392 145.392 20.232C145.12 20.056 144.808 19.904 144.456 19.776C144.104 19.648 143.752 19.528 143.4 19.416C142.984 19.288 142.56 19.144 142.128 18.984C141.712 18.824 141.336 18.64 141 18.432C140.664 18.208 140.392 17.944 140.184 17.64C139.976 17.32 139.872 16.944 139.872 16.512C139.872 16.144 139.936 15.792 140.064 15.456C140.208 15.12 140.432 14.832 140.736 14.592C141.056 14.336 141.464 14.136 141.96 13.992C142.456 13.832 143.056 13.752 143.76 13.752C144.384 13.752 144.864 13.808 145.2 13.92C145.552 14.016 145.84 14.12 146.064 14.232C146.208 14.312 146.352 14.376 146.496 14.424C146.64 14.456 146.8 14.472 146.976 14.472V16.152H146.784C146.496 15.624 146.056 15.224 145.464 14.952C144.872 14.68 144.264 14.544 143.64 14.544C143.24 14.544 142.896 14.6 142.608 14.712C142.32 14.808 142.08 14.936 141.888 15.096C141.712 15.24 141.576 15.408 141.48 15.6C141.4 15.792 141.36 15.984 141.36 16.176C141.36 16.448 141.432 16.68 141.576 16.872C141.736 17.064 141.944 17.232 142.2 17.376C142.472 17.52 142.768 17.656 143.088 17.784C143.424 17.912 143.776 18.032 144.144 18.144C144.592 18.288 145.04 18.448 145.488 18.624C145.936 18.784 146.336 18.984 146.688 19.224C147.04 19.464 147.328 19.752 147.552 20.088C147.776 20.408 147.888 20.8 147.888 21.264ZM157.491 24V22.776L157.371 22.896C156.971 23.296 156.507 23.608 155.979 23.832C155.467 24.056 154.843 24.168 154.107 24.168C153.547 24.168 153.067 24.104 152.667 23.976C152.267 23.848 151.939 23.672 151.683 23.448C151.427 23.208 151.235 22.936 151.107 22.632C150.995 22.328 150.939 22.008 150.939 21.672C150.939 21.128 151.083 20.648 151.371 20.232C151.675 19.816 152.107 19.448 152.667 19.128C153.227 18.808 153.907 18.52 154.707 18.264C155.523 17.992 156.451 17.728 157.491 17.472C157.459 16.848 157.331 16.344 157.107 15.96C156.883 15.576 156.619 15.28 156.315 15.072C156.011 14.848 155.691 14.704 155.355 14.64C155.019 14.56 154.731 14.52 154.491 14.52C154.075 14.52 153.707 14.584 153.387 14.712C153.083 14.84 152.811 15.008 152.571 15.216C152.347 15.408 152.155 15.624 151.995 15.864C151.835 16.088 151.707 16.304 151.611 16.512H151.395V14.76C151.523 14.744 151.643 14.704 151.755 14.64C151.867 14.576 152.003 14.512 152.163 14.448C152.403 14.352 152.731 14.216 153.147 14.04C153.563 13.848 154.147 13.752 154.899 13.752C155.779 13.752 156.491 13.864 157.035 14.088C157.579 14.312 157.995 14.608 158.283 14.976C158.587 15.344 158.787 15.768 158.883 16.248C158.979 16.712 159.027 17.192 159.027 17.688V22.44C159.027 22.76 159.099 23.064 159.243 23.352C159.387 23.624 159.579 23.76 159.819 23.76V24H157.491ZM157.491 21.72V18.288L157.251 18.336C156.867 18.432 156.395 18.56 155.835 18.72C155.291 18.88 154.771 19.088 154.275 19.344C153.779 19.6 153.355 19.904 153.003 20.256C152.651 20.608 152.475 21.016 152.475 21.48C152.475 21.992 152.683 22.416 153.099 22.752C153.515 23.088 154.059 23.256 154.731 23.256C155.259 23.256 155.723 23.144 156.123 22.92C156.523 22.68 156.891 22.376 157.227 22.008L157.491 21.72ZM46.8 45.752C46.8 46.552 46.64 47.24 46.32 47.816C46 48.376 45.584 48.832 45.072 49.184C44.576 49.536 44.008 49.792 43.368 49.952C42.744 50.112 42.12 50.192 41.496 50.192C40.856 50.192 40.304 50.128 39.84 50C39.376 49.872 38.952 49.752 38.568 49.64C38.312 49.56 38.08 49.496 37.872 49.448C37.664 49.384 37.456 49.352 37.248 49.352V46.616H37.488C37.488 47.224 37.64 47.712 37.944 48.08C38.264 48.432 38.632 48.704 39.048 48.896C39.464 49.088 39.88 49.216 40.296 49.28C40.712 49.328 41.016 49.352 41.208 49.352C41.896 49.352 42.488 49.256 42.984 49.064C43.48 48.856 43.888 48.592 44.208 48.272C44.528 47.936 44.76 47.568 44.904 47.168C45.064 46.768 45.144 46.36 45.144 45.944C45.144 45.416 45.032 44.976 44.808 44.624C44.584 44.256 44.288 43.936 43.92 43.664C43.568 43.392 43.16 43.16 42.696 42.968C42.232 42.776 41.76 42.584 41.28 42.392C40.736 42.184 40.2 41.968 39.672 41.744C39.144 41.52 38.672 41.248 38.256 40.928C37.84 40.592 37.504 40.2 37.248 39.752C36.992 39.288 36.864 38.72 36.864 38.048C36.864 37.344 37 36.736 37.272 36.224C37.544 35.696 37.904 35.264 38.352 34.928C38.816 34.592 39.336 34.344 39.912 34.184C40.504 34.008 41.104 33.92 41.712 33.92C42.128 33.92 42.52 33.952 42.888 34.016C43.256 34.064 43.608 34.128 43.944 34.208C44.216 34.272 44.48 34.328 44.736 34.376C44.992 34.408 45.24 34.424 45.48 34.424V36.896H45.24C45.208 36.064 44.88 35.504 44.256 35.216C43.632 34.912 42.768 34.76 41.664 34.76C41.024 34.76 40.496 34.872 40.08 35.096C39.68 35.304 39.36 35.568 39.12 35.888C38.88 36.192 38.712 36.528 38.616 36.896C38.536 37.248 38.496 37.56 38.496 37.832C38.496 38.28 38.592 38.664 38.784 38.984C38.992 39.304 39.264 39.584 39.6 39.824C39.936 40.064 40.32 40.28 40.752 40.472C41.2 40.664 41.664 40.848 42.144 41.024C42.688 41.232 43.24 41.456 43.8 41.696C44.36 41.936 44.856 42.232 45.288 42.584C45.736 42.936 46.096 43.368 46.368 43.88C46.656 44.392 46.8 45.016 46.8 45.752ZM50.3816 50V49.76C50.5096 49.76 50.6216 49.712 50.7176 49.616C50.8136 49.52 50.8936 49.408 50.9576 49.28C51.0216 49.152 51.0696 49.016 51.1016 48.872C51.1336 48.712 51.1496 48.568 51.1496 48.44V41.792C51.1496 41.52 51.1096 41.264 51.0296 41.024C50.9496 40.768 50.7176 40.632 50.3336 40.616V40.4L52.7336 39.632V48.44C52.7336 48.568 52.7496 48.712 52.7816 48.872C52.8136 49.016 52.8616 49.152 52.9256 49.28C52.9896 49.408 53.0696 49.52 53.1656 49.616C53.2616 49.712 53.3736 49.76 53.5016 49.76V50H50.3816ZM50.5016 37.328C50.5016 37.008 50.6056 36.736 50.8136 36.512C51.0376 36.288 51.3096 36.176 51.6296 36.176C51.9496 36.176 52.2216 36.288 52.4456 36.512C52.6696 36.736 52.7816 37.008 52.7816 37.328C52.7816 37.648 52.6696 37.912 52.4456 38.12C52.2216 38.328 51.9496 38.432 51.6296 38.432C51.3096 38.432 51.0376 38.328 50.8136 38.12C50.6056 37.912 50.5016 37.648 50.5016 37.328ZM57.3651 50V49.76C57.4931 49.76 57.6051 49.712 57.7011 49.616C57.7971 49.52 57.8771 49.408 57.9411 49.28C58.0211 49.152 58.0771 49.016 58.1091 48.872C58.1411 48.712 58.1571 48.568 58.1571 48.44V36.152C58.1571 35.88 58.1171 35.624 58.0371 35.384C57.9571 35.144 57.7171 35.016 57.3171 35V34.76L59.7411 34.016V48.44C59.7411 48.568 59.7571 48.712 59.7891 48.872C59.8211 49.016 59.8691 49.152 59.9331 49.28C60.0131 49.408 60.0931 49.52 60.1731 49.616C60.2691 49.712 60.3811 49.76 60.5091 49.76V50H57.3651ZM73.7198 39.92V40.16C73.6078 40.16 73.4958 40.2 73.3838 40.28C73.2718 40.36 73.1598 40.464 73.0478 40.592C72.9518 40.72 72.8558 40.864 72.7598 41.024C72.6798 41.168 72.6078 41.304 72.5438 41.432L68.4158 50.408L64.3118 41.336C64.1998 41.08 64.0558 40.824 63.8798 40.568C63.7038 40.296 63.4798 40.16 63.2078 40.16V39.92H66.4958V40.16C66.3998 40.16 66.2718 40.208 66.1118 40.304C65.9678 40.4 65.8958 40.536 65.8958 40.712C65.8958 40.792 65.9598 40.976 66.0878 41.264L68.8478 47.48L71.8238 41C71.8878 40.84 71.9198 40.72 71.9198 40.64C71.9198 40.496 71.8478 40.384 71.7038 40.304C71.5758 40.208 71.4638 40.16 71.3678 40.16V39.92H73.7198ZM77.7234 45.152C77.7874 45.712 77.9234 46.248 78.1314 46.76C78.3394 47.256 78.6114 47.696 78.9474 48.08C79.2994 48.464 79.7234 48.776 80.2194 49.016C80.7154 49.24 81.2914 49.352 81.9474 49.352C82.2994 49.352 82.6674 49.304 83.0514 49.208C83.4514 49.096 83.8194 48.944 84.1554 48.752C84.4914 48.56 84.7874 48.328 85.0434 48.056C85.3154 47.768 85.4994 47.448 85.5954 47.096H85.8114V48.896C85.7154 48.896 85.6034 48.928 85.4754 48.992C85.3634 49.056 85.2274 49.136 85.0674 49.232C84.7474 49.424 84.3154 49.632 83.7714 49.856C83.2274 50.064 82.5074 50.168 81.6114 50.168C80.8914 50.168 80.2034 50.064 79.5474 49.856C78.9074 49.648 78.3394 49.328 77.8434 48.896C77.3474 48.464 76.9474 47.912 76.6434 47.24C76.3554 46.568 76.2114 45.768 76.2114 44.84C76.2114 44.248 76.3074 43.648 76.4994 43.04C76.7074 42.432 77.0114 41.888 77.4114 41.408C77.8274 40.912 78.3554 40.512 78.9954 40.208C79.6354 39.904 80.4034 39.752 81.2994 39.752C82.0994 39.752 82.7954 39.888 83.3874 40.16C83.9954 40.432 84.4914 40.808 84.8754 41.288C85.2754 41.768 85.5714 42.336 85.7634 42.992C85.9554 43.648 86.0514 44.368 86.0514 45.152H77.7234ZM81.2034 40.544C80.6434 40.544 80.1554 40.656 79.7394 40.88C79.3394 41.104 78.9954 41.392 78.7074 41.744C78.4194 42.096 78.1954 42.496 78.0354 42.944C77.8754 43.392 77.7714 43.84 77.7234 44.288H84.5634C84.5474 43.824 84.4594 43.368 84.2994 42.92C84.1554 42.472 83.9474 42.072 83.6754 41.72C83.4034 41.368 83.0594 41.088 82.6434 40.88C82.2274 40.656 81.7474 40.544 81.2034 40.544ZM96.3488 47.264C96.3488 47.68 96.2448 48.064 96.0368 48.416C95.8288 48.768 95.5408 49.08 95.1728 49.352C94.8208 49.608 94.4048 49.816 93.9248 49.976C93.4448 50.12 92.9248 50.192 92.3648 50.192C91.6768 50.192 91.1168 50.104 90.6848 49.928C90.2528 49.736 89.8848 49.544 89.5808 49.352C89.3728 49.224 89.1808 49.12 89.0048 49.04C88.8288 48.944 88.6368 48.896 88.4288 48.896V47.072H88.6688C88.7168 47.296 88.8528 47.544 89.0768 47.816C89.3168 48.072 89.5968 48.312 89.9168 48.536C90.2528 48.76 90.6128 48.952 90.9967 49.112C91.3968 49.256 91.7968 49.328 92.1968 49.328C92.4848 49.328 92.7808 49.296 93.0848 49.232C93.3888 49.168 93.6608 49.064 93.9008 48.92C94.1568 48.776 94.3648 48.6 94.5247 48.392C94.7008 48.168 94.7888 47.904 94.7888 47.6C94.7888 47.296 94.7008 47.032 94.5247 46.808C94.3488 46.584 94.1248 46.392 93.8528 46.232C93.5808 46.056 93.2688 45.904 92.9168 45.776C92.5648 45.648 92.2128 45.528 91.8608 45.416C91.4448 45.288 91.0208 45.144 90.5888 44.984C90.1728 44.824 89.7968 44.64 89.4608 44.432C89.1248 44.208 88.8528 43.944 88.6448 43.64C88.4368 43.32 88.3328 42.944 88.3328 42.512C88.3328 42.144 88.3968 41.792 88.5248 41.456C88.6688 41.12 88.8928 40.832 89.1968 40.592C89.5168 40.336 89.9248 40.136 90.4208 39.992C90.9168 39.832 91.5168 39.752 92.2208 39.752C92.8448 39.752 93.3248 39.808 93.6608 39.92C94.0128 40.016 94.3008 40.12 94.5247 40.232C94.6688 40.312 94.8128 40.376 94.9568 40.424C95.1008 40.456 95.2608 40.472 95.4368 40.472V42.152H95.2448C94.9568 41.624 94.5168 41.224 93.9248 40.952C93.3328 40.68 92.7248 40.544 92.1008 40.544C91.7008 40.544 91.3568 40.6 91.0688 40.712C90.7808 40.808 90.5408 40.936 90.3488 41.096C90.1728 41.24 90.0368 41.408 89.9408 41.6C89.8608 41.792 89.8208 41.984 89.8208 42.176C89.8208 42.448 89.8928 42.68 90.0368 42.872C90.1968 43.064 90.4048 43.232 90.6608 43.376C90.9328 43.52 91.2288 43.656 91.5488 43.784C91.8848 43.912 92.2368 44.032 92.6048 44.144C93.0528 44.288 93.5008 44.448 93.9488 44.624C94.3968 44.784 94.7968 44.984 95.1488 45.224C95.5008 45.464 95.7888 45.752 96.0128 46.088C96.2368 46.408 96.3488 46.8 96.3488 47.264ZM101.968 40.736V46.52C101.968 46.936 101.976 47.312 101.992 47.648C102.008 47.984 102.048 48.264 102.112 48.488C102.176 48.712 102.272 48.888 102.4 49.016C102.528 49.128 102.704 49.184 102.928 49.184C103.264 49.184 103.576 49.024 103.864 48.704C104.168 48.384 104.36 48 104.44 47.552H104.656V49.304C104.512 49.304 104.392 49.352 104.296 49.448C104.168 49.56 103.984 49.68 103.744 49.808C103.52 49.936 103.176 50 102.712 50C102.136 50 101.688 49.888 101.368 49.664C101.048 49.44 100.816 49.144 100.672 48.776C100.528 48.408 100.44 48 100.408 47.552C100.392 47.104 100.384 46.648 100.384 46.184V40.736H99.0399V39.92H100.384V37.784C100.384 37.512 100.344 37.264 100.264 37.04C100.2 36.8 99.9679 36.672 99.5679 36.656V36.416L101.968 35.648V39.92H104.656V40.736H101.968ZM113.516 41.672C113.324 41.352 113.124 41.152 112.916 41.072C112.708 40.992 112.468 40.952 112.196 40.952C112.02 40.952 111.828 40.992 111.62 41.072C111.428 41.152 111.236 41.256 111.044 41.384C110.852 41.512 110.66 41.656 110.468 41.816C110.292 41.96 110.14 42.096 110.012 42.224V48.464C110.012 48.592 110.028 48.728 110.06 48.872C110.092 49.016 110.14 49.16 110.204 49.304C110.284 49.432 110.364 49.544 110.444 49.64C110.54 49.72 110.652 49.76 110.78 49.76V50H107.66V49.76C107.772 49.76 107.876 49.72 107.972 49.64C108.068 49.544 108.148 49.432 108.212 49.304C108.292 49.16 108.348 49.016 108.38 48.872C108.412 48.728 108.428 48.592 108.428 48.464V41.768C108.428 41.544 108.356 41.32 108.212 41.096C108.068 40.872 107.86 40.728 107.588 40.664V40.472L110.012 39.752V41.192C110.156 41.016 110.308 40.848 110.468 40.688C110.628 40.512 110.804 40.36 110.996 40.232C111.204 40.088 111.428 39.976 111.668 39.896C111.908 39.8 112.188 39.752 112.508 39.752C112.732 39.752 113.02 39.8 113.372 39.896C113.724 39.992 114.012 40.096 114.236 40.208L113.516 41.672ZM118.266 45.152C118.33 45.712 118.466 46.248 118.674 46.76C118.882 47.256 119.154 47.696 119.49 48.08C119.842 48.464 120.266 48.776 120.762 49.016C121.258 49.24 121.834 49.352 122.49 49.352C122.842 49.352 123.21 49.304 123.594 49.208C123.994 49.096 124.362 48.944 124.698 48.752C125.034 48.56 125.33 48.328 125.586 48.056C125.858 47.768 126.042 47.448 126.138 47.096H126.354V48.896C126.258 48.896 126.146 48.928 126.018 48.992C125.906 49.056 125.77 49.136 125.61 49.232C125.29 49.424 124.858 49.632 124.314 49.856C123.77 50.064 123.05 50.168 122.154 50.168C121.434 50.168 120.746 50.064 120.09 49.856C119.45 49.648 118.882 49.328 118.386 48.896C117.89 48.464 117.49 47.912 117.186 47.24C116.898 46.568 116.754 45.768 116.754 44.84C116.754 44.248 116.85 43.648 117.042 43.04C117.25 42.432 117.554 41.888 117.954 41.408C118.37 40.912 118.898 40.512 119.538 40.208C120.178 39.904 120.946 39.752 121.842 39.752C122.642 39.752 123.338 39.888 123.93 40.16C124.538 40.432 125.034 40.808 125.418 41.288C125.818 41.768 126.114 42.336 126.306 42.992C126.498 43.648 126.594 44.368 126.594 45.152H118.266ZM121.746 40.544C121.186 40.544 120.698 40.656 120.282 40.88C119.882 41.104 119.538 41.392 119.25 41.744C118.962 42.096 118.738 42.496 118.578 42.944C118.418 43.392 118.314 43.84 118.266 44.288H125.106C125.09 43.824 125.002 43.368 124.842 42.92C124.698 42.472 124.49 42.072 124.218 41.72C123.946 41.368 123.602 41.088 123.186 40.88C122.77 40.656 122.29 40.544 121.746 40.544Z" fill="#E8C548"/>
</g>
<g filter="url(#filter1_di_20:130)">
<path d="M5.41141 31.1601H5.6503C5.90511 31.1601 6.12807 31.0802 6.31918 30.9204C6.51029 30.7287 6.66954 30.505 6.79695 30.2493C6.9562 29.9936 7.06768 29.722 7.13139 29.4343C7.22694 29.1467 7.27472 28.875 7.27472 28.6194V2.97219C7.27472 2.74848 7.22694 2.49281 7.13139 2.20518C7.06768 1.91755 6.9562 1.64589 6.79695 1.39022C6.66954 1.13455 6.51029 0.926812 6.31918 0.767017C6.12807 0.575263 5.90511 0.479386 5.6503 0.479386H5.41141V0H12.2913V0.479386H12.0524C11.7976 0.479386 11.5747 0.575263 11.3835 0.767017C11.1924 0.926812 11.0332 1.13455 10.9058 1.39022C10.7784 1.64589 10.6669 1.91755 10.5713 2.20518C10.5076 2.49281 10.4758 2.74848 10.4758 2.97219V29.8658H20.939C21.5441 29.8658 22.0697 29.722 22.5156 29.4343C22.9615 29.1467 23.3278 28.7951 23.6145 28.3797C23.933 27.9322 24.1559 27.4688 24.2833 26.9895C24.4426 26.4781 24.5222 26.0147 24.5222 25.5992H25V31.6395H5.41141V31.1601Z" fill="#E8C548"/>
<path d="M20.7797 41.1314C20.7797 42.7293 20.4612 44.1035 19.8242 45.2541C19.1871 46.3726 18.359 47.2835 17.3397 47.9866C16.3524 48.6897 15.2216 49.201 13.9476 49.5206C12.7054 49.8402 11.4632 50 10.221 50C8.94692 50 7.84804 49.8722 6.92435 49.6165C6.00066 49.3608 5.1566 49.1211 4.39217 48.8974C3.88255 48.7376 3.4207 48.6098 3.00664 48.5139C2.59257 48.3861 2.1785 48.3221 1.76443 48.3221V42.8571H2.2422C2.2422 44.0716 2.54479 45.0463 3.14997 45.7814C3.78699 46.4845 4.51958 47.0278 5.34771 47.4113C6.17585 47.7948 7.00398 48.0505 7.83212 48.1783C8.66025 48.2742 9.26543 48.3221 9.64764 48.3221C11.0173 48.3221 12.1958 48.1304 13.1831 47.7469C14.1705 47.3314 14.9827 46.8041 15.6198 46.1649C16.2568 45.4938 16.7186 44.7587 17.0053 43.9597C17.3238 43.1608 17.4831 42.3458 17.4831 41.5149C17.4831 40.4602 17.2601 39.5813 16.8142 38.8782C16.3683 38.1432 15.779 37.504 15.0465 36.9607C14.3457 36.4174 13.5335 35.954 12.6098 35.5705C11.6861 35.187 10.7465 34.8035 9.79098 34.4199C8.70803 34.0045 7.64101 33.573 6.58991 33.1256C5.53882 32.6782 4.5992 32.1349 3.77107 31.4957C2.94293 30.8245 2.27405 30.0415 1.76443 29.1467C1.25481 28.2199 1 27.0853 1 25.743C1 24.3368 1.27074 23.1224 1.81221 22.0997C2.35368 21.0451 3.07034 20.1822 3.96218 19.511C4.88587 18.8399 5.92104 18.3445 7.06768 18.0249C8.24618 17.6734 9.44061 17.4976 10.651 17.4976C11.4791 17.4976 12.2595 17.5615 12.992 17.6894C13.7246 17.7852 14.4253 17.9131 15.0942 18.0729C15.6357 18.2007 16.1612 18.3126 16.6709 18.4084C17.1805 18.4724 17.6742 18.5043 18.152 18.5043V23.442H17.6742C17.6105 21.7801 16.9575 20.6616 15.7153 20.0863C14.4731 19.4791 12.7532 19.1755 10.5554 19.1755C9.28135 19.1755 8.23026 19.3992 7.40212 19.8466C6.60584 20.2621 5.96881 20.7894 5.49104 21.4286C5.01327 22.0358 4.67883 22.7069 4.48772 23.442C4.32847 24.1451 4.24884 24.7683 4.24884 25.3116C4.24884 26.2065 4.43995 26.9735 4.82216 27.6127C5.23623 28.2518 5.7777 28.8111 6.44658 29.2905C7.11546 29.7699 7.87989 30.2013 8.73988 30.5849C9.63172 30.9684 10.5554 31.3359 11.511 31.6874C12.5939 32.1029 13.6928 32.5503 14.8076 33.0297C15.9224 33.5091 16.9098 34.1003 17.7697 34.8035C18.6616 35.5065 19.3782 36.3694 19.9197 37.3921C20.493 38.4148 20.7797 39.6612 20.7797 41.1314Z" fill="#E8C548"/>
</g>
<defs>
<filter id="filter0_d_20:130" x="35.864" y="8.16" width="128.955" height="48.248" filterUnits="userSpaceOnUse" color-interpolation-filters="sRGB">
<feFlood flood-opacity="0" result="BackgroundImageFix"/>
<feColorMatrix in="SourceAlpha" type="matrix" values="0 0 0 0 0 0 0 0 0 0 0 0 0 0 0 0 0 0 127 0" result="hardAlpha"/>
<feOffset dx="2" dy="3"/>
<feGaussianBlur stdDeviation="1.5"/>
<feComposite in2="hardAlpha" operator="out"/>
<feColorMatrix type="matrix" values="0 0 0 0 0 0 0 0 0 0 0 0 0 0 0 0 0 0 0.2 0"/>
<feBlend mode="normal" in2="BackgroundImageFix" result="effect1_dropShadow_20:130"/>
<feBlend mode="normal" in="SourceGraphic" in2="effect1_dropShadow_20:130" result="shape"/>
</filter>
<filter id="filter1_di_20:130" x="0" y="0" width="30" height="56" filterUnits="userSpaceOnUse" color-interpolation-filters="sRGB">
<feFlood flood-opacity="0" result="BackgroundImageFix"/>
<feColorMatrix in="SourceAlpha" type="matrix" values="0 0 0 0 0 0 0 0 0 0 0 0 0 0 0 0 0 0 127 0" result="hardAlpha"/>
<feOffset dx="2" dy="3"/>
<feGaussianBlur stdDeviation="1.5"/>
<feComposite in2="hardAlpha" operator="out"/>
<feColorMatrix type="matrix" values="0 0 0 0 0.0958333 0 0 0 0 0.0958333 0 0 0 0 0.0958333 0 0 0 0.4 0"/>
<feBlend mode="normal" in2="BackgroundImageFix" result="effect1_dropShadow_20:130"/>
<feBlend mode="normal" in="SourceGraphic" in2="effect1_dropShadow_20:130" result="shape"/>
<feColorMatrix in="SourceAlpha" type="matrix" values="0 0 0 0 0 0 0 0 0 0 0 0 0 0 0 0 0 0 127 0" result="hardAlpha"/>
<feOffset dy="1"/>
<feGaussianBlur stdDeviation="2"/>
<feComposite in2="hardAlpha" operator="arithmetic" k2="-1" k3="1"/>
<feColorMatrix type="matrix" values="0 0 0 0 0 0 0 0 0 0 0 0 0 0 0 0 0 0 0.05 0"/>
<feBlend mode="normal" in2="shape" result="effect2_innerShadow_20:130"/>
</filter>
</defs>
</svg>
