<svg width="24" height="24" viewBox="0 0 24 24" fill="none" xmlns="http://www.w3.org/2000/svg">
<g clip-path="url(#clip0_55_34)">
<path d="M0.906708 24L2.52896 17.837C1.52791 16.033 1.00191 13.988 1.00287 11.891C1.00575 5.335 6.136 0 12.4394 0C15.4983 0.001 18.3697 1.24 20.5295 3.488C22.6884 5.736 23.8769 8.724 23.876 11.902C23.8731 18.459 18.7428 23.794 12.4394 23.794C10.5258 23.793 8.64006 23.294 6.96973 22.346L0.906708 24ZM7.25052 20.193C8.86219 21.188 10.4008 21.784 12.4356 21.785C17.6745 21.785 21.9422 17.351 21.945 11.9C21.947 6.438 17.6995 2.01 12.4433 2.008C7.20051 2.008 2.93573 6.442 2.9338 11.892C2.93284 14.117 3.55982 15.783 4.61279 17.526L3.65213 21.174L7.25052 20.193ZM18.2005 14.729C18.1293 14.605 17.9389 14.531 17.6524 14.382C17.3668 14.233 15.9618 13.514 15.6993 13.415C15.4378 13.316 15.2474 13.266 15.056 13.564C14.8656 13.861 14.3175 14.531 14.1511 14.729C13.9847 14.927 13.8174 14.952 13.5318 14.803C13.2462 14.654 12.325 14.341 11.2336 13.328C10.3844 12.54 9.81035 11.567 9.64399 11.269C9.47763 10.972 9.62668 10.811 9.769 10.663C9.89786 10.53 10.0546 10.316 10.1979 10.142C10.3431 9.97 10.3902 9.846 10.4864 9.647C10.5816 9.449 10.5345 9.275 10.4623 9.126C10.3902 8.978 9.81901 7.515 9.58149 6.92C9.34877 6.341 9.11318 6.419 8.93816 6.41L8.39004 6.4C8.19964 6.4 7.89 6.474 7.62844 6.772C7.36687 7.07 6.62835 7.788 6.62835 9.251C6.62835 10.714 7.65248 12.127 7.7948 12.325C7.93808 12.523 9.80939 15.525 12.676 16.812C13.3578 17.118 13.8905 17.301 14.305 17.438C14.9896 17.664 15.6128 17.632 16.1051 17.556C16.6542 17.471 17.7957 16.837 18.0341 16.143C18.2726 15.448 18.2726 14.853 18.2005 14.729Z" fill="#E8C548"/>
</g>
<defs>
<clipPath id="clip0_55_34">
<rect width="23.0789" height="24" fill="white" transform="translate(0.852875)"/>
</clipPath>
</defs>
</svg>
