<svg width="60" height="60" viewBox="0 0 60 60" fill="none" xmlns="http://www.w3.org/2000/svg">
<rect width="60" height="60" rx="10" fill="black"/>
<path d="M24.4114 36.1601H24.6503C24.9051 36.1601 25.1281 36.0802 25.3192 35.9204C25.5103 35.7287 25.6695 35.505 25.7969 35.2493C25.9562 34.9936 26.0677 34.722 26.1314 34.4343C26.2269 34.1467 26.2747 33.875 26.2747 33.6194V7.97219C26.2747 7.74848 26.2269 7.49281 26.1314 7.20518C26.0677 6.91755 25.9562 6.64589 25.7969 6.39022C25.6695 6.13455 25.5103 5.92681 25.3192 5.76702C25.1281 5.57526 24.9051 5.47939 24.6503 5.47939H24.4114V5H31.2913V5.47939H31.0524C30.7976 5.47939 30.5747 5.57526 30.3835 5.76702C30.1924 5.92681 30.0332 6.13455 29.9058 6.39022C29.7784 6.64589 29.6669 6.91755 29.5713 7.20518C29.5076 7.49281 29.4758 7.74848 29.4758 7.97219V34.8658H39.939C40.5441 34.8658 41.0697 34.722 41.5156 34.4343C41.9615 34.1467 42.3278 33.7951 42.6145 33.3797C42.933 32.9322 43.1559 32.4688 43.2833 31.9895C43.4426 31.4781 43.5222 31.0147 43.5222 30.5992H44V36.6395H24.4114V36.1601Z" fill="#E8C548"/>
<path d="M39.7797 46.1314C39.7797 47.7293 39.4612 49.1035 38.8242 50.2541C38.1871 51.3726 37.359 52.2835 36.3397 52.9866C35.3524 53.6897 34.2216 54.201 32.9476 54.5206C31.7054 54.8402 30.4632 55 29.221 55C27.9469 55 26.848 54.8722 25.9244 54.6165C25.0007 54.3608 24.1566 54.1211 23.3922 53.8974C22.8825 53.7376 22.4207 53.6098 22.0066 53.5139C21.5926 53.3861 21.1785 53.3221 20.7644 53.3221V47.8571H21.2422C21.2422 49.0716 21.5448 50.0463 22.15 50.7814C22.787 51.4845 23.5196 52.0278 24.3477 52.4113C25.1758 52.7948 26.004 53.0505 26.8321 53.1783C27.6603 53.2742 28.2654 53.3221 28.6476 53.3221C30.0173 53.3221 31.1958 53.1304 32.1831 52.7469C33.1705 52.3314 33.9827 51.8041 34.6198 51.1649C35.2568 50.4938 35.7186 49.7587 36.0053 48.9597C36.3238 48.1608 36.4831 47.3458 36.4831 46.5149C36.4831 45.4602 36.2601 44.5813 35.8142 43.8782C35.3683 43.1432 34.779 42.504 34.0465 41.9607C33.3457 41.4174 32.5335 40.954 31.6098 40.5705C30.6861 40.187 29.7465 39.8035 28.791 39.4199C27.708 39.0045 26.641 38.573 25.5899 38.1256C24.5388 37.6782 23.5992 37.1349 22.7711 36.4957C21.9429 35.8245 21.2741 35.0415 20.7644 34.1467C20.2548 33.2199 20 32.0853 20 30.743C20 29.3368 20.2707 28.1224 20.8122 27.0997C21.3537 26.0451 22.0703 25.1822 22.9622 24.511C23.8859 23.8399 24.921 23.3445 26.0677 23.0249C27.2462 22.6734 28.4406 22.4976 29.651 22.4976C30.4791 22.4976 31.2595 22.5615 31.992 22.6894C32.7246 22.7852 33.4253 22.9131 34.0942 23.0729C34.6357 23.2007 35.1612 23.3126 35.6709 23.4084C36.1805 23.4724 36.6742 23.5043 37.152 23.5043V28.442H36.6742C36.6105 26.7801 35.9575 25.6616 34.7153 25.0863C33.4731 24.4791 31.7532 24.1755 29.5554 24.1755C28.2814 24.1755 27.2303 24.3992 26.4021 24.8466C25.6058 25.2621 24.9688 25.7894 24.491 26.4286C24.0133 27.0358 23.6788 27.7069 23.4877 28.442C23.3285 29.1451 23.2488 29.7683 23.2488 30.3116C23.2488 31.2065 23.4399 31.9735 23.8222 32.6127C24.2362 33.2518 24.7777 33.8111 25.4466 34.2905C26.1155 34.7699 26.8799 35.2013 27.7399 35.5849C28.6317 35.9684 29.5554 36.3359 30.511 36.6874C31.5939 37.1029 32.6928 37.5503 33.8076 38.0297C34.9224 38.5091 35.9098 39.1003 36.7697 39.8034C37.6616 40.5066 38.3782 41.3694 38.9197 42.3921C39.493 43.4148 39.7797 44.6612 39.7797 46.1314Z" fill="#E8C548"/>
</svg>
