<svg width="500" height="253" viewBox="0 0 500 253" fill="none" xmlns="http://www.w3.org/2000/svg">
<g clip-path="url(#clip0_403_45)">
<g filter="url(#filter0_d_403_45)">
<path d="M135.684 76.2807H136.14C136.627 76.2807 137.053 76.1286 137.418 75.8246C137.782 75.4597 138.086 75.0339 138.33 74.5474C138.634 74.0609 138.847 73.5439 138.968 72.9965C139.151 72.4492 139.242 71.9321 139.242 71.4456V22.6386C139.242 22.2128 139.151 21.7263 138.968 21.179C138.847 20.6316 138.634 20.1146 138.33 19.6281C138.086 19.1416 137.782 18.7462 137.418 18.4421C137.053 18.0772 136.627 17.8948 136.14 17.8948H135.684V16.9825H148.821V17.8948H148.365C147.878 17.8948 147.453 18.0772 147.088 18.4421C146.723 18.7462 146.419 19.1416 146.175 19.6281C145.932 20.1146 145.719 20.6316 145.537 21.179C145.415 21.7263 145.354 22.2128 145.354 22.6386V73.8176H165.333C166.489 73.8176 167.492 73.5439 168.344 72.9965C169.195 72.4492 169.895 71.7802 170.442 70.9895C171.05 70.1381 171.476 69.2562 171.719 68.3439C172.023 67.3707 172.175 66.489 172.175 65.6983H173.088V77.193H135.684V76.2807ZM206.737 77.193V72.5404L206.281 72.9965C204.76 74.5171 202.996 75.703 200.989 76.5544C199.044 77.4058 196.672 77.8316 193.874 77.8316C191.746 77.8316 189.921 77.5883 188.4 77.1018C186.879 76.6153 185.633 75.9462 184.66 75.0948C183.686 74.1825 182.956 73.1486 182.47 71.993C182.044 70.8374 181.832 69.6211 181.832 68.3439C181.832 66.276 182.379 64.4514 183.474 62.8702C184.63 61.289 186.272 59.89 188.4 58.6737C190.528 57.4574 193.114 56.3627 196.154 55.3895C199.256 54.3556 202.784 53.3521 206.737 52.379C206.616 50.007 206.128 48.0913 205.277 46.6316C204.426 45.172 203.423 44.0469 202.267 43.2562C201.111 42.4048 199.895 41.8574 198.618 41.6141C197.34 41.31 196.246 41.1579 195.333 41.1579C193.753 41.1579 192.353 41.4013 191.137 41.8877C189.981 42.3742 188.947 43.0128 188.035 43.8035C187.184 44.5334 186.454 45.3544 185.846 46.2667C185.237 47.1181 184.751 47.9391 184.386 48.7299H183.565V42.0702C184.051 42.0093 184.507 41.8574 184.933 41.6141C185.36 41.3707 185.875 41.1276 186.484 40.8842C187.396 40.5193 188.644 40.0023 190.225 39.3334C191.805 38.6035 194.026 38.2386 196.884 38.2386C200.23 38.2386 202.935 38.6644 205.004 39.5158C207.072 40.3672 208.653 41.4925 209.747 42.8913C210.904 44.29 211.663 45.9018 212.028 47.7263C212.393 49.49 212.575 51.3146 212.575 53.2V71.2632C212.575 72.4795 212.849 73.6351 213.396 74.7299C213.944 75.7637 214.674 76.2807 215.586 76.2807V77.193H206.737ZM206.737 68.5263V55.4807L205.825 55.6632C204.365 56.0281 202.57 56.5146 200.442 57.1228C198.374 57.7311 196.398 58.5216 194.512 59.4948C192.626 60.4679 191.016 61.6234 189.677 62.9614C188.339 64.2995 187.67 65.8504 187.67 67.6141C187.67 69.5602 188.461 71.172 190.042 72.4492C191.623 73.7263 193.691 74.3649 196.246 74.3649C198.253 74.3649 200.016 73.9392 201.537 73.0877C203.058 72.1755 204.456 71.0199 205.733 69.6211L206.737 68.5263ZM251.168 45.5369C250.439 44.3206 249.677 43.5602 248.888 43.2562C248.096 42.9521 247.184 42.8 246.151 42.8C245.481 42.8 244.751 42.9521 243.961 43.2562C243.232 43.5602 242.502 43.9556 241.772 44.4421C241.042 44.9286 240.312 45.476 239.582 46.0842C238.912 46.6316 238.335 47.1486 237.849 47.6351V71.3544C237.849 71.8409 237.909 72.3579 238.032 72.9053C238.153 73.4527 238.335 74 238.579 74.5474C238.882 75.0339 239.186 75.4597 239.491 75.8246C239.856 76.1286 240.281 76.2807 240.768 76.2807V77.193H228.909V76.2807C229.333 76.2807 229.73 76.1286 230.095 75.8246C230.46 75.4597 230.763 75.0339 231.007 74.5474C231.311 74 231.523 73.4527 231.646 72.9053C231.767 72.3579 231.828 71.8409 231.828 71.3544V45.9018C231.828 45.0504 231.554 44.1988 231.007 43.3474C230.46 42.496 229.668 41.9486 228.635 41.7053V40.9755L237.849 38.2386V43.7123C238.397 43.0434 238.974 42.4048 239.582 41.7965C240.189 41.1276 240.86 40.5497 241.589 40.0632C242.379 39.5158 243.232 39.09 244.144 38.786C245.056 38.4211 246.119 38.2386 247.337 38.2386C248.188 38.2386 249.282 38.4211 250.621 38.786C251.958 39.1509 253.053 39.5462 253.905 39.972L251.168 45.5369ZM265.482 77.193V76.2807C265.968 76.2807 266.395 76.0983 266.76 75.7334C267.125 75.3684 267.428 74.9427 267.672 74.4562C267.916 73.9697 268.098 73.4527 268.219 72.9053C268.34 72.297 268.402 71.7497 268.402 71.2632V45.993C268.402 44.9592 268.249 43.986 267.946 43.0737C267.642 42.1006 266.76 41.5837 265.3 41.5228V40.7018L274.423 37.7825V71.2632C274.423 71.7497 274.484 72.297 274.605 72.9053C274.726 73.4527 274.909 73.9697 275.153 74.4562C275.397 74.9427 275.7 75.3684 276.065 75.7334C276.43 76.0983 276.856 76.2807 277.342 76.2807V77.193H265.482ZM265.939 29.0246C265.939 27.8083 266.333 26.7742 267.125 25.9228C267.975 25.0714 269.011 24.6456 270.226 24.6456C271.442 24.6456 272.477 25.0714 273.328 25.9228C274.179 26.7742 274.605 27.8083 274.605 29.0246C274.605 30.2409 274.179 31.2444 273.328 32.0351C272.477 32.8258 271.442 33.2211 270.226 33.2211C269.011 33.2211 267.975 32.8258 267.125 32.0351C266.333 31.2444 265.939 30.2409 265.939 29.0246ZM321.312 66.793C321.312 68.3742 320.916 69.8339 320.126 71.172C319.335 72.51 318.24 73.696 316.842 74.7299C315.504 75.703 313.923 76.4935 312.098 77.1018C310.274 77.6492 308.297 77.9228 306.168 77.9228C303.553 77.9228 301.425 77.5883 299.782 76.9193C298.14 76.1895 296.74 75.4597 295.586 74.7299C294.795 74.2434 294.065 73.8479 293.396 73.5439C292.726 73.179 291.997 72.9965 291.207 72.9965V66.0632H292.119C292.302 66.9146 292.818 67.8574 293.67 68.8913C294.582 69.8644 295.646 70.7767 296.863 71.6281C298.14 72.4795 299.509 73.2093 300.968 73.8176C302.488 74.3649 304.009 74.6386 305.53 74.6386C306.625 74.6386 307.749 74.517 308.905 74.2737C310.06 74.0304 311.095 73.6351 312.007 73.0877C312.979 72.5404 313.77 71.8714 314.379 71.0807C315.047 70.2293 315.382 69.2258 315.382 68.0702C315.382 66.9146 315.047 65.9111 314.379 65.0597C313.709 64.2083 312.858 63.4784 311.825 62.8702C310.789 62.2013 309.604 61.6234 308.267 61.1369C306.928 60.6504 305.589 60.1942 304.253 59.7685C302.67 59.282 301.06 58.7346 299.418 58.1263C297.835 57.5181 296.407 56.8188 295.13 56.0281C293.853 55.1767 292.818 54.1732 292.028 53.0176C291.237 51.8013 290.842 50.372 290.842 48.7299C290.842 47.3311 291.084 45.993 291.572 44.7158C292.119 43.4386 292.97 42.3439 294.126 41.4316C295.342 40.4584 296.893 39.6983 298.779 39.1509C300.663 38.5427 302.944 38.2386 305.621 38.2386C307.993 38.2386 309.818 38.4514 311.095 38.8772C312.432 39.2421 313.526 39.6374 314.379 40.0632C314.926 40.3672 315.474 40.6106 316.021 40.793C316.568 40.9146 317.175 40.9755 317.846 40.9755V47.3614H317.116C316.021 45.3544 314.347 43.8339 312.098 42.8C309.847 41.7662 307.537 41.2491 305.165 41.2491C303.644 41.2491 302.337 41.462 301.242 41.8877C300.147 42.2527 299.235 42.7392 298.505 43.3474C297.835 43.8948 297.319 44.5334 296.954 45.2632C296.649 45.993 296.498 46.7228 296.498 47.4527C296.498 48.4865 296.772 49.3684 297.319 50.0983C297.926 50.8281 298.718 51.4667 299.691 52.0141C300.725 52.5614 301.849 53.0784 303.067 53.5649C304.344 54.0514 305.681 54.5076 307.081 54.9334C308.782 55.4807 310.486 56.089 312.189 56.7579C313.891 57.3662 315.412 58.1263 316.751 59.0386C318.088 59.9509 319.182 61.0456 320.035 62.3228C320.886 63.5391 321.312 65.0293 321.312 66.793ZM363.381 66.793C363.381 68.3742 362.984 69.8339 362.195 71.172C361.404 72.51 360.309 73.696 358.911 74.7299C357.572 75.703 355.991 76.4935 354.167 77.1018C352.342 77.6492 350.365 77.9228 348.237 77.9228C345.621 77.9228 343.493 77.5883 341.851 76.9193C340.209 76.1895 338.809 75.4597 337.654 74.7299C336.863 74.2434 336.133 73.8479 335.465 73.5439C334.795 73.179 334.065 72.9965 333.275 72.9965V66.0632H334.188C334.37 66.9146 334.886 67.8574 335.739 68.8913C336.651 69.8644 337.714 70.7767 338.932 71.6281C340.209 72.4795 341.577 73.2093 343.037 73.8176C344.556 74.3649 346.077 74.6386 347.598 74.6386C348.693 74.6386 349.818 74.517 350.974 74.2737C352.128 74.0304 353.163 73.6351 354.075 73.0877C355.047 72.5404 355.839 71.8714 356.447 71.0807C357.116 70.2293 357.451 69.2258 357.451 68.0702C357.451 66.9146 357.116 65.9111 356.447 65.0597C355.777 64.2083 354.926 63.4784 353.893 62.8702C352.858 62.2013 351.672 61.6234 350.335 61.1369C348.996 60.6504 347.658 60.1942 346.321 59.7685C344.739 59.282 343.128 58.7346 341.486 58.1263C339.904 57.5181 338.475 56.8188 337.198 56.0281C335.921 55.1767 334.886 54.1732 334.096 53.0176C333.305 51.8013 332.911 50.372 332.911 48.7299C332.911 47.3311 333.153 45.993 333.64 44.7158C334.188 43.4386 335.039 42.3439 336.195 41.4316C337.411 40.4584 338.961 39.6983 340.847 39.1509C342.732 38.5427 345.012 38.2386 347.689 38.2386C350.061 38.2386 351.886 38.4514 353.163 38.8772C354.5 39.2421 355.595 39.6374 356.447 40.0632C356.995 40.3672 357.542 40.6106 358.089 40.793C358.637 40.9146 359.244 40.9755 359.914 40.9755V47.3614H359.184C358.089 45.3544 356.416 43.8339 354.167 42.8C351.916 41.7662 349.605 41.2491 347.233 41.2491C345.712 41.2491 344.405 41.462 343.311 41.8877C342.216 42.2527 341.304 42.7392 340.574 43.3474C339.904 43.8948 339.388 44.5334 339.023 45.2632C338.718 45.993 338.567 46.7228 338.567 47.4527C338.567 48.4865 338.84 49.3684 339.388 50.0983C339.995 50.8281 340.786 51.4667 341.76 52.0141C342.793 52.5614 343.918 53.0784 345.135 53.5649C346.412 54.0514 347.749 54.5076 349.149 54.9334C350.851 55.4807 352.554 56.089 354.258 56.7579C355.96 57.3662 357.481 58.1263 358.819 59.0386C360.156 59.9509 361.251 61.0456 362.104 62.3228C362.954 63.5391 363.381 65.0293 363.381 66.793ZM399.884 77.193V72.5404L399.428 72.9965C397.907 74.5171 396.144 75.703 394.137 76.5544C392.19 77.4058 389.818 77.8316 387.021 77.8316C384.891 77.8316 383.067 77.5883 381.547 77.1018C380.026 76.6153 378.779 75.9462 377.807 75.0948C376.833 74.1825 376.104 73.1486 375.618 71.993C375.191 70.8374 374.979 69.6211 374.979 68.3439C374.979 66.276 375.526 64.4514 376.621 62.8702C377.775 61.289 379.418 59.89 381.547 58.6737C383.675 57.4574 386.26 56.3627 389.302 55.3895C392.404 54.3556 395.93 53.3521 399.884 52.379C399.761 50.007 399.275 48.0913 398.425 46.6316C397.572 45.172 396.568 44.0469 395.414 43.2562C394.258 42.4048 393.042 41.8574 391.765 41.6141C390.488 41.31 389.393 41.1579 388.481 41.1579C386.898 41.1579 385.5 41.4013 384.284 41.8877C383.128 42.3742 382.095 43.0128 381.182 43.8035C380.33 44.5334 379.6 45.3544 378.993 46.2667C378.384 47.1181 377.898 47.9391 377.533 48.7299H376.712V42.0702C377.198 42.0093 377.654 41.8574 378.081 41.6141C378.505 41.3707 379.023 41.1276 379.632 40.8842C380.544 40.5193 381.789 40.0023 383.372 39.3334C384.953 38.6035 387.172 38.2386 390.032 38.2386C393.375 38.2386 396.082 38.6644 398.151 39.5158C400.218 40.3672 401.8 41.4925 402.895 42.8913C404.049 44.29 404.811 45.9018 405.175 47.7263C405.54 49.49 405.723 51.3146 405.723 53.2V71.2632C405.723 72.4795 405.997 73.6351 406.544 74.7299C407.091 75.7637 407.821 76.2807 408.733 76.2807V77.193H399.884ZM399.884 68.5263V55.4807L398.972 55.6632C397.512 56.0281 395.718 56.5146 393.589 57.1228C391.521 57.7311 389.544 58.5216 387.66 59.4948C385.774 60.4679 384.161 61.6234 382.825 62.9614C381.486 64.2995 380.818 65.8504 380.818 67.6141C380.818 69.5602 381.607 71.172 383.189 72.4492C384.77 73.7263 386.839 74.3649 389.393 74.3649C391.4 74.3649 393.163 73.9392 394.684 73.0877C396.204 72.1755 397.604 71.0199 398.881 69.6211L399.884 68.5263ZM172.632 161.046C172.632 164.087 172.023 166.702 170.807 168.891C169.591 171.02 168.009 172.753 166.063 174.091C164.178 175.429 162.019 176.402 159.586 177.011C157.214 177.619 154.842 177.923 152.47 177.923C150.037 177.923 147.939 177.679 146.175 177.193C144.412 176.707 142.8 176.251 141.34 175.825C140.367 175.521 139.485 175.277 138.695 175.095C137.904 174.851 137.114 174.73 136.323 174.73V164.33H137.235C137.235 166.641 137.813 168.496 138.968 169.895C140.185 171.233 141.584 172.267 143.165 172.997C144.746 173.726 146.328 174.213 147.909 174.456C149.49 174.639 150.646 174.73 151.375 174.73C153.991 174.73 156.241 174.365 158.126 173.635C160.012 172.844 161.563 171.841 162.779 170.625C163.995 169.347 164.877 167.949 165.425 166.428C166.033 164.908 166.337 163.357 166.337 161.775C166.337 159.768 165.911 158.096 165.06 156.758C164.208 155.359 163.083 154.143 161.684 153.109C160.346 152.075 158.795 151.193 157.032 150.463C155.268 149.733 153.474 149.004 151.649 148.274C149.581 147.483 147.544 146.662 145.537 145.811C143.53 144.959 141.736 143.925 140.154 142.709C138.573 141.432 137.296 139.942 136.323 138.239C135.35 136.475 134.863 134.316 134.863 131.761C134.863 129.085 135.38 126.774 136.414 124.828C137.448 122.821 138.816 121.179 140.519 119.902C142.283 118.625 144.26 117.682 146.449 117.074C148.699 116.405 150.98 116.07 153.291 116.07C154.872 116.07 156.363 116.192 157.761 116.435C159.16 116.618 160.498 116.861 161.775 117.165C162.809 117.408 163.813 117.621 164.786 117.804C165.759 117.925 166.702 117.986 167.614 117.986V127.382H166.702C166.58 124.22 165.333 122.091 162.961 120.997C160.589 119.841 157.305 119.263 153.109 119.263C150.676 119.263 148.669 119.689 147.088 120.54C145.567 121.331 144.351 122.335 143.439 123.551C142.526 124.707 141.888 125.984 141.523 127.382C141.219 128.721 141.067 129.907 141.067 130.94C141.067 132.643 141.432 134.103 142.161 135.319C142.952 136.536 143.986 137.6 145.263 138.512C146.54 139.425 148 140.246 149.642 140.975C151.345 141.705 153.109 142.405 154.933 143.074C157.001 143.864 159.099 144.716 161.228 145.628C163.357 146.54 165.242 147.665 166.884 149.004C168.587 150.342 169.956 151.984 170.989 153.93C172.084 155.876 172.632 158.248 172.632 161.046ZM186.246 177.193V176.281C186.733 176.281 187.158 176.098 187.523 175.733C187.888 175.368 188.193 174.943 188.435 174.456C188.679 173.97 188.861 173.453 188.982 172.905C189.105 172.297 189.165 171.75 189.165 171.263V145.993C189.165 144.959 189.014 143.986 188.709 143.074C188.405 142.101 187.523 141.584 186.063 141.523V140.702L195.186 137.782V171.263C195.186 171.75 195.247 172.297 195.368 172.905C195.491 173.453 195.674 173.97 195.916 174.456C196.16 174.943 196.463 175.368 196.828 175.733C197.193 176.098 197.619 176.281 198.105 176.281V177.193H186.246ZM186.702 129.025C186.702 127.808 187.098 126.774 187.888 125.923C188.74 125.071 189.774 124.646 190.989 124.646C192.207 124.646 193.24 125.071 194.091 125.923C194.944 126.774 195.368 127.808 195.368 129.025C195.368 130.241 194.944 131.244 194.091 132.035C193.24 132.826 192.207 133.221 190.989 133.221C189.774 133.221 188.74 132.826 187.888 132.035C187.098 131.244 186.702 130.241 186.702 129.025ZM212.791 177.193V176.281C213.277 176.281 213.704 176.098 214.068 175.733C214.433 175.368 214.737 174.943 214.981 174.456C215.284 173.97 215.498 173.453 215.619 172.905C215.74 172.297 215.802 171.75 215.802 171.263V124.554C215.802 123.521 215.649 122.547 215.346 121.635C215.042 120.723 214.13 120.236 212.609 120.175V119.263L221.823 116.435V171.263C221.823 171.75 221.884 172.297 222.005 172.905C222.126 173.453 222.309 173.97 222.553 174.456C222.856 174.943 223.161 175.368 223.465 175.733C223.83 176.098 224.256 176.281 224.742 176.281V177.193H212.791ZM274.958 138.877V139.79C274.532 139.79 274.107 139.942 273.681 140.246C273.254 140.55 272.83 140.945 272.404 141.432C272.039 141.918 271.674 142.465 271.309 143.074C271.005 143.621 270.732 144.138 270.488 144.625L254.796 178.744L239.196 144.26C238.77 143.287 238.223 142.314 237.554 141.34C236.886 140.307 236.033 139.79 235 139.79V138.877H247.498V139.79C247.133 139.79 246.647 139.972 246.039 140.337C245.491 140.702 245.218 141.219 245.218 141.888C245.218 142.192 245.461 142.891 245.947 143.986L256.439 167.614L267.751 142.982C267.995 142.374 268.116 141.918 268.116 141.614C268.116 141.067 267.842 140.641 267.295 140.337C266.809 139.972 266.382 139.79 266.018 139.79V138.877H274.958ZM290.177 158.765C290.419 160.894 290.937 162.931 291.728 164.877C292.518 166.763 293.553 168.435 294.83 169.895C296.167 171.354 297.779 172.54 299.665 173.453C301.549 174.304 303.739 174.73 306.233 174.73C307.57 174.73 308.97 174.547 310.43 174.182C311.949 173.757 313.349 173.179 314.626 172.449C315.904 171.719 317.028 170.837 318.002 169.804C319.035 168.709 319.735 167.492 320.1 166.154H320.921V172.997C320.556 172.997 320.13 173.118 319.644 173.361C319.218 173.605 318.7 173.909 318.093 174.274C316.875 175.004 315.233 175.795 313.167 176.646C311.098 177.437 308.361 177.832 304.956 177.832C302.219 177.832 299.604 177.437 297.111 176.646C294.677 175.854 292.518 174.639 290.633 172.997C288.747 171.354 287.226 169.256 286.072 166.702C284.977 164.147 284.43 161.107 284.43 157.579C284.43 155.329 284.795 153.048 285.525 150.737C286.314 148.426 287.47 146.358 288.991 144.533C290.572 142.648 292.579 141.128 295.012 139.972C297.444 138.816 300.363 138.239 303.77 138.239C306.811 138.239 309.456 138.756 311.707 139.79C314.018 140.823 315.904 142.253 317.363 144.077C318.882 145.902 320.009 148.061 320.739 150.554C321.468 153.048 321.833 155.785 321.833 158.765H290.177ZM303.405 141.249C301.275 141.249 299.421 141.675 297.84 142.526C296.319 143.378 295.012 144.472 293.918 145.811C292.823 147.149 291.97 148.669 291.363 150.372C290.754 152.075 290.36 153.778 290.177 155.481H316.177C316.116 153.717 315.781 151.984 315.174 150.281C314.626 148.578 313.835 147.057 312.802 145.719C311.767 144.381 310.46 143.317 308.879 142.526C307.297 141.675 305.472 141.249 303.405 141.249ZM360.975 166.793C360.975 168.374 360.579 169.834 359.79 171.172C358.998 172.51 357.904 173.696 356.505 174.73C355.167 175.704 353.586 176.493 351.761 177.102C349.937 177.649 347.96 177.923 345.832 177.923C343.216 177.923 341.088 177.588 339.446 176.919C337.804 176.19 336.404 175.46 335.249 174.73C334.458 174.243 333.728 173.848 333.06 173.544C332.389 173.179 331.66 172.997 330.87 172.997V166.063H331.782C331.965 166.915 332.481 167.857 333.333 168.891C334.246 169.864 335.309 170.777 336.526 171.628C337.804 172.48 339.172 173.209 340.632 173.818C342.151 174.365 343.672 174.639 345.193 174.639C346.288 174.639 347.412 174.517 348.568 174.274C349.723 174.03 350.758 173.635 351.67 173.088C352.642 172.54 353.433 171.871 354.042 171.081C354.711 170.229 355.046 169.226 355.046 168.07C355.046 166.915 354.711 165.911 354.042 165.06C353.372 164.208 352.521 163.478 351.488 162.87C350.453 162.201 349.267 161.623 347.93 161.137C346.591 160.65 345.253 160.194 343.916 159.768C342.333 159.282 340.723 158.735 339.081 158.126C337.498 157.518 336.07 156.819 334.793 156.028C333.516 155.177 332.481 154.173 331.691 153.018C330.9 151.801 330.505 150.372 330.505 148.73C330.505 147.331 330.747 145.993 331.235 144.716C331.782 143.439 332.633 142.344 333.789 141.432C335.005 140.458 336.556 139.698 338.442 139.151C340.326 138.543 342.607 138.239 345.284 138.239C347.656 138.239 349.481 138.451 350.758 138.877C352.095 139.242 353.189 139.637 354.042 140.063C354.589 140.367 355.137 140.611 355.684 140.793C356.232 140.915 356.839 140.975 357.509 140.975V147.361H356.779C355.684 145.354 354.011 143.834 351.761 142.8C349.511 141.766 347.2 141.249 344.828 141.249C343.307 141.249 342 141.462 340.905 141.888C339.811 142.253 338.898 142.739 338.168 143.347C337.498 143.895 336.982 144.533 336.618 145.263C336.312 145.993 336.161 146.723 336.161 147.453C336.161 148.487 336.435 149.368 336.982 150.098C337.589 150.828 338.381 151.467 339.354 152.014C340.388 152.561 341.512 153.078 342.73 153.565C344.007 154.051 345.344 154.508 346.744 154.933C348.446 155.481 350.149 156.089 351.853 156.758C353.554 157.366 355.075 158.126 356.414 159.039C357.751 159.951 358.846 161.046 359.698 162.323C360.549 163.539 360.975 165.029 360.975 166.793ZM382.335 141.979V163.965C382.335 165.546 382.365 166.975 382.426 168.253C382.486 169.53 382.639 170.594 382.882 171.446C383.125 172.297 383.489 172.966 383.977 173.453C384.463 173.878 385.132 174.091 385.984 174.091C387.261 174.091 388.447 173.483 389.542 172.267C390.696 171.05 391.426 169.591 391.732 167.888H392.553V174.547C392.005 174.547 391.549 174.73 391.184 175.095C390.697 175.521 389.998 175.977 389.086 176.463C388.233 176.949 386.926 177.193 385.163 177.193C382.974 177.193 381.27 176.767 380.054 175.916C378.837 175.064 377.956 173.939 377.409 172.54C376.861 171.142 376.526 169.591 376.405 167.888C376.344 166.185 376.314 164.451 376.314 162.688V141.979H371.205V138.877H376.314V130.758C376.314 129.724 376.161 128.781 375.858 127.93C375.614 127.018 374.732 126.531 373.212 126.47V125.558L382.335 122.639V138.877H392.553V141.979H382.335ZM426.23 145.537C425.5 144.321 424.739 143.56 423.949 143.256C423.158 142.952 422.246 142.8 421.212 142.8C420.542 142.8 419.812 142.952 419.023 143.256C418.293 143.56 417.563 143.956 416.833 144.442C416.104 144.929 415.374 145.476 414.644 146.084C413.974 146.632 413.397 147.149 412.911 147.635V171.354C412.911 171.841 412.97 172.358 413.093 172.905C413.214 173.453 413.396 174 413.64 174.547C413.944 175.034 414.247 175.46 414.553 175.825C414.918 176.128 415.342 176.281 415.83 176.281V177.193H403.97V176.281C404.395 176.281 404.791 176.128 405.156 175.825C405.521 175.46 405.825 175.034 406.068 174.547C406.372 174 406.584 173.453 406.707 172.905C406.828 172.358 406.889 171.841 406.889 171.354V145.902C406.889 145.05 406.616 144.199 406.068 143.347C405.521 142.496 404.73 141.949 403.696 141.705V140.975L412.911 138.239V143.712C413.458 143.043 414.035 142.405 414.644 141.797C415.251 141.128 415.921 140.55 416.651 140.063C417.44 139.516 418.293 139.09 419.205 138.786C420.118 138.421 421.181 138.239 422.398 138.239C423.249 138.239 424.344 138.421 425.682 138.786C427.019 139.151 428.114 139.546 428.967 139.972L426.23 145.537ZM444.284 158.765C444.528 160.894 445.046 162.931 445.835 164.877C446.626 166.763 447.66 168.435 448.937 169.895C450.275 171.354 451.888 172.54 453.772 173.453C455.658 174.304 457.847 174.73 460.34 174.73C461.679 174.73 463.077 174.547 464.537 174.182C466.058 173.757 467.456 173.179 468.733 172.449C470.011 171.719 471.137 170.837 472.109 169.804C473.144 168.709 473.842 167.492 474.207 166.154H475.028V172.997C474.663 172.997 474.239 173.118 473.751 173.361C473.326 173.605 472.809 173.909 472.2 174.274C470.984 175.004 469.342 175.795 467.274 176.646C465.207 177.437 462.47 177.832 459.063 177.832C456.326 177.832 453.712 177.437 451.218 176.646C448.786 175.854 446.626 174.639 444.74 172.997C442.856 171.354 441.335 169.256 440.179 166.702C439.084 164.147 438.537 161.107 438.537 157.579C438.537 155.329 438.902 153.048 439.632 150.737C440.423 148.426 441.579 146.358 443.098 144.533C444.681 142.648 446.688 141.128 449.119 139.972C451.553 138.816 454.472 138.239 457.877 138.239C460.919 138.239 463.565 138.756 465.814 139.79C468.126 140.823 470.011 142.253 471.47 144.077C472.991 145.902 474.116 148.061 474.846 150.554C475.575 153.048 475.94 155.785 475.94 158.765H444.284ZM457.512 141.249C455.384 141.249 453.53 141.675 451.947 142.526C450.428 143.378 449.119 144.472 448.025 145.811C446.93 147.149 446.079 148.669 445.47 150.372C444.863 152.075 444.467 153.778 444.284 155.481H470.284C470.225 153.717 469.889 151.984 469.281 150.281C468.733 148.578 467.944 147.057 466.909 145.719C465.875 144.381 464.568 143.317 462.986 142.526C461.405 141.675 459.581 141.249 457.512 141.249Z" fill="#E8C548"/>
</g>
<g filter="url(#filter1_d_403_45)">
<path d="M26.1001 240.351H15.9746V239.135C16.8655 239.077 17.6022 238.963 18.1846 238.791C18.7787 238.621 19.0755 238.409 19.0755 238.158C19.0755 238.054 19.0641 237.93 19.0413 237.781C19.0185 237.633 18.9843 237.502 18.9385 237.388L16.9169 231.939H8.40192C8.08211 232.739 7.81941 233.435 7.61381 234.028C7.41965 234.623 7.24262 235.172 7.08271 235.674C6.93421 236.165 6.83142 236.565 6.77432 236.874C6.71721 237.181 6.68865 237.433 6.68865 237.626C6.68865 238.084 7.04844 238.439 7.768 238.689C8.48758 238.94 9.29853 239.089 10.2008 239.135V240.351H1.052V239.135C1.34897 239.112 1.72018 239.049 2.16564 238.946C2.61107 238.832 2.97657 238.682 3.26213 238.5C3.71899 238.193 4.07306 237.872 4.32434 237.54C4.57562 237.198 4.8212 236.73 5.06106 236.137C6.28318 233.086 7.63095 229.66 9.10435 225.856C10.5778 222.053 11.8913 218.667 13.0449 215.696H14.4155L22.5192 236.667C22.6906 237.112 22.8848 237.472 23.1018 237.747C23.3188 238.021 23.6215 238.289 24.0097 238.553C24.2725 238.712 24.6151 238.849 25.0378 238.963C25.4604 239.067 25.8144 239.123 26.1001 239.135V240.351ZM16.3001 230.414L12.6166 220.991L9.00156 230.414H16.3001ZM52.0115 228.34C52.0115 230.409 51.623 232.202 50.8464 233.721C50.0697 235.24 49.0588 236.484 47.8139 237.456C46.5576 238.426 45.1469 239.151 43.5822 239.632C42.0174 240.111 40.4011 240.351 38.7336 240.351H28.6595V239.135C28.9908 239.135 29.4192 239.105 29.9446 239.049C30.4813 238.981 30.8355 238.905 31.0067 238.826C31.3494 238.677 31.595 238.461 31.7436 238.175C31.9034 237.877 31.9834 237.525 31.9834 237.112V219.568C31.9834 219.181 31.9148 218.832 31.7778 218.525C31.6522 218.216 31.3951 217.97 31.0067 217.788C30.6527 217.616 30.2701 217.489 29.8588 217.411C29.4478 217.33 29.0936 217.279 28.7967 217.256V216.04H39.419C40.8809 216.04 42.3201 216.268 43.7364 216.725C45.1527 217.17 46.3862 217.775 47.4371 218.54C48.8648 219.558 49.9841 220.888 50.795 222.533C51.606 224.177 52.0115 226.114 52.0115 228.34ZM47.8139 228.325C47.8139 226.691 47.5969 225.218 47.1629 223.904C46.7288 222.579 46.095 221.425 45.2611 220.442C44.473 219.505 43.5022 218.77 42.3487 218.233C41.2064 217.696 39.9329 217.428 38.5279 217.428C38.0597 217.428 37.5287 217.439 36.9346 217.461C36.3522 217.474 35.9181 217.484 35.6325 217.496V236.188C35.6325 237.226 35.9353 237.947 36.5406 238.346C37.146 238.746 38.0769 238.946 39.3332 238.946C40.7837 238.946 42.0516 238.689 43.1367 238.175C44.2218 237.661 45.1013 236.947 45.7751 236.033C46.4832 235.074 46.9972 233.967 47.3171 232.711C47.6483 231.442 47.8139 229.981 47.8139 228.325ZM79.1908 217.256C78.8937 217.267 78.5339 217.337 78.1113 217.461C77.6888 217.575 77.3404 217.719 77.0662 217.889C76.6779 218.13 76.3637 218.439 76.1239 218.816C75.8955 219.191 75.6671 219.637 75.4387 220.151C74.6734 221.967 73.5255 224.8 71.995 228.649C70.4644 232.488 68.8883 236.489 67.2664 240.66H65.8443C64.1997 236.239 62.612 231.979 61.0815 227.879C59.5509 223.777 58.5116 221.009 57.9634 219.568C57.8262 219.214 57.6436 218.907 57.4151 218.644C57.1867 218.37 56.8839 218.112 56.5071 217.874C56.1987 217.679 55.856 217.535 55.479 217.444C55.1022 217.342 54.7537 217.279 54.4339 217.256V216.04H64.4909V217.256C63.6343 217.302 62.909 217.388 62.315 217.512C61.7325 217.639 61.4413 217.861 61.4413 218.181C61.4413 218.307 61.4641 218.456 61.5097 218.626C61.5555 218.798 61.5955 218.935 61.6297 219.039C62.0523 220.158 62.7376 221.984 63.6857 224.521C64.6336 227.044 65.9815 230.642 67.729 235.314C68.5971 233.2 69.5964 230.705 70.7272 227.826C71.8579 224.949 72.6174 222.972 73.0058 221.898C73.3827 220.86 73.5997 220.14 73.6569 219.74C73.7253 219.34 73.7597 219.016 73.7597 218.763C73.7597 218.502 73.6397 218.284 73.3999 218.112C73.1715 217.93 72.863 217.775 72.4746 217.651C72.0978 217.535 71.7151 217.451 71.3267 217.393C70.9385 217.337 70.5444 217.289 70.1446 217.256V216.04H79.1908V217.256ZM101.556 218.918C102.629 220.037 103.469 221.391 104.074 222.979C104.68 224.554 104.982 226.302 104.982 228.221C104.982 230.151 104.674 231.905 104.057 233.481C103.44 235.056 102.584 236.398 101.487 237.507C100.425 238.604 99.1915 239.449 97.7865 240.042C96.3816 240.637 94.8853 240.933 93.2978 240.933C91.6072 240.933 90.0425 240.619 88.6034 239.991C87.1757 239.351 85.9478 238.467 84.9199 237.335C83.892 236.228 83.0809 234.886 82.4871 233.309C81.9044 231.721 81.6132 230.026 81.6132 228.221C81.6132 226.246 81.9216 224.486 82.5385 222.944C83.1551 221.391 84.0062 220.049 85.0913 218.918C86.1648 217.798 87.4099 216.942 88.8262 216.347C90.2539 215.754 91.7444 215.458 93.2978 215.458C94.9083 215.458 96.4273 215.76 97.855 216.365C99.2827 216.97 100.516 217.821 101.556 218.918ZM99.0029 236.153C99.6425 235.114 100.105 233.937 100.391 232.625C100.688 231.311 100.836 229.842 100.836 228.221C100.836 226.553 100.671 225.023 100.339 223.63C100.02 222.235 99.5455 221.047 98.9172 220.067C98.289 219.095 97.5009 218.34 96.553 217.804C95.605 217.256 94.5199 216.982 93.2978 216.982C91.9271 216.982 90.7622 217.296 89.8027 217.925C88.8432 218.553 88.0609 219.391 87.4555 220.442C86.8844 221.447 86.456 222.625 86.1706 223.972C85.8964 225.319 85.7594 226.737 85.7594 228.221C85.7594 229.865 85.9078 231.351 86.2048 232.675C86.5018 234 86.9701 235.177 87.6097 236.205C88.2265 237.211 89.0032 237.998 89.9397 238.568C90.8764 239.128 91.9957 239.409 93.2978 239.409C94.5199 239.409 95.6222 239.123 96.6044 238.553C97.5865 237.981 98.3862 237.181 99.0029 236.153ZM120.494 240.916C119.044 240.916 117.65 240.632 116.314 240.06C114.989 239.488 113.812 238.667 112.784 237.593C111.768 236.519 110.957 235.211 110.352 233.668C109.746 232.116 109.444 230.368 109.444 228.426C109.444 226.484 109.741 224.726 110.334 223.149C110.928 221.561 111.751 220.196 112.802 219.054C113.841 217.925 115.069 217.051 116.485 216.433C117.901 215.818 119.415 215.509 121.025 215.509C122.225 215.509 123.31 215.656 124.28 215.954C125.251 216.251 126.177 216.668 127.056 217.205L127.758 216.04H129.129L129.283 224.709H127.878C127.696 223.863 127.421 222.949 127.056 221.967C126.69 220.974 126.262 220.135 125.771 219.449C125.223 218.672 124.572 218.067 123.818 217.633C123.064 217.188 122.202 216.965 121.231 216.965C120.123 216.965 119.089 217.211 118.13 217.702C117.182 218.193 116.36 218.918 115.663 219.877C115 220.802 114.481 221.979 114.104 223.407C113.727 224.835 113.538 226.428 113.538 228.186C113.538 229.74 113.733 231.168 114.121 232.47C114.521 233.76 115.086 234.896 115.817 235.879C116.548 236.851 117.41 237.611 118.404 238.158C119.409 238.705 120.528 238.981 121.762 238.981C122.687 238.981 123.538 238.837 124.315 238.553C125.091 238.254 125.765 237.867 126.336 237.388C126.907 236.884 127.41 236.314 127.844 235.674C128.278 235.033 128.632 234.337 128.906 233.584L130.191 234.2C129.209 236.611 127.907 238.335 126.285 239.374C124.663 240.402 122.733 240.916 120.494 240.916ZM156.754 240.351H146.628V239.135C147.519 239.077 148.256 238.963 148.838 238.791C149.432 238.621 149.729 238.409 149.729 238.158C149.729 238.054 149.718 237.93 149.695 237.781C149.672 237.633 149.638 237.502 149.592 237.388L147.571 231.939H139.056C138.736 232.739 138.473 233.435 138.268 234.028C138.073 234.623 137.896 235.172 137.737 235.674C137.588 236.165 137.485 236.565 137.428 236.874C137.371 237.181 137.343 237.433 137.343 237.626C137.343 238.084 137.702 238.439 138.422 238.689C139.141 238.94 139.952 239.089 140.855 239.135V240.351H131.706V239.135C132.003 239.112 132.374 239.049 132.819 238.946C133.265 238.832 133.63 238.682 133.916 238.5C134.373 238.193 134.727 237.872 134.978 237.54C135.229 237.198 135.475 236.73 135.715 236.137C136.937 233.086 138.285 229.66 139.758 225.856C141.232 222.053 142.545 218.667 143.699 215.696H145.069L153.173 236.667C153.344 237.112 153.538 237.472 153.755 237.747C153.973 238.021 154.275 238.289 154.664 238.553C154.926 238.712 155.269 238.849 155.691 238.963C156.114 239.067 156.468 239.123 156.754 239.135V240.351ZM146.954 230.414L143.27 220.991L139.655 230.414H146.954ZM170.09 240.916C168.639 240.916 167.246 240.632 165.91 240.06C164.585 239.488 163.408 238.667 162.38 237.593C161.364 236.519 160.553 235.211 159.947 233.668C159.342 232.116 159.039 230.368 159.039 228.426C159.039 226.484 159.336 224.726 159.93 223.149C160.524 221.561 161.346 220.196 162.397 219.054C163.437 217.925 164.664 217.051 166.081 216.433C167.497 215.818 169.01 215.509 170.621 215.509C171.82 215.509 172.905 215.656 173.876 215.954C174.847 216.251 175.772 216.668 176.651 217.205L177.354 216.04H178.725L178.879 224.709H177.474C177.291 223.863 177.018 222.949 176.651 221.967C176.286 220.974 175.858 220.135 175.367 219.449C174.818 218.672 174.167 218.067 173.414 217.633C172.66 217.188 171.797 216.965 170.827 216.965C169.719 216.965 168.685 217.211 167.725 217.702C166.778 218.193 165.955 218.918 165.258 219.877C164.596 220.802 164.076 221.979 163.699 223.407C163.323 224.835 163.134 226.428 163.134 228.186C163.134 229.74 163.328 231.168 163.717 232.47C164.116 233.76 164.682 234.896 165.413 235.879C166.144 236.851 167.006 237.611 168 238.158C169.005 238.705 170.124 238.981 171.358 238.981C172.283 238.981 173.134 238.837 173.91 238.553C174.687 238.254 175.361 237.867 175.932 237.388C176.504 236.884 177.005 236.314 177.44 235.674C177.874 235.033 178.228 234.337 178.502 233.584L179.788 234.2C178.805 236.611 177.502 238.335 175.881 239.374C174.259 240.402 172.328 240.916 170.09 240.916ZM194.305 240.351H183.358V239.135C183.665 239.112 184.111 239.077 184.693 239.032C185.275 238.986 185.688 238.918 185.928 238.826C186.304 238.677 186.579 238.477 186.749 238.226C186.921 237.963 187.007 237.603 187.007 237.147V219.535C187.007 219.135 186.944 218.804 186.818 218.54C186.693 218.267 186.395 218.039 185.928 217.856C185.584 217.719 185.151 217.593 184.625 217.479C184.111 217.353 183.688 217.279 183.358 217.256V216.04H194.305V217.256C193.951 217.267 193.528 217.312 193.037 217.393C192.546 217.461 192.118 217.553 191.753 217.667C191.318 217.804 191.026 218.026 190.879 218.335C190.73 218.644 190.656 218.986 190.656 219.363V236.958C190.656 237.335 190.735 237.672 190.897 237.97C191.067 238.254 191.353 238.484 191.753 238.654C191.993 238.746 192.381 238.849 192.918 238.963C193.465 239.067 193.928 239.123 194.305 239.135V240.351ZM221.775 240.351H211.651V239.135C212.54 239.077 213.277 238.963 213.86 238.791C214.454 238.621 214.751 238.409 214.751 238.158C214.751 238.054 214.74 237.93 214.718 237.781C214.695 237.633 214.66 237.502 214.614 237.388L212.593 231.939H204.077C203.758 232.739 203.495 233.435 203.29 234.028C203.095 234.623 202.918 235.172 202.758 235.674C202.611 236.165 202.507 236.565 202.449 236.874C202.393 237.181 202.365 237.433 202.365 237.626C202.365 238.084 202.725 238.439 203.444 238.689C204.163 238.94 204.974 239.089 205.877 239.135V240.351H196.728V239.135C197.025 239.112 197.397 239.049 197.842 238.946C198.286 238.832 198.653 238.682 198.939 238.5C199.395 238.193 199.749 237.872 200 237.54C200.251 237.198 200.497 236.73 200.737 236.137C201.96 233.086 203.307 229.66 204.781 225.856C206.253 222.053 207.567 218.667 208.721 215.696H210.091L218.195 236.667C218.367 237.112 218.56 237.472 218.777 237.747C218.995 238.021 219.297 238.289 219.686 238.553C219.947 238.712 220.291 238.849 220.714 238.963C221.137 239.067 221.49 239.123 221.775 239.135V240.351ZM211.975 230.414L208.293 220.991L204.677 230.414H211.975ZM255.061 233.189L254.598 240.351H234.416V239.135C234.758 239.112 235.216 239.067 235.786 238.998C236.358 238.918 236.73 238.837 236.9 238.758C237.267 238.586 237.518 238.363 237.654 238.089C237.804 237.816 237.877 237.467 237.877 237.044V219.568C237.877 219.191 237.814 218.861 237.688 218.575C237.563 218.279 237.3 218.039 236.9 217.856C236.591 217.707 236.176 217.575 235.649 217.461C235.135 217.347 234.725 217.279 234.416 217.256V216.04H253.228V221.898H251.942C251.714 221.032 251.218 220.112 250.453 219.14C249.698 218.158 248.979 217.621 248.293 217.53C247.94 217.484 247.518 217.451 247.026 217.428C246.535 217.405 245.976 217.393 245.347 217.393H241.526V227.056H244.267C245.147 227.056 245.786 226.975 246.186 226.816C246.598 226.646 246.958 226.365 247.265 225.977C247.518 225.646 247.728 225.205 247.9 224.658C248.082 224.098 248.202 223.572 248.26 223.081H249.544V232.589H248.26C248.214 232.042 248.088 231.465 247.883 230.86C247.688 230.242 247.482 229.796 247.265 229.523C246.912 229.077 246.505 228.786 246.049 228.649C245.604 228.512 245.011 228.444 244.267 228.444H241.526V235.742C241.526 236.474 241.577 237.049 241.681 237.472C241.783 237.895 241.983 238.216 242.281 238.432C242.577 238.649 242.983 238.791 243.497 238.86C244.011 238.918 244.742 238.946 245.69 238.946C246.067 238.946 246.563 238.946 247.181 238.946C247.797 238.946 248.316 238.923 248.739 238.877C249.174 238.832 249.619 238.753 250.075 238.637C250.544 238.512 250.875 238.346 251.068 238.14C251.595 237.593 252.142 236.765 252.714 235.656C253.297 234.537 253.667 233.714 253.828 233.189H255.061ZM292.184 240.351H282.058V239.135C282.949 239.077 283.686 238.963 284.268 238.791C284.863 238.621 285.16 238.409 285.16 238.158C285.16 238.054 285.149 237.93 285.125 237.781C285.102 237.633 285.068 237.502 285.023 237.388L283.002 231.939H274.486C274.167 232.739 273.904 233.435 273.698 234.028C273.504 234.623 273.326 235.172 273.167 235.674C273.018 236.165 272.916 236.565 272.858 236.874C272.802 237.181 272.772 237.433 272.772 237.626C272.772 238.084 273.133 238.439 273.853 238.689C274.572 238.94 275.382 239.089 276.284 239.135V240.351H267.137V239.135C267.433 239.112 267.804 239.049 268.249 238.946C268.695 238.832 269.061 238.682 269.346 238.5C269.804 238.193 270.158 237.872 270.409 237.54C270.66 237.198 270.905 236.73 271.146 236.137C272.367 233.086 273.716 229.66 275.188 225.856C276.661 222.053 277.975 218.667 279.13 215.696H280.5L288.604 236.667C288.775 237.112 288.968 237.472 289.186 237.747C289.404 238.021 289.705 238.289 290.095 238.553C290.356 238.712 290.7 238.849 291.121 238.963C291.544 239.067 291.898 239.123 292.184 239.135V240.351ZM282.384 230.414L278.7 220.991L275.086 230.414H282.384ZM305.519 240.916C304.07 240.916 302.676 240.632 301.34 240.06C300.014 239.488 298.839 238.667 297.811 237.593C296.795 236.519 295.983 235.211 295.377 233.668C294.772 232.116 294.47 230.368 294.47 228.426C294.47 226.484 294.767 224.726 295.36 223.149C295.954 221.561 296.777 220.196 297.828 219.054C298.867 217.925 300.095 217.051 301.511 216.433C302.928 215.818 304.44 215.509 306.051 215.509C307.251 215.509 308.335 215.656 309.307 215.954C310.277 216.251 311.202 216.668 312.082 217.205L312.784 216.04H314.154L314.309 224.709H312.904C312.721 223.863 312.447 222.949 312.082 221.967C311.716 220.974 311.288 220.135 310.797 219.449C310.249 218.672 309.598 218.067 308.844 217.633C308.09 217.188 307.228 216.965 306.256 216.965C305.149 216.965 304.116 217.211 303.156 217.702C302.207 218.193 301.386 218.918 300.69 219.877C300.026 220.802 299.507 221.979 299.13 223.407C298.753 224.835 298.565 226.428 298.565 228.186C298.565 229.74 298.758 231.168 299.147 232.47C299.547 233.76 300.112 234.896 300.842 235.879C301.574 236.851 302.437 237.611 303.43 238.158C304.435 238.705 305.554 238.981 306.788 238.981C307.712 238.981 308.565 238.837 309.34 238.553C310.118 238.254 310.791 237.867 311.363 237.388C311.933 236.884 312.437 236.314 312.87 235.674C313.304 235.033 313.658 234.337 313.932 233.584L315.218 234.2C314.235 236.611 312.933 238.335 311.311 239.374C309.69 240.402 307.76 240.916 305.519 240.916ZM339.553 233.189L339.09 240.351H318.907V239.135C319.251 239.112 319.707 239.067 320.279 238.998C320.849 238.918 321.221 238.837 321.391 238.758C321.758 238.586 322.009 238.363 322.146 238.089C322.295 237.816 322.368 237.467 322.368 237.044V219.568C322.368 219.191 322.305 218.861 322.181 218.575C322.054 218.279 321.791 218.039 321.391 217.856C321.084 217.707 320.667 217.575 320.14 217.461C319.628 217.347 319.216 217.279 318.907 217.256V216.04H337.719V221.898H336.435C336.205 221.032 335.709 220.112 334.944 219.14C334.19 218.158 333.47 217.621 332.786 217.53C332.432 217.484 332.009 217.451 331.518 217.428C331.026 217.405 330.467 217.393 329.839 217.393H326.018V227.056H328.76C329.639 227.056 330.277 226.975 330.677 226.816C331.09 226.646 331.449 226.365 331.758 225.977C332.009 225.646 332.219 225.205 332.391 224.658C332.574 224.098 332.693 223.572 332.751 223.081H334.035V232.589H332.751C332.705 232.042 332.579 231.465 332.374 230.86C332.179 230.242 331.974 229.796 331.758 229.523C331.404 229.077 330.998 228.786 330.54 228.649C330.095 228.512 329.502 228.444 328.76 228.444H326.018V235.742C326.018 236.474 326.068 237.049 326.172 237.472C326.275 237.895 326.474 238.216 326.772 238.432C327.068 238.649 327.474 238.791 327.988 238.86C328.502 238.918 329.233 238.946 330.181 238.946C330.558 238.946 331.054 238.946 331.672 238.946C332.288 238.946 332.809 238.923 333.23 238.877C333.665 238.832 334.111 238.753 334.567 238.637C335.035 238.512 335.367 238.346 335.561 238.14C336.086 237.593 336.635 236.765 337.205 235.656C337.788 234.537 338.16 233.714 338.319 233.189H339.553ZM358.919 229.198C359.433 229.768 359.811 230.396 360.051 231.082C360.302 231.756 360.426 232.544 360.426 233.446C360.426 235.593 359.633 237.365 358.046 238.758C356.458 240.151 354.488 240.847 352.135 240.847C351.049 240.847 349.965 240.682 348.879 240.351C347.795 240.009 346.858 239.596 346.07 239.118L345.333 240.368H343.963L343.723 232.042H345.111C345.397 233.07 345.726 234 346.104 234.833C346.493 235.656 347 236.428 347.628 237.147C348.223 237.821 348.914 238.358 349.702 238.758C350.502 239.158 351.426 239.358 352.477 239.358C353.265 239.358 353.951 239.254 354.533 239.049C355.128 238.844 355.607 238.553 355.972 238.175C356.339 237.798 356.607 237.358 356.777 236.856C356.96 236.342 357.053 235.754 357.053 235.091C357.053 234.121 356.777 233.218 356.23 232.384C355.681 231.539 354.865 230.9 353.779 230.465C353.037 230.168 352.186 229.842 351.226 229.489C350.267 229.123 349.439 228.781 348.742 228.461C347.372 227.844 346.304 227.039 345.539 226.046C344.784 225.04 344.407 223.732 344.407 222.121C344.407 221.196 344.597 220.333 344.974 219.535C345.351 218.735 345.888 218.021 346.584 217.393C347.246 216.8 348.028 216.337 348.932 216.005C349.833 215.663 350.775 215.491 351.758 215.491C352.877 215.491 353.877 215.663 354.756 216.005C355.647 216.347 356.458 216.747 357.19 217.205L357.891 216.04H359.261L359.398 224.109H358.011C357.76 223.184 357.474 222.298 357.154 221.454C356.846 220.609 356.44 219.844 355.939 219.158C355.447 218.495 354.847 217.97 354.139 217.581C353.432 217.182 352.563 216.982 351.535 216.982C350.451 216.982 349.525 217.33 348.76 218.026C347.995 218.725 347.612 219.575 347.612 220.579C347.612 221.63 347.858 222.504 348.349 223.202C348.84 223.886 349.553 224.453 350.49 224.896C351.325 225.296 352.14 225.646 352.94 225.942C353.751 226.228 354.533 226.537 355.288 226.867C355.972 227.165 356.63 227.502 357.258 227.879C357.897 228.254 358.451 228.695 358.919 229.198ZM380.375 229.198C380.89 229.768 381.267 230.396 381.507 231.082C381.758 231.756 381.884 232.544 381.884 233.446C381.884 235.593 381.09 237.365 379.502 238.758C377.914 240.151 375.944 240.847 373.591 240.847C372.507 240.847 371.421 240.682 370.337 240.351C369.251 240.009 368.314 239.596 367.526 239.118L366.79 240.368H365.419L365.179 232.042H366.567C366.853 233.07 367.184 234 367.561 234.833C367.949 235.656 368.458 236.428 369.086 237.147C369.679 237.821 370.37 238.358 371.16 238.758C371.958 239.158 372.884 239.358 373.935 239.358C374.723 239.358 375.407 239.254 375.99 239.049C376.584 238.844 377.063 238.553 377.43 238.175C377.795 237.798 378.063 237.358 378.235 236.856C378.418 236.342 378.509 235.754 378.509 235.091C378.509 234.121 378.235 233.218 377.686 232.384C377.139 231.539 376.321 230.9 375.237 230.465C374.495 230.168 373.644 229.842 372.684 229.489C371.725 229.123 370.897 228.781 370.2 228.461C368.828 227.844 367.761 227.039 366.997 226.046C366.242 225.04 365.865 223.732 365.865 222.121C365.865 221.196 366.053 220.333 366.43 219.535C366.807 218.735 367.344 218.021 368.04 217.393C368.704 216.8 369.486 216.337 370.388 216.005C371.29 215.663 372.233 215.491 373.214 215.491C374.333 215.491 375.333 215.663 376.212 216.005C377.104 216.347 377.914 216.747 378.646 217.205L379.349 216.04H380.719L380.856 224.109H379.468C379.218 223.184 378.932 222.298 378.612 221.454C378.304 220.609 377.898 219.844 377.395 219.158C376.904 218.495 376.304 217.97 375.597 217.581C374.888 217.182 374.019 216.982 372.991 216.982C371.907 216.982 370.982 217.33 370.216 218.026C369.451 218.725 369.068 219.575 369.068 220.579C369.068 221.63 369.314 222.504 369.805 223.202C370.297 223.886 371.011 224.453 371.947 224.896C372.781 225.296 373.598 225.646 374.397 225.942C375.207 226.228 375.99 226.537 376.744 226.867C377.43 227.165 378.086 227.502 378.714 227.879C379.354 228.254 379.909 228.695 380.375 229.198ZM406.339 218.918C407.412 220.037 408.253 221.391 408.858 222.979C409.463 224.554 409.765 226.302 409.765 228.221C409.765 230.151 409.458 231.905 408.84 233.481C408.225 235.056 407.367 236.398 406.27 237.507C405.209 238.604 403.975 239.449 402.57 240.042C401.165 240.637 399.668 240.933 398.081 240.933C396.391 240.933 394.826 240.619 393.386 239.991C391.96 239.351 390.732 238.467 389.704 237.335C388.675 236.228 387.865 234.886 387.27 233.309C386.688 231.721 386.397 230.026 386.397 228.221C386.397 226.246 386.705 224.486 387.321 222.944C387.939 221.391 388.79 220.049 389.875 218.918C390.947 217.798 392.193 216.942 393.609 216.347C395.037 215.754 396.528 215.458 398.081 215.458C399.691 215.458 401.211 215.76 402.639 216.365C404.067 216.97 405.3 217.821 406.339 218.918ZM403.786 236.153C404.426 235.114 404.888 233.937 405.174 232.625C405.47 231.311 405.619 229.842 405.619 228.221C405.619 226.553 405.454 225.023 405.123 223.63C404.804 222.235 404.328 221.047 403.7 220.067C403.072 219.095 402.284 218.34 401.337 217.804C400.388 217.256 399.304 216.982 398.081 216.982C396.711 216.982 395.546 217.296 394.586 217.925C393.626 218.553 392.844 219.391 392.239 220.442C391.668 221.447 391.24 222.625 390.954 223.972C390.681 225.319 390.542 226.737 390.542 228.221C390.542 229.865 390.691 231.351 390.988 232.675C391.286 234 391.753 235.177 392.393 236.205C393.011 237.211 393.786 237.998 394.723 238.568C395.66 239.128 396.779 239.409 398.081 239.409C399.304 239.409 400.405 239.123 401.388 238.553C402.37 237.981 403.17 237.181 403.786 236.153ZM438.247 240.351H431.702C430.251 238.077 428.939 236.114 427.761 234.458C426.597 232.802 425.33 231.093 423.958 229.335H421.474V237.044C421.474 237.444 421.537 237.798 421.663 238.107C421.788 238.403 422.056 238.632 422.468 238.791C422.674 238.872 423.033 238.946 423.547 239.014C424.061 239.082 424.495 239.123 424.849 239.135V240.351H414.57V239.135C414.844 239.112 415.239 239.072 415.753 239.014C416.277 238.958 416.642 238.882 416.849 238.791C417.191 238.644 417.437 238.426 417.584 238.14C417.746 237.854 417.825 237.489 417.825 237.044V219.467C417.825 219.067 417.768 218.712 417.653 218.404C417.539 218.095 417.27 217.861 416.849 217.702C416.563 217.598 416.191 217.507 415.735 217.428C415.277 217.337 414.89 217.279 414.57 217.256V216.04H425.791C426.819 216.04 427.784 216.147 428.688 216.365C429.59 216.57 430.405 216.907 431.137 217.375C431.846 217.833 432.411 218.433 432.833 219.175C433.256 219.905 433.467 220.791 433.467 221.83C433.467 222.767 433.325 223.595 433.039 224.314C432.753 225.035 432.33 225.656 431.77 226.182C431.256 226.674 430.64 227.102 429.921 227.467C429.202 227.821 428.407 228.125 427.539 228.375C428.739 229.963 429.732 231.298 430.519 232.384C431.319 233.468 432.297 234.788 433.449 236.342C433.953 237.026 434.404 237.535 434.804 237.867C435.214 238.186 435.619 238.449 436.019 238.654C436.318 238.804 436.688 238.918 437.133 238.998C437.579 239.077 437.951 239.123 438.247 239.135V240.351ZM429.235 222.225C429.235 220.751 428.812 219.586 427.967 218.73C427.123 217.861 425.928 217.428 424.386 217.428H421.474V227.861H423.719C425.295 227.861 426.609 227.358 427.66 226.353C428.711 225.337 429.235 223.961 429.235 222.225ZM451.583 240.351H440.635V239.135C440.944 239.112 441.39 239.077 441.972 239.032C442.554 238.986 442.965 238.918 443.205 238.826C443.583 238.677 443.856 238.477 444.028 238.226C444.198 237.963 444.284 237.603 444.284 237.147V219.535C444.284 219.135 444.221 218.804 444.097 218.54C443.97 218.267 443.674 218.039 443.205 217.856C442.863 217.719 442.428 217.593 441.904 217.479C441.39 217.353 440.967 217.279 440.635 217.256V216.04H451.583V217.256C451.23 217.267 450.807 217.312 450.316 217.393C449.825 217.461 449.397 217.553 449.03 217.667C448.597 217.804 448.305 218.026 448.156 218.335C448.009 218.644 447.933 218.986 447.933 219.363V236.958C447.933 237.335 448.014 237.672 448.174 237.97C448.346 238.254 448.63 238.484 449.03 238.654C449.27 238.746 449.658 238.849 450.195 238.963C450.744 239.067 451.207 239.123 451.583 239.135V240.351ZM479.054 240.351H468.928V239.135C469.819 239.077 470.556 238.963 471.139 238.791C471.732 238.621 472.03 238.409 472.03 238.158C472.03 238.054 472.018 237.93 471.995 237.781C471.972 237.633 471.939 237.502 471.893 237.388L469.87 231.939H461.356C461.035 232.739 460.774 233.435 460.567 234.028C460.374 234.623 460.197 235.172 460.037 235.674C459.888 236.165 459.784 236.565 459.728 236.874C459.67 237.181 459.642 237.433 459.642 237.626C459.642 238.084 460.002 238.439 460.721 238.689C461.44 238.94 462.253 239.089 463.154 239.135V240.351H454.005V239.135C454.302 239.112 454.674 239.049 455.119 238.946C455.565 238.832 455.93 238.682 456.216 238.5C456.672 238.193 457.026 237.872 457.277 237.54C457.53 237.198 457.775 236.73 458.014 236.137C459.237 233.086 460.584 229.66 462.058 225.856C463.532 222.053 464.846 218.667 465.998 215.696H467.368L475.474 236.667C475.644 237.112 475.839 237.472 476.056 237.747C476.272 238.021 476.575 238.289 476.963 238.553C477.226 238.712 477.568 238.849 477.991 238.963C478.414 239.067 478.768 239.123 479.054 239.135V240.351ZM469.254 230.414L465.57 220.991L461.954 230.414H469.254Z" fill="#E8C548"/>
</g>
<g filter="url(#filter2_d_403_45)">
<path d="M27.4224 115.364H28.2422C29.1169 115.364 29.8822 115.091 30.5382 114.544C31.1939 113.888 31.7406 113.123 32.178 112.248C32.7246 111.373 33.1073 110.444 33.3259 109.46C33.6538 108.476 33.8178 107.547 33.8178 106.672V18.9391C33.8178 18.1738 33.6538 17.2993 33.3259 16.3153C33.1073 15.3314 32.7246 14.4022 32.178 13.5275C31.7406 12.6529 31.1939 11.9423 30.5382 11.3957C29.8822 10.7398 29.1169 10.4118 28.2422 10.4118H27.4224V8.77191H51.0366V10.4118H50.2166C49.342 10.4118 48.5767 10.7398 47.9208 11.3957C47.2648 11.9423 46.7182 12.6529 46.281 13.5275C45.8436 14.4022 45.461 15.3314 45.1329 16.3153C44.9143 17.2993 44.805 18.1738 44.805 18.9391V110.936H80.7183C82.7955 110.936 84.5994 110.444 86.1299 109.46C87.6604 108.476 88.9176 107.274 89.9017 105.853C90.9948 104.322 91.7601 102.737 92.1975 101.097C92.7441 99.3477 93.0173 97.7624 93.0173 96.3412H94.6573V117.004H27.4224V115.364Z" fill="#E8C548"/>
</g>
<g filter="url(#filter3_d_403_45)">
<path d="M80.1716 149.473C80.1716 154.939 79.0783 159.641 76.8918 163.576C74.7053 167.403 71.8629 170.518 68.3644 172.924C64.9755 175.329 61.0944 177.077 56.7215 178.172C52.4578 179.265 48.1941 179.811 43.9304 179.811C39.5574 179.811 35.7857 179.374 32.6151 178.498C29.4448 177.625 26.5476 176.805 23.9239 176.039C22.1746 175.493 20.5895 175.055 19.1683 174.727C17.7471 174.29 16.3258 174.071 14.9046 174.071V155.377H16.5444C16.5444 159.531 17.583 162.866 19.6602 165.38C21.8467 167.785 24.3611 169.644 27.2036 170.956C30.046 172.268 32.8885 173.142 35.7309 173.579C38.5734 173.907 40.6506 174.071 41.9625 174.071C46.6636 174.071 50.7085 173.415 54.0976 172.104C57.4867 170.682 60.2744 168.878 62.4609 166.692C64.6474 164.396 66.2327 161.882 67.2166 159.149C68.3099 156.415 68.8565 153.628 68.8565 150.785C68.8565 147.178 68.0913 144.171 66.5606 141.766C65.0301 139.251 63.0076 137.065 60.493 135.206C58.088 133.348 55.3002 131.763 52.1297 130.451C48.9594 129.139 45.7343 127.827 42.4544 126.515C38.7374 125.094 35.075 123.618 31.4673 122.087C27.8595 120.557 24.6344 118.698 21.792 116.512C18.9495 114.216 16.6538 111.538 14.9046 108.476C13.1554 105.306 12.2808 101.425 12.2808 96.8333C12.2808 92.023 13.21 87.8686 15.0686 84.3702C16.9271 80.7625 19.3869 77.8107 22.448 75.5149C25.6185 73.2191 29.1715 71.5246 33.1073 70.4312C37.1522 69.2288 41.252 68.6274 45.4062 68.6274C48.2487 68.6274 50.9273 68.8462 53.4416 69.2833C55.9562 69.6114 58.3613 70.0486 60.6571 70.5953C62.5157 71.0326 64.3195 71.4153 66.0687 71.7432C67.818 71.9618 69.5125 72.0711 71.1523 72.0711V88.9619H69.5125C69.2937 83.277 67.0527 79.4505 62.789 77.4828C58.5253 75.4056 52.6216 74.367 45.0783 74.367C40.7053 74.367 37.0976 75.1323 34.2551 76.6628C31.522 78.084 29.3355 79.8879 27.6957 82.0744C26.0557 84.1516 24.9078 86.4474 24.2518 88.9619C23.7051 91.367 23.432 93.4988 23.432 95.3574C23.432 98.4184 24.088 101.042 25.3997 103.229C26.8209 105.415 28.6795 107.328 30.9753 108.968C33.2711 110.608 35.895 112.084 38.8467 113.396C41.9078 114.708 45.0783 115.965 48.358 117.168C52.0751 118.589 55.8467 120.119 59.6732 121.759C63.4995 123.399 66.8887 125.422 69.8404 127.827C72.9015 130.232 75.3613 133.184 77.2199 136.682C79.1878 140.181 80.1716 144.444 80.1716 149.473Z" fill="#E8C548"/>
</g>
</g>
<defs>
<filter id="filter0_d_403_45" x="132.863" y="16.9825" width="347.077" height="167.761" filterUnits="userSpaceOnUse" color-interpolation-filters="sRGB">
<feFlood flood-opacity="0" result="BackgroundImageFix"/>
<feColorMatrix in="SourceAlpha" type="matrix" values="0 0 0 0 0 0 0 0 0 0 0 0 0 0 0 0 0 0 127 0" result="hardAlpha"/>
<feOffset dx="1" dy="3"/>
<feGaussianBlur stdDeviation="1.5"/>
<feComposite in2="hardAlpha" operator="out"/>
<feColorMatrix type="matrix" values="0 0 0 0 0.0941176 0 0 0 0 0.0941176 0 0 0 0 0.0941176 0 0 0 0.4 0"/>
<feBlend mode="normal" in2="BackgroundImageFix" result="effect1_dropShadow_403_45"/>
<feBlend mode="normal" in="SourceGraphic" in2="effect1_dropShadow_403_45" result="shape"/>
</filter>
<filter id="filter1_d_403_45" x="-0.947998" y="215.458" width="484.002" height="31.4755" filterUnits="userSpaceOnUse" color-interpolation-filters="sRGB">
<feFlood flood-opacity="0" result="BackgroundImageFix"/>
<feColorMatrix in="SourceAlpha" type="matrix" values="0 0 0 0 0 0 0 0 0 0 0 0 0 0 0 0 0 0 127 0" result="hardAlpha"/>
<feOffset dx="1" dy="3"/>
<feGaussianBlur stdDeviation="1.5"/>
<feComposite in2="hardAlpha" operator="out"/>
<feColorMatrix type="matrix" values="0 0 0 0 0.0941176 0 0 0 0 0.0941176 0 0 0 0 0.0941176 0 0 0 0.4 0"/>
<feBlend mode="normal" in2="BackgroundImageFix" result="effect1_dropShadow_403_45"/>
<feBlend mode="normal" in="SourceGraphic" in2="effect1_dropShadow_403_45" result="shape"/>
</filter>
<filter id="filter2_d_403_45" x="25.4224" y="8.77191" width="73.2349" height="114.232" filterUnits="userSpaceOnUse" color-interpolation-filters="sRGB">
<feFlood flood-opacity="0" result="BackgroundImageFix"/>
<feColorMatrix in="SourceAlpha" type="matrix" values="0 0 0 0 0 0 0 0 0 0 0 0 0 0 0 0 0 0 127 0" result="hardAlpha"/>
<feOffset dx="1" dy="3"/>
<feGaussianBlur stdDeviation="1.5"/>
<feComposite in2="hardAlpha" operator="out"/>
<feColorMatrix type="matrix" values="0 0 0 0 0.0941176 0 0 0 0 0.0941176 0 0 0 0 0.0941176 0 0 0 0.4 0"/>
<feBlend mode="normal" in2="BackgroundImageFix" result="effect1_dropShadow_403_45"/>
<feBlend mode="normal" in="SourceGraphic" in2="effect1_dropShadow_403_45" result="shape"/>
</filter>
<filter id="filter3_d_403_45" x="10.2808" y="68.6274" width="73.8909" height="117.183" filterUnits="userSpaceOnUse" color-interpolation-filters="sRGB">
<feFlood flood-opacity="0" result="BackgroundImageFix"/>
<feColorMatrix in="SourceAlpha" type="matrix" values="0 0 0 0 0 0 0 0 0 0 0 0 0 0 0 0 0 0 127 0" result="hardAlpha"/>
<feOffset dx="1" dy="3"/>
<feGaussianBlur stdDeviation="1.5"/>
<feComposite in2="hardAlpha" operator="out"/>
<feColorMatrix type="matrix" values="0 0 0 0 0.0941176 0 0 0 0 0.0941176 0 0 0 0 0.0941176 0 0 0 0.4 0"/>
<feBlend mode="normal" in2="BackgroundImageFix" result="effect1_dropShadow_403_45"/>
<feBlend mode="normal" in="SourceGraphic" in2="effect1_dropShadow_403_45" result="shape"/>
</filter>
<clipPath id="clip0_403_45">
<rect width="500" height="252.632" fill="white"/>
</clipPath>
</defs>
</svg>
