<svg width="487" height="225" viewBox="0 0 487 225" fill="none" xmlns="http://www.w3.org/2000/svg">
<g filter="url(#filter0_di_20_139)">
<path d="M24.3462 100.194H25.117C25.9391 100.194 26.6584 99.9374 27.275 99.4235C27.8916 98.807 28.4054 98.0876 28.8165 97.2655C29.3303 96.4434 29.6899 95.5699 29.8955 94.645C30.2038 93.7202 30.3579 92.8467 30.3579 92.0246V9.55699C30.3579 8.83765 30.2038 8.01554 29.8955 7.09067C29.6899 6.1658 29.3303 5.29231 28.8165 4.4702C28.4054 3.64809 27.8916 2.98013 27.275 2.46632C26.6584 1.84974 25.9391 1.54145 25.117 1.54145H24.3462V0H46.5431V1.54145H45.7724C44.9503 1.54145 44.231 1.84974 43.6144 2.46632C42.9978 2.98013 42.484 3.64809 42.0729 4.4702C41.6619 5.29231 41.3022 6.1658 40.9939 7.09067C40.7884 8.01554 40.6856 8.83765 40.6856 9.55699V96.0323H74.4434C76.3959 96.0323 78.0915 95.5699 79.5302 94.645C80.9689 93.7202 82.1506 92.5898 83.0755 91.2539C84.1031 89.8152 84.8225 88.3251 85.2335 86.7837C85.7474 85.1394 86.0043 83.6494 86.0043 82.3134H87.5457V101.736H24.3462V100.194Z" fill="#E8C548"/>
<path d="M73.9296 132.256C73.9296 137.395 72.9019 141.813 70.8467 145.513C68.7914 149.11 66.1196 152.038 62.8311 154.299C59.6455 156.56 55.9974 158.204 51.8868 159.232C47.8791 160.259 43.8713 160.773 39.8635 160.773C35.753 160.773 32.2076 160.362 29.2275 159.54C26.2474 158.718 23.5241 157.947 21.0578 157.228C19.4136 156.714 17.9235 156.303 16.5876 155.995C15.2517 155.584 13.9158 155.378 12.5798 155.378V137.806H14.1213C14.1213 141.711 15.0975 144.845 17.0501 147.208C19.1053 149.469 21.4689 151.216 24.1407 152.449C26.8126 153.683 29.4844 154.505 32.1563 154.916C34.8281 155.224 36.7806 155.378 38.0138 155.378C42.4326 155.378 46.2348 154.762 49.4205 153.528C52.6062 152.193 55.2266 150.497 57.2819 148.442C59.3372 146.284 60.8272 143.92 61.7521 141.351C62.7797 138.782 63.2936 136.161 63.2936 133.49C63.2936 130.098 62.5742 127.272 61.1355 125.012C59.6968 122.648 57.7957 120.593 55.4322 118.846C53.1714 117.099 50.5509 115.609 47.5708 114.376C44.5906 113.142 41.5591 111.909 38.4762 110.676C34.9823 109.34 31.5397 107.953 28.1485 106.514C24.7573 105.076 21.7258 103.329 19.0539 101.273C16.3821 99.1152 14.2241 96.5975 12.5798 93.7202C10.9356 90.74 10.1135 87.0919 10.1135 82.7759C10.1135 78.2543 10.987 74.3493 12.734 71.0609C14.481 67.6697 16.7931 64.8951 19.6705 62.737C22.6507 60.579 25.9905 58.9862 29.6899 57.9585C33.4922 56.8281 37.3458 56.2629 41.2508 56.2629C43.9227 56.2629 46.4404 56.4685 48.8039 56.8795C51.1675 57.1878 53.4283 57.5989 55.5863 58.1127C57.3333 58.5237 59.0289 58.8834 60.6731 59.1917C62.3173 59.3972 63.9101 59.5 65.4516 59.5V75.3769H63.9101C63.7046 70.0332 61.598 66.4365 57.5902 64.5868C53.5824 62.6343 48.0332 61.658 40.9425 61.658C36.832 61.658 33.4408 62.3773 30.769 63.816C28.1999 65.152 26.1446 66.8476 24.6032 68.9028C23.0617 70.8553 21.9827 73.0134 21.3661 75.3769C20.8523 77.6377 20.5954 79.6416 20.5954 81.3886C20.5954 84.2659 21.212 86.7323 22.4451 88.7875C23.7811 90.8428 25.528 92.6412 27.6861 94.1826C29.8441 95.7241 32.3104 97.1114 35.085 98.3445C37.9624 99.5777 40.9425 100.759 44.0254 101.89C47.5194 103.226 51.0647 104.664 54.6614 106.206C58.2582 107.747 61.4438 109.648 64.2184 111.909C67.0958 114.17 69.408 116.945 71.155 120.233C73.0047 123.522 73.9296 127.529 73.9296 132.256Z" fill="#E8C548"/>
</g>
<g filter="url(#filter1_d_20_139)">
<path d="M140.816 65.36H141.136C141.435 65.36 141.712 65.232 141.968 64.976C142.224 64.72 142.437 64.4213 142.608 64.08C142.821 63.7387 142.971 63.376 143.056 62.992C143.141 62.5653 143.184 62.1813 143.184 61.84V27.728C143.184 27.4293 143.141 27.088 143.056 26.704C142.971 26.32 142.843 25.9573 142.672 25.616C142.501 25.2747 142.288 24.9973 142.032 24.784C141.776 24.528 141.477 24.4 141.136 24.4H140.816V23.76H153.168C156.539 23.76 159.568 24.3573 162.256 25.552C164.944 26.704 167.205 28.2827 169.04 30.288C170.917 32.2507 172.347 34.512 173.328 37.072C174.309 39.632 174.8 42.2987 174.8 45.072C174.8 47.6747 174.331 50.2347 173.392 52.752C172.453 55.2267 171.045 57.4453 169.168 59.408C167.291 61.3707 164.944 62.9707 162.128 64.208C159.312 65.4027 156.048 66 152.336 66H140.816V65.36ZM170.448 46.032C170.448 43.3013 169.957 40.72 168.976 38.288C167.995 35.856 166.608 33.744 164.816 31.952C163.067 30.1173 160.976 28.6667 158.544 27.6C156.155 26.5333 153.552 26 150.736 26H147.472V63.76H150.864C153.168 63.76 155.472 63.4187 157.776 62.736C160.123 62.0107 162.235 60.9227 164.112 59.472C165.989 57.9787 167.504 56.1227 168.656 53.904C169.851 51.6853 170.448 49.0613 170.448 46.032ZM199.134 43.792C198.622 42.9387 198.088 42.4053 197.534 42.192C196.979 41.9787 196.339 41.872 195.614 41.872C195.144 41.872 194.632 41.9787 194.078 42.192C193.566 42.4053 193.054 42.6827 192.542 43.024C192.03 43.3653 191.518 43.7493 191.006 44.176C190.536 44.56 190.131 44.9227 189.79 45.264V61.904C189.79 62.2453 189.832 62.608 189.918 62.992C190.003 63.376 190.131 63.76 190.302 64.144C190.515 64.4853 190.728 64.784 190.942 65.04C191.198 65.2533 191.496 65.36 191.838 65.36V66H183.518V65.36C183.816 65.36 184.094 65.2533 184.35 65.04C184.606 64.784 184.819 64.4853 184.99 64.144C185.203 63.76 185.352 63.376 185.438 62.992C185.523 62.608 185.566 62.2453 185.566 61.904V44.048C185.566 43.4507 185.374 42.8533 184.99 42.256C184.606 41.6587 184.051 41.2747 183.326 41.104V40.592L189.79 38.672V42.512C190.174 42.0427 190.579 41.5947 191.006 41.168C191.432 40.6987 191.902 40.2933 192.414 39.952C192.968 39.568 193.566 39.2693 194.206 39.056C194.846 38.8 195.592 38.672 196.446 38.672C197.043 38.672 197.811 38.8 198.75 39.056C199.688 39.312 200.456 39.5893 201.054 39.888L199.134 43.792ZM225.176 66V62.736L224.856 63.056C223.789 64.1227 222.552 64.9547 221.144 65.552C219.779 66.1493 218.115 66.448 216.152 66.448C214.659 66.448 213.379 66.2773 212.312 65.936C211.245 65.5947 210.371 65.1253 209.688 64.528C209.005 63.888 208.493 63.1627 208.152 62.352C207.853 61.5413 207.704 60.688 207.704 59.792C207.704 58.3413 208.088 57.0613 208.856 55.952C209.667 54.8427 210.819 53.8613 212.312 53.008C213.805 52.1547 215.619 51.3867 217.752 50.704C219.928 49.9787 222.403 49.2747 225.176 48.592C225.091 46.928 224.749 45.584 224.152 44.56C223.555 43.536 222.851 42.7467 222.04 42.192C221.229 41.5947 220.376 41.2107 219.48 41.04C218.584 40.8267 217.816 40.72 217.176 40.72C216.067 40.72 215.085 40.8907 214.232 41.232C213.421 41.5733 212.696 42.0213 212.056 42.576C211.459 43.088 210.947 43.664 210.52 44.304C210.093 44.9013 209.752 45.4773 209.496 46.032H208.92V41.36C209.261 41.3173 209.581 41.2107 209.88 41.04C210.179 40.8693 210.541 40.6987 210.968 40.528C211.608 40.272 212.483 39.9093 213.592 39.44C214.701 38.928 216.259 38.672 218.264 38.672C220.611 38.672 222.509 38.9707 223.96 39.568C225.411 40.1653 226.52 40.9547 227.288 41.936C228.099 42.9173 228.632 44.048 228.888 45.328C229.144 46.5653 229.272 47.8453 229.272 49.168V61.84C229.272 62.6933 229.464 63.504 229.848 64.272C230.232 64.9973 230.744 65.36 231.384 65.36V66H225.176ZM225.176 59.92V50.768L224.536 50.896C223.512 51.152 222.253 51.4933 220.76 51.92C219.309 52.3467 217.923 52.9013 216.6 53.584C215.277 54.2667 214.147 55.0773 213.208 56.016C212.269 56.9547 211.8 58.0427 211.8 59.28C211.8 60.6453 212.355 61.776 213.464 62.672C214.573 63.568 216.024 64.016 217.816 64.016C219.224 64.016 220.461 63.7173 221.528 63.12C222.595 62.48 223.576 61.6693 224.472 60.688L225.176 59.92ZM241.178 63.248C241.178 62.3947 241.455 61.6693 242.01 61.072C242.607 60.4747 243.333 60.176 244.186 60.176C245.039 60.176 245.765 60.4747 246.362 61.072C246.959 61.6693 247.258 62.3947 247.258 63.248C247.258 64.1013 246.959 64.8267 246.362 65.424C245.765 65.9787 245.039 66.256 244.186 66.256C243.333 66.256 242.607 65.9787 242.01 65.424C241.455 64.8267 241.178 64.1013 241.178 63.248ZM276.63 65.36H276.95C277.291 65.36 277.59 65.2533 277.846 65.04C278.102 64.784 278.315 64.4853 278.486 64.144C278.699 63.8027 278.849 63.44 278.934 63.056C279.062 62.672 279.126 62.3093 279.126 61.968V27.728C279.126 27.4293 279.062 27.088 278.934 26.704C278.849 26.32 278.699 25.9573 278.486 25.616C278.315 25.2747 278.102 24.9973 277.846 24.784C277.59 24.528 277.291 24.4 276.95 24.4H276.63V23.76H285.846V24.4H285.526C285.185 24.4 284.886 24.528 284.63 24.784C284.374 24.9973 284.161 25.2747 283.99 25.616C283.819 25.9573 283.67 26.32 283.542 26.704C283.457 27.088 283.414 27.4293 283.414 27.728V63.632H297.43C298.241 63.632 298.945 63.44 299.542 63.056C300.139 62.672 300.63 62.2027 301.014 61.648C301.441 61.0507 301.739 60.432 301.91 59.792C302.123 59.1093 302.23 58.4907 302.23 57.936H302.87V66H276.63V65.36ZM326.476 66V62.736L326.156 63.056C325.089 64.1227 323.852 64.9547 322.444 65.552C321.079 66.1493 319.415 66.448 317.452 66.448C315.959 66.448 314.679 66.2773 313.612 65.936C312.545 65.5947 311.671 65.1253 310.988 64.528C310.305 63.888 309.793 63.1627 309.452 62.352C309.153 61.5413 309.004 60.688 309.004 59.792C309.004 58.3413 309.388 57.0613 310.156 55.952C310.967 54.8427 312.119 53.8613 313.612 53.008C315.105 52.1547 316.919 51.3867 319.052 50.704C321.228 49.9787 323.703 49.2747 326.476 48.592C326.391 46.928 326.049 45.584 325.452 44.56C324.855 43.536 324.151 42.7467 323.34 42.192C322.529 41.5947 321.676 41.2107 320.78 41.04C319.884 40.8267 319.116 40.72 318.476 40.72C317.367 40.72 316.385 40.8907 315.532 41.232C314.721 41.5733 313.996 42.0213 313.356 42.576C312.759 43.088 312.247 43.664 311.82 44.304C311.393 44.9013 311.052 45.4773 310.796 46.032H310.22V41.36C310.561 41.3173 310.881 41.2107 311.18 41.04C311.479 40.8693 311.841 40.6987 312.268 40.528C312.908 40.272 313.783 39.9093 314.892 39.44C316.001 38.928 317.559 38.672 319.564 38.672C321.911 38.672 323.809 38.9707 325.26 39.568C326.711 40.1653 327.82 40.9547 328.588 41.936C329.399 42.9173 329.932 44.048 330.188 45.328C330.444 46.5653 330.572 47.8453 330.572 49.168V61.84C330.572 62.6933 330.764 63.504 331.148 64.272C331.532 64.9973 332.044 65.36 332.684 65.36V66H326.476ZM326.476 59.92V50.768L325.836 50.896C324.812 51.152 323.553 51.4933 322.06 51.92C320.609 52.3467 319.223 52.9013 317.9 53.584C316.577 54.2667 315.447 55.0773 314.508 56.016C313.569 56.9547 313.1 58.0427 313.1 59.28C313.1 60.6453 313.655 61.776 314.764 62.672C315.873 63.568 317.324 64.016 319.116 64.016C320.524 64.016 321.761 63.7173 322.828 63.12C323.895 62.48 324.876 61.6693 325.772 60.688L326.476 59.92ZM357.646 43.792C357.134 42.9387 356.601 42.4053 356.046 42.192C355.491 41.9787 354.851 41.872 354.126 41.872C353.657 41.872 353.145 41.9787 352.59 42.192C352.078 42.4053 351.566 42.6827 351.054 43.024C350.542 43.3653 350.03 43.7493 349.518 44.176C349.049 44.56 348.643 44.9227 348.302 45.264V61.904C348.302 62.2453 348.345 62.608 348.43 62.992C348.515 63.376 348.643 63.76 348.814 64.144C349.027 64.4853 349.241 64.784 349.454 65.04C349.71 65.2533 350.009 65.36 350.35 65.36V66H342.03V65.36C342.329 65.36 342.606 65.2533 342.862 65.04C343.118 64.784 343.331 64.4853 343.502 64.144C343.715 63.76 343.865 63.376 343.95 62.992C344.035 62.608 344.078 62.2453 344.078 61.904V44.048C344.078 43.4507 343.886 42.8533 343.502 42.256C343.118 41.6587 342.563 41.2747 341.838 41.104V40.592L348.302 38.672V42.512C348.686 42.0427 349.091 41.5947 349.518 41.168C349.945 40.6987 350.414 40.2933 350.926 39.952C351.481 39.568 352.078 39.2693 352.718 39.056C353.358 38.8 354.105 38.672 354.958 38.672C355.555 38.672 356.323 38.8 357.262 39.056C358.201 39.312 358.969 39.5893 359.566 39.888L357.646 43.792ZM367.689 66V65.36C368.03 65.36 368.329 65.232 368.585 64.976C368.841 64.72 369.054 64.4213 369.225 64.08C369.395 63.7387 369.523 63.376 369.609 62.992C369.694 62.5653 369.737 62.1813 369.737 61.84V44.112C369.737 43.3867 369.63 42.704 369.417 42.064C369.203 41.3813 368.585 41.0187 367.561 40.976V40.4L373.961 38.352V61.84C373.961 62.1813 374.003 62.5653 374.089 62.992C374.174 63.376 374.302 63.7387 374.473 64.08C374.643 64.4213 374.857 64.72 375.113 64.976C375.369 65.232 375.667 65.36 376.009 65.36V66H367.689ZM368.009 32.208C368.009 31.3547 368.286 30.6293 368.841 30.032C369.438 29.4347 370.163 29.136 371.017 29.136C371.87 29.136 372.595 29.4347 373.193 30.032C373.79 30.6293 374.089 31.3547 374.089 32.208C374.089 33.0613 373.79 33.7653 373.193 34.32C372.595 34.8747 371.87 35.152 371.017 35.152C370.163 35.152 369.438 34.8747 368.841 34.32C368.286 33.7653 368.009 33.0613 368.009 32.208ZM406.855 58.704C406.855 59.8133 406.578 60.8373 406.023 61.776C405.468 62.7147 404.7 63.5467 403.719 64.272C402.78 64.9547 401.671 65.5093 400.391 65.936C399.111 66.32 397.724 66.512 396.231 66.512C394.396 66.512 392.903 66.2773 391.751 65.808C390.599 65.296 389.618 64.784 388.807 64.272C388.252 63.9307 387.74 63.6533 387.271 63.44C386.802 63.184 386.29 63.056 385.735 63.056V58.192H386.375C386.503 58.7893 386.866 59.4507 387.463 60.176C388.103 60.8587 388.85 61.4987 389.703 62.096C390.599 62.6933 391.559 63.2053 392.583 63.632C393.65 64.016 394.716 64.208 395.783 64.208C396.551 64.208 397.34 64.1227 398.151 63.952C398.962 63.7813 399.687 63.504 400.327 63.12C401.01 62.736 401.564 62.2667 401.991 61.712C402.46 61.1147 402.695 60.4107 402.695 59.6C402.695 58.7893 402.46 58.0853 401.991 57.488C401.522 56.8907 400.924 56.3787 400.199 55.952C399.474 55.4827 398.642 55.0773 397.703 54.736C396.764 54.3947 395.826 54.0747 394.887 53.776C393.778 53.4347 392.647 53.0507 391.495 52.624C390.386 52.1973 389.383 51.7067 388.487 51.152C387.591 50.5547 386.866 49.8507 386.311 49.04C385.756 48.1867 385.479 47.184 385.479 46.032C385.479 45.0507 385.65 44.112 385.991 43.216C386.375 42.32 386.972 41.552 387.783 40.912C388.636 40.2293 389.724 39.696 391.047 39.312C392.37 38.8853 393.97 38.672 395.847 38.672C397.511 38.672 398.791 38.8213 399.687 39.12C400.626 39.376 401.394 39.6533 401.991 39.952C402.375 40.1653 402.759 40.336 403.143 40.464C403.527 40.5493 403.954 40.592 404.423 40.592V45.072H403.911C403.143 43.664 401.97 42.5973 400.391 41.872C398.812 41.1467 397.191 40.784 395.527 40.784C394.46 40.784 393.543 40.9333 392.775 41.232C392.007 41.488 391.367 41.8293 390.855 42.256C390.386 42.64 390.023 43.088 389.767 43.6C389.554 44.112 389.447 44.624 389.447 45.136C389.447 45.8613 389.639 46.48 390.023 46.992C390.45 47.504 391.004 47.952 391.687 48.336C392.412 48.72 393.202 49.0827 394.055 49.424C394.951 49.7653 395.89 50.0853 396.871 50.384C398.066 50.768 399.26 51.1947 400.455 51.664C401.65 52.0907 402.716 52.624 403.655 53.264C404.594 53.904 405.362 54.672 405.959 55.568C406.556 56.4213 406.855 57.4667 406.855 58.704ZM436.368 58.704C436.368 59.8133 436.09 60.8373 435.536 61.776C434.981 62.7147 434.213 63.5467 433.232 64.272C432.293 64.9547 431.184 65.5093 429.904 65.936C428.624 66.32 427.237 66.512 425.744 66.512C423.909 66.512 422.416 66.2773 421.264 65.808C420.112 65.296 419.13 64.784 418.32 64.272C417.765 63.9307 417.253 63.6533 416.784 63.44C416.314 63.184 415.802 63.056 415.248 63.056V58.192H415.888C416.016 58.7893 416.378 59.4507 416.976 60.176C417.616 60.8587 418.362 61.4987 419.216 62.096C420.112 62.6933 421.072 63.2053 422.095 63.632C423.162 64.016 424.229 64.208 425.296 64.208C426.064 64.208 426.853 64.1227 427.664 63.952C428.474 63.7813 429.2 63.504 429.84 63.12C430.522 62.736 431.077 62.2667 431.503 61.712C431.973 61.1147 432.208 60.4107 432.208 59.6C432.208 58.7893 431.973 58.0853 431.503 57.488C431.034 56.8907 430.437 56.3787 429.712 55.952C428.986 55.4827 428.154 55.0773 427.216 54.736C426.277 54.3947 425.338 54.0747 424.4 53.776C423.29 53.4347 422.16 53.0507 421.008 52.624C419.898 52.1973 418.896 51.7067 418 51.152C417.104 50.5547 416.378 49.8507 415.824 49.04C415.269 48.1867 414.992 47.184 414.992 46.032C414.992 45.0507 415.162 44.112 415.504 43.216C415.888 42.32 416.485 41.552 417.296 40.912C418.149 40.2293 419.237 39.696 420.56 39.312C421.882 38.8853 423.482 38.672 425.36 38.672C427.024 38.672 428.304 38.8213 429.2 39.12C430.138 39.376 430.906 39.6533 431.503 39.952C431.888 40.1653 432.272 40.336 432.656 40.464C433.04 40.5493 433.466 40.592 433.936 40.592V45.072H433.424C432.656 43.664 431.482 42.5973 429.904 41.872C428.325 41.1467 426.704 40.784 425.04 40.784C423.973 40.784 423.056 40.9333 422.288 41.232C421.52 41.488 420.88 41.8293 420.368 42.256C419.898 42.64 419.536 43.088 419.28 43.6C419.066 44.112 418.96 44.624 418.96 45.136C418.96 45.8613 419.152 46.48 419.536 46.992C419.962 47.504 420.517 47.952 421.2 48.336C421.925 48.72 422.714 49.0827 423.568 49.424C424.464 49.7653 425.402 50.0853 426.384 50.384C427.578 50.768 428.773 51.1947 429.968 51.664C431.162 52.0907 432.229 52.624 433.168 53.264C434.106 53.904 434.874 54.672 435.472 55.568C436.069 56.4213 436.368 57.4667 436.368 58.704ZM461.976 66V62.736L461.656 63.056C460.589 64.1227 459.352 64.9547 457.944 65.552C456.579 66.1493 454.915 66.448 452.952 66.448C451.459 66.448 450.179 66.2773 449.112 65.936C448.045 65.5947 447.171 65.1253 446.488 64.528C445.805 63.888 445.293 63.1627 444.952 62.352C444.653 61.5413 444.504 60.688 444.504 59.792C444.504 58.3413 444.888 57.0613 445.656 55.952C446.467 54.8427 447.619 53.8613 449.112 53.008C450.605 52.1547 452.419 51.3867 454.552 50.704C456.728 49.9787 459.203 49.2747 461.976 48.592C461.891 46.928 461.549 45.584 460.952 44.56C460.355 43.536 459.651 42.7467 458.84 42.192C458.029 41.5947 457.176 41.2107 456.28 41.04C455.384 40.8267 454.616 40.72 453.976 40.72C452.867 40.72 451.885 40.8907 451.032 41.232C450.221 41.5733 449.496 42.0213 448.856 42.576C448.259 43.088 447.747 43.664 447.32 44.304C446.893 44.9013 446.552 45.4773 446.296 46.032H445.72V41.36C446.061 41.3173 446.381 41.2107 446.68 41.04C446.979 40.8693 447.341 40.6987 447.768 40.528C448.408 40.272 449.283 39.9093 450.392 39.44C451.501 38.928 453.059 38.672 455.064 38.672C457.411 38.672 459.309 38.9707 460.76 39.568C462.211 40.1653 463.32 40.9547 464.088 41.936C464.899 42.9173 465.432 44.048 465.688 45.328C465.944 46.5653 466.072 47.8453 466.072 49.168V61.84C466.072 62.6933 466.264 63.504 466.648 64.272C467.032 64.9973 467.544 65.36 468.184 65.36V66H461.976ZM461.976 59.92V50.768L461.336 50.896C460.312 51.152 459.053 51.4933 457.56 51.92C456.109 52.3467 454.723 52.9013 453.4 53.584C452.077 54.2667 450.947 55.0773 450.008 56.016C449.069 56.9547 448.6 58.0427 448.6 59.28C448.6 60.6453 449.155 61.776 450.264 62.672C451.373 63.568 452.824 64.016 454.616 64.016C456.024 64.016 457.261 63.7173 458.328 63.12C459.395 62.48 460.376 61.6693 461.272 60.688L461.976 59.92ZM166.8 125.672C166.8 127.805 166.373 129.64 165.52 131.176C164.667 132.669 163.557 133.885 162.192 134.824C160.869 135.763 159.355 136.445 157.648 136.872C155.984 137.299 154.32 137.512 152.656 137.512C150.949 137.512 149.477 137.341 148.24 137C147.003 136.659 145.872 136.339 144.848 136.04C144.165 135.827 143.547 135.656 142.992 135.528C142.437 135.357 141.883 135.272 141.328 135.272V127.976H141.968C141.968 129.597 142.373 130.899 143.184 131.88C144.037 132.819 145.019 133.544 146.128 134.056C147.237 134.568 148.347 134.909 149.456 135.08C150.565 135.208 151.376 135.272 151.888 135.272C153.723 135.272 155.301 135.016 156.624 134.504C157.947 133.949 159.035 133.245 159.888 132.392C160.741 131.496 161.36 130.515 161.744 129.448C162.171 128.381 162.384 127.293 162.384 126.184C162.384 124.776 162.085 123.603 161.488 122.664C160.891 121.683 160.101 120.829 159.12 120.104C158.181 119.379 157.093 118.76 155.856 118.248C154.619 117.736 153.36 117.224 152.08 116.712C150.629 116.157 149.2 115.581 147.792 114.984C146.384 114.387 145.125 113.661 144.016 112.808C142.907 111.912 142.011 110.867 141.328 109.672C140.645 108.435 140.304 106.92 140.304 105.128C140.304 103.251 140.667 101.629 141.392 100.264C142.117 98.856 143.077 97.704 144.272 96.808C145.509 95.912 146.896 95.2507 148.432 94.824C150.011 94.3547 151.611 94.12 153.232 94.12C154.341 94.12 155.387 94.2053 156.368 94.376C157.349 94.504 158.288 94.6747 159.184 94.888C159.909 95.0587 160.613 95.208 161.296 95.336C161.979 95.4213 162.64 95.464 163.28 95.464V102.056H162.64C162.555 99.8373 161.68 98.344 160.016 97.576C158.352 96.7653 156.048 96.36 153.104 96.36C151.397 96.36 149.989 96.6587 148.88 97.256C147.813 97.8107 146.96 98.5147 146.32 99.368C145.68 100.179 145.232 101.075 144.976 102.056C144.763 102.995 144.656 103.827 144.656 104.552C144.656 105.747 144.912 106.771 145.424 107.624C145.979 108.477 146.704 109.224 147.6 109.864C148.496 110.504 149.52 111.08 150.672 111.592C151.867 112.104 153.104 112.595 154.384 113.064C155.835 113.619 157.307 114.216 158.8 114.856C160.293 115.496 161.616 116.285 162.768 117.224C163.963 118.163 164.923 119.315 165.648 120.68C166.416 122.045 166.8 123.709 166.8 125.672ZM176.351 137V136.36C176.692 136.36 176.991 136.232 177.247 135.976C177.503 135.72 177.716 135.421 177.887 135.08C178.058 134.739 178.186 134.376 178.271 133.992C178.356 133.565 178.399 133.181 178.399 132.84V115.112C178.399 114.387 178.292 113.704 178.079 113.064C177.866 112.381 177.247 112.019 176.223 111.976V111.4L182.623 109.352V132.84C182.623 133.181 182.666 133.565 182.751 133.992C182.836 134.376 182.964 134.739 183.135 135.08C183.306 135.421 183.519 135.72 183.775 135.976C184.031 136.232 184.33 136.36 184.671 136.36V137H176.351ZM176.671 103.208C176.671 102.355 176.948 101.629 177.503 101.032C178.1 100.435 178.826 100.136 179.679 100.136C180.532 100.136 181.258 100.435 181.855 101.032C182.452 101.629 182.751 102.355 182.751 103.208C182.751 104.061 182.452 104.765 181.855 105.32C181.258 105.875 180.532 106.152 179.679 106.152C178.826 106.152 178.1 105.875 177.503 105.32C176.948 104.765 176.671 104.061 176.671 103.208ZM194.974 137V136.36C195.315 136.36 195.614 136.232 195.87 135.976C196.126 135.72 196.339 135.421 196.51 135.08C196.723 134.739 196.872 134.376 196.958 133.992C197.043 133.565 197.086 133.181 197.086 132.84V100.072C197.086 99.3467 196.979 98.664 196.766 98.024C196.552 97.384 195.912 97.0427 194.846 97V96.36L201.31 94.376V132.84C201.31 133.181 201.352 133.565 201.438 133.992C201.523 134.376 201.651 134.739 201.822 135.08C202.035 135.421 202.248 135.72 202.462 135.976C202.718 136.232 203.016 136.36 203.358 136.36V137H194.974ZM238.586 110.12V110.76C238.287 110.76 237.989 110.867 237.69 111.08C237.391 111.293 237.093 111.571 236.794 111.912C236.538 112.253 236.282 112.637 236.026 113.064C235.813 113.448 235.621 113.811 235.45 114.152L224.442 138.088L213.498 113.896C213.199 113.213 212.815 112.531 212.346 111.848C211.877 111.123 211.279 110.76 210.554 110.76V110.12H219.322V110.76C219.066 110.76 218.725 110.888 218.298 111.144C217.914 111.4 217.722 111.763 217.722 112.232C217.722 112.445 217.893 112.936 218.234 113.704L225.594 130.28L233.53 113C233.701 112.573 233.786 112.253 233.786 112.04C233.786 111.656 233.594 111.357 233.21 111.144C232.869 110.888 232.57 110.76 232.314 110.76V110.12H238.586ZM249.263 124.072C249.433 125.565 249.796 126.995 250.351 128.36C250.905 129.683 251.631 130.856 252.527 131.88C253.465 132.904 254.596 133.736 255.919 134.376C257.241 134.973 258.777 135.272 260.527 135.272C261.465 135.272 262.447 135.144 263.471 134.888C264.537 134.589 265.519 134.184 266.415 133.672C267.311 133.16 268.1 132.541 268.783 131.816C269.508 131.048 269.999 130.195 270.255 129.256H270.831V134.056C270.575 134.056 270.276 134.141 269.935 134.312C269.636 134.483 269.273 134.696 268.847 134.952C267.993 135.464 266.841 136.019 265.391 136.616C263.94 137.171 262.02 137.448 259.631 137.448C257.711 137.448 255.876 137.171 254.127 136.616C252.42 136.061 250.905 135.208 249.583 134.056C248.26 132.904 247.193 131.432 246.383 129.64C245.615 127.848 245.231 125.715 245.231 123.24C245.231 121.661 245.487 120.061 245.999 118.44C246.553 116.819 247.364 115.368 248.431 114.088C249.54 112.765 250.948 111.699 252.655 110.888C254.361 110.077 256.409 109.672 258.799 109.672C260.932 109.672 262.788 110.035 264.367 110.76C265.988 111.485 267.311 112.488 268.335 113.768C269.401 115.048 270.191 116.563 270.703 118.312C271.215 120.061 271.471 121.981 271.471 124.072H249.263ZM258.543 111.784C257.049 111.784 255.748 112.083 254.639 112.68C253.572 113.277 252.655 114.045 251.887 114.984C251.119 115.923 250.521 116.989 250.095 118.184C249.668 119.379 249.391 120.573 249.263 121.768H267.503C267.46 120.531 267.225 119.315 266.799 118.12C266.415 116.925 265.86 115.859 265.135 114.92C264.409 113.981 263.492 113.235 262.383 112.68C261.273 112.083 259.993 111.784 258.543 111.784ZM298.93 129.704C298.93 130.813 298.653 131.837 298.098 132.776C297.543 133.715 296.775 134.547 295.794 135.272C294.855 135.955 293.746 136.509 292.466 136.936C291.186 137.32 289.799 137.512 288.306 137.512C286.471 137.512 284.978 137.277 283.826 136.808C282.674 136.296 281.693 135.784 280.882 135.272C280.327 134.931 279.815 134.653 279.346 134.44C278.877 134.184 278.365 134.056 277.81 134.056V129.192H278.45C278.578 129.789 278.941 130.451 279.538 131.176C280.178 131.859 280.925 132.499 281.778 133.096C282.674 133.693 283.634 134.205 284.658 134.632C285.725 135.016 286.791 135.208 287.858 135.208C288.626 135.208 289.415 135.123 290.226 134.952C291.037 134.781 291.762 134.504 292.402 134.12C293.085 133.736 293.639 133.267 294.066 132.712C294.535 132.115 294.77 131.411 294.77 130.6C294.77 129.789 294.535 129.085 294.066 128.488C293.597 127.891 292.999 127.379 292.274 126.952C291.549 126.483 290.717 126.077 289.778 125.736C288.839 125.395 287.901 125.075 286.962 124.776C285.853 124.435 284.722 124.051 283.57 123.624C282.461 123.197 281.458 122.707 280.562 122.152C279.666 121.555 278.941 120.851 278.386 120.04C277.831 119.187 277.554 118.184 277.554 117.032C277.554 116.051 277.725 115.112 278.066 114.216C278.45 113.32 279.047 112.552 279.858 111.912C280.711 111.229 281.799 110.696 283.122 110.312C284.445 109.885 286.045 109.672 287.922 109.672C289.586 109.672 290.866 109.821 291.762 110.12C292.701 110.376 293.469 110.653 294.066 110.952C294.45 111.165 294.834 111.336 295.218 111.464C295.602 111.549 296.029 111.592 296.498 111.592V116.072H295.986C295.218 114.664 294.045 113.597 292.466 112.872C290.887 112.147 289.266 111.784 287.602 111.784C286.535 111.784 285.618 111.933 284.85 112.232C284.082 112.488 283.442 112.829 282.93 113.256C282.461 113.64 282.098 114.088 281.842 114.6C281.629 115.112 281.522 115.624 281.522 116.136C281.522 116.861 281.714 117.48 282.098 117.992C282.525 118.504 283.079 118.952 283.762 119.336C284.487 119.72 285.277 120.083 286.13 120.424C287.026 120.765 287.965 121.085 288.946 121.384C290.141 121.768 291.335 122.195 292.53 122.664C293.725 123.091 294.791 123.624 295.73 124.264C296.669 124.904 297.437 125.672 298.034 126.568C298.631 127.421 298.93 128.467 298.93 129.704ZM313.914 112.296V127.72C313.914 128.829 313.936 129.832 313.978 130.728C314.021 131.624 314.128 132.371 314.298 132.968C314.469 133.565 314.725 134.035 315.066 134.376C315.408 134.675 315.877 134.824 316.474 134.824C317.37 134.824 318.202 134.397 318.97 133.544C319.781 132.691 320.293 131.667 320.506 130.472H321.082V135.144C320.698 135.144 320.378 135.272 320.122 135.528C319.781 135.827 319.29 136.147 318.65 136.488C318.053 136.829 317.136 137 315.898 137C314.362 137 313.168 136.701 312.314 136.104C311.461 135.507 310.842 134.717 310.458 133.736C310.074 132.755 309.84 131.667 309.754 130.472C309.712 129.277 309.69 128.061 309.69 126.824V112.296H306.106V110.12H309.69V104.424C309.69 103.699 309.584 103.037 309.37 102.44C309.2 101.8 308.581 101.459 307.514 101.416V100.776L313.914 98.728V110.12H321.082V112.296H313.914ZM344.708 114.792C344.196 113.939 343.663 113.405 343.108 113.192C342.554 112.979 341.914 112.872 341.188 112.872C340.719 112.872 340.207 112.979 339.652 113.192C339.14 113.405 338.628 113.683 338.116 114.024C337.604 114.365 337.092 114.749 336.58 115.176C336.111 115.56 335.706 115.923 335.364 116.264V132.904C335.364 133.245 335.407 133.608 335.492 133.992C335.578 134.376 335.706 134.76 335.876 135.144C336.09 135.485 336.303 135.784 336.516 136.04C336.772 136.253 337.071 136.36 337.412 136.36V137H329.092V136.36C329.391 136.36 329.668 136.253 329.924 136.04C330.18 135.784 330.394 135.485 330.564 135.144C330.778 134.76 330.927 134.376 331.012 133.992C331.098 133.608 331.14 133.245 331.14 132.904V115.048C331.14 114.451 330.948 113.853 330.564 113.256C330.18 112.659 329.626 112.275 328.9 112.104V111.592L335.364 109.672V113.512C335.748 113.043 336.154 112.595 336.58 112.168C337.007 111.699 337.476 111.293 337.988 110.952C338.543 110.568 339.14 110.269 339.78 110.056C340.42 109.8 341.167 109.672 342.02 109.672C342.618 109.672 343.386 109.8 344.324 110.056C345.263 110.312 346.031 110.589 346.628 110.888L344.708 114.792ZM357.375 124.072C357.546 125.565 357.908 126.995 358.463 128.36C359.018 129.683 359.743 130.856 360.639 131.88C361.578 132.904 362.708 133.736 364.031 134.376C365.354 134.973 366.89 135.272 368.639 135.272C369.578 135.272 370.559 135.144 371.583 134.888C372.65 134.589 373.631 134.184 374.527 133.672C375.423 133.16 376.212 132.541 376.895 131.816C377.62 131.048 378.111 130.195 378.367 129.256H378.943V134.056C378.687 134.056 378.388 134.141 378.047 134.312C377.748 134.483 377.386 134.696 376.959 134.952C376.106 135.464 374.954 136.019 373.503 136.616C372.052 137.171 370.132 137.448 367.743 137.448C365.823 137.448 363.988 137.171 362.239 136.616C360.532 136.061 359.018 135.208 357.695 134.056C356.372 132.904 355.306 131.432 354.495 129.64C353.727 127.848 353.343 125.715 353.343 123.24C353.343 121.661 353.599 120.061 354.111 118.44C354.666 116.819 355.476 115.368 356.543 114.088C357.652 112.765 359.06 111.699 360.767 110.888C362.474 110.077 364.522 109.672 366.911 109.672C369.044 109.672 370.9 110.035 372.479 110.76C374.1 111.485 375.423 112.488 376.447 113.768C377.514 115.048 378.303 116.563 378.815 118.312C379.327 120.061 379.583 121.981 379.583 124.072H357.375ZM366.655 111.784C365.162 111.784 363.86 112.083 362.751 112.68C361.684 113.277 360.767 114.045 359.999 114.984C359.231 115.923 358.634 116.989 358.207 118.184C357.78 119.379 357.503 120.573 357.375 121.768H375.615C375.572 120.531 375.338 119.315 374.911 118.12C374.527 116.925 373.972 115.859 373.247 114.92C372.522 113.981 371.604 113.235 370.495 112.68C369.386 112.083 368.106 111.784 366.655 111.784Z" fill="#E8C548"/>
</g>
<g filter="url(#filter2_di_20_139)">
<path d="M2 215.881V214.892C2.59945 214.892 3.05903 214.732 3.37874 214.412C3.69845 214.092 3.95821 213.653 4.15803 213.093C4.37783 212.534 4.6276 211.884 4.90735 211.145L11.0817 194.33H11.8011L18.485 211.385C18.6448 211.804 18.8246 212.344 19.0245 213.003C19.2243 213.663 19.3042 214.222 19.2642 214.682C19.6039 214.662 19.9436 214.642 20.2833 214.622C20.623 214.602 20.9627 214.582 21.3024 214.562V215.881H14.4386V214.892C15.198 214.872 15.6975 214.702 15.9373 214.382C16.1771 214.062 16.267 213.683 16.207 213.243C16.1471 212.804 16.0472 212.404 15.9073 212.044L14.8583 209.227L7.06538 209.407L6.01633 212.614C5.87646 213.093 5.74658 213.473 5.62669 213.753C5.52678 214.032 5.40689 214.342 5.26702 214.682C5.66665 214.662 6.0563 214.642 6.43595 214.622C6.83559 214.602 7.22523 214.582 7.60488 214.562V215.881H2ZM7.51497 208.118H14.4386L12.3106 202.393C12.0908 201.774 11.861 201.164 11.6212 200.565C11.4014 199.945 11.1816 199.326 10.9618 198.706H10.9019C10.7021 199.266 10.4922 199.825 10.2724 200.385C10.0726 200.944 9.86282 201.514 9.64302 202.093L7.51497 208.118Z" fill="#E8C548"/>
<path d="M27.0864 214.892C27.8457 214.852 28.3652 214.682 28.645 214.382C28.9247 214.062 29.0746 213.633 29.0946 213.093C29.1345 212.534 29.1545 211.904 29.1545 211.205V198.257C29.1545 197.418 29.1845 196.698 29.2444 196.099C28.8848 196.119 28.5251 196.139 28.1654 196.159C27.8057 196.179 27.4461 196.199 27.0864 196.219V194.9L34.1599 194.87C36.5777 194.85 38.6958 195.22 40.5141 195.979C42.3525 196.738 43.7912 197.897 44.8302 199.456C45.8693 201.014 46.3888 203.002 46.3888 205.42C46.3888 206.799 46.149 208.118 45.6694 209.377C45.1899 210.635 44.4705 211.754 43.5114 212.734C42.5523 213.693 41.3534 214.462 39.9147 215.041C38.496 215.601 36.8475 215.881 34.9692 215.881H27.0864V214.892ZM31.7621 212.344C31.7621 213.383 31.7322 214.162 31.6722 214.682C32.4715 214.722 33.1708 214.742 33.7703 214.742C34.3897 214.742 34.7594 214.742 34.8793 214.742C36.5977 214.742 38.0963 214.332 39.3752 213.513C40.674 212.674 41.6731 211.545 42.3724 210.126C43.0918 208.687 43.4515 207.079 43.4515 205.3C43.4515 203.402 43.1018 201.764 42.4024 200.385C41.723 198.986 40.674 197.907 39.2553 197.148C37.8366 196.369 36.0282 195.979 33.8302 195.979C33.0909 195.979 32.5714 196.129 32.2717 196.428C31.9919 196.728 31.8321 197.148 31.7921 197.687C31.7721 198.227 31.7621 198.856 31.7621 199.576V212.344Z" fill="#E8C548"/>
<path d="M61.5376 216.18L54.7338 200.235C54.2942 199.216 53.9845 198.397 53.8047 197.777C53.6248 197.138 53.5049 196.598 53.445 196.159C53.1653 196.179 52.8855 196.189 52.6058 196.189C52.326 196.189 52.0463 196.199 51.7665 196.219V194.9H58.7202L58.6902 195.919C57.6911 195.979 57.0917 196.289 56.8919 196.848C56.692 197.388 56.7919 198.157 57.1916 199.156C57.6711 200.335 58.1307 201.474 58.5703 202.573C59.0099 203.672 59.4995 204.861 60.039 206.14C60.5185 207.259 60.9781 208.338 61.4177 209.377C61.8773 210.396 62.227 211.245 62.4668 211.924H62.5267C62.7465 211.225 62.9663 210.556 63.1861 209.916C63.4259 209.277 63.7056 208.517 64.0253 207.638C64.6248 205.96 65.1243 204.541 65.524 203.382C65.9436 202.223 66.3033 201.234 66.603 200.415C66.9027 199.596 67.1525 198.896 67.3523 198.317C67.5321 197.797 67.692 197.358 67.8319 196.998C67.9717 196.638 68.1016 196.339 68.2215 196.099C67.8419 196.119 67.4622 196.139 67.0826 196.159C66.7029 196.179 66.3132 196.199 65.9136 196.219V194.9H71.9981V195.889C71.1189 195.929 70.4395 196.159 69.9599 196.578C69.5003 196.998 69.0807 197.747 68.7011 198.826C68.6611 198.926 68.6112 199.066 68.5512 199.246C68.4913 199.406 68.3914 199.676 68.2515 200.055C68.1116 200.435 67.9118 200.994 67.652 201.734C67.3923 202.453 67.0326 203.432 66.573 204.671C66.1334 205.91 65.5639 207.468 64.8646 209.347C64.1852 211.225 63.356 213.503 62.3768 216.18H61.5376Z" fill="#E8C548"/>
<path d="M87.574 216.36C85.6757 216.36 84.0472 216.041 82.6885 215.401C81.3297 214.762 80.2207 213.913 79.3615 212.853C78.5223 211.774 77.9028 210.586 77.5032 209.287C77.1036 207.988 76.9037 206.689 76.9037 205.39C76.9037 204.131 77.1135 202.863 77.5332 201.584C77.9528 200.285 78.5922 199.096 79.4514 198.017C80.3306 196.938 81.4196 196.069 82.7184 195.409C84.0372 194.75 85.5758 194.42 87.3342 194.42C89.1725 194.42 90.7611 194.75 92.0999 195.409C93.4386 196.069 94.5376 196.948 95.3969 198.047C96.2761 199.126 96.9255 200.305 97.3451 201.584C97.7847 202.863 98.0045 204.131 98.0045 205.39C98.0045 206.629 97.7947 207.898 97.3751 209.197C96.9554 210.476 96.306 211.665 95.4268 212.764C94.5676 213.843 93.4886 214.712 92.1898 215.371C90.891 216.031 89.3524 216.36 87.574 216.36ZM87.6339 215.131C88.8728 215.131 89.9518 214.872 90.871 214.352C91.7901 213.813 92.5495 213.103 93.1489 212.224C93.7683 211.325 94.2279 210.336 94.5276 209.257C94.8474 208.158 95.0072 207.059 95.0072 205.96C95.0072 204.721 94.8374 203.492 94.4977 202.273C94.158 201.054 93.6584 199.945 92.999 198.946C92.3396 197.947 91.5204 197.148 90.5413 196.548C89.5822 195.929 88.4832 195.619 87.2443 195.619C86.0054 195.619 84.9164 195.889 83.9773 196.428C83.0581 196.968 82.2888 197.687 81.6694 198.586C81.0699 199.466 80.6104 200.455 80.2906 201.554C79.9909 202.633 79.8411 203.732 79.8411 204.851C79.8411 205.95 79.9909 207.099 80.2906 208.298C80.6104 209.497 81.0899 210.616 81.7293 211.655C82.3687 212.694 83.178 213.533 84.1571 214.172C85.1362 214.812 86.2952 215.131 87.6339 215.131Z" fill="#E8C548"/>
<path d="M122.041 201.584C121.841 199.705 121.182 198.247 120.063 197.208C118.964 196.169 117.545 195.649 115.807 195.649C114.388 195.649 113.099 196.049 111.94 196.848C110.781 197.627 109.852 198.736 109.153 200.175C108.473 201.614 108.134 203.312 108.134 205.27C108.134 207.149 108.493 208.807 109.213 210.246C109.932 211.685 110.901 212.804 112.12 213.603C113.339 214.402 114.688 214.802 116.166 214.802C117.465 214.802 118.744 214.512 120.003 213.932C121.262 213.333 122.291 212.474 123.09 211.355L123.869 211.984C123.01 213.163 122.081 214.072 121.082 214.712C120.083 215.351 119.084 215.781 118.085 216.001C117.105 216.24 116.206 216.36 115.387 216.36C113.888 216.36 112.51 216.091 111.251 215.551C110.012 215.012 108.933 214.262 108.014 213.303C107.115 212.324 106.415 211.195 105.916 209.916C105.436 208.617 105.196 207.219 105.196 205.72C105.196 204.301 105.406 202.923 105.826 201.584C106.265 200.245 106.915 199.036 107.774 197.957C108.633 196.878 109.712 196.019 111.011 195.379C112.33 194.74 113.858 194.42 115.597 194.42C117.795 194.42 119.813 195.03 121.651 196.249L121.501 194.63H123.12V201.584H122.041Z" fill="#E8C548"/>
<path d="M128.798 215.881V214.892C129.398 214.892 129.857 214.732 130.177 214.412C130.497 214.092 130.757 213.653 130.956 213.093C131.176 212.534 131.426 211.884 131.706 211.145L137.88 194.33H138.599L145.283 211.385C145.443 211.804 145.623 212.344 145.823 213.003C146.023 213.663 146.103 214.222 146.063 214.682C146.402 214.662 146.742 214.642 147.082 214.622C147.421 214.602 147.761 214.582 148.101 214.562V215.881H141.237V214.892C141.996 214.872 142.496 214.702 142.736 214.382C142.975 214.062 143.065 213.683 143.005 213.243C142.945 212.804 142.846 212.404 142.706 212.044L141.657 209.227L133.864 209.407L132.815 212.614C132.675 213.093 132.545 213.473 132.425 213.753C132.325 214.032 132.205 214.342 132.065 214.682C132.465 214.662 132.855 214.642 133.234 214.622C133.634 214.602 134.024 214.582 134.403 214.562V215.881H128.798ZM134.313 208.118H141.237L139.109 202.393C138.889 201.774 138.659 201.164 138.42 200.565C138.2 199.945 137.98 199.326 137.76 198.706H137.7C137.5 199.266 137.291 199.825 137.071 200.385C136.871 200.944 136.661 201.514 136.441 202.093L134.313 208.118Z" fill="#E8C548"/>
<path d="M170.313 201.584C170.113 199.705 169.454 198.247 168.335 197.208C167.236 196.169 165.817 195.649 164.079 195.649C162.66 195.649 161.371 196.049 160.212 196.848C159.054 197.627 158.124 198.736 157.425 200.175C156.746 201.614 156.406 203.312 156.406 205.27C156.406 207.149 156.766 208.807 157.485 210.246C158.204 211.685 159.173 212.804 160.392 213.603C161.611 214.402 162.96 214.802 164.439 214.802C165.737 214.802 167.016 214.512 168.275 213.932C169.534 213.333 170.563 212.474 171.362 211.355L172.142 211.984C171.282 213.163 170.353 214.072 169.354 214.712C168.355 215.351 167.356 215.781 166.357 216.001C165.378 216.24 164.479 216.36 163.659 216.36C162.161 216.36 160.782 216.091 159.523 215.551C158.284 215.012 157.205 214.262 156.286 213.303C155.387 212.324 154.688 211.195 154.188 209.916C153.708 208.617 153.469 207.219 153.469 205.72C153.469 204.301 153.678 202.923 154.098 201.584C154.538 200.245 155.187 199.036 156.046 197.957C156.905 196.878 157.984 196.019 159.283 195.379C160.602 194.74 162.131 194.42 163.869 194.42C166.067 194.42 168.085 195.03 169.924 196.249L169.774 194.63H171.392V201.584H170.313Z" fill="#E8C548"/>
<path d="M185.936 195.889C185.196 195.909 184.677 196.079 184.377 196.398C184.097 196.718 183.937 197.148 183.897 197.687C183.877 198.227 183.867 198.856 183.867 199.576V212.314C183.867 213.373 183.837 214.162 183.778 214.682C184.137 214.662 184.497 214.642 184.857 214.622C185.216 214.602 185.576 214.582 185.936 214.562V215.881H179.192V214.892C179.951 214.852 180.471 214.682 180.75 214.382C181.03 214.062 181.18 213.633 181.2 213.093C181.24 212.534 181.26 211.904 181.26 211.205V198.257C181.26 197.418 181.29 196.698 181.35 196.099C180.99 196.119 180.63 196.139 180.271 196.159C179.911 196.179 179.551 196.199 179.192 196.219V194.9H185.936V195.889Z" fill="#E8C548"/>
<path d="M191.899 215.881V214.892C192.498 214.892 192.958 214.732 193.278 214.412C193.597 214.092 193.857 213.653 194.057 213.093C194.277 212.534 194.527 211.884 194.806 211.145L200.981 194.33H201.7L208.384 211.385C208.544 211.804 208.724 212.344 208.923 213.003C209.123 213.663 209.203 214.222 209.163 214.682C209.503 214.662 209.843 214.642 210.182 214.622C210.522 214.602 210.862 214.582 211.201 214.562V215.881H204.338V214.892C205.097 214.872 205.596 214.702 205.836 214.382C206.076 214.062 206.166 213.683 206.106 213.243C206.046 212.804 205.946 212.404 205.806 212.044L204.757 209.227L196.964 209.407L195.915 212.614C195.775 213.093 195.646 213.473 195.526 213.753C195.426 214.032 195.306 214.342 195.166 214.682C195.566 214.662 195.955 214.642 196.335 214.622C196.735 214.602 197.124 214.582 197.504 214.562V215.881H191.899ZM197.414 208.118H204.338L202.21 202.393C201.99 201.774 201.76 201.164 201.52 200.565C201.3 199.945 201.081 199.326 200.861 198.706H200.801C200.601 199.266 200.391 199.825 200.171 200.385C199.972 200.944 199.762 201.514 199.542 202.093L197.414 208.118Z" fill="#E8C548"/>
<path d="M239.785 208.118C239.785 207.239 239.665 206.609 239.426 206.23C239.186 205.85 238.806 205.62 238.287 205.54C237.767 205.46 237.078 205.44 236.219 205.48L234.031 205.57V212.434C234.031 213.473 234.001 214.252 233.941 214.772L239.665 214.682C240.545 214.662 241.304 214.522 241.943 214.262C242.583 213.982 243.082 213.503 243.442 212.824C243.802 212.144 243.982 211.215 243.982 210.036H245.001L244.821 215.881H229.355V214.892C230.114 214.852 230.634 214.682 230.913 214.382C231.193 214.062 231.343 213.633 231.363 213.093C231.403 212.534 231.423 211.904 231.423 211.205V198.257C231.423 197.418 231.453 196.698 231.513 196.099C231.153 196.119 230.794 196.139 230.434 196.159C230.074 196.179 229.715 196.199 229.355 196.219V194.9H243.772L243.922 200.145H242.933C242.933 198.966 242.753 198.077 242.393 197.478C242.033 196.858 241.544 196.448 240.924 196.249C240.325 196.029 239.646 195.929 238.886 195.949L236.309 196.009C235.569 196.029 235.04 196.169 234.72 196.428C234.4 196.688 234.2 197.078 234.121 197.597C234.061 198.097 234.031 198.756 234.031 199.576V204.371L239.665 204.401L239.456 201.824H240.774V208.118H239.785Z" fill="#E8C548"/>
<path d="M263.037 215.881V214.892C263.637 214.892 264.096 214.732 264.416 214.412C264.736 214.092 264.995 213.653 265.195 213.093C265.415 212.534 265.665 211.884 265.944 211.145L272.119 194.33H272.838L279.522 211.385C279.682 211.804 279.862 212.344 280.062 213.003C280.261 213.663 280.341 214.222 280.301 214.682C280.641 214.662 280.981 214.642 281.32 214.622C281.66 214.602 282 214.582 282.34 214.562V215.881H275.476V214.892C276.235 214.872 276.735 214.702 276.974 214.382C277.214 214.062 277.304 213.683 277.244 213.243C277.184 212.804 277.084 212.404 276.944 212.044L275.895 209.227L268.102 209.407L267.053 212.614C266.914 213.093 266.784 213.473 266.664 213.753C266.564 214.032 266.444 214.342 266.304 214.682C266.704 214.662 267.093 214.642 267.473 214.622C267.873 214.602 268.262 214.582 268.642 214.562V215.881H263.037ZM268.552 208.118H275.476L273.348 202.393C273.128 201.774 272.898 201.164 272.658 200.565C272.439 199.945 272.219 199.326 271.999 198.706H271.939C271.739 199.266 271.529 199.825 271.31 200.385C271.11 200.944 270.9 201.514 270.68 202.093L268.552 208.118Z" fill="#E8C548"/>
<path d="M299.903 201.254C299.843 200.295 299.613 199.386 299.213 198.527C298.814 197.667 298.234 196.968 297.475 196.428C296.716 195.889 295.747 195.619 294.568 195.619C293.329 195.619 292.38 195.969 291.72 196.668C291.061 197.368 290.731 198.187 290.731 199.126C290.731 199.965 290.971 200.675 291.45 201.254C291.93 201.814 292.549 202.313 293.309 202.753C294.088 203.172 294.907 203.582 295.767 203.982C296.526 204.321 297.285 204.691 298.044 205.091C298.804 205.47 299.493 205.91 300.113 206.409C300.732 206.909 301.222 207.508 301.581 208.208C301.961 208.887 302.151 209.706 302.151 210.665C302.151 212.324 301.541 213.693 300.322 214.772C299.103 215.831 297.375 216.36 295.137 216.36C294.238 216.36 293.309 216.23 292.35 215.971C291.391 215.711 290.541 215.331 289.802 214.832L289.952 216.12H288.393L288.213 209.736H289.382C289.482 211.495 290.092 212.833 291.211 213.753C292.33 214.652 293.678 215.101 295.257 215.101C296.036 215.101 296.756 214.962 297.415 214.682C298.074 214.382 298.594 213.952 298.974 213.393C299.373 212.833 299.573 212.154 299.573 211.355C299.573 210.456 299.333 209.706 298.854 209.107C298.374 208.507 297.755 207.988 296.995 207.548C296.236 207.109 295.427 206.689 294.568 206.289C293.808 205.95 293.059 205.59 292.32 205.21C291.58 204.831 290.901 204.401 290.282 203.922C289.682 203.422 289.193 202.833 288.813 202.153C288.453 201.474 288.273 200.655 288.273 199.695C288.273 199.176 288.363 198.616 288.543 198.017C288.723 197.418 289.033 196.848 289.472 196.309C289.932 195.749 290.551 195.299 291.331 194.96C292.13 194.6 293.139 194.42 294.358 194.42C295.117 194.42 295.966 194.53 296.905 194.75C297.865 194.95 298.754 195.349 299.573 195.949L299.453 194.66H300.982V201.254H299.903Z" fill="#E8C548"/>
<path d="M321.405 201.254C321.345 200.295 321.115 199.386 320.715 198.527C320.316 197.667 319.736 196.968 318.977 196.428C318.218 195.889 317.248 195.619 316.07 195.619C314.831 195.619 313.882 195.969 313.222 196.668C312.563 197.368 312.233 198.187 312.233 199.126C312.233 199.965 312.473 200.675 312.952 201.254C313.432 201.814 314.051 202.313 314.811 202.753C315.59 203.172 316.409 203.582 317.268 203.982C318.028 204.321 318.787 204.691 319.546 205.091C320.306 205.47 320.995 205.91 321.614 206.409C322.234 206.909 322.723 207.508 323.083 208.208C323.463 208.887 323.653 209.706 323.653 210.665C323.653 212.324 323.043 213.693 321.824 214.772C320.605 215.831 318.877 216.36 316.639 216.36C315.74 216.36 314.811 216.23 313.852 215.971C312.892 215.711 312.043 215.331 311.304 214.832L311.454 216.12H309.895L309.715 209.736H310.884C310.984 211.495 311.594 212.833 312.713 213.753C313.832 214.652 315.18 215.101 316.759 215.101C317.538 215.101 318.257 214.962 318.917 214.682C319.576 214.382 320.096 213.952 320.475 213.393C320.875 212.833 321.075 212.154 321.075 211.355C321.075 210.456 320.835 209.706 320.356 209.107C319.876 208.507 319.257 207.988 318.497 207.548C317.738 207.109 316.929 206.689 316.07 206.289C315.31 205.95 314.561 205.59 313.822 205.21C313.082 204.831 312.403 204.401 311.783 203.922C311.184 203.422 310.694 202.833 310.315 202.153C309.955 201.474 309.775 200.655 309.775 199.695C309.775 199.176 309.865 198.616 310.045 198.017C310.225 197.418 310.535 196.848 310.974 196.309C311.434 195.749 312.053 195.299 312.832 194.96C313.632 194.6 314.641 194.42 315.86 194.42C316.619 194.42 317.468 194.53 318.407 194.75C319.366 194.95 320.256 195.349 321.075 195.949L320.955 194.66H322.484V201.254H321.405Z" fill="#E8C548"/>
<path d="M341.558 208.118C341.558 207.239 341.438 206.609 341.198 206.23C340.958 205.85 340.579 205.62 340.059 205.54C339.54 205.46 338.85 205.44 337.991 205.48L335.803 205.57V212.434C335.803 213.473 335.773 214.252 335.713 214.772L341.438 214.682C342.317 214.662 343.076 214.522 343.716 214.262C344.355 213.982 344.855 213.503 345.214 212.824C345.574 212.144 345.754 211.215 345.754 210.036H346.773L346.593 215.881H331.127V214.892C331.887 214.852 332.406 214.682 332.686 214.382C332.966 214.062 333.115 213.633 333.135 213.093C333.175 212.534 333.195 211.904 333.195 211.205V198.257C333.195 197.418 333.225 196.698 333.285 196.099C332.926 196.119 332.566 196.139 332.206 196.159C331.847 196.179 331.487 196.199 331.127 196.219V194.9H345.544L345.694 200.145H344.705C344.705 198.966 344.525 198.077 344.165 197.478C343.806 196.858 343.316 196.448 342.697 196.249C342.097 196.029 341.418 195.929 340.659 195.949L338.081 196.009C337.342 196.029 336.812 196.169 336.492 196.428C336.173 196.688 335.973 197.078 335.893 197.597C335.833 198.097 335.803 198.756 335.803 199.576V204.371L341.438 204.401L341.228 201.824H342.547V208.118H341.558Z" fill="#E8C548"/>
<path d="M366.047 201.254C365.988 200.295 365.758 199.386 365.358 198.527C364.958 197.667 364.379 196.968 363.62 196.428C362.86 195.889 361.891 195.619 360.712 195.619C359.474 195.619 358.524 195.969 357.865 196.668C357.206 197.368 356.876 198.187 356.876 199.126C356.876 199.965 357.116 200.675 357.595 201.254C358.075 201.814 358.694 202.313 359.454 202.753C360.233 203.172 361.052 203.582 361.911 203.982C362.671 204.321 363.43 204.691 364.189 205.091C364.949 205.47 365.638 205.91 366.257 206.409C366.877 206.909 367.366 207.508 367.726 208.208C368.106 208.887 368.295 209.706 368.295 210.665C368.295 212.324 367.686 213.693 366.467 214.772C365.248 215.831 363.52 216.36 361.282 216.36C360.383 216.36 359.454 216.23 358.494 215.971C357.535 215.711 356.686 215.331 355.947 214.832L356.097 216.12H354.538L354.358 209.736H355.527C355.627 211.495 356.236 212.833 357.355 213.753C358.474 214.652 359.823 215.101 361.402 215.101C362.181 215.101 362.9 214.962 363.56 214.682C364.219 214.382 364.739 213.952 365.118 213.393C365.518 212.833 365.718 212.154 365.718 211.355C365.718 210.456 365.478 209.706 364.998 209.107C364.519 208.507 363.899 207.988 363.14 207.548C362.381 207.109 361.572 206.689 360.712 206.289C359.953 205.95 359.204 205.59 358.464 205.21C357.725 204.831 357.046 204.401 356.426 203.922C355.827 203.422 355.337 202.833 354.958 202.153C354.598 201.474 354.418 200.655 354.418 199.695C354.418 199.176 354.508 198.616 354.688 198.017C354.868 197.418 355.177 196.848 355.617 196.309C356.077 195.749 356.696 195.299 357.475 194.96C358.275 194.6 359.284 194.42 360.503 194.42C361.262 194.42 362.111 194.53 363.05 194.75C364.009 194.95 364.899 195.349 365.718 195.949L365.598 194.66H367.126V201.254H366.047Z" fill="#E8C548"/>
<path d="M387.549 201.254C387.489 200.295 387.26 199.386 386.86 198.527C386.46 197.667 385.881 196.968 385.122 196.428C384.362 195.889 383.393 195.619 382.214 195.619C380.975 195.619 380.026 195.969 379.367 196.668C378.707 197.368 378.378 198.187 378.378 199.126C378.378 199.965 378.617 200.675 379.097 201.254C379.577 201.814 380.196 202.313 380.955 202.753C381.735 203.172 382.554 203.582 383.413 203.982C384.172 204.321 384.932 204.691 385.691 205.091C386.45 205.47 387.14 205.91 387.759 206.409C388.379 206.909 388.868 207.508 389.228 208.208C389.607 208.887 389.797 209.706 389.797 210.665C389.797 212.324 389.188 213.693 387.969 214.772C386.75 215.831 385.022 216.36 382.784 216.36C381.884 216.36 380.955 216.23 379.996 215.971C379.037 215.711 378.188 215.331 377.449 214.832L377.598 216.12H376.04L375.86 209.736H377.029C377.129 211.495 377.738 212.833 378.857 213.753C379.976 214.652 381.325 215.101 382.904 215.101C383.683 215.101 384.402 214.962 385.062 214.682C385.721 214.382 386.241 213.952 386.62 213.393C387.02 212.833 387.22 212.154 387.22 211.355C387.22 210.456 386.98 209.706 386.5 209.107C386.021 208.507 385.401 207.988 384.642 207.548C383.883 207.109 383.073 206.689 382.214 206.289C381.455 205.95 380.706 205.59 379.966 205.21C379.227 204.831 378.548 204.401 377.928 203.922C377.329 203.422 376.839 202.833 376.459 202.153C376.1 201.474 375.92 200.655 375.92 199.695C375.92 199.176 376.01 198.616 376.19 198.017C376.37 197.418 376.679 196.848 377.119 196.309C377.578 195.749 378.198 195.299 378.977 194.96C379.776 194.6 380.785 194.42 382.004 194.42C382.764 194.42 383.613 194.53 384.552 194.75C385.511 194.95 386.4 195.349 387.22 195.949L387.1 194.66H388.628V201.254H387.549Z" fill="#E8C548"/>
<path d="M407.672 216.36C405.774 216.36 404.146 216.041 402.787 215.401C401.428 214.762 400.319 213.913 399.46 212.853C398.621 211.774 398.001 210.586 397.602 209.287C397.202 207.988 397.002 206.689 397.002 205.39C397.002 204.131 397.212 202.863 397.632 201.584C398.051 200.285 398.691 199.096 399.55 198.017C400.429 196.938 401.518 196.069 402.817 195.409C404.136 194.75 405.674 194.42 407.433 194.42C409.271 194.42 410.86 194.75 412.198 195.409C413.537 196.069 414.636 196.948 415.495 198.047C416.375 199.126 417.024 200.305 417.444 201.584C417.883 202.863 418.103 204.131 418.103 205.39C418.103 206.629 417.893 207.898 417.474 209.197C417.054 210.476 416.404 211.665 415.525 212.764C414.666 213.843 413.587 214.712 412.288 215.371C410.989 216.031 409.451 216.36 407.672 216.36ZM407.732 215.131C408.971 215.131 410.05 214.872 410.969 214.352C411.889 213.813 412.648 213.103 413.247 212.224C413.867 211.325 414.326 210.336 414.626 209.257C414.946 208.158 415.106 207.059 415.106 205.96C415.106 204.721 414.936 203.492 414.596 202.273C414.256 201.054 413.757 199.945 413.097 198.946C412.438 197.947 411.619 197.148 410.64 196.548C409.681 195.929 408.582 195.619 407.343 195.619C406.104 195.619 405.015 195.889 404.076 196.428C403.157 196.968 402.387 197.687 401.768 198.586C401.168 199.466 400.709 200.455 400.389 201.554C400.089 202.633 399.939 203.732 399.939 204.851C399.939 205.95 400.089 207.099 400.389 208.298C400.709 209.497 401.188 210.616 401.828 211.655C402.467 212.694 403.276 213.533 404.256 214.172C405.235 214.812 406.394 215.131 407.732 215.131Z" fill="#E8C548"/>
<path d="M425.301 215.881V214.892C426.06 214.852 426.58 214.682 426.86 214.382C427.139 214.062 427.289 213.633 427.309 213.093C427.349 212.534 427.369 211.904 427.369 211.205V198.257C427.369 197.418 427.399 196.698 427.459 196.099C427.099 196.119 426.74 196.139 426.38 196.159C426.02 196.179 425.661 196.199 425.301 196.219V194.9C426.42 194.88 427.549 194.86 428.688 194.84C429.847 194.82 431.006 194.83 432.165 194.87C435.062 194.91 437.14 195.399 438.399 196.339C439.678 197.278 440.317 198.577 440.317 200.235C440.337 201.014 440.187 201.814 439.868 202.633C439.568 203.432 439.009 204.151 438.189 204.791C437.39 205.43 436.231 205.91 434.712 206.23C435.112 206.509 435.462 206.869 435.762 207.309C436.061 207.748 436.401 208.258 436.781 208.837L438.819 212.044C439.158 212.584 439.488 213.073 439.808 213.513C440.128 213.932 440.497 214.272 440.917 214.532C441.336 214.772 441.856 214.892 442.475 214.892V215.881H438.699C438.119 215.361 437.63 214.842 437.23 214.322C436.851 213.803 436.451 213.213 436.031 212.554L434.023 209.347C433.763 208.927 433.464 208.447 433.124 207.908C432.804 207.349 432.435 206.879 432.015 206.499C431.695 206.519 431.356 206.529 430.996 206.529C430.656 206.529 430.316 206.519 429.977 206.499V212.314C429.977 213.373 429.947 214.162 429.887 214.682C430.247 214.662 430.606 214.642 430.966 214.622C431.326 214.602 431.685 214.582 432.045 214.562V215.881H425.301ZM431.835 205.39C432.934 205.35 433.893 205.17 434.712 204.851C435.552 204.531 436.211 204.022 436.691 203.322C437.17 202.623 437.41 201.704 437.41 200.565C437.41 199.046 436.97 197.907 436.091 197.148C435.232 196.389 433.883 196.009 432.045 196.009C431.306 196.009 430.786 196.159 430.486 196.458C430.207 196.758 430.047 197.178 430.007 197.717C429.987 198.237 429.977 198.856 429.977 199.576V205.33C430.297 205.35 430.596 205.37 430.876 205.39C431.176 205.41 431.495 205.41 431.835 205.39Z" fill="#E8C548"/>
<path d="M455.362 195.889C454.622 195.909 454.103 196.079 453.803 196.398C453.523 196.718 453.363 197.148 453.323 197.687C453.303 198.227 453.293 198.856 453.293 199.576V212.314C453.293 213.373 453.263 214.162 453.203 214.682C453.563 214.662 453.923 214.642 454.283 214.622C454.642 214.602 455.002 214.582 455.362 214.562V215.881H448.618V214.892C449.377 214.852 449.896 214.682 450.176 214.382C450.456 214.062 450.606 213.633 450.626 213.093C450.666 212.534 450.686 211.904 450.686 211.205V198.257C450.686 197.418 450.716 196.698 450.776 196.099C450.416 196.119 450.056 196.139 449.697 196.159C449.337 196.179 448.977 196.199 448.618 196.219V194.9H455.362V195.889Z" fill="#E8C548"/>
<path d="M461.325 215.881V214.892C461.924 214.892 462.384 214.732 462.704 214.412C463.023 214.092 463.283 213.653 463.483 213.093C463.703 212.534 463.952 211.884 464.232 211.145L470.407 194.33H471.126L477.81 211.385C477.97 211.804 478.15 212.344 478.349 213.003C478.549 213.663 478.629 214.222 478.589 214.682C478.929 214.662 479.268 214.642 479.608 214.622C479.948 214.602 480.288 214.582 480.627 214.562V215.881H473.764V214.892C474.523 214.872 475.022 214.702 475.262 214.382C475.502 214.062 475.592 213.683 475.532 213.243C475.472 212.804 475.372 212.404 475.232 212.044L474.183 209.227L466.39 209.407L465.341 212.614C465.201 213.093 465.071 213.473 464.952 213.753C464.852 214.032 464.732 214.342 464.592 214.682C464.991 214.662 465.381 214.642 465.761 214.622C466.16 214.602 466.55 214.582 466.93 214.562V215.881H461.325ZM466.84 208.118H473.764L471.635 202.393C471.416 201.774 471.186 201.164 470.946 200.565C470.726 199.945 470.506 199.326 470.287 198.706H470.227C470.027 199.266 469.817 199.825 469.597 200.385C469.397 200.944 469.188 201.514 468.968 202.093L466.84 208.118Z" fill="#E8C548"/>
</g>
<defs>
<filter id="filter0_di_20_139" x="9.11353" y="0" width="83.4322" height="166.773" filterUnits="userSpaceOnUse" color-interpolation-filters="sRGB">
<feFlood flood-opacity="0" result="BackgroundImageFix"/>
<feColorMatrix in="SourceAlpha" type="matrix" values="0 0 0 0 0 0 0 0 0 0 0 0 0 0 0 0 0 0 127 0" result="hardAlpha"/>
<feOffset dx="2" dy="3"/>
<feGaussianBlur stdDeviation="1.5"/>
<feComposite in2="hardAlpha" operator="out"/>
<feColorMatrix type="matrix" values="0 0 0 0 0.0958333 0 0 0 0 0.0958333 0 0 0 0 0.0958333 0 0 0 0.4 0"/>
<feBlend mode="normal" in2="BackgroundImageFix" result="effect1_dropShadow_20_139"/>
<feBlend mode="normal" in="SourceGraphic" in2="effect1_dropShadow_20_139" result="shape"/>
<feColorMatrix in="SourceAlpha" type="matrix" values="0 0 0 0 0 0 0 0 0 0 0 0 0 0 0 0 0 0 127 0" result="hardAlpha"/>
<feOffset dy="1"/>
<feGaussianBlur stdDeviation="2"/>
<feComposite in2="hardAlpha" operator="arithmetic" k2="-1" k3="1"/>
<feColorMatrix type="matrix" values="0 0 0 0 0 0 0 0 0 0 0 0 0 0 0 0 0 0 0.05 0"/>
<feBlend mode="normal" in2="shape" result="effect2_innerShadow_20_139"/>
</filter>
<filter id="filter1_d_20_139" x="139.304" y="23.76" width="333.88" height="120.328" filterUnits="userSpaceOnUse" color-interpolation-filters="sRGB">
<feFlood flood-opacity="0" result="BackgroundImageFix"/>
<feColorMatrix in="SourceAlpha" type="matrix" values="0 0 0 0 0 0 0 0 0 0 0 0 0 0 0 0 0 0 127 0" result="hardAlpha"/>
<feOffset dx="2" dy="3"/>
<feGaussianBlur stdDeviation="1.5"/>
<feComposite in2="hardAlpha" operator="out"/>
<feColorMatrix type="matrix" values="0 0 0 0 0 0 0 0 0 0 0 0 0 0 0 0 0 0 0.2 0"/>
<feBlend mode="normal" in2="BackgroundImageFix" result="effect1_dropShadow_20_139"/>
<feBlend mode="normal" in="SourceGraphic" in2="effect1_dropShadow_20_139" result="shape"/>
</filter>
<filter id="filter2_di_20_139" x="0" y="194.33" width="486.627" height="30.0299" filterUnits="userSpaceOnUse" color-interpolation-filters="sRGB">
<feFlood flood-opacity="0" result="BackgroundImageFix"/>
<feColorMatrix in="SourceAlpha" type="matrix" values="0 0 0 0 0 0 0 0 0 0 0 0 0 0 0 0 0 0 127 0" result="hardAlpha"/>
<feOffset dx="2" dy="4"/>
<feGaussianBlur stdDeviation="2"/>
<feComposite in2="hardAlpha" operator="out"/>
<feColorMatrix type="matrix" values="0 0 0 0 0 0 0 0 0 0 0 0 0 0 0 0 0 0 0.25 0"/>
<feBlend mode="normal" in2="BackgroundImageFix" result="effect1_dropShadow_20_139"/>
<feBlend mode="normal" in="SourceGraphic" in2="effect1_dropShadow_20_139" result="shape"/>
<feColorMatrix in="SourceAlpha" type="matrix" values="0 0 0 0 0 0 0 0 0 0 0 0 0 0 0 0 0 0 127 0" result="hardAlpha"/>
<feOffset dx="2"/>
<feGaussianBlur stdDeviation="2"/>
<feComposite in2="hardAlpha" operator="arithmetic" k2="-1" k3="1"/>
<feColorMatrix type="matrix" values="0 0 0 0 0 0 0 0 0 0 0 0 0 0 0 0 0 0 0.05 0"/>
<feBlend mode="normal" in2="shape" result="effect2_innerShadow_20_139"/>
</filter>
</defs>
</svg>
