<svg width="540" height="255" viewBox="0 0 540 255" fill="none" xmlns="http://www.w3.org/2000/svg">
<g clip-path="url(#clip0_401_11)">
<g filter="url(#filter0_di_401_11)">
<path d="M197.196 59.9032L195.82 79.2544H144.966V75.9986C145.7 75.9375 146.754 75.8305 148.13 75.6777C149.536 75.5249 150.515 75.3261 151.065 75.0815C151.982 74.6842 152.639 74.1033 153.037 73.3391C153.465 72.5746 153.679 71.5964 153.679 70.4043V23.8145C153.679 22.7751 153.495 21.858 153.129 21.0632C152.792 20.2683 152.104 19.6263 151.065 19.1372C150.362 18.7704 149.368 18.4188 148.084 18.0825C146.831 17.7157 145.792 17.5017 144.966 17.4405V14.1848H172.434V17.4405C171.578 17.4711 170.462 17.624 169.086 17.8991C167.741 18.1742 166.763 18.4188 166.152 18.6328C165.112 18.9996 164.394 19.6263 163.996 20.5129C163.629 21.3994 163.446 22.3471 163.446 23.356V67.0567C163.446 69.0744 163.538 70.6488 163.721 71.7799C163.935 72.8804 164.409 73.7364 165.143 74.3478C165.846 74.898 166.885 75.2649 168.261 75.4484C169.667 75.6012 171.624 75.6777 174.13 75.6777C175.261 75.6777 176.439 75.647 177.661 75.5859C178.884 75.5249 180.046 75.4024 181.147 75.2191C182.216 75.0357 183.195 74.7912 184.081 74.4854C184.998 74.1491 185.671 73.7364 186.099 73.2473C187.352 71.8409 188.804 69.7164 190.455 66.8733C192.136 63.9996 193.298 61.6762 193.94 59.9032H197.196ZM247.977 78.4289C246.539 78.9488 245.271 79.3614 244.172 79.667C243.102 80.0034 241.879 80.1716 240.503 80.1716C238.118 80.1716 236.207 79.6212 234.771 78.5207C233.364 77.3896 232.462 75.754 232.065 73.6141H231.789C229.803 75.8152 227.663 77.4967 225.37 78.6583C223.108 79.82 220.371 80.4007 217.162 80.4007C213.767 80.4007 210.972 79.3614 208.77 77.2826C206.599 75.2038 205.515 72.4831 205.515 69.1202C205.515 67.3777 205.759 65.8186 206.248 64.4429C206.738 63.0673 207.471 61.8292 208.45 60.7285C209.213 59.8115 210.222 59.0013 211.476 58.2983C212.728 57.5646 213.906 56.9837 215.006 56.5556C216.381 56.036 219.163 55.073 223.352 53.6668C227.571 52.2605 230.413 51.1599 231.881 50.3652V45.8255C231.881 45.4279 231.789 44.6637 231.607 43.5326C231.454 42.4016 231.102 41.3315 230.552 40.3227C229.94 39.1915 229.069 38.2132 227.938 37.388C226.837 36.532 225.262 36.1039 223.215 36.1039C221.809 36.1039 220.494 36.3485 219.271 36.8376C218.08 37.2962 217.238 37.7853 216.749 38.305C216.749 38.9164 216.886 39.8184 217.162 41.0105C217.467 42.2028 217.62 43.3033 217.62 44.3121C217.62 45.3821 217.131 46.3604 216.152 47.2469C215.205 48.1336 213.875 48.5767 212.163 48.5767C210.635 48.5767 209.504 48.0418 208.77 46.9718C208.066 45.8712 207.716 44.6484 207.716 43.3033C207.716 41.897 208.205 40.5521 209.183 39.268C210.191 37.9839 211.49 36.8376 213.081 35.8288C214.456 34.9728 216.123 34.2544 218.08 33.6735C220.036 33.0621 221.946 32.7565 223.81 32.7565C226.379 32.7565 228.61 32.9398 230.505 33.3067C232.433 33.643 234.174 34.3919 235.733 35.5537C237.293 36.6848 238.468 38.2285 239.265 40.185C240.09 42.111 240.503 44.6026 240.503 47.6597C240.503 52.0312 240.456 55.9137 240.364 59.3071C240.272 62.6697 240.227 66.3535 240.227 70.3583C240.227 71.5506 240.425 72.4983 240.824 73.2013C241.251 73.9045 241.892 74.5006 242.749 74.9898C243.207 75.2649 243.927 75.4179 244.905 75.4484C245.913 75.4789 246.938 75.4942 247.977 75.4942V78.4289ZM231.973 54.217C229.375 54.9814 227.097 55.7304 225.141 56.4641C223.184 57.1977 221.365 58.1148 219.684 59.2153C218.156 60.2548 216.947 61.4929 216.06 62.9296C215.174 64.3359 214.732 66.0174 214.732 67.9739C214.732 70.5111 215.389 72.3761 216.702 73.5684C218.048 74.7605 219.745 75.3566 221.793 75.3566C223.963 75.3566 225.874 74.837 227.526 73.7975C229.175 72.7276 230.566 71.4741 231.699 70.0374L231.973 54.217ZM291.788 39.8641C291.788 41.4233 291.406 42.8142 290.641 44.037C289.876 45.2293 288.7 45.8255 287.11 45.8255C285.398 45.8255 284.085 45.3821 283.167 44.4956C282.281 43.6089 281.837 42.6307 281.837 41.5608C281.837 40.8882 281.884 40.2768 281.974 39.7266C282.097 39.1762 282.205 38.6261 282.295 38.0757C280.858 38.0757 279.178 38.6566 277.251 39.8184C275.325 40.9799 273.69 42.6307 272.346 44.7707V71.092C272.346 72.162 272.543 73.0332 272.94 73.7059C273.369 74.3784 274.026 74.8827 274.913 75.2191C275.678 75.5249 276.656 75.754 277.847 75.907C279.07 76.0598 280.125 76.1668 281.011 76.2279V79.2544H257.167V76.2279C257.869 76.1668 258.587 76.1056 259.321 76.0445C260.086 75.9833 260.743 75.861 261.293 75.6777C262.15 75.4024 262.776 74.9287 263.173 74.2561C263.602 73.5529 263.815 72.6511 263.815 71.5506V43.6244C263.815 42.6766 263.586 41.7442 263.128 40.8271C262.7 39.9099 262.088 39.1762 261.293 38.626C260.712 38.2592 260.025 37.9994 259.229 37.8464C258.435 37.6631 257.58 37.5408 256.662 37.4795V34.499L271.702 33.4902L272.346 34.1321V40.5061H272.575C274.468 38.0299 276.58 36.1499 278.902 34.8658C281.226 33.5817 283.351 32.9398 285.276 32.9398C287.202 32.9398 288.761 33.5665 289.954 34.82C291.177 36.0734 291.788 37.7548 291.788 39.8641ZM322.347 79.2544H300.473V76.2279C301.175 76.1668 301.895 76.1056 302.629 76.0445C303.392 75.9833 304.049 75.861 304.599 75.6777C305.456 75.4024 306.082 74.9287 306.479 74.2561C306.908 73.5529 307.123 72.6511 307.123 71.5506V43.6244C307.123 42.6461 306.892 41.7594 306.434 40.9647C306.006 40.1392 305.395 39.4513 304.599 38.9011C304.02 38.5343 303.179 38.2285 302.077 37.9839C300.977 37.7088 299.968 37.5408 299.052 37.4795V34.499L315.01 33.4902L315.651 34.1321V71.0002C315.651 72.0702 315.849 72.9567 316.248 73.6599C316.675 74.3631 317.332 74.8827 318.218 75.2191C318.891 75.4942 319.549 75.7235 320.19 75.907C320.832 76.0598 321.552 76.1668 322.347 76.2279V79.2544ZM316.569 15.6522C316.569 17.3947 315.988 18.9232 314.826 20.2378C313.695 21.5217 312.288 22.1637 310.607 22.1637C309.048 22.1637 307.688 21.5523 306.526 20.3295C305.395 19.0761 304.83 17.6545 304.83 16.0649C304.83 14.3835 305.395 12.9161 306.526 11.6627C307.688 10.4093 309.048 9.78259 310.607 9.78259C312.349 9.78259 313.771 10.3787 314.871 11.571C316.003 12.7327 316.569 14.093 316.569 15.6522ZM362.443 57.106C363.696 58.2065 364.658 59.4751 365.331 60.912C366.004 62.3489 366.341 64.1066 366.341 66.1854C366.341 70.3736 364.766 73.7975 361.618 76.4572C358.499 79.1169 354.449 80.4467 349.466 80.4467C346.836 80.4467 344.406 79.9728 342.174 79.0251C339.973 78.0774 338.398 77.2061 337.451 76.4114L336.533 79.3919H333.096L332.636 63.6633H335.8C336.044 64.8556 336.565 66.2467 337.359 67.8363C338.153 69.426 339.118 70.8627 340.249 72.1467C341.44 73.4919 342.863 74.6229 344.512 75.5401C346.195 76.4572 348.075 76.9158 350.153 76.9158C353.087 76.9158 355.351 76.2586 356.94 74.944C358.53 73.5989 359.325 71.6881 359.325 69.212C359.325 67.9279 359.065 66.8274 358.544 65.9103C358.055 64.9626 357.321 64.1371 356.343 63.4342C355.335 62.731 354.097 62.1043 352.63 61.5539C351.162 60.9731 349.527 60.4076 347.723 59.8572C346.287 59.4294 344.68 58.8485 342.908 58.1148C341.166 57.3506 339.668 56.4641 338.413 55.4551C337.069 54.3852 335.968 53.0707 335.113 51.5115C334.256 49.9524 333.829 48.1181 333.829 46.0088C333.829 42.3098 335.205 39.1762 337.956 36.6083C340.707 34.0404 344.391 32.7565 349.006 32.7565C350.781 32.7565 352.583 32.9858 354.418 33.4442C356.282 33.9028 357.797 34.4532 358.957 35.0951L360.012 32.7105H363.314L364.001 47.2469H360.837C360.195 44.0065 358.804 41.3773 356.664 39.3597C354.555 37.3115 351.972 36.2874 348.914 36.2874C346.408 36.2874 344.436 36.9141 343 38.1674C341.564 39.4208 340.843 40.9342 340.843 42.7072C340.843 44.0828 341.074 45.2293 341.532 46.1463C342.021 47.0636 342.739 47.843 343.688 48.485C344.604 49.0964 345.75 49.6773 347.126 50.2276C348.533 50.7473 350.26 51.3434 352.309 52.0159C354.326 52.6578 356.222 53.407 357.994 54.263C359.798 55.1189 361.281 56.0665 362.443 57.106ZM407.766 57.106C409.02 58.2065 409.983 59.4751 410.656 60.912C411.329 62.3489 411.664 64.1066 411.664 66.1854C411.664 70.3736 410.091 73.7975 406.941 76.4572C403.824 79.1169 399.772 80.4467 394.789 80.4467C392.161 80.4467 389.729 79.9728 387.499 79.0251C385.298 78.0774 383.723 77.2061 382.776 76.4114L381.858 79.3919H378.419L377.961 63.6633H381.124C381.369 64.8556 381.889 66.2467 382.684 67.8363C383.478 69.426 384.441 70.8627 385.572 72.1467C386.765 73.4919 388.185 74.6229 389.837 75.5401C391.517 76.4572 393.398 76.9158 395.477 76.9158C398.412 76.9158 400.674 76.2586 402.265 74.944C403.853 73.5989 404.648 71.6881 404.648 69.212C404.648 67.9279 404.389 66.8274 403.869 65.9103C403.38 64.9626 402.646 64.1371 401.668 63.4342C400.658 62.731 399.422 62.1043 397.954 61.5539C396.487 60.9731 394.851 60.4076 393.047 59.8572C391.609 59.4294 390.005 58.8485 388.232 58.1148C386.489 57.3506 384.992 56.4641 383.738 55.4551C382.392 54.3852 381.293 53.0707 380.436 51.5115C379.581 49.9524 379.152 48.1181 379.152 46.0088C379.152 42.3098 380.528 39.1762 383.28 36.6083C386.031 34.0404 389.715 32.7565 394.331 32.7565C396.103 32.7565 397.907 32.9858 399.743 33.4442C401.607 33.9028 403.12 34.4532 404.282 35.0951L405.336 32.7105H408.637L409.326 47.2469H406.162C405.52 44.0065 404.129 41.3773 401.989 39.3597C399.88 37.3115 397.297 36.2874 394.239 36.2874C391.733 36.2874 389.76 36.9141 388.324 38.1674C386.886 39.4208 386.168 40.9342 386.168 42.7072C386.168 44.0828 386.397 45.2293 386.857 46.1463C387.346 47.0636 388.064 47.843 389.011 48.485C389.929 49.0964 391.075 49.6773 392.451 50.2276C393.857 50.7473 395.585 51.3434 397.633 52.0159C399.651 52.6578 401.547 53.407 403.319 54.263C405.123 55.1189 406.604 56.0665 407.766 57.106ZM466.069 78.4289C464.631 78.9488 463.363 79.3614 462.261 79.667C461.191 80.0034 459.968 80.1716 458.593 80.1716C456.21 80.1716 454.298 79.6212 452.862 78.5207C451.455 77.3896 450.553 75.754 450.156 73.6141H449.88C447.895 75.8152 445.754 77.4967 443.461 78.6583C441.199 79.82 438.462 80.4007 435.253 80.4007C431.859 80.4007 429.063 79.3614 426.862 77.2826C424.69 75.2038 423.604 72.4831 423.604 69.1202C423.604 67.3777 423.849 65.8186 424.338 64.4429C424.827 63.0673 425.561 61.8292 426.539 60.7285C427.304 59.8115 428.314 59.0013 429.566 58.2983C430.82 57.5646 431.998 56.9837 433.097 56.5556C434.473 56.036 437.255 55.073 441.444 53.6668C445.662 52.2605 448.505 51.1599 449.972 50.3652V45.8255C449.972 45.4279 449.88 44.6637 449.697 43.5326C449.544 42.4016 449.194 41.3315 448.642 40.3227C448.032 39.1915 447.161 38.2132 446.028 37.388C444.929 36.532 443.354 36.1039 441.305 36.1039C439.9 36.1039 438.585 36.3485 437.363 36.8376C436.169 37.2962 435.33 37.7853 434.841 38.305C434.841 38.9164 434.978 39.8184 435.253 41.0105C435.559 42.2028 435.711 43.3033 435.711 44.3121C435.711 45.3821 435.222 46.3604 434.244 47.2469C433.297 48.1336 431.967 48.5767 430.255 48.5767C428.727 48.5767 427.596 48.0418 426.862 46.9718C426.158 45.8712 425.805 44.6484 425.805 43.3033C425.805 41.897 426.295 40.5521 427.273 39.268C428.282 37.9839 429.582 36.8376 431.172 35.8288C432.548 34.9728 434.213 34.2544 436.169 33.6735C438.126 33.0621 440.037 32.7565 441.902 32.7565C444.471 32.7565 446.701 32.9398 448.597 33.3067C450.522 33.643 452.265 34.3919 453.825 35.5537C455.384 36.6848 456.56 38.2285 457.354 40.185C458.18 42.111 458.593 44.6026 458.593 47.6597C458.593 52.0312 458.548 55.9137 458.456 59.3071C458.364 62.6697 458.319 66.3535 458.319 70.3583C458.319 71.5506 458.517 72.4983 458.914 73.2013C459.342 73.9045 459.984 74.5006 460.841 74.9898C461.299 75.2649 462.017 75.4179 462.995 75.4484C464.005 75.4789 465.028 75.4942 466.069 75.4942V78.4289ZM450.064 54.217C447.466 54.9814 445.189 55.7304 443.232 56.4641C441.276 57.1977 439.456 58.1148 437.775 59.2153C436.245 60.2548 435.038 61.4929 434.152 62.9296C433.266 64.3359 432.822 66.0174 432.822 67.9739C432.822 70.5111 433.479 72.3761 434.794 73.5684C436.14 74.7605 437.836 75.3566 439.885 75.3566C442.054 75.3566 443.966 74.837 445.615 73.7975C447.267 72.7276 448.658 71.4741 449.789 70.0374L450.064 54.217ZM185.457 157.011C186.833 158.539 187.841 160.221 188.483 162.055C189.156 163.859 189.493 165.968 189.493 168.383C189.493 174.13 187.368 178.869 183.118 182.598C178.869 186.328 173.596 188.193 167.298 188.193C164.394 188.193 161.49 187.75 158.585 186.863C155.681 185.946 153.174 184.846 151.065 183.561L149.093 186.909H145.425L144.783 164.623H148.497C149.261 167.374 150.148 169.866 151.157 172.097C152.196 174.299 153.556 176.362 155.238 178.288C156.828 180.092 158.677 181.528 160.786 182.598C162.926 183.668 165.403 184.203 168.215 184.203C170.324 184.203 172.159 183.928 173.718 183.378C175.307 182.828 176.591 182.048 177.57 181.039C178.548 180.031 179.266 178.853 179.725 177.509C180.214 176.133 180.459 174.558 180.459 172.785C180.459 170.187 179.725 167.772 178.258 165.54C176.79 163.278 174.604 161.566 171.7 160.404C169.713 159.609 167.435 158.738 164.868 157.79C162.3 156.812 160.083 155.895 158.218 155.039C154.55 153.388 151.692 151.233 149.643 148.573C147.626 145.883 146.617 142.383 146.617 138.072C146.617 135.596 147.121 133.288 148.13 131.148C149.139 129.008 150.576 127.097 152.441 125.416C154.214 123.826 156.308 122.588 158.723 121.702C161.138 120.785 163.66 120.326 166.289 120.326C169.285 120.326 171.96 120.785 174.314 121.702C176.698 122.619 178.869 123.689 180.825 124.912L182.705 121.793H186.374L186.741 143.392H183.027C182.354 140.915 181.59 138.546 180.734 136.284C179.908 134.022 178.823 131.973 177.478 130.139C176.163 128.366 174.559 126.96 172.663 125.921C170.768 124.851 168.444 124.315 165.693 124.315C162.789 124.315 160.312 125.248 158.264 127.113C156.216 128.978 155.192 131.255 155.192 133.945C155.192 136.758 155.849 139.096 157.164 140.961C158.478 142.796 160.389 144.309 162.896 145.501C165.127 146.571 167.313 147.503 169.453 148.298C171.624 149.063 173.718 149.888 175.735 150.774C177.57 151.569 179.328 152.471 181.009 153.48C182.721 154.489 184.204 155.666 185.457 157.011ZM223.168 186.863H201.295V183.837C201.999 183.776 202.717 183.714 203.451 183.653C204.216 183.592 204.873 183.47 205.423 183.286C206.278 183.011 206.906 182.537 207.303 181.865C207.732 181.162 207.945 180.26 207.945 179.159V151.233C207.945 150.255 207.716 149.368 207.256 148.573C206.83 147.748 206.217 147.06 205.423 146.51C204.842 146.143 204 145.837 202.901 145.593C201.799 145.318 200.792 145.149 199.874 145.088V142.108L215.832 141.099L216.473 141.741V178.609C216.473 179.679 216.673 180.565 217.07 181.269C217.498 181.972 218.156 182.491 219.042 182.828C219.715 183.103 220.371 183.332 221.014 183.516C221.656 183.668 222.374 183.776 223.168 183.837V186.863ZM217.391 123.261C217.391 125.003 216.81 126.532 215.648 127.846C214.517 129.13 213.112 129.772 211.429 129.772C209.87 129.772 208.51 129.161 207.348 127.938C206.217 126.685 205.652 125.263 205.652 123.674C205.652 121.992 206.217 120.525 207.348 119.271C208.51 118.018 209.87 117.391 211.429 117.391C213.173 117.391 214.593 117.987 215.695 119.18C216.825 120.341 217.391 121.702 217.391 123.261ZM254.598 186.863H232.542V183.837C233.245 183.776 233.994 183.714 234.788 183.653C235.583 183.561 236.24 183.439 236.76 183.286C237.617 183.011 238.259 182.537 238.686 181.865C239.114 181.162 239.329 180.26 239.329 179.159V126.792C239.329 125.691 239.085 124.667 238.596 123.719C238.136 122.741 237.525 121.977 236.76 121.427C236.211 121.06 235.201 120.723 233.734 120.418C232.266 120.112 231.09 119.929 230.202 119.867V116.933L247.216 115.878L247.858 116.566V178.609C247.858 179.679 248.055 180.565 248.455 181.269C248.852 181.941 249.493 182.461 250.38 182.828C251.053 183.134 251.71 183.363 252.352 183.516C253.025 183.668 253.772 183.776 254.598 183.837V186.863ZM309.645 144.446C308.269 144.691 306.955 145.195 305.7 145.96C304.478 146.693 303.423 148.008 302.537 149.903C300.733 154 298.868 158.279 296.941 162.743C295.016 167.176 293.014 171.838 290.935 176.729C290.324 178.135 289.667 179.801 288.962 181.727C288.291 183.653 287.663 185.503 287.082 187.276H283.506C280.602 180.092 277.928 173.55 275.482 167.649C273.036 161.719 270.499 155.651 267.869 149.445C267.259 148.038 266.265 146.953 264.889 146.189C263.543 145.394 262.183 144.89 260.808 144.676V141.649H281.717V144.859C280.8 144.89 279.655 145.088 278.278 145.455C276.902 145.791 276.216 146.265 276.216 146.877C276.216 146.968 276.292 147.213 276.445 147.61C276.597 147.977 276.75 148.405 276.902 148.894C278.157 152.013 279.929 156.369 282.222 161.963C284.515 167.558 286.38 172.067 287.816 175.491C288.917 172.862 290.293 169.591 291.944 165.678C293.625 161.765 295.429 157.393 297.354 152.563C297.661 151.737 297.951 150.973 298.227 150.27C298.5 149.536 298.639 148.803 298.639 148.069C298.639 147.549 298.379 147.091 297.859 146.693C297.37 146.265 296.775 145.898 296.07 145.593C295.368 145.287 294.679 145.058 294.006 144.905C293.335 144.752 292.783 144.645 292.357 144.584V141.649H309.645V144.446ZM356.527 176.225C354.631 179.832 352.093 182.705 348.914 184.846C345.735 186.985 342.082 188.055 337.956 188.055C334.319 188.055 331.123 187.413 328.371 186.129C325.651 184.846 323.403 183.103 321.63 180.902C319.858 178.701 318.527 176.133 317.641 173.198C316.786 170.263 316.358 167.16 316.358 163.889C316.358 160.954 316.815 158.081 317.733 155.268C318.68 152.425 320.055 149.873 321.859 147.61C323.603 145.44 325.759 143.697 328.326 142.383C330.924 141.038 333.829 140.365 337.038 140.365C340.341 140.365 343.168 140.885 345.522 141.924C347.875 142.964 349.787 144.385 351.254 146.189C352.661 147.901 353.7 149.918 354.373 152.242C355.075 154.565 355.427 157.087 355.427 159.808V162.835H325.483C325.483 165.8 325.759 168.49 326.308 170.905C326.89 173.32 327.792 175.445 329.014 177.279C330.206 179.052 331.765 180.459 333.69 181.498C335.618 182.507 337.909 183.011 340.57 183.011C343.289 183.011 345.629 182.384 347.586 181.131C349.572 179.847 351.483 177.554 353.316 174.253L356.527 176.225ZM346.392 158.983C346.392 157.271 346.24 155.436 345.934 153.48C345.659 151.523 345.201 149.888 344.559 148.573C343.857 147.167 342.892 146.021 341.669 145.134C340.446 144.248 338.873 143.804 336.946 143.804C333.737 143.804 331.061 145.149 328.922 147.84C326.813 150.499 325.667 154.214 325.483 158.983H346.392ZM396.303 164.715C397.555 165.815 398.52 167.084 399.191 168.521C399.864 169.958 400.2 171.715 400.2 173.794C400.2 177.982 398.625 181.406 395.477 184.066C392.359 186.726 388.309 188.055 383.325 188.055C380.696 188.055 378.266 187.582 376.033 186.634C373.832 185.686 372.259 184.815 371.31 184.02L370.395 187.001H366.955L366.495 171.272H369.661C369.906 172.464 370.424 173.855 371.22 175.445C372.015 177.035 372.977 178.471 374.108 179.755C375.3 181.101 376.722 182.232 378.373 183.149C380.054 184.066 381.934 184.524 384.014 184.524C386.949 184.524 389.211 183.867 390.799 182.553C392.39 181.208 393.184 179.297 393.184 176.821C393.184 175.537 392.924 174.436 392.406 173.519C391.917 172.571 391.183 171.746 390.205 171.043C389.195 170.34 387.957 169.713 386.489 169.163C385.022 168.582 383.386 168.016 381.582 167.466C380.146 167.038 378.542 166.457 376.767 165.723C375.026 164.959 373.527 164.073 372.275 163.064C370.929 161.994 369.829 160.679 368.972 159.12C368.117 157.561 367.689 155.727 367.689 153.617C367.689 149.918 369.064 146.785 371.815 144.217C374.566 141.649 378.25 140.365 382.868 140.365C384.64 140.365 386.444 140.594 388.277 141.053C390.142 141.512 391.656 142.062 392.819 142.704L393.873 140.319H397.174L397.862 154.856H394.699C394.055 151.615 392.664 148.986 390.525 146.968C388.416 144.92 385.832 143.896 382.776 143.896C380.267 143.896 378.297 144.523 376.859 145.776C375.423 147.029 374.705 148.543 374.705 150.316C374.705 151.691 374.934 152.838 375.392 153.755C375.881 154.672 376.601 155.452 377.548 156.094C378.465 156.705 379.612 157.286 380.987 157.836C382.392 158.356 384.12 158.952 386.168 159.625C388.185 160.267 390.081 161.016 391.854 161.872C393.658 162.728 395.141 163.675 396.303 164.715ZM439.701 184.891C437.713 185.717 435.833 186.404 434.06 186.955C432.287 187.536 430.118 187.826 427.549 187.826C423.759 187.826 421.082 186.878 419.525 184.983C417.995 183.057 417.232 180.352 417.232 176.866V146.235H409.069V141.833H417.414V127.755H425.76V141.833H438.738V146.235H425.852V171.501C425.852 173.397 425.913 174.986 426.036 176.27C426.189 177.524 426.525 178.624 427.044 179.572C427.533 180.459 428.267 181.131 429.245 181.59C430.223 182.048 431.538 182.277 433.189 182.277C433.954 182.277 435.07 182.216 436.537 182.094C438.034 181.941 439.09 181.758 439.701 181.544V184.891ZM483.558 147.473C483.558 149.032 483.175 150.423 482.412 151.646C481.647 152.838 480.471 153.434 478.88 153.434C477.168 153.434 475.853 152.991 474.936 152.104C474.049 151.218 473.607 150.239 473.607 149.17C473.607 148.497 473.652 147.885 473.744 147.335C473.867 146.785 473.973 146.235 474.065 145.684C472.629 145.684 470.946 146.265 469.021 147.427C467.096 148.589 465.46 150.239 464.114 152.379V178.701C464.114 179.771 464.314 180.642 464.711 181.315C465.139 181.987 465.797 182.491 466.683 182.828C467.446 183.134 468.424 183.363 469.618 183.516C470.841 183.668 471.895 183.776 472.782 183.837V186.863H448.935V183.837C449.64 183.776 450.358 183.714 451.092 183.653C451.857 183.592 452.514 183.47 453.064 183.286C453.919 183.011 454.547 182.537 454.944 181.865C455.37 181.162 455.586 180.26 455.586 179.159V151.233C455.586 150.285 455.357 149.353 454.897 148.436C454.47 147.519 453.858 146.785 453.064 146.235C452.483 145.868 451.794 145.608 451 145.455C450.205 145.272 449.348 145.149 448.433 145.088V142.108L463.472 141.099L464.114 141.741V148.115H464.343C466.239 145.639 468.348 143.759 470.672 142.475C472.995 141.19 475.12 140.549 477.047 140.549C478.972 140.549 480.531 141.175 481.723 142.429C482.946 143.682 483.558 145.364 483.558 147.473ZM532.321 176.225C530.425 179.832 527.887 182.705 524.708 184.846C521.528 186.985 517.875 188.055 513.749 188.055C510.112 188.055 506.917 187.413 504.164 186.129C501.445 184.846 499.197 183.103 497.424 180.902C495.651 178.701 494.321 176.133 493.435 173.198C492.58 170.263 492.151 167.16 492.151 163.889C492.151 160.954 492.609 158.081 493.527 155.268C494.473 152.425 495.849 149.873 497.653 147.61C499.396 145.44 501.552 143.697 504.119 142.383C506.717 141.038 509.623 140.365 512.832 140.365C516.134 140.365 518.961 140.885 521.315 141.924C523.669 142.964 525.58 144.385 527.048 146.189C528.454 147.901 529.493 149.918 530.166 152.242C530.869 154.565 531.221 157.087 531.221 159.808V162.835H501.276C501.276 165.8 501.552 168.49 502.102 170.905C502.683 173.32 503.585 175.445 504.808 177.279C505.999 179.052 507.559 180.459 509.484 181.498C511.411 182.507 513.702 183.011 516.363 183.011C519.083 183.011 521.423 182.384 523.379 181.131C525.365 179.847 527.277 177.554 529.11 174.253L532.321 176.225ZM522.186 158.983C522.186 157.271 522.033 155.436 521.728 153.48C521.452 151.523 520.994 149.888 520.352 148.573C519.65 147.167 518.685 146.021 517.463 145.134C516.24 144.248 514.667 143.804 512.74 143.804C509.531 143.804 506.854 145.149 504.716 147.84C502.607 150.499 501.46 154.214 501.276 158.983H522.186Z" fill="#E8C548"/>
</g>
<g filter="url(#filter1_di_401_11)">
<path d="M38.4078 122.786H39.3222C40.2976 122.786 41.151 122.481 41.8826 121.872C42.6141 121.14 43.2237 120.287 43.7114 119.311C44.321 118.336 44.7477 117.3 44.9916 116.202C45.3573 115.105 45.5402 114.069 45.5402 113.093V15.2517C45.5402 14.3982 45.3573 13.4229 44.9916 12.3256C44.7477 11.2283 44.321 10.192 43.7114 9.2166C43.2237 8.24122 42.6141 7.44873 41.8826 6.83913C41.151 6.1076 40.2976 5.74184 39.3222 5.74184H38.4078V3.91302H64.7428V5.74184H63.8284C62.853 5.74184 61.9996 6.1076 61.268 6.83913C60.5365 7.44873 59.9269 8.24122 59.4392 9.2166C58.9515 10.192 58.5248 11.2283 58.1591 12.3256C57.9152 13.4229 57.7933 14.3982 57.7933 15.2517V117.848H97.8444C100.161 117.848 102.173 117.3 103.88 116.202C105.586 115.105 106.989 113.764 108.086 112.179C109.305 110.472 110.158 108.704 110.646 106.876C111.256 104.925 111.561 103.157 111.561 101.572H113.389V124.615H38.4078V122.786Z" fill="#E8C548"/>
<path d="M97.2348 160.826C97.2348 166.922 96.0156 172.164 93.5772 176.553C91.1387 180.821 87.9688 184.295 84.0673 186.978C80.2878 189.66 75.9596 191.611 71.0827 192.83C66.3278 194.049 61.5729 194.659 56.8179 194.659C51.9411 194.659 47.7348 194.171 44.1991 193.196C40.6634 192.22 37.4324 191.306 34.5063 190.453C32.5556 189.843 30.7877 189.355 29.2028 188.989C27.6178 188.502 26.0328 188.258 24.4478 188.258V167.409H26.2767C26.2767 172.042 27.4349 175.761 29.7514 178.565C32.1898 181.247 34.994 183.32 38.164 184.783C41.3339 186.246 44.5039 187.222 47.6738 187.709C50.8438 188.075 53.1603 188.258 54.6233 188.258C59.866 188.258 64.377 187.526 68.1566 186.063C71.9362 184.478 75.0451 182.467 77.4836 180.028C79.922 177.468 81.6899 174.664 82.7871 171.616C84.0064 168.568 84.616 165.459 84.616 162.289C84.616 158.265 83.7625 154.912 82.0556 152.23C80.3487 149.426 78.0932 146.988 75.289 144.915C72.6067 142.842 69.4977 141.074 65.962 139.611C62.4263 138.148 58.8296 136.685 55.172 135.222C51.0267 133.637 46.9423 131.991 42.9189 130.284C38.8955 128.577 35.2988 126.505 32.1289 124.066C28.9589 121.506 26.3986 118.519 24.4478 115.105C22.4971 111.569 21.5217 107.241 21.5217 102.121C21.5217 96.756 22.5581 92.123 24.6307 88.2216C26.7034 84.1981 29.4466 80.9063 32.8604 78.3459C36.3961 75.7856 40.3586 73.8958 44.7477 72.6766C49.2588 71.3355 53.8309 70.6649 58.4639 70.6649C61.6338 70.6649 64.6209 70.9087 67.4251 71.3964C70.2293 71.7622 72.9115 72.2499 75.4719 72.8595C77.5445 73.3472 79.5562 73.7739 81.507 74.1397C83.4577 74.3835 85.3475 74.5054 87.1763 74.5054V93.3422H85.3475C85.1037 87.0023 82.6043 82.7351 77.8493 80.5405C73.0944 78.224 66.5107 77.0658 58.0981 77.0658C53.2212 77.0658 49.1978 77.9192 46.0279 79.6261C42.9799 81.2111 40.5414 83.2228 38.7126 85.6612C36.8838 87.9777 35.6036 90.5381 34.8721 93.3422C34.2625 96.0245 33.9577 98.402 33.9577 100.475C33.9577 103.888 34.6892 106.815 36.1523 109.253C37.7373 111.691 39.8099 113.825 42.3703 115.654C44.9306 117.483 47.8567 119.129 51.1486 120.592C54.5624 122.055 58.0981 123.457 61.7557 124.798C65.9011 126.383 70.1073 128.09 74.3746 129.919C78.6418 131.747 82.4214 134.003 85.7133 136.685C89.127 139.368 91.8703 142.659 93.9429 146.561C96.1375 150.462 97.2348 155.217 97.2348 160.826Z" fill="#E8C548"/>
</g>
<g filter="url(#filter2_di_401_11)">
<path d="M0 242.055V240.913C0.666517 240.913 1.17751 240.729 1.53299 240.359C1.88846 239.99 2.17729 239.483 2.39946 238.837C2.64385 238.191 2.92157 237.441 3.23261 236.587L10.0977 217.174H10.8976L18.3292 236.864C18.507 237.349 18.7069 237.972 18.9291 238.733C19.1513 239.494 19.2401 240.14 19.1957 240.671C19.5734 240.648 19.9511 240.625 20.3288 240.602C20.7065 240.579 21.0842 240.555 21.4618 240.532V242.055H13.8302V240.913C14.6745 240.89 15.2299 240.694 15.4965 240.325C15.7631 239.956 15.8631 239.517 15.7965 239.01C15.7298 238.502 15.6187 238.041 15.4632 237.626L14.2968 234.373L5.63207 234.58L4.46566 238.283C4.31014 238.837 4.16573 239.275 4.03243 239.598C3.92134 239.921 3.78804 240.279 3.63252 240.671C4.07686 240.648 4.5101 240.625 4.93223 240.602C5.37657 240.579 5.80981 240.555 6.23193 240.532V242.055H0ZM6.13196 233.092H13.8302L11.4641 226.483C11.2197 225.768 10.9642 225.064 10.6976 224.372C10.4532 223.657 10.2088 222.941 9.96443 222.226H9.89778C9.67561 222.872 9.44232 223.518 9.19793 224.164C8.97576 224.81 8.74248 225.468 8.49809 226.137L6.13196 233.092Z" fill="#E8C548"/>
<path d="M27.893 240.913C28.7372 240.867 29.3149 240.671 29.6259 240.325C29.9369 239.956 30.1036 239.46 30.1258 238.837C30.1702 238.191 30.1924 237.464 30.1924 236.657V221.707C30.1924 220.738 30.2258 219.908 30.2924 219.216C29.8925 219.239 29.4926 219.262 29.0927 219.285C28.6928 219.308 28.2929 219.331 27.893 219.354V217.831L35.7579 217.797C38.4461 217.774 40.8012 218.201 42.8229 219.077C44.8669 219.954 46.4666 221.292 47.6219 223.091C48.7772 224.891 49.3548 227.186 49.3548 229.978C49.3548 231.57 49.0882 233.092 48.555 234.546C48.0218 235.999 47.222 237.291 46.1555 238.422C45.0891 239.529 43.7561 240.417 42.1564 241.086C40.579 241.732 38.7461 242.055 36.6577 242.055H27.893V240.913ZM33.0918 237.972C33.0918 239.171 33.0585 240.071 32.9918 240.671C33.8805 240.717 34.6581 240.74 35.3246 240.74C36.0134 240.74 36.4244 240.74 36.5577 240.74C38.4684 240.74 40.1347 240.267 41.5566 239.321C43.0007 238.352 44.1115 237.049 44.8891 235.411C45.689 233.75 46.0889 231.893 46.0889 229.839C46.0889 227.648 45.7001 225.756 44.9225 224.164C44.1671 222.549 43.0007 221.303 41.4233 220.427C39.8458 219.527 37.8352 219.077 35.3913 219.077C34.5692 219.077 33.9916 219.25 33.6583 219.596C33.3473 219.942 33.1695 220.427 33.1251 221.05C33.1029 221.673 33.0918 222.399 33.0918 223.23V237.972Z" fill="#E8C548"/>
<path d="M66.1984 242.401L58.6334 223.991C58.1447 222.815 57.8003 221.869 57.6003 221.154C57.4004 220.415 57.2671 219.792 57.2004 219.285C56.8894 219.308 56.5784 219.319 56.2673 219.319C55.9563 219.319 55.6452 219.331 55.3342 219.354V217.831H63.0658L63.0325 219.008C61.9216 219.077 61.2551 219.435 61.0329 220.081C60.8107 220.704 60.9218 221.592 61.3662 222.745C61.8994 224.107 62.4104 225.422 62.8992 226.69C63.3879 227.959 63.9323 229.332 64.5321 230.808C65.0653 232.1 65.5763 233.346 66.0651 234.546C66.5761 235.722 66.9649 236.703 67.2315 237.487H67.2982C67.5426 236.68 67.7869 235.907 68.0313 235.169C68.2979 234.43 68.609 233.554 68.9645 232.539C69.631 230.601 70.1864 228.963 70.6308 227.625C71.0973 226.287 71.4972 225.145 71.8305 224.199C72.1637 223.253 72.4415 222.445 72.6636 221.776C72.8636 221.177 73.0413 220.669 73.1968 220.254C73.3524 219.839 73.4968 219.492 73.6301 219.216C73.208 219.239 72.7858 219.262 72.3637 219.285C71.9416 219.308 71.5083 219.331 71.064 219.354V217.831H77.8291V218.973C76.8516 219.02 76.0962 219.285 75.563 219.769C75.052 220.254 74.5854 221.119 74.1633 222.365C74.1189 222.48 74.0633 222.642 73.9967 222.849C73.93 223.034 73.8189 223.345 73.6634 223.784C73.5079 224.222 73.2857 224.868 72.9969 225.721C72.7081 226.552 72.3082 227.682 71.7972 229.113C71.3084 230.543 70.6752 232.343 69.8976 234.511C69.1422 236.68 68.2202 239.31 67.1315 242.401H66.1984Z" fill="#E8C548"/>
<path d="M95.1476 242.609C93.037 242.609 91.2263 242.24 89.7155 241.501C88.2048 240.763 86.9717 239.783 86.0164 238.56C85.0832 237.314 84.3945 235.941 83.9502 234.442C83.5058 232.942 83.2836 231.443 83.2836 229.943C83.2836 228.49 83.5169 227.025 83.9835 225.548C84.45 224.049 85.161 222.676 86.1163 221.43C87.0939 220.185 88.3047 219.181 89.7489 218.42C91.2152 217.658 92.9259 217.278 94.881 217.278C96.925 217.278 98.6913 217.658 100.18 218.42C101.668 219.181 102.89 220.196 103.846 221.465C104.823 222.711 105.545 224.072 106.012 225.548C106.501 227.025 106.745 228.49 106.745 229.943C106.745 231.374 106.512 232.839 106.045 234.338C105.579 235.815 104.857 237.187 103.879 238.456C102.924 239.702 101.724 240.705 100.28 241.467C98.8357 242.228 97.125 242.609 95.1476 242.609ZM95.2143 241.19C96.5918 241.19 97.7915 240.89 98.8135 240.29C99.8355 239.667 100.68 238.848 101.346 237.833C102.035 236.795 102.546 235.653 102.879 234.407C103.235 233.138 103.412 231.87 103.412 230.601C103.412 229.17 103.224 227.752 102.846 226.344C102.468 224.937 101.913 223.657 101.18 222.503C100.446 221.35 99.5355 220.427 98.4469 219.735C97.3805 219.02 96.1585 218.662 94.7811 218.662C93.4036 218.662 92.1928 218.973 91.1485 219.596C90.1266 220.219 89.2712 221.05 88.5824 222.088C87.9159 223.103 87.4049 224.245 87.0495 225.514C86.7162 226.76 86.5496 228.028 86.5496 229.32C86.5496 230.589 86.7162 231.916 87.0495 233.3C87.4049 234.684 87.9381 235.976 88.6491 237.176C89.36 238.375 90.2599 239.344 91.3485 240.083C92.4371 240.821 93.7257 241.19 95.2143 241.19Z" fill="#E8C548"/>
<path d="M133.471 225.548C133.248 223.38 132.515 221.696 131.271 220.496C130.049 219.296 128.472 218.697 126.539 218.697C124.961 218.697 123.528 219.158 122.24 220.081C120.951 220.981 119.918 222.261 119.14 223.922C118.385 225.583 118.007 227.544 118.007 229.805C118.007 231.973 118.407 233.888 119.207 235.549C120.007 237.21 121.084 238.502 122.44 239.425C123.795 240.348 125.295 240.809 126.939 240.809C128.383 240.809 129.805 240.475 131.204 239.806C132.604 239.114 133.748 238.122 134.637 236.83L135.503 237.556C134.548 238.918 133.515 239.967 132.404 240.705C131.293 241.444 130.182 241.94 129.072 242.193C127.983 242.47 126.983 242.609 126.072 242.609C124.406 242.609 122.873 242.297 121.473 241.674C120.096 241.051 118.896 240.186 117.874 239.079C116.874 237.949 116.097 236.645 115.541 235.169C115.008 233.669 114.741 232.054 114.741 230.324C114.741 228.686 114.975 227.094 115.441 225.548C115.93 224.003 116.652 222.607 117.607 221.361C118.563 220.115 119.763 219.123 121.207 218.385C122.673 217.647 124.373 217.278 126.305 217.278C128.749 217.278 130.993 217.981 133.037 219.389L132.871 217.52H134.67V225.548H133.471Z" fill="#E8C548"/>
<path d="M140.984 242.055V240.913C141.65 240.913 142.161 240.729 142.517 240.359C142.872 239.99 143.161 239.483 143.383 238.837C143.628 238.191 143.906 237.441 144.217 236.587L151.082 217.174H151.882L159.313 236.864C159.491 237.349 159.691 237.972 159.913 238.733C160.135 239.494 160.224 240.14 160.18 240.671C160.557 240.648 160.935 240.625 161.313 240.602C161.69 240.579 162.068 240.555 162.446 240.532V242.055H154.814V240.913C155.658 240.89 156.214 240.694 156.48 240.325C156.747 239.956 156.847 239.517 156.78 239.01C156.714 238.502 156.603 238.041 156.447 237.626L155.281 234.373L146.616 234.58L145.45 238.283C145.294 238.837 145.15 239.275 145.016 239.598C144.905 239.921 144.772 240.279 144.616 240.671C145.061 240.648 145.494 240.625 145.916 240.602C146.361 240.579 146.794 240.555 147.216 240.532V242.055H140.984ZM147.116 233.092H154.814L152.448 226.483C152.204 225.768 151.948 225.064 151.682 224.372C151.437 223.657 151.193 222.941 150.948 222.226H150.882C150.66 222.872 150.426 223.518 150.182 224.164C149.96 224.81 149.726 225.468 149.482 226.137L147.116 233.092Z" fill="#E8C548"/>
<path d="M187.143 225.548C186.921 223.38 186.188 221.696 184.944 220.496C183.722 219.296 182.145 218.697 180.212 218.697C178.634 218.697 177.201 219.158 175.913 220.081C174.624 220.981 173.591 222.261 172.813 223.922C172.058 225.583 171.68 227.544 171.68 229.805C171.68 231.973 172.08 233.888 172.88 235.549C173.68 237.21 174.757 238.502 176.113 239.425C177.468 240.348 178.967 240.809 180.612 240.809C182.056 240.809 183.478 240.475 184.877 239.806C186.277 239.114 187.421 238.122 188.31 236.83L189.176 237.556C188.221 238.918 187.188 239.967 186.077 240.705C184.966 241.444 183.855 241.94 182.744 242.193C181.656 242.47 180.656 242.609 179.745 242.609C178.079 242.609 176.546 242.297 175.146 241.674C173.769 241.051 172.569 240.186 171.547 239.079C170.547 237.949 169.77 236.645 169.214 235.169C168.681 233.669 168.414 232.054 168.414 230.324C168.414 228.686 168.648 227.094 169.114 225.548C169.603 224.003 170.325 222.607 171.28 221.361C172.236 220.115 173.435 219.123 174.879 218.385C176.346 217.647 178.045 217.278 179.978 217.278C182.422 217.278 184.666 217.981 186.71 219.389L186.544 217.52H188.343V225.548H187.143Z" fill="#E8C548"/>
<path d="M204.513 218.973C203.691 218.996 203.114 219.193 202.78 219.562C202.469 219.931 202.292 220.427 202.247 221.05C202.225 221.673 202.214 222.399 202.214 223.23V237.937C202.214 239.16 202.181 240.071 202.114 240.671C202.514 240.648 202.914 240.625 203.314 240.602C203.714 240.579 204.114 240.555 204.513 240.532V242.055H197.015V240.913C197.859 240.867 198.437 240.671 198.748 240.325C199.059 239.956 199.226 239.46 199.248 238.837C199.292 238.191 199.315 237.464 199.315 236.657V221.707C199.315 220.738 199.348 219.908 199.415 219.216C199.015 219.239 198.615 219.262 198.215 219.285C197.815 219.308 197.415 219.331 197.015 219.354V217.831H204.513V218.973Z" fill="#E8C548"/>
<path d="M211.144 242.055V240.913C211.811 240.913 212.322 240.729 212.677 240.359C213.032 239.99 213.321 239.483 213.543 238.837C213.788 238.191 214.066 237.441 214.377 236.587L221.242 217.174H222.042L229.473 236.864C229.651 237.349 229.851 237.972 230.073 238.733C230.295 239.494 230.384 240.14 230.34 240.671C230.717 240.648 231.095 240.625 231.473 240.602C231.85 240.579 232.228 240.555 232.606 240.532V242.055H224.974V240.913C225.818 240.89 226.374 240.694 226.641 240.325C226.907 239.956 227.007 239.517 226.94 239.01C226.874 238.502 226.763 238.041 226.607 237.626L225.441 234.373L216.776 234.58L215.61 238.283C215.454 238.837 215.31 239.275 215.176 239.598C215.065 239.921 214.932 240.279 214.777 240.671C215.221 240.648 215.654 240.625 216.076 240.602C216.521 240.579 216.954 240.555 217.376 240.532V242.055H211.144ZM217.276 233.092H224.974L222.608 226.483C222.364 225.768 222.108 225.064 221.842 224.372C221.597 223.657 221.353 222.941 221.108 222.226H221.042C220.82 222.872 220.586 223.518 220.342 224.164C220.12 224.81 219.886 225.468 219.642 226.137L217.276 233.092Z" fill="#E8C548"/>
<path d="M264.388 233.092C264.388 232.077 264.254 231.351 263.988 230.912C263.721 230.474 263.299 230.209 262.721 230.116C262.144 230.024 261.377 230.001 260.422 230.047L257.989 230.151V238.075C257.989 239.275 257.956 240.175 257.889 240.775L264.254 240.671C265.232 240.648 266.076 240.486 266.787 240.186C267.498 239.863 268.054 239.31 268.454 238.525C268.853 237.741 269.053 236.668 269.053 235.307H270.186L269.987 242.055H252.79V240.913C253.635 240.867 254.212 240.671 254.523 240.325C254.834 239.956 255.001 239.46 255.023 238.837C255.068 238.191 255.09 237.464 255.09 236.657V221.707C255.09 220.738 255.123 219.908 255.19 219.216C254.79 219.239 254.39 219.262 253.99 219.285C253.59 219.308 253.19 219.331 252.79 219.354V217.831H268.82L268.987 223.887H267.887C267.887 222.526 267.687 221.5 267.287 220.807C266.887 220.092 266.343 219.619 265.654 219.389C264.988 219.135 264.232 219.02 263.388 219.043L260.522 219.112C259.7 219.135 259.111 219.296 258.756 219.596C258.4 219.896 258.178 220.346 258.089 220.946C258.023 221.523 257.989 222.284 257.989 223.23V228.767L264.254 228.801L264.021 225.825H265.488V233.092H264.388Z" fill="#E8C548"/>
<path d="M290.241 242.055V240.913C290.907 240.913 291.418 240.729 291.774 240.359C292.129 239.99 292.418 239.483 292.64 238.837C292.885 238.191 293.162 237.441 293.473 236.587L300.339 217.174H301.138L308.57 236.864C308.748 237.349 308.948 237.972 309.17 238.733C309.392 239.494 309.481 240.14 309.436 240.671C309.814 240.648 310.192 240.625 310.57 240.602C310.947 240.579 311.325 240.555 311.703 240.532V242.055H304.071V240.913C304.915 240.89 305.471 240.694 305.737 240.325C306.004 239.956 306.104 239.517 306.037 239.01C305.971 238.502 305.86 238.041 305.704 237.626L304.538 234.373L295.873 234.58L294.706 238.283C294.551 238.837 294.407 239.275 294.273 239.598C294.162 239.921 294.029 240.279 293.873 240.671C294.318 240.648 294.751 240.625 295.173 240.602C295.617 240.579 296.051 240.555 296.473 240.532V242.055H290.241ZM296.373 233.092H304.071L301.705 226.483C301.461 225.768 301.205 225.064 300.938 224.372C300.694 223.657 300.45 222.941 300.205 222.226H300.139C299.916 222.872 299.683 223.518 299.439 224.164C299.217 224.81 298.983 225.468 298.739 226.137L296.373 233.092Z" fill="#E8C548"/>
<path d="M331.231 225.168C331.164 224.06 330.909 223.011 330.464 222.019C330.02 221.027 329.376 220.219 328.531 219.596C327.687 218.973 326.61 218.662 325.299 218.662C323.921 218.662 322.866 219.066 322.133 219.873C321.4 220.681 321.033 221.626 321.033 222.711C321.033 223.68 321.3 224.499 321.833 225.168C322.366 225.814 323.055 226.39 323.899 226.898C324.766 227.382 325.677 227.855 326.632 228.317C327.476 228.709 328.32 229.136 329.165 229.597C330.009 230.036 330.775 230.543 331.464 231.12C332.153 231.697 332.697 232.389 333.097 233.196C333.519 233.981 333.73 234.926 333.73 236.034C333.73 237.949 333.053 239.529 331.697 240.775C330.342 241.997 328.42 242.609 325.932 242.609C324.932 242.609 323.899 242.459 322.833 242.159C321.766 241.859 320.822 241.421 320 240.844L320.167 242.332H318.434L318.234 234.961H319.533C319.645 236.991 320.322 238.537 321.566 239.598C322.81 240.636 324.31 241.155 326.065 241.155C326.932 241.155 327.732 240.994 328.465 240.671C329.198 240.325 329.776 239.829 330.198 239.183C330.642 238.537 330.864 237.752 330.864 236.83C330.864 235.792 330.598 234.926 330.064 234.234C329.531 233.542 328.842 232.942 327.998 232.435C327.154 231.927 326.254 231.443 325.299 230.981C324.455 230.589 323.621 230.174 322.799 229.736C321.977 229.297 321.222 228.801 320.533 228.248C319.867 227.671 319.322 226.99 318.9 226.206C318.5 225.422 318.3 224.476 318.3 223.368C318.3 222.768 318.4 222.122 318.6 221.43C318.8 220.738 319.145 220.081 319.633 219.458C320.144 218.812 320.833 218.293 321.7 217.901C322.588 217.485 323.71 217.278 325.066 217.278C325.91 217.278 326.854 217.405 327.898 217.658C328.965 217.889 329.953 218.351 330.864 219.043L330.731 217.555H332.431V225.168H331.231Z" fill="#E8C548"/>
<path d="M355.138 225.168C355.072 224.06 354.816 223.011 354.372 222.019C353.927 221.027 353.283 220.219 352.439 219.596C351.595 218.973 350.517 218.662 349.206 218.662C347.829 218.662 346.773 219.066 346.04 219.873C345.307 220.681 344.941 221.626 344.941 222.711C344.941 223.68 345.207 224.499 345.74 225.168C346.274 225.814 346.962 226.39 347.807 226.898C348.673 227.382 349.584 227.855 350.539 228.317C351.384 228.709 352.228 229.136 353.072 229.597C353.916 230.036 354.683 230.543 355.372 231.12C356.06 231.697 356.605 232.389 357.004 233.196C357.427 233.981 357.638 234.926 357.638 236.034C357.638 237.949 356.96 239.529 355.605 240.775C354.25 241.997 352.328 242.609 349.839 242.609C348.84 242.609 347.807 242.459 346.74 242.159C345.674 241.859 344.729 241.421 343.907 240.844L344.074 242.332H342.341L342.141 234.961H343.441C343.552 236.991 344.23 238.537 345.474 239.598C346.718 240.636 348.218 241.155 349.973 241.155C350.839 241.155 351.639 240.994 352.372 240.671C353.105 240.325 353.683 239.829 354.105 239.183C354.549 238.537 354.772 237.752 354.772 236.83C354.772 235.792 354.505 234.926 353.972 234.234C353.439 233.542 352.75 232.942 351.906 232.435C351.061 231.927 350.162 231.443 349.206 230.981C348.362 230.589 347.529 230.174 346.707 229.736C345.885 229.297 345.129 228.801 344.441 228.248C343.774 227.671 343.23 226.99 342.808 226.206C342.408 225.422 342.208 224.476 342.208 223.368C342.208 222.768 342.308 222.122 342.508 221.43C342.708 220.738 343.052 220.081 343.541 219.458C344.052 218.812 344.741 218.293 345.607 217.901C346.496 217.485 347.618 217.278 348.973 217.278C349.817 217.278 350.761 217.405 351.806 217.658C352.872 217.889 353.861 218.351 354.772 219.043L354.638 217.555H356.338V225.168H355.138Z" fill="#E8C548"/>
<path d="M377.546 233.092C377.546 232.077 377.413 231.351 377.146 230.912C376.879 230.474 376.457 230.209 375.88 230.116C375.302 230.024 374.536 230.001 373.58 230.047L371.147 230.151V238.075C371.147 239.275 371.114 240.175 371.047 240.775L377.413 240.671C378.39 240.648 379.234 240.486 379.945 240.186C380.656 239.863 381.212 239.31 381.612 238.525C382.012 237.741 382.212 236.668 382.212 235.307H383.345L383.145 242.055H365.949V240.913C366.793 240.867 367.37 240.671 367.681 240.325C367.993 239.956 368.159 239.46 368.181 238.837C368.226 238.191 368.248 237.464 368.248 236.657V221.707C368.248 220.738 368.281 219.908 368.348 219.216C367.948 219.239 367.548 219.262 367.148 219.285C366.748 219.308 366.348 219.331 365.949 219.354V217.831H381.978L382.145 223.887H381.045C381.045 222.526 380.845 221.5 380.445 220.807C380.045 220.092 379.501 219.619 378.812 219.389C378.146 219.135 377.39 219.02 376.546 219.043L373.68 219.112C372.858 219.135 372.269 219.296 371.914 219.596C371.558 219.896 371.336 220.346 371.247 220.946C371.181 221.523 371.147 222.284 371.147 223.23V228.767L377.413 228.801L377.179 225.825H378.646V233.092H377.546Z" fill="#E8C548"/>
<path d="M404.776 225.168C404.709 224.06 404.453 223.011 404.009 222.019C403.565 221.027 402.92 220.219 402.076 219.596C401.232 218.973 400.154 218.662 398.844 218.662C397.466 218.662 396.411 219.066 395.678 219.873C394.944 220.681 394.578 221.626 394.578 222.711C394.578 223.68 394.844 224.499 395.378 225.168C395.911 225.814 396.6 226.39 397.444 226.898C398.31 227.382 399.221 227.855 400.177 228.317C401.021 228.709 401.865 229.136 402.709 229.597C403.554 230.036 404.32 230.543 405.009 231.12C405.698 231.697 406.242 232.389 406.642 233.196C407.064 233.981 407.275 234.926 407.275 236.034C407.275 237.949 406.597 239.529 405.242 240.775C403.887 241.997 401.965 242.609 399.477 242.609C398.477 242.609 397.444 242.459 396.377 242.159C395.311 241.859 394.367 241.421 393.545 240.844L393.711 242.332H391.978L391.778 234.961H393.078C393.189 236.991 393.867 238.537 395.111 239.598C396.355 240.636 397.855 241.155 399.61 241.155C400.476 241.155 401.276 240.994 402.009 240.671C402.743 240.325 403.32 239.829 403.742 239.183C404.187 238.537 404.409 237.752 404.409 236.83C404.409 235.792 404.142 234.926 403.609 234.234C403.076 233.542 402.387 232.942 401.543 232.435C400.699 231.927 399.799 231.443 398.844 230.981C397.999 230.589 397.166 230.174 396.344 229.736C395.522 229.297 394.767 228.801 394.078 228.248C393.411 227.671 392.867 226.99 392.445 226.206C392.045 225.422 391.845 224.476 391.845 223.368C391.845 222.768 391.945 222.122 392.145 221.43C392.345 220.738 392.689 220.081 393.178 219.458C393.689 218.812 394.378 218.293 395.244 217.901C396.133 217.485 397.255 217.278 398.61 217.278C399.455 217.278 400.399 217.405 401.443 217.658C402.509 217.889 403.498 218.351 404.409 219.043L404.276 217.555H405.975V225.168H404.776Z" fill="#E8C548"/>
<path d="M428.683 225.168C428.616 224.06 428.361 223.011 427.916 222.019C427.472 221.027 426.828 220.219 425.983 219.596C425.139 218.973 424.062 218.662 422.751 218.662C421.373 218.662 420.318 219.066 419.585 219.873C418.852 220.681 418.485 221.626 418.485 222.711C418.485 223.68 418.752 224.499 419.285 225.168C419.818 225.814 420.507 226.39 421.351 226.898C422.218 227.382 423.129 227.855 424.084 228.317C424.928 228.709 425.772 229.136 426.617 229.597C427.461 230.036 428.227 230.543 428.916 231.12C429.605 231.697 430.149 232.389 430.549 233.196C430.971 233.981 431.182 234.926 431.182 236.034C431.182 237.949 430.505 239.529 429.149 240.775C427.794 241.997 425.872 242.609 423.384 242.609C422.384 242.609 421.351 242.459 420.285 242.159C419.218 241.859 418.274 241.421 417.452 240.844L417.619 242.332H415.886L415.686 234.961H416.985C417.097 236.991 417.774 238.537 419.018 239.598C420.263 240.636 421.762 241.155 423.517 241.155C424.384 241.155 425.184 240.994 425.917 240.671C426.65 240.325 427.228 239.829 427.65 239.183C428.094 238.537 428.316 237.752 428.316 236.83C428.316 235.792 428.05 234.926 427.516 234.234C426.983 233.542 426.295 232.942 425.45 232.435C424.606 231.927 423.706 231.443 422.751 230.981C421.907 230.589 421.073 230.174 420.251 229.736C419.429 229.297 418.674 228.801 417.985 228.248C417.319 227.671 416.774 226.99 416.352 226.206C415.952 225.422 415.752 224.476 415.752 223.368C415.752 222.768 415.852 222.122 416.052 221.43C416.252 220.738 416.597 220.081 417.085 219.458C417.596 218.812 418.285 218.293 419.152 217.901C420.04 217.485 421.162 217.278 422.518 217.278C423.362 217.278 424.306 217.405 425.35 217.658C426.417 217.889 427.405 218.351 428.316 219.043L428.183 217.555H429.883V225.168H428.683Z" fill="#E8C548"/>
<path d="M451.057 242.609C448.947 242.609 447.136 242.24 445.625 241.501C444.114 240.763 442.881 239.783 441.926 238.56C440.993 237.314 440.304 235.941 439.86 234.442C439.415 232.942 439.193 231.443 439.193 229.943C439.193 228.49 439.427 227.025 439.893 225.548C440.36 224.049 441.071 222.676 442.026 221.43C443.004 220.185 444.214 219.181 445.658 218.42C447.125 217.658 448.836 217.278 450.791 217.278C452.835 217.278 454.601 217.658 456.089 218.42C457.578 219.181 458.8 220.196 459.755 221.465C460.733 222.711 461.455 224.072 461.922 225.548C462.41 227.025 462.655 228.49 462.655 229.943C462.655 231.374 462.421 232.839 461.955 234.338C461.488 235.815 460.766 237.187 459.789 238.456C458.833 239.702 457.634 240.705 456.189 241.467C454.745 242.228 453.035 242.609 451.057 242.609ZM451.124 241.19C452.501 241.19 453.701 240.89 454.723 240.29C455.745 239.667 456.589 238.848 457.256 237.833C457.945 236.795 458.456 235.653 458.789 234.407C459.144 233.138 459.322 231.87 459.322 230.601C459.322 229.17 459.133 227.752 458.756 226.344C458.378 224.937 457.822 223.657 457.089 222.503C456.356 221.35 455.445 220.427 454.357 219.735C453.29 219.02 452.068 218.662 450.691 218.662C449.313 218.662 448.102 218.973 447.058 219.596C446.036 220.219 445.181 221.05 444.492 222.088C443.826 223.103 443.315 224.245 442.959 225.514C442.626 226.76 442.459 228.028 442.459 229.32C442.459 230.589 442.626 231.916 442.959 233.3C443.315 234.684 443.848 235.976 444.559 237.176C445.27 238.375 446.17 239.344 447.258 240.083C448.347 240.821 449.635 241.19 451.124 241.19Z" fill="#E8C548"/>
<path d="M470.658 242.055V240.913C471.502 240.867 472.08 240.671 472.391 240.325C472.702 239.956 472.869 239.46 472.891 238.837C472.935 238.191 472.958 237.464 472.958 236.657V221.707C472.958 220.738 472.991 219.908 473.058 219.216C472.658 219.239 472.258 219.262 471.858 219.285C471.458 219.308 471.058 219.331 470.658 219.354V217.831C471.902 217.808 473.158 217.785 474.424 217.762C475.713 217.739 477.001 217.751 478.29 217.797C481.511 217.843 483.822 218.408 485.222 219.492C486.643 220.577 487.354 222.076 487.354 223.991C487.377 224.891 487.21 225.814 486.854 226.76C486.521 227.682 485.899 228.513 484.988 229.251C484.1 229.989 482.811 230.543 481.122 230.912C481.567 231.235 481.956 231.65 482.289 232.158C482.622 232.666 483 233.254 483.422 233.923L485.688 237.626C486.066 238.248 486.432 238.814 486.788 239.321C487.143 239.806 487.554 240.198 488.021 240.498C488.487 240.775 489.065 240.913 489.754 240.913V242.055H485.555C484.91 241.455 484.366 240.855 483.922 240.256C483.5 239.656 483.055 238.975 482.589 238.214L480.356 234.511C480.067 234.027 479.734 233.473 479.356 232.85C479.001 232.204 478.59 231.662 478.123 231.224C477.768 231.247 477.39 231.258 476.99 231.258C476.612 231.258 476.235 231.247 475.857 231.224V237.937C475.857 239.16 475.824 240.071 475.757 240.671C476.157 240.648 476.557 240.625 476.957 240.602C477.357 240.579 477.757 240.555 478.156 240.532V242.055H470.658ZM477.923 229.943C479.145 229.897 480.212 229.689 481.122 229.32C482.056 228.951 482.789 228.363 483.322 227.555C483.855 226.748 484.122 225.687 484.122 224.372C484.122 222.618 483.633 221.303 482.655 220.427C481.7 219.55 480.2 219.112 478.156 219.112C477.334 219.112 476.757 219.285 476.423 219.631C476.112 219.977 475.935 220.461 475.89 221.084C475.868 221.684 475.857 222.399 475.857 223.23V229.874C476.212 229.897 476.546 229.92 476.857 229.943C477.19 229.966 477.545 229.966 477.923 229.943Z" fill="#E8C548"/>
<path d="M504.082 218.973C503.26 218.996 502.682 219.193 502.349 219.562C502.038 219.931 501.86 220.427 501.815 221.05C501.793 221.673 501.782 222.399 501.782 223.23V237.937C501.782 239.16 501.749 240.071 501.682 240.671C502.082 240.648 502.482 240.625 502.882 240.602C503.282 240.579 503.682 240.555 504.082 240.532V242.055H496.583V240.913C497.428 240.867 498.005 240.671 498.316 240.325C498.627 239.956 498.794 239.46 498.816 238.837C498.861 238.191 498.883 237.464 498.883 236.657V221.707C498.883 220.738 498.916 219.908 498.983 219.216C498.583 219.239 498.183 219.262 497.783 219.285C497.383 219.308 496.983 219.331 496.583 219.354V217.831H504.082V218.973Z" fill="#E8C548"/>
<path d="M510.712 242.055V240.913C511.379 240.913 511.89 240.729 512.245 240.359C512.601 239.99 512.889 239.483 513.112 238.837C513.356 238.191 513.634 237.441 513.945 236.587L520.81 217.174H521.61L529.041 236.864C529.219 237.349 529.419 237.972 529.641 238.733C529.863 239.494 529.952 240.14 529.908 240.671C530.285 240.648 530.663 240.625 531.041 240.602C531.419 240.579 531.796 240.555 532.174 240.532V242.055H524.542V240.913C525.387 240.89 525.942 240.694 526.209 240.325C526.475 239.956 526.575 239.517 526.509 239.01C526.442 238.502 526.331 238.041 526.175 237.626L525.009 234.373L516.344 234.58L515.178 238.283C515.022 238.837 514.878 239.275 514.745 239.598C514.633 239.921 514.5 240.279 514.345 240.671C514.789 240.648 515.222 240.625 515.644 240.602C516.089 240.579 516.522 240.555 516.944 240.532V242.055H510.712ZM516.844 233.092H524.542L522.176 226.483C521.932 225.768 521.676 225.064 521.41 224.372C521.165 223.657 520.921 222.941 520.677 222.226H520.61C520.388 222.872 520.154 223.518 519.91 224.164C519.688 224.81 519.455 225.468 519.21 226.137L516.844 233.092Z" fill="#E8C548"/>
</g>
</g>
<defs>
<filter id="filter0_di_401_11" x="143.783" y="9.78259" width="393.538" height="184.41" filterUnits="userSpaceOnUse" color-interpolation-filters="sRGB">
<feFlood flood-opacity="0" result="BackgroundImageFix"/>
<feColorMatrix in="SourceAlpha" type="matrix" values="0 0 0 0 0 0 0 0 0 0 0 0 0 0 0 0 0 0 127 0" result="hardAlpha"/>
<feOffset dx="2" dy="3"/>
<feGaussianBlur stdDeviation="1.5"/>
<feComposite in2="hardAlpha" operator="out"/>
<feColorMatrix type="matrix" values="0 0 0 0 0.0941176 0 0 0 0 0.0941176 0 0 0 0 0.0941176 0 0 0 0.4 0"/>
<feBlend mode="normal" in2="BackgroundImageFix" result="effect1_dropShadow_401_11"/>
<feBlend mode="normal" in="SourceGraphic" in2="effect1_dropShadow_401_11" result="shape"/>
<feColorMatrix in="SourceAlpha" type="matrix" values="0 0 0 0 0 0 0 0 0 0 0 0 0 0 0 0 0 0 127 0" result="hardAlpha"/>
<feOffset dx="1" dy="4"/>
<feGaussianBlur stdDeviation="2"/>
<feComposite in2="hardAlpha" operator="arithmetic" k2="-1" k3="1"/>
<feColorMatrix type="matrix" values="0 0 0 0 0 0 0 0 0 0 0 0 0 0 0 0 0 0 0.05 0"/>
<feBlend mode="normal" in2="shape" result="effect2_innerShadow_401_11"/>
</filter>
<filter id="filter1_di_401_11" x="20.5217" y="3.91302" width="97.8677" height="196.746" filterUnits="userSpaceOnUse" color-interpolation-filters="sRGB">
<feFlood flood-opacity="0" result="BackgroundImageFix"/>
<feColorMatrix in="SourceAlpha" type="matrix" values="0 0 0 0 0 0 0 0 0 0 0 0 0 0 0 0 0 0 127 0" result="hardAlpha"/>
<feOffset dx="2" dy="3"/>
<feGaussianBlur stdDeviation="1.5"/>
<feComposite in2="hardAlpha" operator="out"/>
<feColorMatrix type="matrix" values="0 0 0 0 0.0958333 0 0 0 0 0.0958333 0 0 0 0 0.0958333 0 0 0 0.4 0"/>
<feBlend mode="normal" in2="BackgroundImageFix" result="effect1_dropShadow_401_11"/>
<feBlend mode="normal" in="SourceGraphic" in2="effect1_dropShadow_401_11" result="shape"/>
<feColorMatrix in="SourceAlpha" type="matrix" values="0 0 0 0 0 0 0 0 0 0 0 0 0 0 0 0 0 0 127 0" result="hardAlpha"/>
<feOffset dy="1"/>
<feGaussianBlur stdDeviation="2"/>
<feComposite in2="hardAlpha" operator="arithmetic" k2="-1" k3="1"/>
<feColorMatrix type="matrix" values="0 0 0 0 0 0 0 0 0 0 0 0 0 0 0 0 0 0 0.05 0"/>
<feBlend mode="normal" in2="shape" result="effect2_innerShadow_401_11"/>
</filter>
<filter id="filter2_di_401_11" x="-2" y="217.174" width="540.174" height="33.4348" filterUnits="userSpaceOnUse" color-interpolation-filters="sRGB">
<feFlood flood-opacity="0" result="BackgroundImageFix"/>
<feColorMatrix in="SourceAlpha" type="matrix" values="0 0 0 0 0 0 0 0 0 0 0 0 0 0 0 0 0 0 127 0" result="hardAlpha"/>
<feOffset dx="2" dy="4"/>
<feGaussianBlur stdDeviation="2"/>
<feComposite in2="hardAlpha" operator="out"/>
<feColorMatrix type="matrix" values="0 0 0 0 0 0 0 0 0 0 0 0 0 0 0 0 0 0 0.25 0"/>
<feBlend mode="normal" in2="BackgroundImageFix" result="effect1_dropShadow_401_11"/>
<feBlend mode="normal" in="SourceGraphic" in2="effect1_dropShadow_401_11" result="shape"/>
<feColorMatrix in="SourceAlpha" type="matrix" values="0 0 0 0 0 0 0 0 0 0 0 0 0 0 0 0 0 0 127 0" result="hardAlpha"/>
<feOffset dx="2"/>
<feGaussianBlur stdDeviation="2"/>
<feComposite in2="hardAlpha" operator="arithmetic" k2="-1" k3="1"/>
<feColorMatrix type="matrix" values="0 0 0 0 0 0 0 0 0 0 0 0 0 0 0 0 0 0 0.05 0"/>
<feBlend mode="normal" in2="shape" result="effect2_innerShadow_401_11"/>
</filter>
<clipPath id="clip0_401_11">
<rect width="540" height="254.348" fill="white"/>
</clipPath>
</defs>
</svg>
