<svg width="299" height="131" viewBox="0 0 299 131" fill="none" xmlns="http://www.w3.org/2000/svg">
<g filter="url(#filter0_di_41_27)">
<path d="M133.095 60.7574H133.563C134.061 60.7574 134.497 60.6016 134.871 60.29C135.245 59.9162 135.557 59.4799 135.806 58.9814C136.117 58.4829 136.336 57.9532 136.46 57.3924C136.647 56.8315 136.741 56.3019 136.741 55.8033V5.79532C136.741 5.35911 136.647 4.86059 136.46 4.29976C136.336 3.73892 136.117 3.20924 135.806 2.71071C135.557 2.21219 135.245 1.80714 134.871 1.49556C134.497 1.12167 134.061 0.934728 133.563 0.934728H133.095V0H146.555V0.934728H146.088C145.589 0.934728 145.153 1.12167 144.779 1.49556C144.405 1.80714 144.094 2.21219 143.845 2.71071C143.595 3.20924 143.377 3.73892 143.19 4.29976C143.066 4.86059 143.003 5.35911 143.003 5.79532V58.2336H163.474C164.658 58.2336 165.686 57.9532 166.558 57.3924C167.431 56.8315 168.147 56.1461 168.708 55.336C169.331 54.4636 169.768 53.56 170.017 52.6253C170.329 51.6282 170.484 50.7246 170.484 49.9145H171.419V61.6921H133.095V60.7574Z" fill="#E8C548"/>
<path d="M163.162 80.1998C163.162 83.3155 162.539 85.9951 161.293 88.2384C160.047 90.4195 158.426 92.1955 156.432 93.5664C154.5 94.9373 152.288 95.9344 149.796 96.5575C147.365 97.1807 144.935 97.4923 142.505 97.4923C140.012 97.4923 137.862 97.243 136.055 96.7445C134.248 96.246 132.597 95.7786 131.101 95.3424C130.104 95.0308 129.2 94.7816 128.39 94.5946C127.58 94.3453 126.77 94.2207 125.96 94.2207V83.5648H126.895C126.895 85.9328 127.487 87.8334 128.671 89.2667C129.917 90.6376 131.35 91.6969 132.971 92.4447C134.591 93.1925 136.211 93.691 137.831 93.9403C139.451 94.1272 140.635 94.2207 141.383 94.2207C144.063 94.2207 146.368 93.8468 148.3 93.099C150.232 92.2889 151.821 91.2607 153.067 90.0144C154.314 88.7058 155.217 87.2726 155.778 85.7147C156.401 84.1568 156.713 82.5678 156.713 80.9476C156.713 78.8912 156.276 77.1775 155.404 75.8065C154.532 74.3733 153.379 73.127 151.946 72.0676C150.575 71.0083 148.986 70.1047 147.178 69.3569C145.371 68.6091 143.533 67.8614 141.663 67.1136C139.545 66.3035 137.457 65.4622 135.401 64.5898C133.344 63.7174 131.506 62.658 129.886 61.4117C128.266 60.1031 126.957 58.5764 125.96 56.8315C124.963 55.0244 124.464 52.8122 124.464 50.195C124.464 47.4531 124.994 45.0851 126.054 43.091C127.113 41.0346 128.515 39.3521 130.26 38.0435C132.067 36.7349 134.092 35.769 136.336 35.1458C138.641 34.4604 140.978 34.1176 143.346 34.1176C144.966 34.1176 146.493 34.2423 147.926 34.4915C149.359 34.6785 150.73 34.9277 152.039 35.2393C153.098 35.4886 154.127 35.7067 155.124 35.8936C156.121 36.0182 157.087 36.0806 158.021 36.0806V45.7083H157.087C156.962 42.4679 155.684 40.2868 153.254 39.1652C150.824 37.9812 147.459 37.3892 143.159 37.3892C140.666 37.3892 138.61 37.8254 136.99 38.6978C135.432 39.5079 134.186 40.5361 133.251 41.7824C132.316 42.9664 131.662 44.275 131.288 45.7083C130.976 47.0792 130.821 48.2943 130.821 49.3537C130.821 51.0985 131.195 52.5941 131.942 53.8404C132.752 55.0867 133.812 56.1772 135.12 57.112C136.429 58.0467 137.925 58.888 139.607 59.6357C141.352 60.3835 143.159 61.1001 145.029 61.7856C147.147 62.5957 149.297 63.4681 151.478 64.4029C153.659 65.3376 155.591 66.4904 157.273 67.8614C159.018 69.2323 160.42 70.9148 161.48 72.9089C162.601 74.903 163.162 77.3333 163.162 80.1998Z" fill="#E8C548"/>
</g>
<g filter="url(#filter1_di_41_27)">
<path d="M2 122.709V122.11C2.36351 122.11 2.64219 122.013 2.83606 121.819C3.02993 121.625 3.18745 121.358 3.30862 121.019C3.44191 120.68 3.59337 120.286 3.763 119.838L7.50711 109.641H7.94332L11.9964 119.983C12.0933 120.238 12.2024 120.565 12.3236 120.965C12.4447 121.364 12.4932 121.704 12.469 121.982C12.675 121.97 12.8809 121.958 13.0869 121.946C13.2929 121.934 13.4989 121.922 13.7049 121.91V122.709H9.54275V122.11C10.0032 122.097 10.3061 121.994 10.4515 121.801C10.5969 121.607 10.6514 121.377 10.6151 121.11C10.5787 120.843 10.5182 120.601 10.4333 120.383L9.7972 118.674L5.07162 118.784L4.43549 120.728C4.35067 121.019 4.27191 121.249 4.19921 121.419C4.13863 121.589 4.06593 121.776 3.98111 121.982C4.22344 121.97 4.45972 121.958 4.68994 121.946C4.93228 121.934 5.16856 121.922 5.39878 121.91V122.709H2ZM5.34425 118.002H9.54275L8.2523 114.531C8.11902 114.155 7.97967 113.785 7.83427 113.422C7.70098 113.046 7.5677 112.671 7.43441 112.295H7.39806C7.27689 112.634 7.14967 112.973 7.01638 113.313C6.89521 113.652 6.76799 113.997 6.6347 114.349L5.34425 118.002Z" fill="#E8C548"/>
<path d="M17.2123 122.11C17.6727 122.085 17.9878 121.982 18.1574 121.801C18.327 121.607 18.4179 121.346 18.43 121.019C18.4543 120.68 18.4664 120.298 18.4664 119.874V112.022C18.4664 111.513 18.4846 111.077 18.5209 110.714C18.3028 110.726 18.0847 110.738 17.8666 110.75C17.6485 110.762 17.4304 110.774 17.2123 110.786V109.987L21.5017 109.969C22.9678 109.956 24.2522 110.181 25.3548 110.641C26.4696 111.101 27.342 111.804 27.9721 112.749C28.6021 113.694 28.9172 114.9 28.9172 116.366C28.9172 117.202 28.7718 118.002 28.481 118.765C28.1902 119.529 27.754 120.207 27.1724 120.801C26.5907 121.383 25.8637 121.849 24.9913 122.2C24.131 122.54 23.1314 122.709 21.9924 122.709H17.2123V122.11ZM20.0476 120.565C20.0476 121.195 20.0295 121.667 19.9931 121.982C20.4778 122.007 20.9019 122.019 21.2654 122.019C21.641 122.019 21.8652 122.019 21.9379 122.019C22.9799 122.019 23.8887 121.77 24.6642 121.274C25.4518 120.765 26.0576 120.08 26.4817 119.22C26.9179 118.347 27.136 117.372 27.136 116.294C27.136 115.142 26.924 114.149 26.4999 113.313C26.0879 112.465 25.4518 111.81 24.5915 111.35C23.7312 110.877 22.6346 110.641 21.3017 110.641C20.8534 110.641 20.5384 110.732 20.3566 110.914C20.187 111.095 20.09 111.35 20.0658 111.677C20.0537 112.004 20.0476 112.386 20.0476 112.822V120.565Z" fill="#E8C548"/>
<path d="M38.1034 122.891L33.9776 113.222C33.711 112.604 33.5232 112.107 33.4141 111.732C33.3051 111.344 33.2324 111.017 33.196 110.75C33.0264 110.762 32.8568 110.768 32.6871 110.768C32.5175 110.768 32.3479 110.774 32.1782 110.786V109.987H36.3949L36.3767 110.605C35.7709 110.641 35.4074 110.829 35.2862 111.168C35.165 111.495 35.2256 111.962 35.468 112.568C35.7588 113.282 36.0374 113.973 36.304 114.64C36.5706 115.306 36.8675 116.027 37.1946 116.802C37.4854 117.481 37.7641 118.135 38.0307 118.765C38.3094 119.383 38.5214 119.898 38.6668 120.31H38.7032C38.8364 119.886 38.9697 119.48 39.103 119.093C39.2484 118.705 39.4181 118.244 39.6119 117.711C39.9754 116.693 40.2784 115.833 40.5207 115.13C40.7751 114.428 40.9932 113.828 41.175 113.331C41.3568 112.834 41.5082 112.41 41.6294 112.059C41.7384 111.744 41.8354 111.477 41.9202 111.259C42.005 111.041 42.0838 110.859 42.1565 110.714C41.9262 110.726 41.696 110.738 41.4658 110.75C41.2356 110.762 40.9993 110.774 40.757 110.786V109.987H44.4466V110.586C43.9134 110.611 43.5014 110.75 43.2106 111.005C42.9319 111.259 42.6775 111.713 42.4473 112.368C42.423 112.428 42.3927 112.513 42.3564 112.622C42.32 112.719 42.2595 112.883 42.1746 113.113C42.0898 113.343 41.9687 113.682 41.8111 114.131C41.6536 114.567 41.4355 115.161 41.1568 115.912C40.8903 116.663 40.5449 117.608 40.1208 118.747C39.7089 119.886 39.206 121.267 38.6123 122.891H38.1034Z" fill="#E8C548"/>
<path d="M53.8917 123C52.7406 123 51.7531 122.806 50.9292 122.419C50.1052 122.031 49.4327 121.516 48.9117 120.874C48.4028 120.219 48.0272 119.498 47.7848 118.711C47.5425 117.923 47.4213 117.136 47.4213 116.348C47.4213 115.585 47.5486 114.815 47.803 114.04C48.0575 113.252 48.4452 112.531 48.9662 111.877C49.4994 111.223 50.1597 110.696 50.9473 110.296C51.7471 109.896 52.68 109.696 53.7463 109.696C54.8611 109.696 55.8244 109.896 56.6362 110.296C57.448 110.696 58.1145 111.229 58.6355 111.895C59.1686 112.549 59.5624 113.264 59.8169 114.04C60.0835 114.815 60.2167 115.585 60.2167 116.348C60.2167 117.099 60.0895 117.869 59.8351 118.656C59.5806 119.432 59.1868 120.153 58.6537 120.819C58.1326 121.473 57.4783 122.001 56.6907 122.4C55.9031 122.8 54.9701 123 53.8917 123ZM53.9281 122.255C54.6793 122.255 55.3336 122.097 55.891 121.782C56.4484 121.455 56.9088 121.025 57.2723 120.492C57.648 119.947 57.9267 119.347 58.1084 118.693C58.3023 118.026 58.3992 117.36 58.3992 116.693C58.3992 115.942 58.2962 115.197 58.0902 114.458C57.8842 113.719 57.5813 113.046 57.1815 112.44C56.7816 111.835 56.2848 111.35 55.6911 110.986C55.1095 110.611 54.4431 110.423 53.6918 110.423C52.9406 110.423 52.2802 110.586 51.7107 110.914C51.1533 111.241 50.6868 111.677 50.3112 112.222C49.9477 112.755 49.669 113.355 49.4751 114.022C49.2934 114.676 49.2025 115.342 49.2025 116.021C49.2025 116.687 49.2934 117.384 49.4751 118.111C49.669 118.838 49.9598 119.517 50.3476 120.147C50.7353 120.777 51.226 121.286 51.8198 121.673C52.4135 122.061 53.1163 122.255 53.9281 122.255Z" fill="#E8C548"/>
<path d="M74.7923 114.04C74.6712 112.901 74.2713 112.016 73.5928 111.386C72.9263 110.756 72.066 110.441 71.0119 110.441C70.1516 110.441 69.37 110.683 68.6673 111.168C67.9645 111.641 67.401 112.313 66.977 113.186C66.565 114.058 66.359 115.088 66.359 116.275C66.359 117.414 66.5771 118.42 67.0133 119.292C67.4495 120.165 68.0372 120.843 68.7763 121.328C69.5154 121.813 70.3333 122.055 71.23 122.055C72.0176 122.055 72.7931 121.879 73.5564 121.528C74.3198 121.164 74.9438 120.643 75.4285 119.965L75.901 120.347C75.38 121.061 74.8166 121.613 74.2107 122.001C73.6049 122.388 72.999 122.649 72.3932 122.782C71.7995 122.927 71.2542 123 70.7574 123C69.8486 123 69.0126 122.837 68.2492 122.509C67.498 122.182 66.8437 121.728 66.2863 121.146C65.741 120.553 65.3169 119.868 65.014 119.093C64.7232 118.305 64.5778 117.457 64.5778 116.548C64.5778 115.688 64.705 114.852 64.9595 114.04C65.2261 113.228 65.6199 112.495 66.1409 111.841C66.6619 111.186 67.3162 110.665 68.1038 110.277C68.9035 109.89 69.8305 109.696 70.8846 109.696C72.2175 109.696 73.4413 110.065 74.5561 110.805L74.4652 109.823H75.4466V114.04H74.7923Z" fill="#E8C548"/>
<path d="M78.89 122.709V122.11C79.2535 122.11 79.5322 122.013 79.7261 121.819C79.9199 121.625 80.0775 121.358 80.1986 121.019C80.3319 120.68 80.4834 120.286 80.653 119.838L84.3971 109.641H84.8333L88.8864 119.983C88.9834 120.238 89.0924 120.565 89.2136 120.965C89.3347 121.364 89.3832 121.704 89.359 121.982C89.565 121.97 89.771 121.958 89.9769 121.946C90.1829 121.934 90.3889 121.922 90.5949 121.91V122.709H86.4327V122.11C86.8932 122.097 87.1961 121.994 87.3415 121.801C87.4869 121.607 87.5415 121.377 87.5051 121.11C87.4688 120.843 87.4082 120.601 87.3233 120.383L86.6872 118.674L81.9616 118.784L81.3255 120.728C81.2407 121.019 81.1619 121.249 81.0892 121.419C81.0286 121.589 80.9559 121.776 80.8711 121.982C81.1134 121.97 81.3497 121.958 81.5799 121.946C81.8223 121.934 82.0586 121.922 82.2888 121.91V122.709H78.89ZM82.2343 118.002H86.4327L85.1423 114.531C85.009 114.155 84.8697 113.785 84.7243 113.422C84.591 113.046 84.4577 112.671 84.3244 112.295H84.2881C84.1669 112.634 84.0397 112.973 83.9064 113.313C83.7852 113.652 83.658 113.997 83.5247 114.349L82.2343 118.002Z" fill="#E8C548"/>
<path d="M104.064 114.04C103.943 112.901 103.543 112.016 102.865 111.386C102.198 110.756 101.338 110.441 100.284 110.441C99.4237 110.441 98.6422 110.683 97.9394 111.168C97.2366 111.641 96.6732 112.313 96.2491 113.186C95.8371 114.058 95.6311 115.088 95.6311 116.275C95.6311 117.414 95.8493 118.42 96.2855 119.292C96.7217 120.165 97.3093 120.843 98.0485 121.328C98.7876 121.813 99.6055 122.055 100.502 122.055C101.29 122.055 102.065 121.879 102.829 121.528C103.592 121.164 104.216 120.643 104.701 119.965L105.173 120.347C104.652 121.061 104.089 121.613 103.483 122.001C102.877 122.388 102.271 122.649 101.665 122.782C101.072 122.927 100.526 123 100.03 123C99.1208 123 98.2847 122.837 97.5214 122.509C96.7701 122.182 96.1158 121.728 95.5584 121.146C95.0132 120.553 94.5891 119.868 94.2862 119.093C93.9954 118.305 93.85 117.457 93.85 116.548C93.85 115.688 93.9772 114.852 94.2317 114.04C94.4982 113.228 94.892 112.495 95.413 111.841C95.9341 111.186 96.5884 110.665 97.376 110.277C98.1757 109.89 99.1026 109.696 100.157 109.696C101.49 109.696 102.713 110.065 103.828 110.805L103.737 109.823H104.719V114.04H104.064Z" fill="#E8C548"/>
<path d="M113.538 110.586C113.089 110.599 112.774 110.702 112.593 110.895C112.423 111.089 112.326 111.35 112.302 111.677C112.29 112.004 112.284 112.386 112.284 112.822V120.547C112.284 121.189 112.266 121.667 112.229 121.982C112.447 121.97 112.665 121.958 112.883 121.946C113.102 121.934 113.32 121.922 113.538 121.91V122.709H109.448V122.11C109.909 122.085 110.224 121.982 110.393 121.801C110.563 121.607 110.654 121.346 110.666 121.019C110.69 120.68 110.702 120.298 110.702 119.874V112.022C110.702 111.513 110.721 111.077 110.757 110.714C110.539 110.726 110.321 110.738 110.103 110.75C109.885 110.762 109.666 110.774 109.448 110.786V109.987H113.538V110.586Z" fill="#E8C548"/>
<path d="M117.154 122.709V122.11C117.517 122.11 117.796 122.013 117.99 121.819C118.184 121.625 118.341 121.358 118.463 121.019C118.596 120.68 118.747 120.286 118.917 119.838L122.661 109.641H123.097L127.15 119.983C127.247 120.238 127.356 120.565 127.478 120.965C127.599 121.364 127.647 121.704 127.623 121.982C127.829 121.97 128.035 121.958 128.241 121.946C128.447 121.934 128.653 121.922 128.859 121.91V122.709H124.697V122.11C125.157 122.097 125.46 121.994 125.605 121.801C125.751 121.607 125.805 121.377 125.769 121.11C125.733 120.843 125.672 120.601 125.587 120.383L124.951 118.674L120.226 118.784L119.589 120.728C119.505 121.019 119.426 121.249 119.353 121.419C119.293 121.589 119.22 121.776 119.135 121.982C119.377 121.97 119.614 121.958 119.844 121.946C120.086 121.934 120.323 121.922 120.553 121.91V122.709H117.154ZM120.498 118.002H124.697L123.406 114.531C123.273 114.155 123.134 113.785 122.988 113.422C122.855 113.046 122.722 112.671 122.588 112.295H122.552C122.431 112.634 122.304 112.973 122.17 113.313C122.049 113.652 121.922 113.997 121.789 114.349L120.498 118.002Z" fill="#E8C548"/>
<path d="M146.192 118.002C146.192 117.469 146.119 117.087 145.974 116.857C145.829 116.627 145.598 116.487 145.283 116.439C144.968 116.39 144.55 116.378 144.029 116.403L142.702 116.457V120.619C142.702 121.249 142.684 121.722 142.648 122.037L146.119 121.982C146.653 121.97 147.113 121.885 147.501 121.728C147.888 121.558 148.191 121.267 148.41 120.856C148.628 120.444 148.737 119.88 148.737 119.165H149.355L149.246 122.709H139.867V122.11C140.328 122.085 140.643 121.982 140.812 121.801C140.982 121.607 141.073 121.346 141.085 121.019C141.109 120.68 141.121 120.298 141.121 119.874V112.022C141.121 111.513 141.139 111.077 141.176 110.714C140.958 110.726 140.74 110.738 140.521 110.75C140.303 110.762 140.085 110.774 139.867 110.786V109.987H148.609L148.7 113.167H148.101C148.101 112.452 147.991 111.913 147.773 111.55C147.555 111.174 147.258 110.926 146.883 110.805C146.519 110.671 146.107 110.611 145.647 110.623L144.084 110.659C143.635 110.671 143.314 110.756 143.12 110.914C142.927 111.071 142.805 111.307 142.757 111.622C142.721 111.925 142.702 112.325 142.702 112.822V115.73L146.119 115.748L145.992 114.185H146.792V118.002H146.192Z" fill="#E8C548"/>
<path d="M160.292 122.709V122.11C160.655 122.11 160.934 122.013 161.128 121.819C161.322 121.625 161.479 121.358 161.601 121.019C161.734 120.68 161.885 120.286 162.055 119.838L165.799 109.641H166.235L170.288 119.983C170.385 120.238 170.494 120.565 170.615 120.965C170.737 121.364 170.785 121.704 170.761 121.982C170.967 121.97 171.173 121.958 171.379 121.946C171.585 121.934 171.791 121.922 171.997 121.91V122.709H167.835V122.11C168.295 122.097 168.598 121.994 168.743 121.801C168.889 121.607 168.943 121.377 168.907 121.11C168.871 120.843 168.81 120.601 168.725 120.383L168.089 118.674L163.364 118.784L162.727 120.728C162.643 121.019 162.564 121.249 162.491 121.419C162.431 121.589 162.358 121.776 162.273 121.982C162.515 121.97 162.752 121.958 162.982 121.946C163.224 121.934 163.46 121.922 163.691 121.91V122.709H160.292ZM163.636 118.002H167.835L166.544 114.531C166.411 114.155 166.272 113.785 166.126 113.422C165.993 113.046 165.86 112.671 165.726 112.295H165.69C165.569 112.634 165.442 112.973 165.308 113.313C165.187 113.652 165.06 113.997 164.927 114.349L163.636 118.002Z" fill="#E8C548"/>
<path d="M182.647 113.84C182.611 113.258 182.471 112.707 182.229 112.186C181.987 111.665 181.635 111.241 181.175 110.914C180.714 110.586 180.127 110.423 179.412 110.423C178.661 110.423 178.085 110.635 177.685 111.059C177.285 111.483 177.085 111.98 177.085 112.549C177.085 113.058 177.231 113.488 177.522 113.84C177.812 114.179 178.188 114.482 178.648 114.749C179.121 115.003 179.618 115.251 180.139 115.494C180.599 115.7 181.06 115.924 181.52 116.166C181.981 116.397 182.399 116.663 182.774 116.966C183.15 117.269 183.447 117.632 183.665 118.057C183.895 118.468 184.01 118.965 184.01 119.547C184.01 120.553 183.641 121.383 182.902 122.037C182.162 122.679 181.114 123 179.757 123C179.212 123 178.648 122.921 178.067 122.764C177.485 122.606 176.97 122.376 176.522 122.073L176.613 122.855H175.668L175.559 118.983H176.268C176.328 120.05 176.698 120.862 177.376 121.419C178.055 121.964 178.873 122.237 179.83 122.237C180.302 122.237 180.739 122.152 181.139 121.982C181.538 121.801 181.853 121.54 182.084 121.201C182.326 120.862 182.447 120.45 182.447 119.965C182.447 119.42 182.302 118.965 182.011 118.602C181.72 118.238 181.344 117.923 180.884 117.657C180.424 117.39 179.933 117.136 179.412 116.893C178.951 116.687 178.497 116.469 178.049 116.239C177.6 116.009 177.188 115.748 176.813 115.457C176.449 115.155 176.152 114.797 175.922 114.385C175.704 113.973 175.595 113.476 175.595 112.895C175.595 112.58 175.65 112.24 175.759 111.877C175.868 111.513 176.055 111.168 176.322 110.841C176.601 110.502 176.976 110.229 177.449 110.023C177.934 109.805 178.546 109.696 179.285 109.696C179.745 109.696 180.26 109.763 180.83 109.896C181.411 110.017 181.95 110.259 182.447 110.623L182.374 109.841H183.301V113.84H182.647Z" fill="#E8C548"/>
<path d="M195.686 113.84C195.649 113.258 195.51 112.707 195.268 112.186C195.025 111.665 194.674 111.241 194.214 110.914C193.753 110.586 193.165 110.423 192.451 110.423C191.699 110.423 191.124 110.635 190.724 111.059C190.324 111.483 190.124 111.98 190.124 112.549C190.124 113.058 190.269 113.488 190.56 113.84C190.851 114.179 191.227 114.482 191.687 114.749C192.16 115.003 192.657 115.251 193.178 115.494C193.638 115.7 194.098 115.924 194.559 116.166C195.019 116.397 195.437 116.663 195.813 116.966C196.189 117.269 196.485 117.632 196.704 118.057C196.934 118.468 197.049 118.965 197.049 119.547C197.049 120.553 196.679 121.383 195.94 122.037C195.201 122.679 194.153 123 192.796 123C192.251 123 191.687 122.921 191.106 122.764C190.524 122.606 190.009 122.376 189.561 122.073L189.652 122.855H188.706L188.597 118.983H189.306C189.367 120.05 189.736 120.862 190.415 121.419C191.093 121.964 191.911 122.237 192.869 122.237C193.341 122.237 193.777 122.152 194.177 121.982C194.577 121.801 194.892 121.54 195.122 121.201C195.365 120.862 195.486 120.45 195.486 119.965C195.486 119.42 195.34 118.965 195.05 118.602C194.759 118.238 194.383 117.923 193.923 117.657C193.462 117.39 192.972 117.136 192.451 116.893C191.99 116.687 191.536 116.469 191.087 116.239C190.639 116.009 190.227 115.748 189.851 115.457C189.488 115.155 189.191 114.797 188.961 114.385C188.743 113.973 188.634 113.476 188.634 112.895C188.634 112.58 188.688 112.24 188.797 111.877C188.906 111.513 189.094 111.168 189.361 110.841C189.639 110.502 190.015 110.229 190.488 110.023C190.972 109.805 191.584 109.696 192.323 109.696C192.784 109.696 193.299 109.763 193.868 109.896C194.45 110.017 194.989 110.259 195.486 110.623L195.413 109.841H196.34V113.84H195.686Z" fill="#E8C548"/>
<path d="M207.906 118.002C207.906 117.469 207.834 117.087 207.688 116.857C207.543 116.627 207.313 116.487 206.998 116.439C206.683 116.39 206.265 116.378 205.744 116.403L204.417 116.457V120.619C204.417 121.249 204.399 121.722 204.362 122.037L207.834 121.982C208.367 121.97 208.827 121.885 209.215 121.728C209.603 121.558 209.906 121.267 210.124 120.856C210.342 120.444 210.451 119.88 210.451 119.165H211.069L210.96 122.709H201.581V122.11C202.042 122.085 202.357 121.982 202.527 121.801C202.696 121.607 202.787 121.346 202.799 121.019C202.823 120.68 202.836 120.298 202.836 119.874V112.022C202.836 111.513 202.854 111.077 202.89 110.714C202.672 110.726 202.454 110.738 202.236 110.75C202.018 110.762 201.8 110.774 201.581 110.786V109.987H210.324L210.415 113.167H209.815C209.815 112.452 209.706 111.913 209.488 111.55C209.27 111.174 208.973 110.926 208.597 110.805C208.234 110.671 207.822 110.611 207.361 110.623L205.798 110.659C205.35 110.671 205.029 110.756 204.835 110.914C204.641 111.071 204.52 111.307 204.471 111.622C204.435 111.925 204.417 112.325 204.417 112.822V115.73L207.834 115.748L207.707 114.185H208.506V118.002H207.906Z" fill="#E8C548"/>
<path d="M222.757 113.84C222.721 113.258 222.581 112.707 222.339 112.186C222.097 111.665 221.745 111.241 221.285 110.914C220.824 110.586 220.237 110.423 219.522 110.423C218.771 110.423 218.195 110.635 217.795 111.059C217.395 111.483 217.195 111.98 217.195 112.549C217.195 113.058 217.341 113.488 217.632 113.84C217.922 114.179 218.298 114.482 218.758 114.749C219.231 115.003 219.728 115.251 220.249 115.494C220.709 115.7 221.17 115.924 221.63 116.166C222.091 116.397 222.509 116.663 222.884 116.966C223.26 117.269 223.557 117.632 223.775 118.057C224.005 118.468 224.12 118.965 224.12 119.547C224.12 120.553 223.751 121.383 223.011 122.037C222.272 122.679 221.224 123 219.867 123C219.322 123 218.758 122.921 218.177 122.764C217.595 122.606 217.08 122.376 216.632 122.073L216.723 122.855H215.778L215.669 118.983H216.377C216.438 120.05 216.808 120.862 217.486 121.419C218.165 121.964 218.983 122.237 219.94 122.237C220.412 122.237 220.849 122.152 221.248 121.982C221.648 121.801 221.963 121.54 222.194 121.201C222.436 120.862 222.557 120.45 222.557 119.965C222.557 119.42 222.412 118.965 222.121 118.602C221.83 118.238 221.454 117.923 220.994 117.657C220.534 117.39 220.043 117.136 219.522 116.893C219.061 116.687 218.607 116.469 218.159 116.239C217.71 116.009 217.298 115.748 216.923 115.457C216.559 115.155 216.262 114.797 216.032 114.385C215.814 113.973 215.705 113.476 215.705 112.895C215.705 112.58 215.759 112.24 215.869 111.877C215.978 111.513 216.165 111.168 216.432 110.841C216.711 110.502 217.086 110.229 217.559 110.023C218.044 109.805 218.655 109.696 219.395 109.696C219.855 109.696 220.37 109.763 220.939 109.896C221.521 110.017 222.06 110.259 222.557 110.623L222.484 109.841H223.411V113.84H222.757Z" fill="#E8C548"/>
<path d="M235.796 113.84C235.759 113.258 235.62 112.707 235.378 112.186C235.135 111.665 234.784 111.241 234.323 110.914C233.863 110.586 233.275 110.423 232.56 110.423C231.809 110.423 231.234 110.635 230.834 111.059C230.434 111.483 230.234 111.98 230.234 112.549C230.234 113.058 230.379 113.488 230.67 113.84C230.961 114.179 231.337 114.482 231.797 114.749C232.27 115.003 232.766 115.251 233.287 115.494C233.748 115.7 234.208 115.924 234.669 116.166C235.129 116.397 235.547 116.663 235.923 116.966C236.298 117.269 236.595 117.632 236.813 118.057C237.044 118.468 237.159 118.965 237.159 119.547C237.159 120.553 236.789 121.383 236.05 122.037C235.311 122.679 234.263 123 232.906 123C232.36 123 231.797 122.921 231.215 122.764C230.634 122.606 230.119 122.376 229.671 122.073L229.761 122.855H228.816L228.707 118.983H229.416C229.477 120.05 229.846 120.862 230.525 121.419C231.203 121.964 232.021 122.237 232.978 122.237C233.451 122.237 233.887 122.152 234.287 121.982C234.687 121.801 235.002 121.54 235.232 121.201C235.475 120.862 235.596 120.45 235.596 119.965C235.596 119.42 235.45 118.965 235.159 118.602C234.869 118.238 234.493 117.923 234.033 117.657C233.572 117.39 233.081 117.136 232.56 116.893C232.1 116.687 231.646 116.469 231.197 116.239C230.749 116.009 230.337 115.748 229.961 115.457C229.598 115.155 229.301 114.797 229.071 114.385C228.853 113.973 228.744 113.476 228.744 112.895C228.744 112.58 228.798 112.24 228.907 111.877C229.016 111.513 229.204 111.168 229.471 110.841C229.749 110.502 230.125 110.229 230.597 110.023C231.082 109.805 231.694 109.696 232.433 109.696C232.894 109.696 233.409 109.763 233.978 109.896C234.56 110.017 235.099 110.259 235.596 110.623L235.523 109.841H236.45V113.84H235.796Z" fill="#E8C548"/>
<path d="M247.998 123C246.847 123 245.86 122.806 245.036 122.419C244.212 122.031 243.539 121.516 243.018 120.874C242.509 120.219 242.134 119.498 241.891 118.711C241.649 117.923 241.528 117.136 241.528 116.348C241.528 115.585 241.655 114.815 241.909 114.04C242.164 113.252 242.552 112.531 243.073 111.877C243.606 111.223 244.266 110.696 245.054 110.296C245.853 109.896 246.786 109.696 247.853 109.696C248.968 109.696 249.931 109.896 250.743 110.296C251.554 110.696 252.221 111.229 252.742 111.895C253.275 112.549 253.669 113.264 253.923 114.04C254.19 114.815 254.323 115.585 254.323 116.348C254.323 117.099 254.196 117.869 253.941 118.656C253.687 119.432 253.293 120.153 252.76 120.819C252.239 121.473 251.585 122.001 250.797 122.4C250.01 122.8 249.077 123 247.998 123ZM248.035 122.255C248.786 122.255 249.44 122.097 249.997 121.782C250.555 121.455 251.015 121.025 251.379 120.492C251.754 119.947 252.033 119.347 252.215 118.693C252.409 118.026 252.506 117.36 252.506 116.693C252.506 115.942 252.403 115.197 252.197 114.458C251.991 113.719 251.688 113.046 251.288 112.44C250.888 111.835 250.391 111.35 249.798 110.986C249.216 110.611 248.549 110.423 247.798 110.423C247.047 110.423 246.387 110.586 245.817 110.914C245.26 111.241 244.793 111.677 244.418 112.222C244.054 112.755 243.775 113.355 243.582 114.022C243.4 114.676 243.309 115.342 243.309 116.021C243.309 116.687 243.4 117.384 243.582 118.111C243.775 118.838 244.066 119.517 244.454 120.147C244.842 120.777 245.332 121.286 245.926 121.673C246.52 122.061 247.223 122.255 248.035 122.255Z" fill="#E8C548"/>
<path d="M258.688 122.709V122.11C259.149 122.085 259.464 121.982 259.633 121.801C259.803 121.607 259.894 121.346 259.906 121.019C259.93 120.68 259.942 120.298 259.942 119.874V112.022C259.942 111.513 259.96 111.077 259.997 110.714C259.779 110.726 259.561 110.738 259.342 110.75C259.124 110.762 258.906 110.774 258.688 110.786V109.987C259.367 109.975 260.051 109.962 260.742 109.95C261.445 109.938 262.147 109.944 262.85 109.969C264.607 109.993 265.867 110.29 266.631 110.859C267.406 111.429 267.794 112.216 267.794 113.222C267.806 113.694 267.715 114.179 267.521 114.676C267.34 115.161 267 115.597 266.503 115.985C266.019 116.372 265.316 116.663 264.395 116.857C264.637 117.027 264.85 117.245 265.031 117.511C265.213 117.778 265.419 118.087 265.649 118.438L266.885 120.383C267.091 120.71 267.291 121.007 267.485 121.274C267.679 121.528 267.903 121.734 268.157 121.892C268.412 122.037 268.727 122.11 269.103 122.11V122.709H266.812C266.461 122.394 266.164 122.079 265.922 121.764C265.692 121.449 265.449 121.092 265.195 120.692L263.977 118.747C263.82 118.493 263.638 118.202 263.432 117.875C263.238 117.535 263.014 117.251 262.759 117.021C262.565 117.033 262.359 117.039 262.141 117.039C261.935 117.039 261.729 117.033 261.523 117.021V120.547C261.523 121.189 261.505 121.667 261.469 121.982C261.687 121.97 261.905 121.958 262.123 121.946C262.341 121.934 262.559 121.922 262.778 121.91V122.709H258.688ZM262.65 116.348C263.317 116.324 263.898 116.215 264.395 116.021C264.904 115.827 265.304 115.518 265.595 115.094C265.886 114.67 266.031 114.112 266.031 113.422C266.031 112.501 265.764 111.81 265.231 111.35C264.71 110.889 263.892 110.659 262.778 110.659C262.329 110.659 262.014 110.75 261.832 110.932C261.663 111.114 261.566 111.368 261.542 111.695C261.529 112.01 261.523 112.386 261.523 112.822V116.312C261.717 116.324 261.899 116.336 262.069 116.348C262.25 116.36 262.444 116.36 262.65 116.348Z" fill="#E8C548"/>
<path d="M276.917 110.586C276.468 110.599 276.153 110.702 275.972 110.895C275.802 111.089 275.705 111.35 275.681 111.677C275.669 112.004 275.663 112.386 275.663 112.822V120.547C275.663 121.189 275.644 121.667 275.608 121.982C275.826 121.97 276.044 121.958 276.262 121.946C276.48 121.934 276.699 121.922 276.917 121.91V122.709H272.827V122.11C273.288 122.085 273.603 121.982 273.772 121.801C273.942 121.607 274.033 121.346 274.045 121.019C274.069 120.68 274.081 120.298 274.081 119.874V112.022C274.081 111.513 274.099 111.077 274.136 110.714C273.918 110.726 273.7 110.738 273.482 110.75C273.263 110.762 273.045 110.774 272.827 110.786V109.987H276.917V110.586Z" fill="#E8C548"/>
<path d="M280.533 122.709V122.11C280.896 122.11 281.175 122.013 281.369 121.819C281.563 121.625 281.72 121.358 281.841 121.019C281.975 120.68 282.126 120.286 282.296 119.838L286.04 109.641H286.476L290.529 119.983C290.626 120.238 290.735 120.565 290.856 120.965C290.978 121.364 291.026 121.704 291.002 121.982C291.208 121.97 291.414 121.958 291.62 121.946C291.826 121.934 292.032 121.922 292.238 121.91V122.709H288.076V122.11C288.536 122.097 288.839 121.994 288.984 121.801C289.13 121.607 289.184 121.377 289.148 121.11C289.112 120.843 289.051 120.601 288.966 120.383L288.33 118.674L283.604 118.784L282.968 120.728C282.883 121.019 282.805 121.249 282.732 121.419C282.671 121.589 282.599 121.776 282.514 121.982C282.756 121.97 282.992 121.958 283.223 121.946C283.465 121.934 283.701 121.922 283.932 121.91V122.709H280.533ZM283.877 118.002H288.076L286.785 114.531C286.652 114.155 286.512 113.785 286.367 113.422C286.234 113.046 286.1 112.671 285.967 112.295H285.931C285.81 112.634 285.682 112.973 285.549 113.313C285.428 113.652 285.301 113.997 285.167 114.349L283.877 118.002Z" fill="#E8C548"/>
</g>
<defs>
<filter id="filter0_di_41_27" x="123.464" y="0" width="52.9546" height="103.492" filterUnits="userSpaceOnUse" color-interpolation-filters="sRGB">
<feFlood flood-opacity="0" result="BackgroundImageFix"/>
<feColorMatrix in="SourceAlpha" type="matrix" values="0 0 0 0 0 0 0 0 0 0 0 0 0 0 0 0 0 0 127 0" result="hardAlpha"/>
<feOffset dx="2" dy="3"/>
<feGaussianBlur stdDeviation="1.5"/>
<feComposite in2="hardAlpha" operator="out"/>
<feColorMatrix type="matrix" values="0 0 0 0 0.0958333 0 0 0 0 0.0958333 0 0 0 0 0.0958333 0 0 0 0.4 0"/>
<feBlend mode="normal" in2="BackgroundImageFix" result="effect1_dropShadow_41_27"/>
<feBlend mode="normal" in="SourceGraphic" in2="effect1_dropShadow_41_27" result="shape"/>
<feColorMatrix in="SourceAlpha" type="matrix" values="0 0 0 0 0 0 0 0 0 0 0 0 0 0 0 0 0 0 127 0" result="hardAlpha"/>
<feOffset dy="1"/>
<feGaussianBlur stdDeviation="2"/>
<feComposite in2="hardAlpha" operator="arithmetic" k2="-1" k3="1"/>
<feColorMatrix type="matrix" values="0 0 0 0 0 0 0 0 0 0 0 0 0 0 0 0 0 0 0.05 0"/>
<feBlend mode="normal" in2="shape" result="effect2_innerShadow_41_27"/>
</filter>
<filter id="filter1_di_41_27" x="0" y="109.641" width="298.238" height="21.3589" filterUnits="userSpaceOnUse" color-interpolation-filters="sRGB">
<feFlood flood-opacity="0" result="BackgroundImageFix"/>
<feColorMatrix in="SourceAlpha" type="matrix" values="0 0 0 0 0 0 0 0 0 0 0 0 0 0 0 0 0 0 127 0" result="hardAlpha"/>
<feOffset dx="2" dy="4"/>
<feGaussianBlur stdDeviation="2"/>
<feComposite in2="hardAlpha" operator="out"/>
<feColorMatrix type="matrix" values="0 0 0 0 0 0 0 0 0 0 0 0 0 0 0 0 0 0 0.25 0"/>
<feBlend mode="normal" in2="BackgroundImageFix" result="effect1_dropShadow_41_27"/>
<feBlend mode="normal" in="SourceGraphic" in2="effect1_dropShadow_41_27" result="shape"/>
<feColorMatrix in="SourceAlpha" type="matrix" values="0 0 0 0 0 0 0 0 0 0 0 0 0 0 0 0 0 0 127 0" result="hardAlpha"/>
<feOffset dx="2"/>
<feGaussianBlur stdDeviation="2"/>
<feComposite in2="hardAlpha" operator="arithmetic" k2="-1" k3="1"/>
<feColorMatrix type="matrix" values="0 0 0 0 0 0 0 0 0 0 0 0 0 0 0 0 0 0 0.05 0"/>
<feBlend mode="normal" in2="shape" result="effect2_innerShadow_41_27"/>
</filter>
</defs>
</svg>
