<svg width="440" height="77" viewBox="0 0 440 77" fill="none" xmlns="http://www.w3.org/2000/svg">
<g clip-path="url(#clip0_58_18)" filter="url(#filter0_di_58_18)">
<path d="M62.6523 69H55.7266V68.168C56.3359 68.1289 56.8398 68.0508 57.2383 67.9336C57.6445 67.8164 57.8477 67.6719 57.8477 67.5C57.8477 67.4297 57.8398 67.3438 57.8242 67.2422C57.8086 67.1406 57.7852 67.0508 57.7539 66.9727L56.3711 63.2461H50.5469C50.3281 63.793 50.1484 64.2695 50.0078 64.6758C49.875 65.082 49.7539 65.457 49.6445 65.8008C49.543 66.1367 49.4727 66.4102 49.4336 66.6211C49.3945 66.832 49.375 67.0039 49.375 67.1367C49.375 67.4492 49.6211 67.6914 50.1133 67.8633C50.6055 68.0352 51.1602 68.1367 51.7773 68.168V69H45.5195V68.168C45.7227 68.1523 45.9766 68.1094 46.2813 68.0391C46.5859 67.9609 46.8359 67.8594 47.0313 67.7344C47.3438 67.5234 47.5859 67.3047 47.7578 67.0781C47.9297 66.8438 48.0977 66.5234 48.2617 66.1172C49.0977 64.0312 50.0195 61.6875 51.0273 59.0859C52.0352 56.4844 52.9336 54.168 53.7227 52.1367H54.6602L60.2031 66.4805C60.3203 66.7852 60.4531 67.0312 60.6016 67.2188C60.75 67.4062 60.957 67.5898 61.2227 67.7695C61.4023 67.8789 61.6367 67.9727 61.9258 68.0508C62.2148 68.1211 62.457 68.1602 62.6523 68.168V69ZM55.9492 62.2031L53.4297 55.7578L50.957 62.2031H55.9492ZM82.7758 60.7852C82.7758 62.1992 82.5102 63.4258 81.9789 64.4648C81.4477 65.5039 80.7563 66.3555 79.9047 67.0195C79.0453 67.6836 78.0805 68.1797 77.0102 68.5078C75.9398 68.8359 74.8344 69 73.6938 69H66.8031V68.168C67.0297 68.168 67.3227 68.1484 67.682 68.1094C68.0492 68.0625 68.2914 68.0117 68.4086 67.957C68.643 67.8555 68.8109 67.707 68.9125 67.5117C69.0219 67.3086 69.0766 67.0664 69.0766 66.7852V54.7852C69.0766 54.5195 69.0297 54.2812 68.9359 54.0703C68.85 53.8594 68.6742 53.6914 68.4086 53.5664C68.1664 53.4492 67.9047 53.3633 67.6234 53.3086C67.3422 53.2539 67.1 53.2188 66.8969 53.2031V52.3711H74.1625C75.1625 52.3711 76.1469 52.5273 77.1156 52.8398C78.0844 53.1445 78.9281 53.5586 79.6469 54.082C80.6234 54.7773 81.3891 55.6875 81.9438 56.8125C82.4984 57.9375 82.7758 59.2617 82.7758 60.7852ZM79.9047 60.7734C79.9047 59.6562 79.7563 58.6484 79.4594 57.75C79.1625 56.8438 78.7289 56.0547 78.1586 55.3828C77.6195 54.7422 76.9555 54.2383 76.1664 53.8711C75.3852 53.5039 74.5141 53.3203 73.5531 53.3203C73.2328 53.3203 72.8695 53.3281 72.4633 53.3438C72.0648 53.3516 71.768 53.3594 71.5727 53.3672V66.1523C71.5727 66.8633 71.7797 67.3555 72.1938 67.6289C72.6078 67.9023 73.2445 68.0391 74.1039 68.0391C75.0961 68.0391 75.9633 67.8633 76.7055 67.5117C77.4477 67.1602 78.0492 66.6719 78.5102 66.0469C78.9945 65.3906 79.3461 64.6328 79.5648 63.7734C79.7914 62.9062 79.9047 61.9062 79.9047 60.7734ZM103.766 53.2031C103.563 53.2109 103.317 53.2578 103.028 53.3438C102.739 53.4219 102.501 53.5195 102.313 53.6367C102.048 53.8008 101.833 54.0117 101.669 54.2695C101.513 54.5273 101.356 54.832 101.2 55.1836C100.677 56.4258 99.8914 58.3633 98.8445 60.9961C97.7977 63.6211 96.7195 66.3594 95.6102 69.2109H94.6375C93.5125 66.1875 92.4266 63.2734 91.3797 60.4688C90.3328 57.6641 89.6219 55.7695 89.2469 54.7852C89.1531 54.543 89.0281 54.332 88.8719 54.1523C88.7156 53.9648 88.5086 53.7891 88.2508 53.625C88.0398 53.4922 87.8055 53.3945 87.5477 53.332C87.2898 53.2617 87.0516 53.2188 86.8328 53.2031V52.3711H93.7117V53.2031C93.1258 53.2344 92.6297 53.293 92.2234 53.3789C91.825 53.4648 91.6258 53.6172 91.6258 53.8359C91.6258 53.9219 91.6414 54.0234 91.6727 54.1406C91.7039 54.2578 91.7313 54.3516 91.7547 54.4219C92.0438 55.1875 92.5125 56.4375 93.1609 58.1719C93.8094 59.8984 94.7313 62.3594 95.9266 65.5547C96.5203 64.1094 97.2039 62.4023 97.9773 60.4336C98.7508 58.4648 99.2703 57.1133 99.5359 56.3789C99.7938 55.668 99.9422 55.1758 99.9813 54.9023C100.028 54.6289 100.052 54.4062 100.052 54.2344C100.052 54.0547 99.9695 53.9062 99.8055 53.7891C99.6492 53.6641 99.4383 53.5586 99.1727 53.4727C98.9148 53.3945 98.6531 53.3359 98.3875 53.2969C98.1219 53.2578 97.8523 53.2266 97.5789 53.2031V52.3711H103.766V53.2031ZM121.464 54.3398C122.198 55.1055 122.773 56.0312 123.187 57.1172C123.601 58.1953 123.808 59.3906 123.808 60.7031C123.808 62.0234 123.597 63.2227 123.175 64.3008C122.753 65.3789 122.167 66.2969 121.417 67.0547C120.691 67.8047 119.847 68.3828 118.886 68.7891C117.925 69.1953 116.902 69.3984 115.816 69.3984C114.659 69.3984 113.589 69.1836 112.605 68.7539C111.628 68.3164 110.788 67.7109 110.085 66.9375C109.382 66.1797 108.827 65.2617 108.421 64.1836C108.023 63.0977 107.823 61.9375 107.823 60.7031C107.823 59.3516 108.034 58.1484 108.456 57.0938C108.878 56.0312 109.46 55.1133 110.202 54.3398C110.937 53.5742 111.788 52.9883 112.757 52.582C113.734 52.1758 114.753 51.9727 115.816 51.9727C116.917 51.9727 117.956 52.1797 118.933 52.5938C119.909 53.0078 120.753 53.5898 121.464 54.3398ZM119.718 66.1289C120.156 65.418 120.472 64.6133 120.667 63.7148C120.87 62.8164 120.972 61.8125 120.972 60.7031C120.972 59.5625 120.859 58.5156 120.632 57.5625C120.413 56.6094 120.089 55.7969 119.659 55.125C119.23 54.4609 118.691 53.9453 118.042 53.5781C117.394 53.2031 116.652 53.0156 115.816 53.0156C114.878 53.0156 114.081 53.2305 113.425 53.6602C112.769 54.0898 112.234 54.6641 111.82 55.3828C111.429 56.0703 111.136 56.875 110.941 57.7969C110.753 58.7188 110.659 59.6875 110.659 60.7031C110.659 61.8281 110.761 62.8438 110.964 63.75C111.167 64.6562 111.488 65.4609 111.925 66.1641C112.347 66.8516 112.878 67.3906 113.519 67.7812C114.159 68.1641 114.925 68.3555 115.816 68.3555C116.652 68.3555 117.406 68.1602 118.077 67.7695C118.749 67.3789 119.296 66.832 119.718 66.1289ZM136.818 69.3867C135.826 69.3867 134.873 69.1914 133.959 68.8008C133.052 68.4102 132.248 67.8477 131.545 67.1133C130.849 66.3789 130.295 65.4844 129.881 64.4297C129.466 63.3672 129.259 62.1719 129.259 60.8438C129.259 59.5156 129.462 58.3125 129.869 57.2344C130.275 56.1484 130.837 55.2148 131.556 54.4336C132.267 53.6602 133.107 53.0625 134.076 52.6406C135.044 52.2188 136.08 52.0078 137.181 52.0078C138.002 52.0078 138.744 52.1094 139.408 52.3125C140.072 52.5156 140.705 52.8008 141.306 53.168L141.787 52.3711H142.724L142.83 58.3008H141.869C141.744 57.7227 141.556 57.0977 141.306 56.4258C141.056 55.7461 140.763 55.1719 140.427 54.7031C140.052 54.1719 139.607 53.7578 139.091 53.4609C138.576 53.1562 137.986 53.0039 137.322 53.0039C136.564 53.0039 135.857 53.1719 135.201 53.5078C134.552 53.8438 133.99 54.3398 133.513 54.9961C133.06 55.6289 132.705 56.4336 132.447 57.4102C132.189 58.3867 132.06 59.4766 132.06 60.6797C132.06 61.7422 132.193 62.7188 132.459 63.6094C132.732 64.4922 133.119 65.2695 133.619 65.9414C134.119 66.6055 134.709 67.125 135.388 67.5C136.076 67.875 136.841 68.0625 137.685 68.0625C138.318 68.0625 138.9 67.9648 139.431 67.7695C139.962 67.5664 140.423 67.3008 140.814 66.9727C141.205 66.6289 141.548 66.2383 141.845 65.8008C142.142 65.3633 142.384 64.8867 142.572 64.3711L143.451 64.793C142.779 66.4414 141.888 67.6211 140.779 68.332C139.67 69.0352 138.349 69.3867 136.818 69.3867ZM164.02 69H157.094V68.168C157.703 68.1289 158.207 68.0508 158.605 67.9336C159.012 67.8164 159.215 67.6719 159.215 67.5C159.215 67.4297 159.207 67.3438 159.191 67.2422C159.176 67.1406 159.152 67.0508 159.121 66.9727L157.738 63.2461H151.914C151.695 63.793 151.516 64.2695 151.375 64.6758C151.242 65.082 151.121 65.457 151.012 65.8008C150.91 66.1367 150.84 66.4102 150.801 66.6211C150.762 66.832 150.742 67.0039 150.742 67.1367C150.742 67.4492 150.988 67.6914 151.48 67.8633C151.973 68.0352 152.527 68.1367 153.145 68.168V69H146.887V68.168C147.09 68.1523 147.344 68.1094 147.648 68.0391C147.953 67.9609 148.203 67.8594 148.398 67.7344C148.711 67.5234 148.953 67.3047 149.125 67.0781C149.297 66.8438 149.465 66.5234 149.629 66.1172C150.465 64.0312 151.387 61.6875 152.395 59.0859C153.402 56.4844 154.301 54.168 155.09 52.1367H156.027L161.57 66.4805C161.688 66.7852 161.82 67.0312 161.969 67.2188C162.117 67.4062 162.324 67.5898 162.59 67.7695C162.77 67.8789 163.004 67.9727 163.293 68.0508C163.582 68.1211 163.824 68.1602 164.02 68.168V69ZM157.316 62.2031L154.797 55.7578L152.324 62.2031H157.316ZM175.541 69.3867C174.549 69.3867 173.596 69.1914 172.682 68.8008C171.776 68.4102 170.971 67.8477 170.268 67.1133C169.573 66.3789 169.018 65.4844 168.604 64.4297C168.19 63.3672 167.983 62.1719 167.983 60.8438C167.983 59.5156 168.186 58.3125 168.592 57.2344C168.998 56.1484 169.561 55.2148 170.28 54.4336C170.991 53.6602 171.83 53.0625 172.799 52.6406C173.768 52.2188 174.803 52.0078 175.905 52.0078C176.725 52.0078 177.467 52.1094 178.131 52.3125C178.795 52.5156 179.428 52.8008 180.03 53.168L180.51 52.3711H181.448L181.553 58.3008H180.592C180.467 57.7227 180.28 57.0977 180.03 56.4258C179.78 55.7461 179.487 55.1719 179.151 54.7031C178.776 54.1719 178.33 53.7578 177.815 53.4609C177.299 53.1562 176.709 53.0039 176.045 53.0039C175.287 53.0039 174.58 53.1719 173.924 53.5078C173.276 53.8438 172.713 54.3398 172.237 54.9961C171.784 55.6289 171.428 56.4336 171.17 57.4102C170.912 58.3867 170.784 59.4766 170.784 60.6797C170.784 61.7422 170.916 62.7188 171.182 63.6094C171.455 64.4922 171.842 65.2695 172.342 65.9414C172.842 66.6055 173.432 67.125 174.112 67.5C174.799 67.875 175.565 68.0625 176.409 68.0625C177.041 68.0625 177.623 67.9648 178.155 67.7695C178.686 67.5664 179.147 67.3008 179.537 66.9727C179.928 66.6289 180.272 66.2383 180.569 65.8008C180.866 65.3633 181.108 64.8867 181.295 64.3711L182.174 64.793C181.502 66.4414 180.612 67.6211 179.502 68.332C178.393 69.0352 177.073 69.3867 175.541 69.3867ZM194.505 69H187.016V68.168C187.227 68.1523 187.532 68.1289 187.93 68.0977C188.329 68.0664 188.61 68.0195 188.774 67.957C189.032 67.8555 189.22 67.7188 189.337 67.5469C189.454 67.3672 189.512 67.1211 189.512 66.8086V54.7617C189.512 54.4883 189.47 54.2617 189.384 54.082C189.298 53.8945 189.095 53.7383 188.774 53.6133C188.54 53.5195 188.243 53.4336 187.884 53.3555C187.532 53.2695 187.243 53.2188 187.016 53.2031V52.3711H194.505V53.2031C194.262 53.2109 193.973 53.2422 193.637 53.2969C193.302 53.3438 193.009 53.4062 192.759 53.4844C192.462 53.5781 192.262 53.7305 192.161 53.9414C192.059 54.1523 192.009 54.3867 192.009 54.6445V66.6797C192.009 66.9375 192.063 67.168 192.173 67.3711C192.29 67.5664 192.485 67.7227 192.759 67.8398C192.923 67.9023 193.188 67.9727 193.555 68.0508C193.93 68.1211 194.247 68.1602 194.505 68.168V69ZM215.695 69H208.769V68.168C209.378 68.1289 209.882 68.0508 210.28 67.9336C210.687 67.8164 210.89 67.6719 210.89 67.5C210.89 67.4297 210.882 67.3438 210.866 67.2422C210.851 67.1406 210.827 67.0508 210.796 66.9727L209.413 63.2461H203.589C203.37 63.793 203.191 64.2695 203.05 64.6758C202.917 65.082 202.796 65.457 202.687 65.8008C202.585 66.1367 202.515 66.4102 202.476 66.6211C202.437 66.832 202.417 67.0039 202.417 67.1367C202.417 67.4492 202.663 67.6914 203.155 67.8633C203.648 68.0352 204.202 68.1367 204.82 68.168V69H198.562V68.168C198.765 68.1523 199.019 68.1094 199.323 68.0391C199.628 67.9609 199.878 67.8594 200.073 67.7344C200.386 67.5234 200.628 67.3047 200.8 67.0781C200.972 66.8438 201.14 66.5234 201.304 66.1172C202.14 64.0312 203.062 61.6875 204.07 59.0859C205.077 56.4844 205.976 54.168 206.765 52.1367H207.702L213.245 66.4805C213.363 66.7852 213.495 67.0312 213.644 67.2188C213.792 67.4062 213.999 67.5898 214.265 67.7695C214.445 67.8789 214.679 67.9727 214.968 68.0508C215.257 68.1211 215.499 68.1602 215.695 68.168V69ZM208.991 62.2031L206.472 55.7578L203.999 62.2031H208.991ZM243.262 64.1016L242.945 69H229.141V68.168C229.375 68.1523 229.688 68.1211 230.078 68.0742C230.469 68.0195 230.723 67.9648 230.84 67.9102C231.09 67.793 231.262 67.6406 231.355 67.4531C231.457 67.2656 231.508 67.0273 231.508 66.7383V54.7852C231.508 54.5273 231.465 54.3008 231.379 54.1055C231.293 53.9023 231.113 53.7383 230.84 53.6133C230.629 53.5117 230.344 53.4219 229.984 53.3438C229.633 53.2656 229.352 53.2188 229.141 53.2031V52.3711H242.008V56.3789H241.129C240.973 55.7852 240.633 55.1562 240.109 54.4922C239.594 53.8203 239.102 53.4531 238.633 53.3906C238.391 53.3594 238.102 53.3359 237.766 53.3203C237.43 53.3047 237.047 53.2969 236.617 53.2969H234.004V59.9062H235.879C236.48 59.9062 236.918 59.8516 237.191 59.7422C237.473 59.625 237.719 59.4336 237.93 59.168C238.102 58.9414 238.246 58.6406 238.363 58.2656C238.488 57.8828 238.57 57.5234 238.609 57.1875H239.488V63.6914H238.609C238.578 63.3164 238.492 62.9219 238.352 62.5078C238.219 62.0859 238.078 61.7812 237.93 61.5938C237.688 61.2891 237.41 61.0898 237.098 60.9961C236.793 60.9023 236.387 60.8555 235.879 60.8555H234.004V65.8477C234.004 66.3477 234.039 66.7422 234.109 67.0312C234.18 67.3203 234.316 67.5391 234.52 67.6875C234.723 67.8359 235 67.9336 235.352 67.9805C235.703 68.0195 236.203 68.0391 236.852 68.0391C237.109 68.0391 237.449 68.0391 237.871 68.0391C238.293 68.0391 238.648 68.0234 238.938 67.9922C239.234 67.9609 239.539 67.9062 239.852 67.8281C240.172 67.7422 240.398 67.6289 240.531 67.4883C240.891 67.1133 241.266 66.5469 241.656 65.7891C242.055 65.0234 242.309 64.4609 242.418 64.1016H243.262ZM273.454 69H266.528V68.168C267.137 68.1289 267.641 68.0508 268.04 67.9336C268.446 67.8164 268.649 67.6719 268.649 67.5C268.649 67.4297 268.641 67.3438 268.626 67.2422C268.61 67.1406 268.587 67.0508 268.555 66.9727L267.173 63.2461H261.348C261.13 63.793 260.95 64.2695 260.809 64.6758C260.677 65.082 260.555 65.457 260.446 65.8008C260.345 66.1367 260.274 66.4102 260.235 66.6211C260.196 66.832 260.177 67.0039 260.177 67.1367C260.177 67.4492 260.423 67.6914 260.915 67.8633C261.407 68.0352 261.962 68.1367 262.579 68.168V69H256.321V68.168C256.524 68.1523 256.778 68.1094 257.083 68.0391C257.387 67.9609 257.637 67.8594 257.833 67.7344C258.145 67.5234 258.387 67.3047 258.559 67.0781C258.731 66.8438 258.899 66.5234 259.063 66.1172C259.899 64.0312 260.821 61.6875 261.829 59.0859C262.837 56.4844 263.735 54.168 264.524 52.1367H265.462L271.005 66.4805C271.122 66.7852 271.255 67.0312 271.403 67.2188C271.552 67.4062 271.759 67.5898 272.024 67.7695C272.204 67.8789 272.438 67.9727 272.727 68.0508C273.016 68.1211 273.259 68.1602 273.454 68.168V69ZM266.751 62.2031L264.231 55.7578L261.759 62.2031H266.751ZM287.999 61.3711C288.351 61.7617 288.609 62.1914 288.773 62.6602C288.945 63.1211 289.03 63.6602 289.03 64.2773C289.03 65.7461 288.488 66.957 287.402 67.9102C286.316 68.8633 284.968 69.3398 283.359 69.3398C282.616 69.3398 281.874 69.2266 281.132 69C280.39 68.7656 279.749 68.4844 279.21 68.1562L278.706 69.0117H277.769L277.605 63.3164H278.554C278.749 64.0195 278.976 64.6562 279.234 65.2266C279.499 65.7891 279.847 66.3164 280.277 66.8086C280.683 67.2695 281.155 67.6367 281.695 67.9102C282.241 68.1836 282.874 68.3203 283.593 68.3203C284.132 68.3203 284.601 68.25 284.999 68.1094C285.405 67.9688 285.734 67.7695 285.984 67.5117C286.234 67.2539 286.417 66.9531 286.534 66.6094C286.659 66.2578 286.722 65.8555 286.722 65.4023C286.722 64.7383 286.534 64.1211 286.159 63.5508C285.784 62.9727 285.226 62.5352 284.484 62.2383C283.976 62.0352 283.394 61.8125 282.738 61.5703C282.081 61.3203 281.515 61.0859 281.038 60.8672C280.101 60.4453 279.37 59.8945 278.847 59.2148C278.331 58.5273 278.073 57.6328 278.073 56.5312C278.073 55.8984 278.202 55.3086 278.46 54.7617C278.718 54.2148 279.085 53.7266 279.562 53.2969C280.015 52.8906 280.55 52.5742 281.167 52.3477C281.784 52.1133 282.429 51.9961 283.101 51.9961C283.866 51.9961 284.55 52.1133 285.152 52.3477C285.761 52.582 286.316 52.8555 286.816 53.168L287.296 52.3711H288.234L288.327 57.8906H287.378C287.206 57.2578 287.011 56.6523 286.792 56.0742C286.581 55.4961 286.304 54.9727 285.96 54.5039C285.624 54.0508 285.214 53.6914 284.73 53.4258C284.245 53.1523 283.652 53.0156 282.948 53.0156C282.206 53.0156 281.573 53.2539 281.05 53.7305C280.527 54.207 280.265 54.7891 280.265 55.4766C280.265 56.1953 280.433 56.793 280.769 57.2695C281.105 57.7383 281.593 58.125 282.234 58.4297C282.804 58.7031 283.363 58.9414 283.909 59.1445C284.464 59.3398 284.999 59.5508 285.515 59.7773C285.984 59.9805 286.433 60.2109 286.863 60.4688C287.3 60.7266 287.679 61.0273 287.999 61.3711ZM305.076 61.3711C305.427 61.7617 305.685 62.1914 305.849 62.6602C306.021 63.1211 306.107 63.6602 306.107 64.2773C306.107 65.7461 305.564 66.957 304.478 67.9102C303.392 68.8633 302.045 69.3398 300.435 69.3398C299.693 69.3398 298.951 69.2266 298.209 69C297.466 68.7656 296.826 68.4844 296.287 68.1562L295.783 69.0117H294.845L294.681 63.3164H295.63C295.826 64.0195 296.052 64.6562 296.31 65.2266C296.576 65.7891 296.923 66.3164 297.353 66.8086C297.759 67.2695 298.232 67.6367 298.771 67.9102C299.318 68.1836 299.951 68.3203 300.67 68.3203C301.209 68.3203 301.677 68.25 302.076 68.1094C302.482 67.9688 302.81 67.7695 303.06 67.5117C303.31 67.2539 303.494 66.9531 303.611 66.6094C303.736 66.2578 303.798 65.8555 303.798 65.4023C303.798 64.7383 303.611 64.1211 303.236 63.5508C302.861 62.9727 302.302 62.5352 301.56 62.2383C301.052 62.0352 300.47 61.8125 299.814 61.5703C299.158 61.3203 298.591 61.0859 298.115 60.8672C297.177 60.4453 296.447 59.8945 295.923 59.2148C295.408 58.5273 295.15 57.6328 295.15 56.5312C295.15 55.8984 295.279 55.3086 295.537 54.7617C295.795 54.2148 296.162 53.7266 296.638 53.2969C297.091 52.8906 297.627 52.5742 298.244 52.3477C298.861 52.1133 299.505 51.9961 300.177 51.9961C300.943 51.9961 301.627 52.1133 302.228 52.3477C302.837 52.582 303.392 52.8555 303.892 53.168L304.373 52.3711H305.31L305.404 57.8906H304.455C304.283 57.2578 304.087 56.6523 303.869 56.0742C303.658 55.4961 303.38 54.9727 303.037 54.5039C302.701 54.0508 302.291 53.6914 301.806 53.4258C301.322 53.1523 300.728 53.0156 300.025 53.0156C299.283 53.0156 298.65 53.2539 298.127 53.7305C297.603 54.207 297.341 54.7891 297.341 55.4766C297.341 56.1953 297.509 56.793 297.845 57.2695C298.181 57.7383 298.67 58.125 299.31 58.4297C299.88 58.7031 300.439 58.9414 300.986 59.1445C301.541 59.3398 302.076 59.5508 302.591 59.7773C303.06 59.9805 303.509 60.2109 303.939 60.4688C304.377 60.7266 304.755 61.0273 305.076 61.3711ZM325.785 64.1016L325.469 69H311.664V68.168C311.898 68.1523 312.211 68.1211 312.602 68.0742C312.992 68.0195 313.246 67.9648 313.363 67.9102C313.613 67.793 313.785 67.6406 313.879 67.4531C313.98 67.2656 314.031 67.0273 314.031 66.7383V54.7852C314.031 54.5273 313.988 54.3008 313.902 54.1055C313.816 53.9023 313.637 53.7383 313.363 53.6133C313.152 53.5117 312.867 53.4219 312.508 53.3438C312.156 53.2656 311.875 53.2188 311.664 53.2031V52.3711H324.531V56.3789H323.652C323.496 55.7852 323.156 55.1562 322.633 54.4922C322.117 53.8203 321.625 53.4531 321.156 53.3906C320.914 53.3594 320.625 53.3359 320.289 53.3203C319.953 53.3047 319.57 53.2969 319.141 53.2969H316.527V59.9062H318.402C319.004 59.9062 319.441 59.8516 319.715 59.7422C319.996 59.625 320.242 59.4336 320.453 59.168C320.625 58.9414 320.77 58.6406 320.887 58.2656C321.012 57.8828 321.094 57.5234 321.133 57.1875H322.012V63.6914H321.133C321.102 63.3164 321.016 62.9219 320.875 62.5078C320.742 62.0859 320.602 61.7812 320.453 61.5938C320.211 61.2891 319.934 61.0898 319.621 60.9961C319.316 60.9023 318.91 60.8555 318.402 60.8555H316.527V65.8477C316.527 66.3477 316.562 66.7422 316.633 67.0312C316.703 67.3203 316.84 67.5391 317.043 67.6875C317.246 67.8359 317.523 67.9336 317.875 67.9805C318.227 68.0195 318.727 68.0391 319.375 68.0391C319.633 68.0391 319.973 68.0391 320.395 68.0391C320.816 68.0391 321.172 68.0234 321.461 67.9922C321.758 67.9609 322.062 67.9062 322.375 67.8281C322.695 67.7422 322.922 67.6289 323.055 67.4883C323.414 67.1133 323.789 66.5469 324.18 65.7891C324.578 65.0234 324.832 64.4609 324.941 64.1016H325.785ZM341.432 61.3711C341.784 61.7617 342.041 62.1914 342.205 62.6602C342.377 63.1211 342.463 63.6602 342.463 64.2773C342.463 65.7461 341.92 66.957 340.834 67.9102C339.748 68.8633 338.401 69.3398 336.791 69.3398C336.049 69.3398 335.307 69.2266 334.565 69C333.823 68.7656 333.182 68.4844 332.643 68.1562L332.139 69.0117H331.202L331.038 63.3164H331.987C332.182 64.0195 332.409 64.6562 332.666 65.2266C332.932 65.7891 333.28 66.3164 333.709 66.8086C334.116 67.2695 334.588 67.6367 335.127 67.9102C335.674 68.1836 336.307 68.3203 337.026 68.3203C337.565 68.3203 338.034 68.25 338.432 68.1094C338.838 67.9688 339.166 67.7695 339.416 67.5117C339.666 67.2539 339.85 66.9531 339.967 66.6094C340.092 66.2578 340.155 65.8555 340.155 65.4023C340.155 64.7383 339.967 64.1211 339.592 63.5508C339.217 62.9727 338.659 62.5352 337.916 62.2383C337.409 62.0352 336.827 61.8125 336.17 61.5703C335.514 61.3203 334.948 61.0859 334.471 60.8672C333.534 60.4453 332.803 59.8945 332.28 59.2148C331.764 58.5273 331.506 57.6328 331.506 56.5312C331.506 55.8984 331.635 55.3086 331.893 54.7617C332.151 54.2148 332.518 53.7266 332.995 53.2969C333.448 52.8906 333.983 52.5742 334.6 52.3477C335.217 52.1133 335.862 51.9961 336.534 51.9961C337.299 51.9961 337.983 52.1133 338.584 52.3477C339.194 52.582 339.748 52.8555 340.248 53.168L340.729 52.3711H341.666L341.76 57.8906H340.811C340.639 57.2578 340.444 56.6523 340.225 56.0742C340.014 55.4961 339.737 54.9727 339.393 54.5039C339.057 54.0508 338.647 53.6914 338.163 53.4258C337.678 53.1523 337.084 53.0156 336.381 53.0156C335.639 53.0156 335.006 53.2539 334.483 53.7305C333.959 54.207 333.698 54.7891 333.698 55.4766C333.698 56.1953 333.866 56.793 334.202 57.2695C334.538 57.7383 335.026 58.125 335.666 58.4297C336.237 58.7031 336.795 58.9414 337.342 59.1445C337.897 59.3398 338.432 59.5508 338.948 59.7773C339.416 59.9805 339.866 60.2109 340.295 60.4688C340.733 60.7266 341.112 61.0273 341.432 61.3711ZM358.509 61.3711C358.86 61.7617 359.118 62.1914 359.282 62.6602C359.454 63.1211 359.54 63.6602 359.54 64.2773C359.54 65.7461 358.997 66.957 357.911 67.9102C356.825 68.8633 355.477 69.3398 353.868 69.3398C353.126 69.3398 352.384 69.2266 351.641 69C350.899 68.7656 350.259 68.4844 349.72 68.1562L349.216 69.0117H348.278L348.114 63.3164H349.063C349.259 64.0195 349.485 64.6562 349.743 65.2266C350.009 65.7891 350.356 66.3164 350.786 66.8086C351.192 67.2695 351.665 67.6367 352.204 67.9102C352.751 68.1836 353.384 68.3203 354.102 68.3203C354.641 68.3203 355.11 68.25 355.509 68.1094C355.915 67.9688 356.243 67.7695 356.493 67.5117C356.743 67.2539 356.927 66.9531 357.044 66.6094C357.169 66.2578 357.231 65.8555 357.231 65.4023C357.231 64.7383 357.044 64.1211 356.669 63.5508C356.294 62.9727 355.735 62.5352 354.993 62.2383C354.485 62.0352 353.903 61.8125 353.247 61.5703C352.591 61.3203 352.024 61.0859 351.548 60.8672C350.61 60.4453 349.88 59.8945 349.356 59.2148C348.841 58.5273 348.583 57.6328 348.583 56.5312C348.583 55.8984 348.712 55.3086 348.97 54.7617C349.227 54.2148 349.595 53.7266 350.071 53.2969C350.524 52.8906 351.059 52.5742 351.677 52.3477C352.294 52.1133 352.938 51.9961 353.61 51.9961C354.376 51.9961 355.059 52.1133 355.661 52.3477C356.27 52.582 356.825 52.8555 357.325 53.168L357.805 52.3711H358.743L358.837 57.8906H357.888C357.716 57.2578 357.52 56.6523 357.302 56.0742C357.091 55.4961 356.813 54.9727 356.47 54.5039C356.134 54.0508 355.723 53.6914 355.239 53.4258C354.755 53.1523 354.161 53.0156 353.458 53.0156C352.716 53.0156 352.083 53.2539 351.559 53.7305C351.036 54.207 350.774 54.7891 350.774 55.4766C350.774 56.1953 350.942 56.793 351.278 57.2695C351.614 57.7383 352.102 58.125 352.743 58.4297C353.313 58.7031 353.872 58.9414 354.419 59.1445C354.973 59.3398 355.509 59.5508 356.024 59.7773C356.493 59.9805 356.942 60.2109 357.372 60.4688C357.809 60.7266 358.188 61.0273 358.509 61.3711ZM378.667 54.3398C379.402 55.1055 379.976 56.0312 380.39 57.1172C380.804 58.1953 381.011 59.3906 381.011 60.7031C381.011 62.0234 380.8 63.2227 380.378 64.3008C379.956 65.3789 379.37 66.2969 378.62 67.0547C377.894 67.8047 377.05 68.3828 376.089 68.7891C375.128 69.1953 374.105 69.3984 373.019 69.3984C371.862 69.3984 370.792 69.1836 369.808 68.7539C368.831 68.3164 367.991 67.7109 367.288 66.9375C366.585 66.1797 366.03 65.2617 365.624 64.1836C365.226 63.0977 365.027 61.9375 365.027 60.7031C365.027 59.3516 365.237 58.1484 365.659 57.0938C366.081 56.0312 366.663 55.1133 367.405 54.3398C368.14 53.5742 368.991 52.9883 369.96 52.582C370.937 52.1758 371.956 51.9727 373.019 51.9727C374.12 51.9727 375.159 52.1797 376.136 52.5938C377.112 53.0078 377.956 53.5898 378.667 54.3398ZM376.921 66.1289C377.359 65.418 377.675 64.6133 377.87 63.7148C378.073 62.8164 378.175 61.8125 378.175 60.7031C378.175 59.5625 378.062 58.5156 377.835 57.5625C377.616 56.6094 377.292 55.7969 376.862 55.125C376.433 54.4609 375.894 53.9453 375.245 53.5781C374.597 53.2031 373.855 53.0156 373.019 53.0156C372.081 53.0156 371.284 53.2305 370.628 53.6602C369.972 54.0898 369.437 54.6641 369.023 55.3828C368.632 56.0703 368.339 56.875 368.144 57.7969C367.956 58.7188 367.862 59.6875 367.862 60.7031C367.862 61.8281 367.964 62.8438 368.167 63.75C368.37 64.6562 368.691 65.4609 369.128 66.1641C369.55 66.8516 370.081 67.3906 370.722 67.7812C371.362 68.1641 372.128 68.3555 373.019 68.3555C373.855 68.3555 374.609 68.1602 375.28 67.7695C375.952 67.3789 376.499 66.832 376.921 66.1289ZM402.892 69H398.416C397.423 67.4453 396.525 66.1016 395.72 64.9688C394.923 63.8359 394.056 62.668 393.119 61.4648H391.42V66.7383C391.42 67.0117 391.462 67.2539 391.548 67.4648C391.634 67.668 391.818 67.8242 392.099 67.9336C392.24 67.9883 392.486 68.0391 392.837 68.0859C393.189 68.1328 393.486 68.1602 393.728 68.168V69H386.697V68.168C386.884 68.1523 387.154 68.125 387.505 68.0859C387.865 68.0469 388.115 67.9961 388.255 67.9336C388.49 67.832 388.658 67.6836 388.759 67.4883C388.869 67.293 388.923 67.043 388.923 66.7383V54.7148C388.923 54.4414 388.884 54.1992 388.806 53.9883C388.728 53.7773 388.545 53.6172 388.255 53.5078C388.06 53.4375 387.806 53.375 387.494 53.3203C387.181 53.2578 386.916 53.2188 386.697 53.2031V52.3711H394.373C395.076 52.3711 395.736 52.4453 396.353 52.5938C396.97 52.7344 397.529 52.9648 398.029 53.2852C398.513 53.5977 398.9 54.0078 399.189 54.5156C399.478 55.0156 399.623 55.6211 399.623 56.332C399.623 56.9727 399.525 57.5391 399.33 58.0312C399.134 58.5234 398.845 58.9492 398.462 59.3086C398.111 59.6445 397.689 59.9375 397.197 60.1875C396.705 60.4297 396.162 60.6367 395.568 60.8086C396.388 61.8945 397.068 62.8086 397.607 63.5508C398.154 64.293 398.822 65.1953 399.611 66.2578C399.955 66.7266 400.263 67.0742 400.537 67.3008C400.818 67.5195 401.095 67.6992 401.369 67.8398C401.572 67.9414 401.826 68.0195 402.13 68.0742C402.435 68.1289 402.689 68.1602 402.892 68.168V69ZM396.728 56.6016C396.728 55.5938 396.439 54.7969 395.861 54.2109C395.283 53.6172 394.466 53.3203 393.412 53.3203H391.42V60.457H392.955C394.033 60.457 394.931 60.1133 395.65 59.4258C396.369 58.7305 396.728 57.7891 396.728 56.6016ZM414.414 69H406.926V68.168C407.137 68.1523 407.441 68.1289 407.84 68.0977C408.238 68.0664 408.52 68.0195 408.684 67.957C408.941 67.8555 409.129 67.7188 409.246 67.5469C409.363 67.3672 409.422 67.1211 409.422 66.8086V54.7617C409.422 54.4883 409.379 54.2617 409.293 54.082C409.207 53.8945 409.004 53.7383 408.684 53.6133C408.449 53.5195 408.152 53.4336 407.793 53.3555C407.441 53.2695 407.152 53.2188 406.926 53.2031V52.3711H414.414V53.2031C414.172 53.2109 413.883 53.2422 413.547 53.2969C413.211 53.3438 412.918 53.4062 412.668 53.4844C412.371 53.5781 412.172 53.7305 412.07 53.9414C411.969 54.1523 411.918 54.3867 411.918 54.6445V66.6797C411.918 66.9375 411.973 67.168 412.082 67.3711C412.199 67.5664 412.395 67.7227 412.668 67.8398C412.832 67.9023 413.098 67.9727 413.465 68.0508C413.84 68.1211 414.156 68.1602 414.414 68.168V69ZM435.604 69H428.678V68.168C429.288 68.1289 429.791 68.0508 430.19 67.9336C430.596 67.8164 430.799 67.6719 430.799 67.5C430.799 67.4297 430.791 67.3438 430.776 67.2422C430.76 67.1406 430.737 67.0508 430.705 66.9727L429.323 63.2461H423.498C423.28 63.793 423.1 64.2695 422.959 64.6758C422.827 65.082 422.705 65.457 422.596 65.8008C422.495 66.1367 422.424 66.4102 422.385 66.6211C422.346 66.832 422.327 67.0039 422.327 67.1367C422.327 67.4492 422.573 67.6914 423.065 67.8633C423.557 68.0352 424.112 68.1367 424.729 68.168V69H418.471V68.168C418.674 68.1523 418.928 68.1094 419.233 68.0391C419.538 67.9609 419.788 67.8594 419.983 67.7344C420.295 67.5234 420.538 67.3047 420.709 67.0781C420.881 66.8438 421.049 66.5234 421.213 66.1172C422.049 64.0312 422.971 61.6875 423.979 59.0859C424.987 56.4844 425.885 54.168 426.674 52.1367H427.612L433.155 66.4805C433.272 66.7852 433.405 67.0312 433.553 67.2188C433.702 67.4062 433.909 67.5898 434.174 67.7695C434.354 67.8789 434.588 67.9727 434.877 68.0508C435.166 68.1211 435.409 68.1602 435.604 68.168V69ZM428.901 62.2031L426.381 55.7578L423.909 62.2031H428.901Z" fill="#E8C548"/>
<path d="M74.9922 26.1094L74.2891 36H48.2969V34.3359C48.6719 34.3047 49.2109 34.25 49.9141 34.1719C50.6328 34.0938 51.1328 33.9922 51.4141 33.8672C51.8828 33.6641 52.2187 33.3672 52.4219 32.9766C52.6406 32.5859 52.75 32.0859 52.75 31.4766V7.6641C52.75 7.1328 52.6562 6.6641 52.4687 6.2578C52.2969 5.8516 51.9453 5.5234 51.4141 5.2734C51.0547 5.0859 50.5469 4.9062 49.8906 4.7344C49.25 4.5469 48.7187 4.4375 48.2969 4.4062V2.7422H62.3359V4.4062C61.8984 4.4219 61.3281 4.5 60.625 4.6406C59.9375 4.7812 59.4375 4.9062 59.125 5.0156C58.5938 5.2031 58.2266 5.5234 58.0234 5.9766C57.8359 6.4297 57.7422 6.9141 57.7422 7.4297V29.7656C57.7422 30.7969 57.7891 31.6016 57.8828 32.1797C57.9922 32.7422 58.2344 33.1797 58.6094 33.4922C58.9688 33.7734 59.5 33.9609 60.2031 34.0547C60.9219 34.1328 61.9219 34.1719 63.2031 34.1719C63.7812 34.1719 64.3828 34.1562 65.0078 34.125C65.6328 34.0938 66.2266 34.0312 66.7891 33.9375C67.3359 33.8438 67.8359 33.7188 68.2891 33.5625C68.7578 33.3906 69.1016 33.1797 69.3203 32.9297C69.9609 32.2109 70.7031 31.125 71.5469 29.6719C72.4062 28.2031 73 27.0156 73.3281 26.1094H74.9922ZM100.947 35.5781C100.212 35.8438 99.5641 36.0547 99.0016 36.2109C98.4547 36.3828 97.8297 36.4688 97.1266 36.4688C95.9078 36.4688 94.9312 36.1875 94.1969 35.625C93.4781 35.0469 93.0172 34.2109 92.8141 33.1172H92.6734C91.6578 34.2422 90.5641 35.1016 89.3922 35.6953C88.2359 36.2891 86.8375 36.5859 85.1969 36.5859C83.4625 36.5859 82.0328 36.0547 80.9078 34.9922C79.7984 33.9297 79.2437 32.5391 79.2437 30.8203C79.2437 29.9297 79.3687 29.1328 79.6187 28.4297C79.8687 27.7266 80.2437 27.0938 80.7437 26.5312C81.1344 26.0625 81.65 25.6484 82.2906 25.2891C82.9312 24.9141 83.5328 24.6172 84.0953 24.3984C84.7984 24.1328 86.2203 23.6406 88.3609 22.9219C90.5172 22.2031 91.9703 21.6406 92.7203 21.2344V18.9141C92.7203 18.7109 92.6734 18.3203 92.5797 17.7422C92.5016 17.1641 92.3219 16.6172 92.0406 16.1016C91.7281 15.5234 91.2828 15.0234 90.7047 14.6016C90.1422 14.1641 89.3375 13.9453 88.2906 13.9453C87.5719 13.9453 86.9 14.0703 86.275 14.3203C85.6656 14.5547 85.2359 14.8047 84.9859 15.0703C84.9859 15.3828 85.0562 15.8438 85.1969 16.4531C85.3531 17.0625 85.4312 17.625 85.4312 18.1406C85.4312 18.6875 85.1812 19.1875 84.6812 19.6406C84.1969 20.0938 83.5172 20.3203 82.6422 20.3203C81.8609 20.3203 81.2828 20.0469 80.9078 19.5C80.5484 18.9375 80.3687 18.3125 80.3687 17.625C80.3687 16.9062 80.6187 16.2188 81.1187 15.5625C81.6344 14.9062 82.2984 14.3203 83.1109 13.8047C83.8141 13.3672 84.6656 13 85.6656 12.7031C86.6656 12.3906 87.6422 12.2344 88.5953 12.2344C89.9078 12.2344 91.0484 12.3281 92.0172 12.5156C93.0016 12.6875 93.8922 13.0703 94.6891 13.6641C95.4859 14.2422 96.0875 15.0312 96.4937 16.0312C96.9156 17.0156 97.1266 18.2891 97.1266 19.8516C97.1266 22.0859 97.1031 24.0703 97.0562 25.8047C97.0094 27.5234 96.9859 29.4062 96.9859 31.4531C96.9859 32.0625 97.0875 32.5469 97.2906 32.9062C97.5094 33.2656 97.8375 33.5703 98.275 33.8203C98.5094 33.9609 98.8766 34.0391 99.3766 34.0547C99.8922 34.0703 100.416 34.0781 100.947 34.0781V35.5781ZM92.7672 23.2031C91.4391 23.5938 90.275 23.9766 89.275 24.3516C88.275 24.7266 87.3453 25.1953 86.4859 25.7578C85.7047 26.2891 85.0875 26.9219 84.6344 27.6562C84.1812 28.375 83.9547 29.2344 83.9547 30.2344C83.9547 31.5312 84.2906 32.4844 84.9625 33.0938C85.65 33.7031 86.5172 34.0078 87.5641 34.0078C88.6734 34.0078 89.65 33.7422 90.4937 33.2109C91.3375 32.6641 92.0484 32.0234 92.6266 31.2891L92.7672 23.2031ZM123.339 15.8672C123.339 16.6641 123.144 17.375 122.753 18C122.362 18.6094 121.761 18.9141 120.948 18.9141C120.073 18.9141 119.402 18.6875 118.933 18.2344C118.48 17.7812 118.253 17.2812 118.253 16.7344C118.253 16.3906 118.277 16.0781 118.323 15.7969C118.386 15.5156 118.441 15.2344 118.487 14.9531C117.753 14.9531 116.894 15.25 115.909 15.8438C114.925 16.4375 114.089 17.2812 113.402 18.375V31.8281C113.402 32.375 113.503 32.8203 113.706 33.1641C113.925 33.5078 114.261 33.7656 114.714 33.9375C115.105 34.0938 115.605 34.2109 116.214 34.2891C116.839 34.3672 117.378 34.4219 117.831 34.4531V36H105.644V34.4531C106.003 34.4219 106.37 34.3906 106.745 34.3594C107.136 34.3281 107.472 34.2656 107.753 34.1719C108.191 34.0312 108.511 33.7891 108.714 33.4453C108.933 33.0859 109.042 32.625 109.042 32.0625V17.7891C109.042 17.3047 108.925 16.8281 108.691 16.3594C108.472 15.8906 108.159 15.5156 107.753 15.2344C107.456 15.0469 107.105 14.9141 106.698 14.8359C106.292 14.7422 105.855 14.6797 105.386 14.6484V13.125L113.073 12.6094L113.402 12.9375V16.1953H113.519C114.487 14.9297 115.566 13.9688 116.753 13.3125C117.941 12.6562 119.027 12.3281 120.011 12.3281C120.995 12.3281 121.792 12.6484 122.402 13.2891C123.027 13.9297 123.339 14.7891 123.339 15.8672ZM138.958 36H127.778V34.4531C128.137 34.4219 128.505 34.3906 128.88 34.3594C129.27 34.3281 129.606 34.2656 129.887 34.1719C130.325 34.0312 130.645 33.7891 130.848 33.4453C131.067 33.0859 131.177 32.625 131.177 32.0625V17.7891C131.177 17.2891 131.059 16.8359 130.825 16.4297C130.606 16.0078 130.294 15.6562 129.887 15.375C129.591 15.1875 129.161 15.0312 128.598 14.9062C128.036 14.7656 127.52 14.6797 127.052 14.6484V13.125L135.208 12.6094L135.536 12.9375V31.7812C135.536 32.3281 135.637 32.7812 135.841 33.1406C136.059 33.5 136.395 33.7656 136.848 33.9375C137.192 34.0781 137.528 34.1953 137.856 34.2891C138.184 34.3672 138.552 34.4219 138.958 34.4531V36ZM136.005 3.4922C136.005 4.3828 135.708 5.1641 135.114 5.8359C134.536 6.4922 133.817 6.8203 132.958 6.8203C132.161 6.8203 131.466 6.5078 130.872 5.8828C130.294 5.2422 130.005 4.5156 130.005 3.7031C130.005 2.8437 130.294 2.0937 130.872 1.45312C131.466 0.8125 132.161 0.49219 132.958 0.49219C133.848 0.49219 134.575 0.79688 135.137 1.40625C135.716 2 136.005 2.6953 136.005 3.4922ZM159.452 24.6797C160.092 25.2422 160.584 25.8906 160.928 26.625C161.272 27.3594 161.444 28.2578 161.444 29.3203C161.444 31.4609 160.639 33.2109 159.03 34.5703C157.436 35.9297 155.366 36.6094 152.819 36.6094C151.475 36.6094 150.233 36.3672 149.092 35.8828C147.967 35.3984 147.162 34.9531 146.678 34.5469L146.209 36.0703H144.452L144.217 28.0312H145.834C145.959 28.6406 146.225 29.3516 146.631 30.1641C147.037 30.9766 147.53 31.7109 148.108 32.3672C148.717 33.0547 149.444 33.6328 150.287 34.1016C151.147 34.5703 152.108 34.8047 153.17 34.8047C154.67 34.8047 155.827 34.4688 156.639 33.7969C157.452 33.1094 157.858 32.1328 157.858 30.8672C157.858 30.2109 157.725 29.6484 157.459 29.1797C157.209 28.6953 156.834 28.2734 156.334 27.9141C155.819 27.5547 155.186 27.2344 154.436 26.9531C153.686 26.6562 152.85 26.3672 151.928 26.0859C151.194 25.8672 150.373 25.5703 149.467 25.1953C148.577 24.8047 147.811 24.3516 147.17 23.8359C146.483 23.2891 145.92 22.6172 145.483 21.8203C145.045 21.0234 144.827 20.0859 144.827 19.0078C144.827 17.1172 145.53 15.5156 146.936 14.2031C148.342 12.8906 150.225 12.2344 152.584 12.2344C153.491 12.2344 154.412 12.3516 155.35 12.5859C156.303 12.8203 157.077 13.1016 157.67 13.4297L158.209 12.2109H159.897L160.248 19.6406H158.631C158.303 17.9844 157.592 16.6406 156.498 15.6094C155.42 14.5625 154.1 14.0391 152.537 14.0391C151.256 14.0391 150.248 14.3594 149.514 15C148.78 15.6406 148.412 16.4141 148.412 17.3203C148.412 18.0234 148.53 18.6094 148.764 19.0781C149.014 19.5469 149.381 19.9453 149.866 20.2734C150.334 20.5859 150.92 20.8828 151.623 21.1641C152.342 21.4297 153.225 21.7344 154.272 22.0781C155.303 22.4062 156.272 22.7891 157.178 23.2266C158.1 23.6641 158.858 24.1484 159.452 24.6797ZM182.617 24.6797C183.258 25.2422 183.75 25.8906 184.094 26.625C184.438 27.3594 184.609 28.2578 184.609 29.3203C184.609 31.4609 183.805 33.2109 182.195 34.5703C180.602 35.9297 178.531 36.6094 175.984 36.6094C174.641 36.6094 173.398 36.3672 172.258 35.8828C171.133 35.3984 170.328 34.9531 169.844 34.5469L169.375 36.0703H167.617L167.383 28.0312H169C169.125 28.6406 169.391 29.3516 169.797 30.1641C170.203 30.9766 170.695 31.7109 171.273 32.3672C171.883 33.0547 172.609 33.6328 173.453 34.1016C174.312 34.5703 175.273 34.8047 176.336 34.8047C177.836 34.8047 178.992 34.4688 179.805 33.7969C180.617 33.1094 181.023 32.1328 181.023 30.8672C181.023 30.2109 180.891 29.6484 180.625 29.1797C180.375 28.6953 180 28.2734 179.5 27.9141C178.984 27.5547 178.352 27.2344 177.602 26.9531C176.852 26.6562 176.016 26.3672 175.094 26.0859C174.359 25.8672 173.539 25.5703 172.633 25.1953C171.742 24.8047 170.977 24.3516 170.336 23.8359C169.648 23.2891 169.086 22.6172 168.648 21.8203C168.211 21.0234 167.992 20.0859 167.992 19.0078C167.992 17.1172 168.695 15.5156 170.102 14.2031C171.508 12.8906 173.391 12.2344 175.75 12.2344C176.656 12.2344 177.578 12.3516 178.516 12.5859C179.469 12.8203 180.242 13.1016 180.836 13.4297L181.375 12.2109H183.062L183.414 19.6406H181.797C181.469 17.9844 180.758 16.6406 179.664 15.6094C178.586 14.5625 177.266 14.0391 175.703 14.0391C174.422 14.0391 173.414 14.3594 172.68 15C171.945 15.6406 171.578 16.4141 171.578 17.3203C171.578 18.0234 171.695 18.6094 171.93 19.0781C172.18 19.5469 172.547 19.9453 173.031 20.2734C173.5 20.5859 174.086 20.8828 174.789 21.1641C175.508 21.4297 176.391 21.7344 177.438 22.0781C178.469 22.4062 179.438 22.7891 180.344 23.2266C181.266 23.6641 182.023 24.1484 182.617 24.6797ZM212.416 35.5781C211.681 35.8438 211.033 36.0547 210.47 36.2109C209.923 36.3828 209.298 36.4688 208.595 36.4688C207.377 36.4688 206.4 36.1875 205.666 35.625C204.947 35.0469 204.486 34.2109 204.283 33.1172H204.142C203.127 34.2422 202.033 35.1016 200.861 35.6953C199.705 36.2891 198.306 36.5859 196.666 36.5859C194.931 36.5859 193.502 36.0547 192.377 34.9922C191.267 33.9297 190.712 32.5391 190.712 30.8203C190.712 29.9297 190.837 29.1328 191.087 28.4297C191.337 27.7266 191.712 27.0938 192.212 26.5312C192.603 26.0625 193.119 25.6484 193.759 25.2891C194.4 24.9141 195.002 24.6172 195.564 24.3984C196.267 24.1328 197.689 23.6406 199.83 22.9219C201.986 22.2031 203.439 21.6406 204.189 21.2344V18.9141C204.189 18.7109 204.142 18.3203 204.048 17.7422C203.97 17.1641 203.791 16.6172 203.509 16.1016C203.197 15.5234 202.752 15.0234 202.173 14.6016C201.611 14.1641 200.806 13.9453 199.759 13.9453C199.041 13.9453 198.369 14.0703 197.744 14.3203C197.134 14.5547 196.705 14.8047 196.455 15.0703C196.455 15.3828 196.525 15.8438 196.666 16.4531C196.822 17.0625 196.9 17.625 196.9 18.1406C196.9 18.6875 196.65 19.1875 196.15 19.6406C195.666 20.0938 194.986 20.3203 194.111 20.3203C193.33 20.3203 192.752 20.0469 192.377 19.5C192.017 18.9375 191.837 18.3125 191.837 17.625C191.837 16.9062 192.087 16.2188 192.587 15.5625C193.103 14.9062 193.767 14.3203 194.58 13.8047C195.283 13.3672 196.134 13 197.134 12.7031C198.134 12.3906 199.111 12.2344 200.064 12.2344C201.377 12.2344 202.517 12.3281 203.486 12.5156C204.47 12.6875 205.361 13.0703 206.158 13.6641C206.955 14.2422 207.556 15.0312 207.962 16.0312C208.384 17.0156 208.595 18.2891 208.595 19.8516C208.595 22.0859 208.572 24.0703 208.525 25.8047C208.478 27.5234 208.455 29.4062 208.455 31.4531C208.455 32.0625 208.556 32.5469 208.759 32.9062C208.978 33.2656 209.306 33.5703 209.744 33.8203C209.978 33.9609 210.345 34.0391 210.845 34.0547C211.361 34.0703 211.884 34.0781 212.416 34.0781V35.5781ZM204.236 23.2031C202.908 23.5938 201.744 23.9766 200.744 24.3516C199.744 24.7266 198.814 25.1953 197.955 25.7578C197.173 26.2891 196.556 26.9219 196.103 27.6562C195.65 28.375 195.423 29.2344 195.423 30.2344C195.423 31.5312 195.759 32.4844 196.431 33.0938C197.119 33.7031 197.986 34.0078 199.033 34.0078C200.142 34.0078 201.119 33.7422 201.962 33.2109C202.806 32.6641 203.517 32.0234 204.095 31.2891L204.236 23.2031ZM252.395 20.7422C253.098 21.5234 253.614 22.3828 253.942 23.3203C254.286 24.2422 254.458 25.3203 254.458 26.5547C254.458 29.4922 253.372 31.9141 251.2 33.8203C249.028 35.7266 246.333 36.6797 243.114 36.6797C241.63 36.6797 240.145 36.4531 238.661 36C237.177 35.5312 235.895 34.9688 234.817 34.3125L233.809 36.0234H231.934L231.606 24.6328H233.505C233.895 26.0391 234.348 27.3125 234.864 28.4531C235.395 29.5781 236.091 30.6328 236.95 31.6172C237.762 32.5391 238.708 33.2734 239.786 33.8203C240.88 34.3672 242.145 34.6406 243.583 34.6406C244.661 34.6406 245.598 34.5 246.395 34.2188C247.208 33.9375 247.864 33.5391 248.364 33.0234C248.864 32.5078 249.231 31.9062 249.466 31.2188C249.716 30.5156 249.841 29.7109 249.841 28.8047C249.841 27.4766 249.466 26.2422 248.716 25.1016C247.966 23.9453 246.848 23.0703 245.364 22.4766C244.348 22.0703 243.184 21.625 241.872 21.1406C240.559 20.6406 239.427 20.1719 238.473 19.7344C236.598 18.8906 235.137 17.7891 234.091 16.4297C233.059 15.0547 232.544 13.2656 232.544 11.0625C232.544 9.7969 232.802 8.6172 233.317 7.5234C233.833 6.4297 234.567 5.4531 235.52 4.5938C236.427 3.7812 237.497 3.1484 238.731 2.6953C239.966 2.2266 241.255 1.99219 242.598 1.99219C244.13 1.99219 245.497 2.2266 246.7 2.6953C247.919 3.1641 249.028 3.7109 250.028 4.3359L250.989 2.7422H252.864L253.052 13.7812H251.153C250.809 12.5156 250.419 11.3047 249.981 10.1484C249.559 8.9922 249.005 7.9453 248.317 7.0078C247.645 6.1016 246.825 5.3828 245.856 4.8516C244.887 4.3047 243.7 4.0312 242.294 4.0312C240.809 4.0312 239.544 4.5078 238.497 5.4609C237.45 6.4141 236.927 7.5781 236.927 8.9531C236.927 10.3906 237.262 11.5859 237.934 12.5391C238.606 13.4766 239.583 14.25 240.864 14.8594C242.005 15.4062 243.122 15.8828 244.216 16.2891C245.325 16.6797 246.395 17.1016 247.427 17.5547C248.364 17.9609 249.262 18.4219 250.122 18.9375C250.997 19.4531 251.755 20.0547 252.395 20.7422ZM271.67 36H260.491V34.4531C260.85 34.4219 261.217 34.3906 261.592 34.3594C261.983 34.3281 262.319 34.2656 262.6 34.1719C263.038 34.0312 263.358 33.7891 263.561 33.4453C263.78 33.0859 263.889 32.625 263.889 32.0625V17.7891C263.889 17.2891 263.772 16.8359 263.538 16.4297C263.319 16.0078 263.006 15.6562 262.6 15.375C262.303 15.1875 261.873 15.0312 261.311 14.9062C260.748 14.7656 260.233 14.6797 259.764 14.6484V13.125L267.92 12.6094L268.248 12.9375V31.7812C268.248 32.3281 268.35 32.7812 268.553 33.1406C268.772 33.5 269.108 33.7656 269.561 33.9375C269.905 34.0781 270.241 34.1953 270.569 34.2891C270.897 34.3672 271.264 34.4219 271.67 34.4531V36ZM268.717 3.4922C268.717 4.3828 268.42 5.1641 267.827 5.8359C267.248 6.4922 266.53 6.8203 265.67 6.8203C264.873 6.8203 264.178 6.5078 263.584 5.8828C263.006 5.2422 262.717 4.5156 262.717 3.7031C262.717 2.8437 263.006 2.0937 263.584 1.45312C264.178 0.8125 264.873 0.49219 265.67 0.49219C266.561 0.49219 267.288 0.79688 267.85 1.40625C268.428 2 268.717 2.6953 268.717 3.4922ZM287.734 36H276.461V34.4531C276.82 34.4219 277.203 34.3906 277.609 34.3594C278.016 34.3125 278.352 34.25 278.617 34.1719C279.055 34.0312 279.383 33.7891 279.602 33.4453C279.82 33.0859 279.93 32.625 279.93 32.0625V5.2969C279.93 4.7344 279.805 4.2109 279.555 3.7266C279.32 3.2266 279.008 2.8359 278.617 2.5547C278.336 2.3672 277.82 2.1953 277.07 2.0391C276.32 1.88281 275.719 1.78906 275.266 1.75781V0.25781L283.961 -0.28125L284.289 0.0703096V31.7812C284.289 32.3281 284.391 32.7812 284.594 33.1406C284.797 33.4844 285.125 33.75 285.578 33.9375C285.922 34.0938 286.258 34.2109 286.586 34.2891C286.93 34.3672 287.312 34.4219 287.734 34.4531V36ZM315.869 14.3203C315.166 14.4453 314.494 14.7031 313.853 15.0938C313.228 15.4688 312.689 16.1406 312.236 17.1094C311.314 19.2031 310.361 21.3906 309.377 23.6719C308.392 25.9375 307.369 28.3203 306.306 30.8203C305.994 31.5391 305.658 32.3906 305.298 33.375C304.955 34.3594 304.634 35.3047 304.337 36.2109H302.509C301.025 32.5391 299.658 29.1953 298.408 26.1797C297.158 23.1484 295.861 20.0469 294.517 16.875C294.205 16.1562 293.697 15.6016 292.994 15.2109C292.306 14.8047 291.611 14.5469 290.908 14.4375V12.8906H301.595V14.5312C301.127 14.5469 300.541 14.6484 299.837 14.8359C299.134 15.0078 298.783 15.25 298.783 15.5625C298.783 15.6094 298.822 15.7344 298.9 15.9375C298.978 16.125 299.056 16.3438 299.134 16.5938C299.775 18.1875 300.681 20.4141 301.853 23.2734C303.025 26.1328 303.978 28.4375 304.712 30.1875C305.275 28.8438 305.978 27.1719 306.822 25.1719C307.681 23.1719 308.603 20.9375 309.587 18.4688C309.744 18.0469 309.892 17.6562 310.033 17.2969C310.173 16.9219 310.244 16.5469 310.244 16.1719C310.244 15.9062 310.111 15.6719 309.845 15.4688C309.595 15.25 309.291 15.0625 308.931 14.9062C308.572 14.75 308.22 14.6328 307.877 14.5547C307.533 14.4766 307.252 14.4219 307.033 14.3906V12.8906H315.869V14.3203ZM339.831 30.5625C338.862 32.4062 337.566 33.875 335.941 34.9688C334.316 36.0625 332.448 36.6094 330.339 36.6094C328.48 36.6094 326.847 36.2812 325.441 35.625C324.05 34.9688 322.902 34.0781 321.995 32.9531C321.089 31.8281 320.409 30.5156 319.956 29.0156C319.519 27.5156 319.3 25.9297 319.3 24.2578C319.3 22.7578 319.534 21.2891 320.003 19.8516C320.487 18.3984 321.191 17.0938 322.112 15.9375C323.003 14.8281 324.105 13.9375 325.417 13.2656C326.745 12.5781 328.23 12.2344 329.87 12.2344C331.558 12.2344 333.003 12.5 334.206 13.0312C335.409 13.5625 336.386 14.2891 337.136 15.2109C337.855 16.0859 338.386 17.1172 338.73 18.3047C339.089 19.4922 339.269 20.7812 339.269 22.1719V23.7188H323.964C323.964 25.2344 324.105 26.6094 324.386 27.8438C324.683 29.0781 325.144 30.1641 325.769 31.1016C326.378 32.0078 327.175 32.7266 328.159 33.2578C329.144 33.7734 330.316 34.0312 331.675 34.0312C333.066 34.0312 334.261 33.7109 335.261 33.0703C336.277 32.4141 337.253 31.2422 338.191 29.5547L339.831 30.5625ZM334.652 21.75C334.652 20.875 334.573 19.9375 334.417 18.9375C334.277 17.9375 334.042 17.1016 333.714 16.4297C333.355 15.7109 332.862 15.125 332.237 14.6719C331.612 14.2188 330.808 13.9922 329.823 13.9922C328.183 13.9922 326.816 14.6797 325.722 16.0547C324.644 17.4141 324.058 19.3125 323.964 21.75H334.652ZM360.161 24.6797C360.802 25.2422 361.294 25.8906 361.638 26.625C361.981 27.3594 362.153 28.2578 362.153 29.3203C362.153 31.4609 361.348 33.2109 359.739 34.5703C358.145 35.9297 356.075 36.6094 353.528 36.6094C352.184 36.6094 350.942 36.3672 349.802 35.8828C348.677 35.3984 347.872 34.9531 347.388 34.5469L346.919 36.0703H345.161L344.927 28.0312H346.544C346.669 28.6406 346.934 29.3516 347.341 30.1641C347.747 30.9766 348.239 31.7109 348.817 32.3672C349.427 33.0547 350.153 33.6328 350.997 34.1016C351.856 34.5703 352.817 34.8047 353.88 34.8047C355.38 34.8047 356.536 34.4688 357.348 33.7969C358.161 33.1094 358.567 32.1328 358.567 30.8672C358.567 30.2109 358.434 29.6484 358.169 29.1797C357.919 28.6953 357.544 28.2734 357.044 27.9141C356.528 27.5547 355.895 27.2344 355.145 26.9531C354.395 26.6562 353.559 26.3672 352.638 26.0859C351.903 25.8672 351.083 25.5703 350.177 25.1953C349.286 24.8047 348.52 24.3516 347.88 23.8359C347.192 23.2891 346.63 22.6172 346.192 21.8203C345.755 21.0234 345.536 20.0859 345.536 19.0078C345.536 17.1172 346.239 15.5156 347.645 14.2031C349.052 12.8906 350.934 12.2344 353.294 12.2344C354.2 12.2344 355.122 12.3516 356.059 12.5859C357.013 12.8203 357.786 13.1016 358.38 13.4297L358.919 12.2109H360.606L360.958 19.6406H359.341C359.013 17.9844 358.302 16.6406 357.208 15.6094C356.13 14.5625 354.809 14.0391 353.247 14.0391C351.966 14.0391 350.958 14.3594 350.223 15C349.489 15.6406 349.122 16.4141 349.122 17.3203C349.122 18.0234 349.239 18.6094 349.473 19.0781C349.723 19.5469 350.091 19.9453 350.575 20.2734C351.044 20.5859 351.63 20.8828 352.333 21.1641C353.052 21.4297 353.934 21.7344 354.981 22.0781C356.013 22.4062 356.981 22.7891 357.888 23.2266C358.809 23.6641 359.567 24.1484 360.161 24.6797ZM382.342 34.9922C381.327 35.4141 380.366 35.7656 379.459 36.0469C378.553 36.3438 377.444 36.4922 376.131 36.4922C374.194 36.4922 372.827 36.0078 372.03 35.0391C371.248 34.0547 370.858 32.6719 370.858 30.8906V15.2344H366.686V12.9844H370.952V5.7891H375.217V12.9844H381.85V15.2344H375.264V28.1484C375.264 29.1172 375.295 29.9297 375.358 30.5859C375.436 31.2266 375.608 31.7891 375.873 32.2734C376.123 32.7266 376.498 33.0703 376.998 33.3047C377.498 33.5391 378.17 33.6562 379.014 33.6562C379.405 33.6562 379.975 33.625 380.725 33.5625C381.491 33.4844 382.03 33.3906 382.342 33.2812V34.9922ZM404.758 15.8672C404.758 16.6641 404.562 17.375 404.172 18C403.781 18.6094 403.18 18.9141 402.367 18.9141C401.492 18.9141 400.82 18.6875 400.352 18.2344C399.898 17.7812 399.672 17.2812 399.672 16.7344C399.672 16.3906 399.695 16.0781 399.742 15.7969C399.805 15.5156 399.859 15.2344 399.906 14.9531C399.172 14.9531 398.312 15.25 397.328 15.8438C396.344 16.4375 395.508 17.2812 394.82 18.375V31.8281C394.82 32.375 394.922 32.8203 395.125 33.1641C395.344 33.5078 395.68 33.7656 396.133 33.9375C396.523 34.0938 397.023 34.2109 397.633 34.2891C398.258 34.3672 398.797 34.4219 399.25 34.4531V36H387.062V34.4531C387.422 34.4219 387.789 34.3906 388.164 34.3594C388.555 34.3281 388.891 34.2656 389.172 34.1719C389.609 34.0312 389.93 33.7891 390.133 33.4453C390.352 33.0859 390.461 32.625 390.461 32.0625V17.7891C390.461 17.3047 390.344 16.8281 390.109 16.3594C389.891 15.8906 389.578 15.5156 389.172 15.2344C388.875 15.0469 388.523 14.9141 388.117 14.8359C387.711 14.7422 387.273 14.6797 386.805 14.6484V13.125L394.492 12.6094L394.82 12.9375V16.1953H394.938C395.906 14.9297 396.984 13.9688 398.172 13.3125C399.359 12.6562 400.445 12.3281 401.43 12.3281C402.414 12.3281 403.211 12.6484 403.82 13.2891C404.445 13.9297 404.758 14.7891 404.758 15.8672ZM429.681 30.5625C428.712 32.4062 427.416 33.875 425.791 34.9688C424.166 36.0625 422.298 36.6094 420.189 36.6094C418.33 36.6094 416.697 36.2812 415.291 35.625C413.9 34.9688 412.752 34.0781 411.845 32.9531C410.939 31.8281 410.259 30.5156 409.806 29.0156C409.369 27.5156 409.15 25.9297 409.15 24.2578C409.15 22.7578 409.384 21.2891 409.853 19.8516C410.337 18.3984 411.041 17.0938 411.962 15.9375C412.853 14.8281 413.955 13.9375 415.267 13.2656C416.595 12.5781 418.08 12.2344 419.72 12.2344C421.408 12.2344 422.853 12.5 424.056 13.0312C425.259 13.5625 426.236 14.2891 426.986 15.2109C427.705 16.0859 428.236 17.1172 428.58 18.3047C428.939 19.4922 429.119 20.7812 429.119 22.1719V23.7188H413.814C413.814 25.2344 413.955 26.6094 414.236 27.8438C414.533 29.0781 414.994 30.1641 415.619 31.1016C416.228 32.0078 417.025 32.7266 418.009 33.2578C418.994 33.7734 420.166 34.0312 421.525 34.0312C422.916 34.0312 424.111 33.7109 425.111 33.0703C426.127 32.4141 427.103 31.2422 428.041 29.5547L429.681 30.5625ZM424.502 21.75C424.502 20.875 424.423 19.9375 424.267 18.9375C424.127 17.9375 423.892 17.1016 423.564 16.4297C423.205 15.7109 422.712 15.125 422.087 14.6719C421.462 14.2188 420.658 13.9922 419.673 13.9922C418.033 13.9922 416.666 14.6797 415.572 16.0547C414.494 17.4141 413.908 19.3125 413.814 21.75H424.502Z" fill="#E8C548"/>
</g>
<g filter="url(#filter1_di_58_18)">
<path d="M7.2495 44.2474H7.58792C7.94891 44.2474 8.26476 44.1339 8.5355 43.907C8.80624 43.6347 9.03185 43.317 9.21234 42.954C9.43796 42.5909 9.59589 42.2052 9.68613 41.7967C9.8215 41.3883 9.88918 41.0026 9.88918 40.6395V4.22052C9.88918 3.90284 9.8215 3.53979 9.68613 3.13135C9.59589 2.72291 9.43796 2.33717 9.21234 1.97411C9.03185 1.61106 8.80624 1.31607 8.5355 1.08916C8.26476 0.816873 7.94891 0.680728 7.58792 0.680728H7.2495V0H16.996V0.680728H16.6576C16.2966 0.680728 15.9808 0.816873 15.71 1.08916C15.4393 1.31607 15.2137 1.61106 15.0332 1.97411C14.8527 2.33717 14.6948 2.72291 14.5594 3.13135C14.4691 3.53979 14.424 3.90284 14.424 4.22052V42.4094H29.2468C30.1042 42.4094 30.8487 42.2052 31.4804 41.7967C32.1121 41.3883 32.6311 40.8891 33.0372 40.2991C33.4884 39.6638 33.8042 39.0058 33.9847 38.325C34.2104 37.5989 34.3232 36.9409 34.3232 36.3509H35V44.9281H7.2495V44.2474Z" fill="#E8C548"/>
<path d="M29.0212 58.4065C29.0212 60.6756 28.57 62.627 27.6676 64.2608C26.7651 65.8492 25.5919 67.1425 24.148 68.1409C22.7492 69.1393 21.1473 69.8654 19.3424 70.3193C17.5826 70.7731 15.8228 71 14.063 71C12.2581 71 10.7014 70.8185 9.39283 70.4554C8.08427 70.0924 6.88852 69.752 5.80557 69.4343C5.08361 69.2074 4.42933 69.0259 3.84273 68.8897C3.25614 68.7082 2.66954 68.6175 2.08295 68.6175V60.8571H2.75979C2.75979 62.5817 3.18845 63.9658 4.04579 65.0096C4.94824 66.008 5.98607 66.7795 7.15926 67.3241C8.33245 67.8686 9.50564 68.2317 10.6788 68.4132C11.852 68.5494 12.7094 68.6175 13.2508 68.6175C15.1911 68.6175 16.8607 68.3452 18.2595 67.8006C19.6583 67.2106 20.8089 66.4618 21.7113 65.5542C22.6138 64.6011 23.2681 63.5574 23.6742 62.4228C24.1254 61.2883 24.351 60.131 24.351 58.9511C24.351 57.4535 24.0352 56.2055 23.4035 55.2071C22.7717 54.1633 21.937 53.2557 20.8991 52.4842C19.9064 51.7127 18.7558 51.0546 17.4472 50.5101C16.1387 49.9655 14.8076 49.4209 13.4539 48.8763C11.9197 48.2864 10.4081 47.6737 8.91905 47.0384C7.42999 46.403 6.09887 45.6315 4.92568 44.7239C3.75249 43.7709 2.80491 42.659 2.08295 41.3883C1.36098 40.0722 1 38.4612 1 36.5551C1 34.5583 1.38354 32.8338 2.15063 31.3816C2.91772 29.884 3.93298 28.6587 5.19642 27.7057C6.50498 26.7526 7.97147 26.0492 9.59589 25.5954C11.2654 25.0962 12.9575 24.8466 14.6722 24.8466C15.8454 24.8466 16.9509 24.9374 17.9887 25.1189C19.0265 25.255 20.0192 25.4366 20.9668 25.6635C21.7339 25.845 22.4784 26.0038 23.2004 26.14C23.9224 26.2307 24.6218 26.2761 25.2986 26.2761V33.2876H24.6218C24.5315 30.9278 23.6065 29.3394 21.8467 28.5225C20.0869 27.6603 17.6503 27.2291 14.5368 27.2291C12.7319 27.2291 11.2429 27.5468 10.0697 28.1822C8.94161 28.7721 8.03915 29.5209 7.36231 30.4286C6.68547 31.2908 6.21168 32.2438 5.94094 33.2876C5.71533 34.286 5.60252 35.171 5.60252 35.9425C5.60252 37.2132 5.87326 38.3023 6.41473 39.21C7.00133 40.1176 7.76841 40.9118 8.71599 41.5925C9.66357 42.2732 10.7465 42.8859 11.9648 43.4305C13.2283 43.9751 14.5368 44.497 15.8905 44.9962C17.4247 45.5861 18.9814 46.2215 20.5607 46.9022C22.14 47.5829 23.5388 48.4225 24.7571 49.4209C26.0206 50.4193 27.0358 51.6446 27.8029 53.0968C28.6151 54.5491 29.0212 56.319 29.0212 58.4065Z" fill="#E8C548"/>
</g>
<defs>
<filter id="filter0_di_58_18" x="44" y="0" width="396" height="77" filterUnits="userSpaceOnUse" color-interpolation-filters="sRGB">
<feFlood flood-opacity="0" result="BackgroundImageFix"/>
<feColorMatrix in="SourceAlpha" type="matrix" values="0 0 0 0 0 0 0 0 0 0 0 0 0 0 0 0 0 0 127 0" result="hardAlpha"/>
<feOffset dx="1" dy="3"/>
<feGaussianBlur stdDeviation="1.5"/>
<feComposite in2="hardAlpha" operator="out"/>
<feColorMatrix type="matrix" values="0 0 0 0 0.0941176 0 0 0 0 0.0941176 0 0 0 0 0.0941176 0 0 0 0.4 0"/>
<feBlend mode="normal" in2="BackgroundImageFix" result="effect1_dropShadow_58_18"/>
<feBlend mode="normal" in="SourceGraphic" in2="effect1_dropShadow_58_18" result="shape"/>
<feColorMatrix in="SourceAlpha" type="matrix" values="0 0 0 0 0 0 0 0 0 0 0 0 0 0 0 0 0 0 127 0" result="hardAlpha"/>
<feOffset dy="1"/>
<feGaussianBlur stdDeviation="2"/>
<feComposite in2="hardAlpha" operator="arithmetic" k2="-1" k3="1"/>
<feColorMatrix type="matrix" values="0 0 0 0 0 0 0 0 0 0 0 0 0 0 0 0 0 0 0.05 0"/>
<feBlend mode="normal" in2="shape" result="effect2_innerShadow_58_18"/>
</filter>
<filter id="filter1_di_58_18" x="0" y="0" width="40" height="77" filterUnits="userSpaceOnUse" color-interpolation-filters="sRGB">
<feFlood flood-opacity="0" result="BackgroundImageFix"/>
<feColorMatrix in="SourceAlpha" type="matrix" values="0 0 0 0 0 0 0 0 0 0 0 0 0 0 0 0 0 0 127 0" result="hardAlpha"/>
<feOffset dx="2" dy="3"/>
<feGaussianBlur stdDeviation="1.5"/>
<feComposite in2="hardAlpha" operator="out"/>
<feColorMatrix type="matrix" values="0 0 0 0 0.0958333 0 0 0 0 0.0958333 0 0 0 0 0.0958333 0 0 0 0.4 0"/>
<feBlend mode="normal" in2="BackgroundImageFix" result="effect1_dropShadow_58_18"/>
<feBlend mode="normal" in="SourceGraphic" in2="effect1_dropShadow_58_18" result="shape"/>
<feColorMatrix in="SourceAlpha" type="matrix" values="0 0 0 0 0 0 0 0 0 0 0 0 0 0 0 0 0 0 127 0" result="hardAlpha"/>
<feOffset dy="1"/>
<feGaussianBlur stdDeviation="2"/>
<feComposite in2="hardAlpha" operator="arithmetic" k2="-1" k3="1"/>
<feColorMatrix type="matrix" values="0 0 0 0 0 0 0 0 0 0 0 0 0 0 0 0 0 0 0.05 0"/>
<feBlend mode="normal" in2="shape" result="effect2_innerShadow_58_18"/>
</filter>
<clipPath id="clip0_58_18">
<rect width="390" height="71" fill="white" transform="translate(46)"/>
</clipPath>
</defs>
</svg>
