<svg width="218" height="445" viewBox="0 0 218 445" fill="none" xmlns="http://www.w3.org/2000/svg">
<path d="M40.3253 279.435C40.3253 278.259 41.2786 277.306 42.4545 277.306H42.4819C44.7822 277.306 46.7951 276.596 48.5203 275.176C50.2456 273.473 51.6834 271.486 52.8336 269.214C54.2713 266.943 55.2777 264.53 55.8528 261.975C56.7154 259.42 57.1468 257.007 57.1468 254.735V26.903C57.1468 24.9157 56.7154 22.6445 55.8528 20.0893C55.2777 17.5342 54.2713 15.121 52.8336 12.8498C51.6834 10.5786 50.2456 8.73318 48.5203 7.31367C46.7951 5.61025 44.7822 4.75855 42.4819 4.75855H42.4545C41.2786 4.75855 40.3253 3.80524 40.3253 2.62927C40.3253 1.45331 41.2786 0.5 42.4545 0.5H100.306C101.482 0.5 102.435 1.45331 102.435 2.62927C102.435 3.80524 101.482 4.75855 100.306 4.75855H100.279C97.9784 4.75855 95.9656 5.61025 94.2403 7.31367C92.515 8.73318 91.0773 10.5786 89.9271 12.8498C88.7769 15.121 87.7705 17.5342 86.9079 20.0893C86.3328 22.6445 86.0452 24.9157 86.0452 26.903V215.808C86.0452 243.422 108.431 265.808 136.045 265.808H180.504C185.968 265.808 190.712 264.53 194.738 261.975C198.764 259.42 202.07 256.297 204.658 252.606C207.534 248.631 209.547 244.515 210.697 240.256C211.861 236.579 212.554 233.18 212.775 230.061C212.86 228.873 213.819 227.907 215.01 227.907C216.201 227.907 217.167 228.872 217.167 230.063V254.735C217.167 269.553 205.155 281.564 190.338 281.564H42.4545C41.2786 281.564 40.3253 280.611 40.3253 279.435Z" fill="#E8C548"/>
<path d="M179.067 365.884C179.067 380.079 176.191 392.287 170.44 402.507C164.689 412.444 157.213 420.535 148.012 426.781C139.098 433.027 128.89 437.569 117.388 440.408C106.174 443.247 94.9592 444.667 83.7449 444.667C72.243 444.667 62.3226 443.531 53.9837 441.26C45.6449 438.989 38.0249 436.859 31.1238 434.872C26.523 433.453 22.3536 432.317 18.6155 431.465C12.5995 429.638 7.40113 424.665 7.40113 418.377V383.371C7.40113 382.18 8.36667 381.214 9.55773 381.214C10.7488 381.214 11.7099 382.181 11.7517 383.371C12.0958 393.163 14.8151 401.103 19.9094 407.191C25.6604 413.437 32.2739 418.264 39.7502 421.671C47.2264 425.077 54.7026 427.349 62.1788 428.484C69.6551 429.336 75.1185 429.762 78.569 429.762C90.9335 429.762 101.573 428.058 110.487 424.652C119.401 420.961 126.733 416.276 132.484 410.598C138.235 404.636 142.404 398.107 144.992 391.009C147.868 383.911 149.306 376.672 149.306 369.29C149.306 359.922 147.293 352.114 143.267 345.868C139.241 339.339 133.922 333.661 127.308 328.834C120.982 324.008 113.65 319.891 105.311 316.484C96.972 313.078 88.4894 309.671 79.863 306.264C70.0864 302.573 60.4536 298.74 50.9645 294.766C41.4755 290.791 32.9928 285.965 25.5166 280.287C18.0404 274.325 12.0019 267.369 7.40113 259.42C2.80038 251.187 0.5 241.108 0.5 229.184C0.5 216.692 2.94415 205.904 7.83245 196.819C12.7207 187.45 19.1906 179.785 27.2419 173.823C35.5807 167.861 44.926 163.46 55.2777 160.621C65.9169 157.499 76.7 155.937 87.6267 155.937C95.103 155.937 102.148 156.505 108.761 157.64C115.375 158.492 121.701 159.628 127.74 161.047C132.628 162.183 137.372 163.177 141.973 164.028C149.322 164.935 155.344 170.882 155.344 178.286V206.544C155.344 207.759 154.36 208.743 153.145 208.743C151.965 208.743 151 207.806 150.91 206.629C149.871 193.027 144.017 183.796 133.347 178.933C122.132 173.539 106.605 170.842 86.7641 170.842C75.2622 170.842 65.7732 172.829 58.2969 176.804C51.1083 180.495 45.3573 185.179 41.0441 190.857C36.7309 196.251 33.7117 202.213 31.9864 208.743C30.5487 214.989 29.8298 220.525 29.8298 225.351C29.8298 233.301 31.5551 240.114 35.0056 245.792C38.7438 251.471 43.6321 256.439 49.6705 260.697C55.709 264.956 62.6102 268.789 70.3739 272.195C78.4252 275.602 86.7641 278.867 95.3905 281.99C105.167 285.681 115.087 289.655 125.152 293.914C135.216 298.173 144.13 303.425 151.894 309.671C159.945 315.917 166.415 323.582 171.303 332.667C176.479 341.752 179.067 352.824 179.067 365.884Z" fill="#E8C548"/>
</svg>
