<svg width="436" height="78" viewBox="0 0 436 78" fill="none" xmlns="http://www.w3.org/2000/svg">
<g filter="url(#filter0_di_401_24)">
<path d="M7.2495 44.2474H7.58792C7.94891 44.2474 8.26476 44.1339 8.5355 43.907C8.80624 43.6347 9.03185 43.317 9.21234 42.954C9.43796 42.5909 9.59589 42.2052 9.68613 41.7967C9.8215 41.3883 9.88918 41.0026 9.88918 40.6395V4.22052C9.88918 3.90284 9.8215 3.53979 9.68613 3.13135C9.59589 2.72291 9.43796 2.33717 9.21234 1.97411C9.03185 1.61106 8.80624 1.31607 8.5355 1.08916C8.26476 0.816873 7.94891 0.680728 7.58792 0.680728H7.2495V0H16.996V0.680728H16.6576C16.2966 0.680728 15.9808 0.816873 15.71 1.08916C15.4393 1.31607 15.2137 1.61106 15.0332 1.97411C14.8527 2.33717 14.6948 2.72291 14.5594 3.13135C14.4691 3.53979 14.424 3.90284 14.424 4.22052V42.4094H29.2468C30.1042 42.4094 30.8487 42.2052 31.4804 41.7967C32.1121 41.3883 32.6311 40.8891 33.0372 40.2991C33.4884 39.6638 33.8042 39.0058 33.9847 38.325C34.2104 37.5989 34.3232 36.9409 34.3232 36.3509H35V44.9281H7.2495V44.2474Z" fill="#E8C548"/>
<path d="M29.0212 58.4065C29.0212 60.6756 28.57 62.627 27.6676 64.2608C26.7651 65.8492 25.5919 67.1425 24.148 68.1409C22.7492 69.1393 21.1473 69.8654 19.3424 70.3193C17.5826 70.7731 15.8228 71 14.063 71C12.2581 71 10.7014 70.8185 9.39283 70.4554C8.08427 70.0924 6.88852 69.752 5.80557 69.4343C5.08361 69.2074 4.42933 69.0259 3.84273 68.8897C3.25614 68.7082 2.66954 68.6175 2.08295 68.6175V60.8571H2.75979C2.75979 62.5817 3.18845 63.9658 4.04579 65.0096C4.94824 66.008 5.98607 66.7795 7.15926 67.3241C8.33245 67.8686 9.50564 68.2317 10.6788 68.4132C11.852 68.5494 12.7094 68.6175 13.2508 68.6175C15.1911 68.6175 16.8607 68.3452 18.2595 67.8006C19.6583 67.2106 20.8089 66.4618 21.7113 65.5542C22.6138 64.6011 23.2681 63.5574 23.6742 62.4228C24.1254 61.2883 24.351 60.131 24.351 58.9511C24.351 57.4535 24.0352 56.2055 23.4035 55.2071C22.7717 54.1633 21.937 53.2557 20.8991 52.4842C19.9064 51.7127 18.7558 51.0546 17.4472 50.5101C16.1387 49.9655 14.8076 49.4209 13.4539 48.8763C11.9197 48.2864 10.4081 47.6737 8.91905 47.0384C7.42999 46.403 6.09887 45.6315 4.92568 44.7239C3.75249 43.7709 2.80491 42.659 2.08295 41.3883C1.36098 40.0722 1 38.4612 1 36.5551C1 34.5583 1.38354 32.8338 2.15063 31.3816C2.91772 29.884 3.93298 28.6587 5.19642 27.7057C6.50498 26.7526 7.97147 26.0492 9.59589 25.5954C11.2654 25.0962 12.9575 24.8466 14.6722 24.8466C15.8454 24.8466 16.9509 24.9374 17.9887 25.1189C19.0265 25.255 20.0192 25.4366 20.9668 25.6635C21.7339 25.845 22.4784 26.0038 23.2004 26.14C23.9224 26.2307 24.6218 26.2761 25.2986 26.2761V33.2876H24.6218C24.5315 30.9278 23.6065 29.3394 21.8467 28.5225C20.0869 27.6603 17.6503 27.2291 14.5368 27.2291C12.7319 27.2291 11.2429 27.5468 10.0697 28.1822C8.94161 28.7721 8.03915 29.5209 7.36231 30.4286C6.68547 31.2908 6.21168 32.2438 5.94094 33.2876C5.71533 34.286 5.60252 35.171 5.60252 35.9425C5.60252 37.2132 5.87326 38.3023 6.41473 39.21C7.00133 40.1176 7.76841 40.9118 8.71599 41.5925C9.66357 42.2732 10.7465 42.8859 11.9648 43.4305C13.2283 43.9751 14.5368 44.497 15.8905 44.9962C17.4247 45.5861 18.9814 46.2215 20.5607 46.9022C22.14 47.5829 23.5388 48.4225 24.7571 49.4209C26.0206 50.4193 27.0358 51.6446 27.8029 53.0968C28.6151 54.5491 29.0212 56.319 29.0212 58.4065Z" fill="#E8C548"/>
</g>
<g filter="url(#filter1_di_401_24)">
<path d="M67.1328 71.0273H60.2071V70.1953C60.8164 70.1562 61.3203 70.0781 61.7188 69.9609C62.125 69.8437 62.3282 69.6992 62.3282 69.5273C62.3282 69.457 62.3203 69.3711 62.3047 69.2695C62.2891 69.1679 62.2657 69.0781 62.2344 69L60.8516 65.2734H55.0273C54.8086 65.8203 54.6289 66.2968 54.4883 66.7031C54.3555 67.1093 54.2344 67.4843 54.125 67.8281C54.0234 68.164 53.9531 68.4375 53.9141 68.6484C53.875 68.8593 53.8555 69.0312 53.8555 69.164C53.8555 69.4765 54.1016 69.7187 54.5937 69.8906C55.0859 70.0625 55.6406 70.164 56.2578 70.1953V71.0273H50V70.1953C50.2031 70.1796 50.457 70.1367 50.7617 70.0664C51.0664 69.9882 51.3164 69.8867 51.5117 69.7617C51.8242 69.5507 52.0664 69.332 52.2383 69.1054C52.4102 68.8711 52.5781 68.5507 52.7422 68.1445C53.5781 66.0585 54.5 63.7148 55.5078 61.1133C56.5156 58.5117 57.4141 56.1953 58.2031 54.1641H59.1406L64.6836 68.5078C64.8008 68.8125 64.9336 69.0585 65.0821 69.2461C65.2305 69.4335 65.4375 69.6171 65.7032 69.7968C65.8828 69.9062 66.1172 70 66.4063 70.0781C66.6953 70.1484 66.9375 70.1875 67.1328 70.1953V71.0273ZM60.4297 64.2304L57.9102 57.7852L55.4375 64.2304H60.4297ZM87.2563 62.8125C87.2563 64.2265 86.9907 65.4531 86.4594 66.4921C85.9282 67.5312 85.2368 68.3828 84.3852 69.0468C83.5258 69.7109 82.561 70.207 81.4907 70.5351C80.4203 70.8632 79.3149 71.0273 78.1743 71.0273H71.2836V70.1953C71.5102 70.1953 71.8032 70.1757 72.1625 70.1367C72.5297 70.0898 72.7719 70.039 72.8891 69.9843C73.1235 69.8828 73.2914 69.7343 73.393 69.539C73.5024 69.3359 73.5571 69.0937 73.5571 68.8125V56.8125C73.5571 56.5469 73.5102 56.3086 73.4164 56.0977C73.3305 55.8867 73.1547 55.7188 72.8891 55.5938C72.6469 55.4766 72.3852 55.3906 72.1039 55.3359C71.8227 55.2813 71.5805 55.2461 71.3774 55.2305V54.3984H78.643C79.643 54.3984 80.6274 54.5547 81.5961 54.8672C82.5649 55.1719 83.4086 55.5859 84.1274 56.1094C85.1039 56.8047 85.8696 57.7148 86.4243 58.8398C86.9789 59.9648 87.2563 61.2891 87.2563 62.8125ZM84.3852 62.8008C84.3852 61.6836 84.2368 60.6758 83.9399 59.7773C83.643 58.8711 83.2094 58.082 82.6391 57.4102C82.1 56.7695 81.436 56.2656 80.6469 55.8984C79.8657 55.5313 78.9946 55.3477 78.0336 55.3477C77.7133 55.3477 77.35 55.3555 76.9438 55.3711C76.5453 55.3789 76.2485 55.3867 76.0532 55.3945V68.1796C76.0532 68.8906 76.2602 69.3828 76.6743 69.6562C77.0883 69.9296 77.725 70.0664 78.5844 70.0664C79.5766 70.0664 80.4438 69.8906 81.186 69.539C81.9282 69.1875 82.5297 68.6992 82.9907 68.0742C83.475 67.4179 83.8266 66.6601 84.0453 65.8007C84.2719 64.9335 84.3852 63.9335 84.3852 62.8008ZM108.247 55.2305C108.044 55.2383 107.798 55.2852 107.509 55.3711C107.22 55.4492 106.981 55.5469 106.794 55.6641C106.528 55.8281 106.313 56.0391 106.149 56.2969C105.993 56.5547 105.837 56.8594 105.68 57.2109C105.157 58.4531 104.372 60.3906 103.325 63.0234C102.278 65.6484 101.2 68.3867 100.091 71.2382H99.118C97.993 68.2148 96.9071 65.3007 95.8602 62.4961C94.8133 59.6914 94.1024 57.7969 93.7274 56.8125C93.6336 56.5703 93.5086 56.3594 93.3524 56.1797C93.1961 55.9922 92.9891 55.8164 92.7313 55.6523C92.5203 55.5195 92.286 55.4219 92.0282 55.3594C91.7703 55.2891 91.5321 55.2461 91.3133 55.2305V54.3984H98.1922V55.2305C97.6063 55.2617 97.1102 55.3203 96.7039 55.4063C96.3055 55.4922 96.1063 55.6445 96.1063 55.8633C96.1063 55.9492 96.1219 56.0508 96.1532 56.168C96.1844 56.2852 96.2118 56.3789 96.2352 56.4492C96.5243 57.2148 96.993 58.4648 97.6414 60.1992C98.2899 61.9258 99.2118 64.3867 100.407 67.582C101.001 66.1367 101.684 64.4296 102.458 62.4609C103.231 60.4922 103.751 59.1406 104.016 58.4063C104.274 57.6953 104.423 57.2031 104.462 56.9297C104.509 56.6563 104.532 56.4336 104.532 56.2617C104.532 56.082 104.45 55.9336 104.286 55.8164C104.13 55.6914 103.919 55.5859 103.653 55.5C103.395 55.4219 103.134 55.3633 102.868 55.3242C102.602 55.2852 102.333 55.2539 102.059 55.2305V54.3984H108.247V55.2305ZM125.945 56.3672C126.679 57.1328 127.253 58.0586 127.667 59.1445C128.081 60.2227 128.288 61.418 128.288 62.7305C128.288 64.0507 128.077 65.25 127.655 66.3281C127.234 67.4062 126.648 68.3242 125.898 69.082C125.171 69.832 124.327 70.4101 123.366 70.8164C122.405 71.2226 121.382 71.4257 120.296 71.4257C119.14 71.4257 118.07 71.2109 117.085 70.7812C116.109 70.3437 115.269 69.7382 114.566 68.9648C113.862 68.207 113.308 67.289 112.902 66.2109C112.503 65.125 112.304 63.9648 112.304 62.7305C112.304 61.3789 112.515 60.1758 112.937 59.1211C113.359 58.0586 113.941 57.1406 114.683 56.3672C115.417 55.6016 116.269 55.0156 117.237 54.6094C118.214 54.2031 119.234 54 120.296 54C121.398 54 122.437 54.207 123.413 54.6211C124.39 55.0352 125.234 55.6172 125.945 56.3672ZM124.198 68.1562C124.636 67.4453 124.952 66.6406 125.148 65.7421C125.351 64.8437 125.452 63.8398 125.452 62.7305C125.452 61.5898 125.339 60.543 125.112 59.5898C124.894 58.6367 124.57 57.8242 124.14 57.1523C123.71 56.4883 123.171 55.9727 122.523 55.6055C121.874 55.2305 121.132 55.043 120.296 55.043C119.359 55.043 118.562 55.2578 117.905 55.6875C117.249 56.1172 116.714 56.6914 116.3 57.4102C115.909 58.0977 115.616 58.9023 115.421 59.8242C115.234 60.7461 115.14 61.7148 115.14 62.7305C115.14 63.8554 115.241 64.8711 115.445 65.7773C115.648 66.6835 115.968 67.4882 116.405 68.1914C116.827 68.8789 117.359 69.4179 117.999 69.8085C118.64 70.1914 119.405 70.3828 120.296 70.3828C121.132 70.3828 121.886 70.1875 122.558 69.7968C123.23 69.4062 123.777 68.8593 124.198 68.1562ZM141.298 71.414C140.306 71.414 139.353 71.2187 138.439 70.8281C137.533 70.4375 136.728 69.875 136.025 69.1406C135.33 68.4062 134.775 67.5117 134.361 66.457C133.947 65.3945 133.74 64.1992 133.74 62.8711C133.74 61.543 133.943 60.3398 134.349 59.2617C134.755 58.1758 135.318 57.2422 136.037 56.4609C136.748 55.6875 137.587 55.0898 138.556 54.668C139.525 54.2461 140.56 54.0352 141.662 54.0352C142.482 54.0352 143.224 54.1367 143.888 54.3398C144.552 54.543 145.185 54.8281 145.787 55.1953L146.267 54.3984H147.205L147.31 60.3281H146.349C146.224 59.75 146.037 59.125 145.787 58.4531C145.537 57.7734 145.244 57.1992 144.908 56.7305C144.533 56.1992 144.087 55.7852 143.572 55.4883C143.056 55.1836 142.466 55.0313 141.802 55.0313C141.045 55.0313 140.337 55.1992 139.681 55.5352C139.033 55.8711 138.47 56.3672 137.994 57.0234C137.541 57.6563 137.185 58.4609 136.927 59.4375C136.67 60.4141 136.541 61.5039 136.541 62.707C136.541 63.7695 136.673 64.7461 136.939 65.6367C137.212 66.5195 137.599 67.2968 138.099 67.9687C138.599 68.6328 139.189 69.1523 139.869 69.5273C140.556 69.9023 141.322 70.0898 142.166 70.0898C142.798 70.0898 143.38 69.9921 143.912 69.7968C144.443 69.5937 144.904 69.3281 145.295 69C145.685 68.6562 146.029 68.2656 146.326 67.8281C146.623 67.3906 146.865 66.914 147.052 66.3984L147.931 66.8203C147.259 68.4687 146.369 69.6484 145.259 70.3593C144.15 71.0625 142.83 71.414 141.298 71.414ZM168.5 71.0273H161.574V70.1953C162.183 70.1562 162.687 70.0781 163.085 69.9609C163.492 69.8437 163.695 69.6992 163.695 69.5273C163.695 69.457 163.687 69.3711 163.671 69.2695C163.656 69.1679 163.632 69.0781 163.601 69L162.218 65.2734H156.394C156.175 65.8203 155.996 66.2968 155.855 66.7031C155.722 67.1093 155.601 67.4843 155.492 67.8281C155.39 68.164 155.32 68.4375 155.281 68.6484C155.242 68.8593 155.222 69.0312 155.222 69.164C155.222 69.4765 155.468 69.7187 155.96 69.8906C156.453 70.0625 157.007 70.164 157.625 70.1953V71.0273H151.367V70.1953C151.57 70.1796 151.824 70.1367 152.128 70.0664C152.433 69.9882 152.683 69.8867 152.878 69.7617C153.191 69.5507 153.433 69.332 153.605 69.1054C153.777 68.8711 153.945 68.5507 154.109 68.1445C154.945 66.0585 155.867 63.7148 156.875 61.1133C157.882 58.5117 158.781 56.1953 159.57 54.1641H160.507L166.05 68.5078C166.168 68.8125 166.3 69.0585 166.449 69.2461C166.597 69.4335 166.804 69.6171 167.07 69.7968C167.25 69.9062 167.484 70 167.773 70.0781C168.062 70.1484 168.304 70.1875 168.5 70.1953V71.0273ZM161.796 64.2304L159.277 57.7852L156.804 64.2304H161.796ZM180.021 71.414C179.029 71.414 178.076 71.2187 177.162 70.8281C176.256 70.4375 175.451 69.875 174.748 69.1406C174.053 68.4062 173.498 67.5117 173.084 66.457C172.67 65.3945 172.463 64.1992 172.463 62.8711C172.463 61.543 172.666 60.3398 173.072 59.2617C173.478 58.1758 174.041 57.2422 174.76 56.4609C175.471 55.6875 176.31 55.0898 177.279 54.668C178.248 54.2461 179.283 54.0352 180.385 54.0352C181.205 54.0352 181.947 54.1367 182.611 54.3398C183.275 54.543 183.908 54.8281 184.51 55.1953L184.99 54.3984H185.928L186.033 60.3281H185.072C184.947 59.75 184.76 59.125 184.51 58.4531C184.26 57.7734 183.967 57.1992 183.631 56.7305C183.256 56.1992 182.81 55.7852 182.295 55.4883C181.779 55.1836 181.189 55.0313 180.525 55.0313C179.767 55.0313 179.06 55.1992 178.404 55.5352C177.756 55.8711 177.193 56.3672 176.717 57.0234C176.264 57.6563 175.908 58.4609 175.65 59.4375C175.392 60.4141 175.264 61.5039 175.264 62.707C175.264 63.7695 175.396 64.7461 175.662 65.6367C175.935 66.5195 176.322 67.2968 176.822 67.9687C177.322 68.6328 177.912 69.1523 178.592 69.5273C179.279 69.9023 180.045 70.0898 180.889 70.0898C181.521 70.0898 182.103 69.9921 182.635 69.7968C183.166 69.5937 183.627 69.3281 184.017 69C184.408 68.6562 184.752 68.2656 185.049 67.8281C185.346 67.3906 185.588 66.914 185.775 66.3984L186.654 66.8203C185.982 68.4687 185.092 69.6484 183.982 70.3593C182.873 71.0625 181.553 71.414 180.021 71.414ZM198.985 71.0273H191.496V70.1953C191.707 70.1796 192.012 70.1562 192.41 70.125C192.809 70.0937 193.09 70.0468 193.254 69.9843C193.512 69.8828 193.7 69.7461 193.817 69.5742C193.934 69.3945 193.992 69.1484 193.992 68.8359V56.7891C193.992 56.5156 193.95 56.2891 193.864 56.1094C193.778 55.9219 193.575 55.7656 193.254 55.6406C193.02 55.5469 192.723 55.4609 192.364 55.3828C192.012 55.2969 191.723 55.2461 191.496 55.2305V54.3984H198.985V55.2305C198.742 55.2383 198.453 55.2695 198.117 55.3242C197.782 55.3711 197.489 55.4336 197.239 55.5117C196.942 55.6055 196.742 55.7578 196.641 55.9688C196.539 56.1797 196.489 56.4141 196.489 56.6719V68.707C196.489 68.9648 196.543 69.1953 196.653 69.3984C196.77 69.5937 196.965 69.75 197.239 69.8671C197.403 69.9296 197.668 70 198.035 70.0781C198.41 70.1484 198.727 70.1875 198.985 70.1953V71.0273ZM220.175 71.0273H213.249V70.1953C213.858 70.1562 214.362 70.0781 214.76 69.9609C215.167 69.8437 215.37 69.6992 215.37 69.5273C215.37 69.457 215.362 69.3711 215.346 69.2695C215.331 69.1679 215.307 69.0781 215.276 69L213.893 65.2734H208.069C207.85 65.8203 207.671 66.2968 207.53 66.7031C207.397 67.1093 207.276 67.4843 207.167 67.8281C207.065 68.164 206.995 68.4375 206.956 68.6484C206.917 68.8593 206.897 69.0312 206.897 69.164C206.897 69.4765 207.143 69.7187 207.635 69.8906C208.128 70.0625 208.682 70.164 209.3 70.1953V71.0273H203.042V70.1953C203.245 70.1796 203.499 70.1367 203.803 70.0664C204.108 69.9882 204.358 69.8867 204.553 69.7617C204.866 69.5507 205.108 69.332 205.28 69.1054C205.452 68.8711 205.62 68.5507 205.784 68.1445C206.62 66.0585 207.542 63.7148 208.55 61.1133C209.557 58.5117 210.456 56.1953 211.245 54.1641H212.182L217.725 68.5078C217.843 68.8125 217.975 69.0585 218.124 69.2461C218.272 69.4335 218.479 69.6171 218.745 69.7968C218.925 69.9062 219.159 70 219.448 70.0781C219.737 70.1484 219.979 70.1875 220.175 70.1953V71.0273ZM213.471 64.2304L210.952 57.7852L208.479 64.2304H213.471ZM247.742 66.1289L247.425 71.0273H233.621V70.1953C233.855 70.1796 234.168 70.1484 234.558 70.1015C234.949 70.0468 235.203 69.9921 235.32 69.9375C235.57 69.8203 235.742 69.6679 235.835 69.4804C235.937 69.2929 235.988 69.0546 235.988 68.7656V56.8125C235.988 56.5547 235.945 56.3281 235.859 56.1328C235.773 55.9297 235.593 55.7656 235.32 55.6406C235.109 55.5391 234.824 55.4492 234.464 55.3711C234.113 55.293 233.832 55.2461 233.621 55.2305V54.3984H246.488V58.4063H245.609C245.453 57.8125 245.113 57.1836 244.589 56.5195C244.074 55.8477 243.582 55.4805 243.113 55.418C242.871 55.3867 242.582 55.3633 242.246 55.3477C241.91 55.332 241.527 55.3242 241.097 55.3242H238.484V61.9336H240.359C240.96 61.9336 241.398 61.8789 241.671 61.7695C241.953 61.6523 242.199 61.4609 242.41 61.1953C242.582 60.9688 242.726 60.668 242.843 60.293C242.968 59.9102 243.05 59.5508 243.089 59.2148H243.968V65.7187H243.089C243.058 65.3437 242.972 64.9492 242.832 64.5351C242.699 64.1132 242.558 63.8085 242.41 63.6211C242.168 63.3164 241.89 63.1171 241.578 63.0234C241.273 62.9297 240.867 62.8828 240.359 62.8828H238.484V67.875C238.484 68.375 238.519 68.7695 238.589 69.0585C238.66 69.3476 238.796 69.5664 239 69.7148C239.203 69.8632 239.48 69.9609 239.832 70.0078C240.183 70.0468 240.683 70.0664 241.332 70.0664C241.589 70.0664 241.929 70.0664 242.351 70.0664C242.773 70.0664 243.128 70.0507 243.418 70.0195C243.714 69.9882 244.019 69.9335 244.332 69.8554C244.652 69.7695 244.878 69.6562 245.011 69.5156C245.371 69.1406 245.746 68.5742 246.136 67.8164C246.535 67.0507 246.789 66.4882 246.898 66.1289H247.742ZM277.934 71.0273H271.008V70.1953C271.617 70.1562 272.121 70.0781 272.52 69.9609C272.926 69.8437 273.129 69.6992 273.129 69.5273C273.129 69.457 273.121 69.3711 273.106 69.2695C273.09 69.1679 273.067 69.0781 273.035 69L271.653 65.2734H265.828C265.61 65.8203 265.43 66.2968 265.289 66.7031C265.157 67.1093 265.035 67.4843 264.926 67.8281C264.825 68.164 264.754 68.4375 264.715 68.6484C264.676 68.8593 264.657 69.0312 264.657 69.164C264.657 69.4765 264.903 69.7187 265.395 69.8906C265.887 70.0625 266.442 70.164 267.059 70.1953V71.0273H260.801V70.1953C261.004 70.1796 261.258 70.1367 261.563 70.0664C261.867 69.9882 262.117 69.8867 262.313 69.7617C262.625 69.5507 262.867 69.332 263.039 69.1054C263.211 68.8711 263.379 68.5507 263.543 68.1445C264.379 66.0585 265.301 63.7148 266.309 61.1133C267.317 58.5117 268.215 56.1953 269.004 54.1641H269.942L275.485 68.5078C275.602 68.8125 275.735 69.0585 275.883 69.2461C276.032 69.4335 276.239 69.6171 276.504 69.7968C276.684 69.9062 276.918 70 277.207 70.0781C277.496 70.1484 277.739 70.1875 277.934 70.1953V71.0273ZM271.231 64.2304L268.711 57.7852L266.239 64.2304H271.231ZM289.456 71.414C288.464 71.414 287.51 71.2187 286.596 70.8281C285.69 70.4375 284.885 69.875 284.182 69.1406C283.487 68.4062 282.932 67.5117 282.518 66.457C282.104 65.3945 281.897 64.1992 281.897 62.8711C281.897 61.543 282.1 60.3398 282.507 59.2617C282.913 58.1758 283.475 57.2422 284.194 56.4609C284.905 55.6875 285.745 55.0898 286.714 54.668C287.682 54.2461 288.718 54.0352 289.819 54.0352C290.639 54.0352 291.382 54.1367 292.046 54.3398C292.71 54.543 293.343 54.8281 293.944 55.1953L294.425 54.3984H295.362L295.468 60.3281H294.507C294.382 59.75 294.194 59.125 293.944 58.4531C293.694 57.7734 293.401 57.1992 293.065 56.7305C292.69 56.1992 292.245 55.7852 291.729 55.4883C291.214 55.1836 290.624 55.0313 289.96 55.0313C289.202 55.0313 288.495 55.1992 287.839 55.5352C287.19 55.8711 286.628 56.3672 286.151 57.0234C285.698 57.6563 285.343 58.4609 285.085 59.4375C284.827 60.4141 284.698 61.5039 284.698 62.707C284.698 63.7695 284.831 64.7461 285.096 65.6367C285.37 66.5195 285.757 67.2968 286.257 67.9687C286.757 68.6328 287.346 69.1523 288.026 69.5273C288.714 69.9023 289.479 70.0898 290.323 70.0898C290.956 70.0898 291.538 69.9921 292.069 69.7968C292.6 69.5937 293.061 69.3281 293.452 69C293.843 68.6562 294.186 68.2656 294.483 67.8281C294.78 67.3906 295.022 66.914 295.21 66.3984L296.089 66.8203C295.417 68.4687 294.526 69.6484 293.417 70.3593C292.307 71.0625 290.987 71.414 289.456 71.414ZM315.134 66.1289L314.817 71.0273H301.013V70.1953C301.247 70.1796 301.56 70.1484 301.95 70.1015C302.341 70.0468 302.595 69.9921 302.712 69.9375C302.962 69.8203 303.134 69.6679 303.228 69.4804C303.329 69.2929 303.38 69.0546 303.38 68.7656V56.8125C303.38 56.5547 303.337 56.3281 303.251 56.1328C303.165 55.9297 302.985 55.7656 302.712 55.6406C302.501 55.5391 302.216 55.4492 301.857 55.3711C301.505 55.293 301.224 55.2461 301.013 55.2305V54.3984H313.88V58.4063H313.001C312.845 57.8125 312.505 57.1836 311.982 56.5195C311.466 55.8477 310.974 55.4805 310.505 55.418C310.263 55.3867 309.974 55.3633 309.638 55.3477C309.302 55.332 308.919 55.3242 308.489 55.3242H305.876V61.9336H307.751C308.353 61.9336 308.79 61.8789 309.064 61.7695C309.345 61.6523 309.591 61.4609 309.802 61.1953C309.974 60.9688 310.118 60.668 310.235 60.293C310.36 59.9102 310.442 59.5508 310.482 59.2148H311.36V65.7187H310.482C310.45 65.3437 310.364 64.9492 310.224 64.5351C310.091 64.1132 309.95 63.8085 309.802 63.6211C309.56 63.3164 309.282 63.1171 308.97 63.0234C308.665 62.9297 308.259 62.8828 307.751 62.8828H305.876V67.875C305.876 68.375 305.911 68.7695 305.982 69.0585C306.052 69.3476 306.189 69.5664 306.392 69.7148C306.595 69.8632 306.872 69.9609 307.224 70.0078C307.575 70.0468 308.075 70.0664 308.724 70.0664C308.982 70.0664 309.321 70.0664 309.743 70.0664C310.165 70.0664 310.521 70.0507 310.81 70.0195C311.107 69.9882 311.411 69.9335 311.724 69.8554C312.044 69.7695 312.271 69.6562 312.403 69.5156C312.763 69.1406 313.138 68.5742 313.528 67.8164C313.927 67.0507 314.181 66.4882 314.29 66.1289H315.134ZM330.781 63.3984C331.132 63.789 331.39 64.2187 331.554 64.6875C331.726 65.1484 331.812 65.6875 331.812 66.3046C331.812 67.7734 331.269 68.9843 330.183 69.9375C329.097 70.8906 327.75 71.3671 326.14 71.3671C325.398 71.3671 324.656 71.2539 323.914 71.0273C323.171 70.7929 322.531 70.5117 321.992 70.1835L321.488 71.039H320.55L320.386 65.3437H321.335C321.531 66.0468 321.757 66.6835 322.015 67.2539C322.281 67.8164 322.628 68.3437 323.058 68.8359C323.464 69.2968 323.937 69.664 324.476 69.9375C325.023 70.2109 325.656 70.3476 326.375 70.3476C326.914 70.3476 327.382 70.2773 327.781 70.1367C328.187 69.9961 328.515 69.7968 328.765 69.539C329.015 69.2812 329.199 68.9804 329.316 68.6367C329.441 68.2851 329.503 67.8828 329.503 67.4296C329.503 66.7656 329.316 66.1484 328.941 65.5781C328.566 65 328.007 64.5625 327.265 64.2656C326.757 64.0625 326.175 63.8398 325.519 63.5976C324.863 63.3476 324.296 63.1132 323.82 62.8945C322.882 62.4727 322.152 61.9219 321.628 61.2422C321.113 60.5547 320.855 59.6602 320.855 58.5586C320.855 57.9258 320.984 57.3359 321.242 56.7891C321.5 56.2422 321.867 55.7539 322.343 55.3242C322.796 54.918 323.332 54.6016 323.949 54.375C324.566 54.1406 325.21 54.0234 325.882 54.0234C326.648 54.0234 327.332 54.1406 327.933 54.375C328.542 54.6094 329.097 54.8828 329.597 55.1953L330.078 54.3984H331.015L331.109 59.918H330.16C329.988 59.2852 329.792 58.6797 329.574 58.1016C329.363 57.5234 329.085 57 328.742 56.5313C328.406 56.0781 327.996 55.7188 327.511 55.4531C327.027 55.1797 326.433 55.043 325.73 55.043C324.988 55.043 324.355 55.2813 323.832 55.7578C323.308 56.2344 323.046 56.8164 323.046 57.5039C323.046 58.2227 323.214 58.8203 323.55 59.2969C323.886 59.7656 324.375 60.1523 325.015 60.457C325.585 60.7305 326.144 60.9688 326.691 61.1719C327.246 61.3672 327.781 61.5781 328.296 61.8047C328.765 62.0078 329.214 62.2383 329.644 62.4961C330.082 62.7539 330.46 63.0546 330.781 63.3984ZM347.857 63.3984C348.209 63.789 348.467 64.2187 348.631 64.6875C348.803 65.1484 348.889 65.6875 348.889 66.3046C348.889 67.7734 348.346 68.9843 347.26 69.9375C346.174 70.8906 344.826 71.3671 343.217 71.3671C342.475 71.3671 341.732 71.2539 340.99 71.0273C340.248 70.7929 339.607 70.5117 339.068 70.1835L338.564 71.039H337.627L337.463 65.3437H338.412C338.607 66.0468 338.834 66.6835 339.092 67.2539C339.357 67.8164 339.705 68.3437 340.135 68.8359C340.541 69.2968 341.014 69.664 341.553 69.9375C342.1 70.2109 342.732 70.3476 343.451 70.3476C343.99 70.3476 344.459 70.2773 344.857 70.1367C345.264 69.9961 345.592 69.7968 345.842 69.539C346.092 69.2812 346.275 68.9804 346.393 68.6367C346.518 68.2851 346.58 67.8828 346.58 67.4296C346.58 66.7656 346.393 66.1484 346.018 65.5781C345.643 65 345.084 64.5625 344.342 64.2656C343.834 64.0625 343.252 63.8398 342.596 63.5976C341.939 63.3476 341.373 63.1132 340.896 62.8945C339.959 62.4727 339.228 61.9219 338.705 61.2422C338.189 60.5547 337.932 59.6602 337.932 58.5586C337.932 57.9258 338.06 57.3359 338.318 56.7891C338.576 56.2422 338.943 55.7539 339.42 55.3242C339.873 54.918 340.408 54.6016 341.025 54.375C341.643 54.1406 342.287 54.0234 342.959 54.0234C343.725 54.0234 344.408 54.1406 345.01 54.375C345.619 54.6094 346.174 54.8828 346.674 55.1953L347.154 54.3984H348.092L348.185 59.918H347.236C347.064 59.2852 346.869 58.6797 346.65 58.1016C346.439 57.5234 346.162 57 345.818 56.5313C345.482 56.0781 345.072 55.7188 344.588 55.4531C344.103 55.1797 343.51 55.043 342.807 55.043C342.064 55.043 341.432 55.2813 340.908 55.7578C340.385 56.2344 340.123 56.8164 340.123 57.5039C340.123 58.2227 340.291 58.8203 340.627 59.2969C340.963 59.7656 341.451 60.1523 342.092 60.457C342.662 60.7305 343.221 60.9688 343.768 61.1719C344.322 61.3672 344.857 61.5781 345.373 61.8047C345.842 62.0078 346.291 62.2383 346.721 62.4961C347.158 62.7539 347.537 63.0546 347.857 63.3984ZM368.016 56.3672C368.75 57.1328 369.325 58.0586 369.739 59.1445C370.153 60.2227 370.36 61.418 370.36 62.7305C370.36 64.0507 370.149 65.25 369.727 66.3281C369.305 67.4062 368.719 68.3242 367.969 69.082C367.243 69.832 366.399 70.4101 365.438 70.8164C364.477 71.2226 363.453 71.4257 362.368 71.4257C361.211 71.4257 360.141 71.2109 359.157 70.7812C358.18 70.3437 357.34 69.7382 356.637 68.9648C355.934 68.207 355.379 67.289 354.973 66.2109C354.575 65.125 354.375 63.9648 354.375 62.7305C354.375 61.3789 354.586 60.1758 355.008 59.1211C355.43 58.0586 356.012 57.1406 356.754 56.3672C357.489 55.6016 358.34 55.0156 359.309 54.6094C360.285 54.2031 361.305 54 362.368 54C363.469 54 364.508 54.207 365.485 54.6211C366.461 55.0352 367.305 55.6172 368.016 56.3672ZM366.27 68.1562C366.707 67.4453 367.024 66.6406 367.219 65.7421C367.422 64.8437 367.524 63.8398 367.524 62.7305C367.524 61.5898 367.41 60.543 367.184 59.5898C366.965 58.6367 366.641 57.8242 366.211 57.1523C365.782 56.4883 365.243 55.9727 364.594 55.6055C363.946 55.2305 363.203 55.043 362.368 55.043C361.43 55.043 360.633 55.2578 359.977 55.6875C359.321 56.1172 358.785 56.6914 358.371 57.4102C357.981 58.0977 357.688 58.9023 357.493 59.8242C357.305 60.7461 357.211 61.7148 357.211 62.7305C357.211 63.8554 357.313 64.8711 357.516 65.7773C357.719 66.6835 358.039 67.4882 358.477 68.1914C358.899 68.8789 359.43 69.4179 360.071 69.8085C360.711 70.1914 361.477 70.3828 362.368 70.3828C363.203 70.3828 363.957 70.1875 364.629 69.7968C365.301 69.4062 365.848 68.8593 366.27 68.1562ZM392.241 71.0273H387.764C386.772 69.4726 385.874 68.1289 385.069 66.9961C384.272 65.8632 383.405 64.6953 382.467 63.4921H380.768V68.7656C380.768 69.039 380.811 69.2812 380.897 69.4921C380.983 69.6953 381.167 69.8515 381.448 69.9609C381.589 70.0156 381.835 70.0664 382.186 70.1132C382.538 70.1601 382.835 70.1875 383.077 70.1953V71.0273H376.046V70.1953C376.233 70.1796 376.503 70.1523 376.854 70.1132C377.214 70.0742 377.464 70.0234 377.604 69.9609C377.839 69.8593 378.007 69.7109 378.108 69.5156C378.217 69.3203 378.272 69.0703 378.272 68.7656V56.7422C378.272 56.4688 378.233 56.2266 378.155 56.0156C378.077 55.8047 377.893 55.6445 377.604 55.5352C377.409 55.4648 377.155 55.4023 376.842 55.3477C376.53 55.2852 376.264 55.2461 376.046 55.2305V54.3984H383.721C384.425 54.3984 385.085 54.4727 385.702 54.6211C386.319 54.7617 386.878 54.9922 387.378 55.3125C387.862 55.625 388.249 56.0352 388.538 56.543C388.827 57.043 388.971 57.6484 388.971 58.3594C388.971 59 388.874 59.5664 388.678 60.0586C388.483 60.5508 388.194 60.9766 387.811 61.3359C387.46 61.6719 387.038 61.9648 386.546 62.2148C386.053 62.457 385.51 62.6641 384.917 62.8359C385.737 63.9218 386.417 64.8359 386.956 65.5781C387.503 66.3203 388.171 67.2226 388.96 68.2851C389.303 68.7539 389.612 69.1015 389.885 69.3281C390.167 69.5468 390.444 69.7265 390.717 69.8671C390.921 69.9687 391.175 70.0468 391.479 70.1015C391.784 70.1562 392.038 70.1875 392.241 70.1953V71.0273ZM386.077 58.6289C386.077 57.6211 385.788 56.8242 385.21 56.2383C384.632 55.6445 383.815 55.3477 382.76 55.3477H380.768V62.4844H382.303C383.382 62.4844 384.28 62.1406 384.999 61.4531C385.717 60.7578 386.077 59.8164 386.077 58.6289ZM403.763 71.0273H396.275V70.1953C396.485 70.1796 396.79 70.1562 397.189 70.125C397.587 70.0937 397.868 70.0468 398.032 69.9843C398.29 69.8828 398.478 69.7461 398.595 69.5742C398.712 69.3945 398.771 69.1484 398.771 68.8359V56.7891C398.771 56.5156 398.728 56.2891 398.642 56.1094C398.556 55.9219 398.353 55.7656 398.032 55.6406C397.798 55.5469 397.501 55.4609 397.142 55.3828C396.79 55.2969 396.501 55.2461 396.275 55.2305V54.3984H403.763V55.2305C403.521 55.2383 403.232 55.2695 402.896 55.3242C402.56 55.3711 402.267 55.4336 402.017 55.5117C401.72 55.6055 401.521 55.7578 401.419 55.9688C401.317 56.1797 401.267 56.4141 401.267 56.6719V68.707C401.267 68.9648 401.321 69.1953 401.431 69.3984C401.548 69.5937 401.743 69.75 402.017 69.8671C402.181 69.9296 402.446 70 402.814 70.0781C403.189 70.1484 403.505 70.1875 403.763 70.1953V71.0273ZM424.953 71.0273H418.027V70.1953C418.636 70.1562 419.14 70.0781 419.539 69.9609C419.945 69.8437 420.148 69.6992 420.148 69.5273C420.148 69.457 420.14 69.3711 420.125 69.2695C420.109 69.1679 420.085 69.0781 420.054 69L418.671 65.2734H412.847C412.628 65.8203 412.449 66.2968 412.308 66.7031C412.175 67.1093 412.054 67.4843 411.945 67.8281C411.843 68.164 411.773 68.4375 411.734 68.6484C411.695 68.8593 411.675 69.0312 411.675 69.164C411.675 69.4765 411.921 69.7187 412.414 69.8906C412.906 70.0625 413.46 70.164 414.078 70.1953V71.0273H407.82V70.1953C408.023 70.1796 408.277 70.1367 408.582 70.0664C408.886 69.9882 409.136 69.8867 409.332 69.7617C409.644 69.5507 409.886 69.332 410.058 69.1054C410.23 68.8711 410.398 68.5507 410.562 68.1445C411.398 66.0585 412.32 63.7148 413.328 61.1133C414.335 58.5117 415.234 56.1953 416.023 54.1641H416.96L422.503 68.5078C422.621 68.8125 422.753 69.0585 422.902 69.2461C423.05 69.4335 423.257 69.6171 423.523 69.7968C423.703 69.9062 423.937 70 424.226 70.0781C424.515 70.1484 424.757 70.1875 424.953 70.1953V71.0273ZM418.25 64.2304L415.73 57.7852L413.257 64.2304H418.25Z" fill="#E8C548"/>
</g>
<g filter="url(#filter2_di_401_24)">
<path d="M76.6953 26.3906L75.9922 36.2812H50V34.6171C50.375 34.5859 50.9141 34.5313 51.6172 34.4532C52.3359 34.3751 52.8359 34.2734 53.1172 34.1484C53.5859 33.9453 53.9219 33.6485 54.125 33.2579C54.3437 32.8672 54.4531 32.3672 54.4531 31.7579V7.94531C54.4531 7.41406 54.3594 6.94531 54.1719 6.53906C54 6.13281 53.6484 5.80469 53.1172 5.55469C52.7578 5.36719 52.25 5.1875 51.5937 5.01563C50.9531 4.82813 50.4219 4.71875 50 4.6875V3.02344H64.039V4.6875C63.6015 4.70313 63.0312 4.78125 62.3281 4.92187C61.6406 5.0625 61.1406 5.1875 60.8281 5.29687C60.2969 5.48437 59.9297 5.80469 59.7265 6.25781C59.5391 6.71094 59.4453 7.19531 59.4453 7.71094V30.0469C59.4453 31.0782 59.4922 31.8828 59.5859 32.4609C59.6953 33.0234 59.9375 33.4609 60.3125 33.7734C60.6719 34.0546 61.2031 34.2421 61.9062 34.3359C62.625 34.414 63.625 34.4532 64.9062 34.4532C65.4843 34.4532 66.0859 34.4374 66.7109 34.4062C67.3359 34.3751 67.9297 34.3124 68.4922 34.2188C69.039 34.1251 69.539 34 69.9922 33.8438C70.4609 33.6718 70.8047 33.4609 71.0234 33.2109C71.664 32.4921 72.4062 31.4062 73.25 29.9531C74.1093 28.4843 74.7031 27.2968 75.0312 26.3906H76.6953ZM102.65 35.8593C101.916 36.125 101.267 36.3359 100.705 36.4921C100.158 36.664 99.5328 36.75 98.8297 36.75C97.6109 36.75 96.6343 36.4688 95.9 35.9062C95.1812 35.3281 94.7203 34.4921 94.5172 33.3984H94.3765C93.3609 34.5234 92.2672 35.3829 91.0953 35.9766C89.939 36.5704 88.5406 36.8671 86.9 36.8671C85.1656 36.8671 83.7359 36.3359 82.6109 35.2734C81.5015 34.2109 80.9468 32.8203 80.9468 31.1015C80.9468 30.2109 81.0718 29.4141 81.3218 28.711C81.5718 28.0079 81.9468 27.3751 82.4468 26.8125C82.8375 26.3438 83.3531 25.9297 83.9937 25.5704C84.6343 25.1954 85.2359 24.8984 85.7984 24.6796C86.5015 24.414 87.9234 23.9218 90.064 23.2031C92.2203 22.4843 93.6734 21.9218 94.4234 21.5156V19.1954C94.4234 18.9922 94.3765 18.6016 94.2828 18.0235C94.2047 17.4454 94.025 16.8985 93.7437 16.3829C93.4312 15.8047 92.9859 15.3046 92.4078 14.8828C91.8453 14.4453 91.0406 14.2266 89.9937 14.2266C89.275 14.2266 88.6031 14.3516 87.9781 14.6016C87.3687 14.836 86.939 15.0859 86.689 15.3515C86.689 15.664 86.7593 16.1251 86.9 16.7344C87.0562 17.3438 87.1343 17.9063 87.1343 18.4219C87.1343 18.9688 86.8843 19.4688 86.3843 19.9219C85.9 20.3751 85.2203 20.6015 84.3453 20.6015C83.564 20.6015 82.9859 20.3281 82.6109 19.7812C82.2515 19.2188 82.0718 18.5938 82.0718 17.9062C82.0718 17.1874 82.3218 16.5001 82.8218 15.8438C83.3375 15.1874 84.0015 14.6015 84.814 14.0859C85.5172 13.6484 86.3687 13.2813 87.3687 12.9844C88.3687 12.6719 89.3453 12.5156 90.2984 12.5156C91.6109 12.5156 92.7515 12.6094 93.7203 12.7969C94.7047 12.9688 95.5953 13.3515 96.3922 13.9453C97.189 14.5234 97.7906 15.3125 98.1968 16.3125C98.6187 17.2969 98.8297 18.5704 98.8297 20.1329C98.8297 22.3672 98.8062 24.3516 98.7593 26.086C98.7125 27.8047 98.689 29.6874 98.689 31.7343C98.689 32.3437 98.7906 32.8282 98.9937 33.1875C99.2125 33.5469 99.5406 33.8516 99.9781 34.1016C100.213 34.2422 100.58 34.3203 101.08 34.3359C101.595 34.3515 102.119 34.3593 102.65 34.3593V35.8593ZM94.4703 23.4844C93.1422 23.8751 91.9781 24.2579 90.9781 24.6329C89.9781 25.0079 89.0484 25.4765 88.189 26.039C87.4078 26.5703 86.7906 27.2032 86.3375 27.9375C85.8843 28.6563 85.6578 29.5156 85.6578 30.5156C85.6578 31.8124 85.9937 32.7656 86.6656 33.375C87.3531 33.9843 88.2203 34.2891 89.2672 34.2891C90.3765 34.2891 91.3531 34.0234 92.1968 33.4921C93.0406 32.9453 93.7515 32.3047 94.3297 31.5704L94.4703 23.4844ZM125.042 16.1485C125.042 16.9454 124.847 17.6562 124.456 18.2812C124.066 18.8906 123.464 19.1954 122.652 19.1954C121.777 19.1954 121.105 18.9687 120.636 18.5156C120.183 18.0624 119.956 17.5624 119.956 17.0156C119.956 16.6718 119.98 16.3593 120.027 16.0781C120.089 15.7968 120.144 15.5157 120.191 15.2344C119.456 15.2344 118.597 15.5312 117.613 16.125C116.628 16.7187 115.792 17.5625 115.105 18.6562V32.1093C115.105 32.6562 115.206 33.1016 115.409 33.4454C115.628 33.7891 115.964 34.0468 116.417 34.2188C116.808 34.375 117.308 34.4922 117.917 34.5704C118.542 34.6485 119.081 34.7031 119.534 34.7343V36.2812H107.347V34.7343C107.706 34.7031 108.073 34.6719 108.448 34.6407C108.839 34.6094 109.175 34.5469 109.456 34.4532C109.894 34.3125 110.214 34.0704 110.417 33.7266C110.636 33.3672 110.745 32.9062 110.745 32.3438V18.0704C110.745 17.586 110.628 17.1093 110.394 16.6406C110.175 16.1718 109.863 15.7968 109.456 15.5156C109.159 15.3281 108.808 15.1954 108.402 15.1172C107.995 15.0235 107.558 14.961 107.089 14.9297V13.4062L114.777 12.8906L115.105 13.2188V16.4765H115.222C116.191 15.2109 117.269 14.2501 118.456 13.5938C119.644 12.9374 120.73 12.6094 121.714 12.6094C122.698 12.6094 123.495 12.9296 124.105 13.5703C124.73 14.2109 125.042 15.0704 125.042 16.1485ZM140.661 36.2812H129.481V34.7343C129.841 34.7031 130.208 34.6719 130.583 34.6407C130.973 34.6094 131.309 34.5469 131.591 34.4532C132.028 34.3125 132.348 34.0704 132.552 33.7266C132.77 33.3672 132.88 32.9062 132.88 32.3438V18.0704C132.88 17.5704 132.763 17.1172 132.528 16.711C132.309 16.2891 131.997 15.9374 131.591 15.6562C131.294 15.4688 130.864 15.3125 130.302 15.1875C129.739 15.0469 129.223 14.961 128.755 14.9297V13.4062L136.911 12.8906L137.239 13.2188V32.0625C137.239 32.6094 137.341 33.0624 137.544 33.4218C137.763 33.7812 138.098 34.0468 138.552 34.2188C138.895 34.3593 139.231 34.4766 139.559 34.5704C139.888 34.6485 140.255 34.7031 140.661 34.7343V36.2812ZM137.708 3.77344C137.708 4.66406 137.411 5.44531 136.817 6.11719C136.239 6.77344 135.52 7.10156 134.661 7.10156C133.864 7.10156 133.169 6.78906 132.575 6.16406C131.997 5.52344 131.708 4.79688 131.708 3.98437C131.708 3.125 131.997 2.375 132.575 1.73437C133.169 1.09375 133.864 0.77344 134.661 0.77344C135.552 0.77344 136.278 1.07813 136.841 1.6875C137.419 2.28125 137.708 2.97656 137.708 3.77344ZM161.155 24.961C161.795 25.5235 162.287 26.1719 162.631 26.9062C162.975 27.6406 163.147 28.539 163.147 29.6015C163.147 31.7421 162.342 33.4922 160.733 34.8516C159.139 36.211 157.069 36.8907 154.522 36.8907C153.178 36.8907 151.936 36.6485 150.795 36.1641C149.67 35.6797 148.866 35.2344 148.381 34.8282L147.913 36.3516H146.155L145.92 28.3125H147.538C147.663 28.9219 147.928 29.6329 148.334 30.4454C148.741 31.2579 149.233 31.9921 149.811 32.6484C150.42 33.3359 151.147 33.9141 151.99 34.3829C152.85 34.8516 153.811 35.0859 154.873 35.0859C156.373 35.0859 157.53 34.7501 158.342 34.0782C159.155 33.3907 159.561 32.4141 159.561 31.1485C159.561 30.4922 159.428 29.9297 159.162 29.461C158.912 28.9766 158.537 28.5547 158.037 28.1954C157.522 27.836 156.889 27.5157 156.139 27.2344C155.389 26.9375 154.553 26.6484 153.631 26.3671C152.897 26.1484 152.076 25.8515 151.17 25.4765C150.28 25.0859 149.514 24.6328 148.873 24.1171C148.186 23.5703 147.623 22.8984 147.186 22.1015C146.748 21.3046 146.53 20.3671 146.53 19.289C146.53 17.3984 147.233 15.7969 148.639 14.4844C150.045 13.1719 151.928 12.5156 154.287 12.5156C155.194 12.5156 156.115 12.6329 157.053 12.8672C158.006 13.1016 158.78 13.3828 159.373 13.7109L159.912 12.4922H161.6L161.951 19.9219H160.334C160.006 18.2657 159.295 16.9218 158.201 15.8906C157.123 14.8437 155.803 14.3203 154.24 14.3203C152.959 14.3203 151.951 14.6406 151.217 15.2812C150.483 15.9219 150.115 16.6953 150.115 17.6015C150.115 18.3046 150.233 18.8907 150.467 19.3594C150.717 19.8282 151.084 20.2265 151.569 20.5546C152.037 20.8671 152.623 21.1641 153.326 21.4454C154.045 21.711 154.928 22.0157 155.975 22.3594C157.006 22.6875 157.975 23.0704 158.881 23.5079C159.803 23.9454 160.561 24.4297 161.155 24.961ZM184.32 24.961C184.961 25.5235 185.453 26.1719 185.797 26.9062C186.141 27.6406 186.312 28.539 186.312 29.6015C186.312 31.7421 185.508 33.4922 183.898 34.8516C182.305 36.211 180.234 36.8907 177.687 36.8907C176.344 36.8907 175.101 36.6485 173.961 36.1641C172.836 35.6797 172.031 35.2344 171.547 34.8282L171.078 36.3516H169.32L169.086 28.3125H170.703C170.828 28.9219 171.094 29.6329 171.5 30.4454C171.906 31.2579 172.398 31.9921 172.976 32.6484C173.586 33.3359 174.312 33.9141 175.156 34.3829C176.015 34.8516 176.976 35.0859 178.039 35.0859C179.539 35.0859 180.695 34.7501 181.508 34.0782C182.32 33.3907 182.726 32.4141 182.726 31.1485C182.726 30.4922 182.594 29.9297 182.328 29.461C182.078 28.9766 181.703 28.5547 181.203 28.1954C180.687 27.836 180.055 27.5157 179.305 27.2344C178.555 26.9375 177.719 26.6484 176.797 26.3671C176.062 26.1484 175.242 25.8515 174.336 25.4765C173.445 25.0859 172.68 24.6328 172.039 24.1171C171.351 23.5703 170.789 22.8984 170.351 22.1015C169.914 21.3046 169.695 20.3671 169.695 19.289C169.695 17.3984 170.398 15.7969 171.805 14.4844C173.211 13.1719 175.094 12.5156 177.453 12.5156C178.359 12.5156 179.281 12.6329 180.219 12.8672C181.172 13.1016 181.945 13.3828 182.539 13.7109L183.078 12.4922H184.765L185.117 19.9219H183.5C183.172 18.2657 182.461 16.9218 181.367 15.8906C180.289 14.8437 178.969 14.3203 177.406 14.3203C176.125 14.3203 175.117 14.6406 174.383 15.2812C173.648 15.9219 173.281 16.6953 173.281 17.6015C173.281 18.3046 173.398 18.8907 173.633 19.3594C173.883 19.8282 174.25 20.2265 174.734 20.5546C175.203 20.8671 175.789 21.1641 176.492 21.4454C177.211 21.711 178.094 22.0157 179.141 22.3594C180.172 22.6875 181.141 23.0704 182.047 23.5079C182.969 23.9454 183.726 24.4297 184.32 24.961ZM214.119 35.8593C213.384 36.125 212.736 36.3359 212.173 36.4921C211.626 36.664 211.001 36.75 210.298 36.75C209.08 36.75 208.103 36.4688 207.369 35.9062C206.65 35.3281 206.189 34.4921 205.986 33.3984H205.845C204.83 34.5234 203.736 35.3829 202.564 35.9766C201.408 36.5704 200.009 36.8671 198.369 36.8671C196.634 36.8671 195.205 36.3359 194.08 35.2734C192.97 34.2109 192.415 32.8203 192.415 31.1015C192.415 30.2109 192.54 29.4141 192.79 28.711C193.04 28.0079 193.415 27.3751 193.915 26.8125C194.306 26.3438 194.822 25.9297 195.462 25.5704C196.103 25.1954 196.705 24.8984 197.267 24.6796C197.97 24.414 199.392 23.9218 201.533 23.2031C203.689 22.4843 205.142 21.9218 205.892 21.5156V19.1954C205.892 18.9922 205.845 18.6016 205.751 18.0235C205.673 17.4454 205.494 16.8985 205.212 16.3829C204.9 15.8047 204.455 15.3046 203.876 14.8828C203.314 14.4453 202.509 14.2266 201.462 14.2266C200.744 14.2266 200.072 14.3516 199.447 14.6016C198.837 14.836 198.408 15.0859 198.158 15.3515C198.158 15.664 198.228 16.1251 198.369 16.7344C198.525 17.3438 198.603 17.9063 198.603 18.4219C198.603 18.9688 198.353 19.4688 197.853 19.9219C197.369 20.3751 196.689 20.6015 195.814 20.6015C195.033 20.6015 194.455 20.3281 194.08 19.7812C193.72 19.2188 193.54 18.5938 193.54 17.9062C193.54 17.1874 193.79 16.5001 194.29 15.8438C194.806 15.1874 195.47 14.6015 196.283 14.0859C196.986 13.6484 197.837 13.2813 198.837 12.9844C199.837 12.6719 200.814 12.5156 201.767 12.5156C203.08 12.5156 204.22 12.6094 205.189 12.7969C206.173 12.9688 207.064 13.3515 207.861 13.9453C208.658 14.5234 209.259 15.3125 209.665 16.3125C210.087 17.2969 210.298 18.5704 210.298 20.1329C210.298 22.3672 210.275 24.3516 210.228 26.086C210.181 27.8047 210.158 29.6874 210.158 31.7343C210.158 32.3437 210.259 32.8282 210.462 33.1875C210.681 33.5469 211.009 33.8516 211.447 34.1016C211.681 34.2422 212.048 34.3203 212.548 34.3359C213.064 34.3515 213.587 34.3593 214.119 34.3593V35.8593ZM205.939 23.4844C204.611 23.8751 203.447 24.2579 202.447 24.6329C201.447 25.0079 200.517 25.4765 199.658 26.039C198.876 26.5703 198.259 27.2032 197.806 27.9375C197.353 28.6563 197.126 29.5156 197.126 30.5156C197.126 31.8124 197.462 32.7656 198.134 33.375C198.822 33.9843 199.689 34.2891 200.736 34.2891C201.845 34.2891 202.822 34.0234 203.665 33.4921C204.509 32.9453 205.22 32.3047 205.798 31.5704L205.939 23.4844ZM254.098 21.0235C254.801 21.8047 255.317 22.664 255.645 23.6015C255.989 24.5234 256.161 25.6016 256.161 26.836C256.161 29.7735 255.075 32.1954 252.903 34.1016C250.731 36.0079 248.036 36.9609 244.817 36.9609C243.333 36.9609 241.848 36.7343 240.364 36.2812C238.88 35.8124 237.598 35.2501 236.52 34.5938L235.512 36.3046H233.637L233.309 24.914H235.208C235.598 26.3203 236.051 27.5938 236.567 28.7344C237.098 29.8594 237.794 30.914 238.653 31.8984C239.465 32.8203 240.411 33.5547 241.489 34.1016C242.583 34.6485 243.848 34.9218 245.286 34.9218C246.364 34.9218 247.301 34.7812 248.098 34.5C248.911 34.2187 249.567 33.8203 250.067 33.3046C250.567 32.789 250.934 32.1874 251.169 31.5C251.419 30.7968 251.544 29.9922 251.544 29.086C251.544 27.7579 251.169 26.5235 250.419 25.3829C249.669 24.2266 248.551 23.3516 247.067 22.7579C246.051 22.3516 244.887 21.9063 243.575 21.4219C242.262 20.9219 241.13 20.4531 240.176 20.0156C238.301 19.1718 236.84 18.0704 235.794 16.711C234.762 15.336 234.247 13.5468 234.247 11.3438C234.247 10.0782 234.505 8.89844 235.02 7.80469C235.536 6.71094 236.27 5.73438 237.223 4.875C238.13 4.0625 239.2 3.42969 240.434 2.97656C241.669 2.50781 242.958 2.27344 244.301 2.27344C245.833 2.27344 247.2 2.50781 248.403 2.97656C249.622 3.44531 250.731 3.99219 251.731 4.61719L252.692 3.02344H254.567L254.755 14.0625H252.856C252.512 12.7969 252.122 11.586 251.684 10.4297C251.262 9.27344 250.708 8.22656 250.02 7.28906C249.348 6.38281 248.528 5.66406 247.559 5.13281C246.59 4.58594 245.403 4.3125 243.997 4.3125C242.512 4.3125 241.247 4.78906 240.2 5.74219C239.153 6.69531 238.63 7.85937 238.63 9.23437C238.63 10.6719 238.965 11.8671 239.637 12.8203C240.309 13.7578 241.286 14.5312 242.567 15.1406C243.708 15.6874 244.825 16.1641 245.919 16.5704C247.028 16.961 248.098 17.3829 249.13 17.836C250.067 18.2422 250.965 18.7031 251.825 19.2188C252.7 19.7344 253.458 20.336 254.098 21.0235ZM273.373 36.2812H262.194V34.7343C262.553 34.7031 262.92 34.6719 263.295 34.6407C263.686 34.6094 264.022 34.5469 264.303 34.4532C264.741 34.3125 265.061 34.0704 265.264 33.7266C265.483 33.3672 265.592 32.9062 265.592 32.3438V18.0704C265.592 17.5704 265.475 17.1172 265.241 16.711C265.022 16.2891 264.709 15.9374 264.303 15.6562C264.006 15.4688 263.576 15.3125 263.014 15.1875C262.451 15.0469 261.936 14.961 261.467 14.9297V13.4062L269.623 12.8906L269.951 13.2188V32.0625C269.951 32.6094 270.053 33.0624 270.256 33.4218C270.475 33.7812 270.811 34.0468 271.264 34.2188C271.608 34.3593 271.944 34.4766 272.272 34.5704C272.6 34.6485 272.967 34.7031 273.373 34.7343V36.2812ZM270.42 3.77344C270.42 4.66406 270.123 5.44531 269.53 6.11719C268.951 6.77344 268.233 7.10156 267.373 7.10156C266.576 7.10156 265.881 6.78906 265.287 6.16406C264.709 5.52344 264.42 4.79688 264.42 3.98437C264.42 3.125 264.709 2.375 265.287 1.73437C265.881 1.09375 266.576 0.77344 267.373 0.77344C268.264 0.77344 268.991 1.07813 269.553 1.6875C270.131 2.28125 270.42 2.97656 270.42 3.77344ZM289.437 36.2812H278.164V34.7343C278.523 34.7031 278.906 34.6719 279.312 34.6407C279.719 34.5938 280.055 34.5313 280.32 34.4532C280.758 34.3125 281.086 34.0704 281.305 33.7266C281.523 33.3672 281.633 32.9062 281.633 32.3438V5.57813C281.633 5.01563 281.508 4.49219 281.258 4.00781C281.023 3.50781 280.711 3.11719 280.32 2.83594C280.039 2.64844 279.523 2.47656 278.773 2.32031C278.023 2.16406 277.422 2.07031 276.969 2.03906V0.53906L285.664 0L285.992 0.35156V32.0625C285.992 32.6094 286.094 33.0624 286.297 33.4218C286.5 33.7656 286.828 34.0312 287.281 34.2188C287.625 34.375 287.961 34.4922 288.289 34.5704C288.633 34.6485 289.015 34.7031 289.437 34.7343V36.2812ZM317.572 14.6016C316.869 14.7266 316.197 14.9843 315.556 15.375C314.931 15.75 314.392 16.4218 313.939 17.3906C313.017 19.4843 312.064 21.6718 311.08 23.9531C310.095 26.2187 309.072 28.6015 308.009 31.1015C307.697 31.8203 307.361 32.6719 307.001 33.6562C306.658 34.6406 306.337 35.5859 306.04 36.4921H304.212C302.728 32.8203 301.361 29.4766 300.111 26.461C298.861 23.4297 297.564 20.3282 296.22 17.1562C295.908 16.4374 295.4 15.8828 294.697 15.4921C294.009 15.0859 293.314 14.8281 292.611 14.7188V13.1719H303.298V14.8125C302.83 14.8282 302.244 14.9297 301.54 15.1172C300.837 15.2891 300.486 15.5312 300.486 15.8438C300.486 15.8907 300.525 16.0157 300.603 16.2188C300.681 16.4062 300.759 16.625 300.837 16.875C301.478 18.4687 302.384 20.6953 303.556 23.5546C304.728 26.414 305.681 28.7188 306.415 30.4688C306.978 29.125 307.681 27.4531 308.525 25.4531C309.384 23.4531 310.306 21.2187 311.29 18.75C311.447 18.3281 311.595 17.9374 311.736 17.5781C311.876 17.2031 311.947 16.8281 311.947 16.4531C311.947 16.1874 311.814 15.9531 311.548 15.75C311.298 15.5312 310.994 15.3438 310.634 15.1875C310.275 15.0313 309.923 14.914 309.58 14.8359C309.236 14.7578 308.955 14.7032 308.736 14.6719V13.1719H317.572V14.6016ZM341.534 30.8438C340.565 32.6875 339.269 34.1562 337.644 35.25C336.019 36.3437 334.151 36.8907 332.042 36.8907C330.183 36.8907 328.55 36.5624 327.144 35.9062C325.753 35.2501 324.605 34.3593 323.698 33.2343C322.792 32.1093 322.112 30.7969 321.659 29.2969C321.222 27.7969 321.003 26.2109 321.003 24.539C321.003 23.039 321.237 21.5704 321.706 20.1329C322.19 18.6797 322.894 17.375 323.815 16.2188C324.706 15.1093 325.808 14.2188 327.12 13.5469C328.448 12.8594 329.933 12.5156 331.573 12.5156C333.261 12.5156 334.706 12.7813 335.909 13.3125C337.112 13.8438 338.089 14.5703 338.839 15.4921C339.558 16.3671 340.089 17.3985 340.433 18.586C340.792 19.7735 340.972 21.0624 340.972 22.4531V24H325.667C325.667 25.5156 325.808 26.8906 326.089 28.125C326.386 29.3593 326.847 30.4454 327.472 31.3829C328.081 32.2891 328.878 33.0079 329.862 33.5391C330.847 34.0547 332.019 34.3125 333.378 34.3125C334.769 34.3125 335.964 33.9922 336.964 33.3516C337.98 32.6954 338.956 31.5235 339.894 29.836L341.534 30.8438ZM336.355 22.0312C336.355 21.1562 336.276 20.2188 336.12 19.2188C335.98 18.2188 335.745 17.3829 335.417 16.711C335.058 15.9922 334.565 15.4062 333.94 14.9531C333.315 14.5 332.511 14.2734 331.526 14.2734C329.886 14.2734 328.519 14.961 327.425 16.336C326.347 17.6954 325.761 19.5938 325.667 22.0312H336.355ZM361.864 24.961C362.505 25.5235 362.997 26.1719 363.341 26.9062C363.684 27.6406 363.856 28.539 363.856 29.6015C363.856 31.7421 363.051 33.4922 361.442 34.8516C359.848 36.211 357.778 36.8907 355.231 36.8907C353.887 36.8907 352.645 36.6485 351.505 36.1641C350.38 35.6797 349.575 35.2344 349.091 34.8282L348.622 36.3516H346.864L346.63 28.3125H348.247C348.372 28.9219 348.637 29.6329 349.044 30.4454C349.45 31.2579 349.942 31.9921 350.52 32.6484C351.13 33.3359 351.856 33.9141 352.7 34.3829C353.559 34.8516 354.52 35.0859 355.583 35.0859C357.083 35.0859 358.239 34.7501 359.051 34.0782C359.864 33.3907 360.27 32.4141 360.27 31.1485C360.27 30.4922 360.137 29.9297 359.872 29.461C359.622 28.9766 359.247 28.5547 358.747 28.1954C358.231 27.836 357.598 27.5157 356.848 27.2344C356.098 26.9375 355.262 26.6484 354.341 26.3671C353.606 26.1484 352.786 25.8515 351.88 25.4765C350.989 25.0859 350.223 24.6328 349.583 24.1171C348.895 23.5703 348.333 22.8984 347.895 22.1015C347.458 21.3046 347.239 20.3671 347.239 19.289C347.239 17.3984 347.942 15.7969 349.348 14.4844C350.755 13.1719 352.637 12.5156 354.997 12.5156C355.903 12.5156 356.825 12.6329 357.762 12.8672C358.716 13.1016 359.489 13.3828 360.083 13.7109L360.622 12.4922H362.309L362.661 19.9219H361.044C360.716 18.2657 360.005 16.9218 358.911 15.8906C357.833 14.8437 356.512 14.3203 354.95 14.3203C353.669 14.3203 352.661 14.6406 351.926 15.2812C351.192 15.9219 350.825 16.6953 350.825 17.6015C350.825 18.3046 350.942 18.8907 351.176 19.3594C351.426 19.8282 351.794 20.2265 352.278 20.5546C352.747 20.8671 353.333 21.1641 354.036 21.4454C354.755 21.711 355.637 22.0157 356.684 22.3594C357.716 22.6875 358.684 23.0704 359.591 23.5079C360.512 23.9454 361.27 24.4297 361.864 24.961ZM384.045 35.2734C383.03 35.6953 382.069 36.0469 381.162 36.3282C380.256 36.6251 379.147 36.7734 377.834 36.7734C375.897 36.7734 374.53 36.2891 373.733 35.3204C372.951 34.336 372.561 32.9532 372.561 31.1719V15.5156H368.389V13.2656H372.655V6.07031H376.92V13.2656H383.553V15.5156H376.967V28.4296C376.967 29.3984 376.998 30.2109 377.061 30.8671C377.139 31.5078 377.311 32.0703 377.576 32.5546C377.826 33.0078 378.201 33.3515 378.701 33.5859C379.201 33.8203 379.873 33.9375 380.717 33.9375C381.108 33.9375 381.678 33.9062 382.428 33.8438C383.194 33.7656 383.733 33.6719 384.045 33.5625V35.2734ZM406.461 16.1485C406.461 16.9454 406.265 17.6562 405.875 18.2812C405.484 18.8906 404.883 19.1954 404.07 19.1954C403.195 19.1954 402.523 18.9687 402.055 18.5156C401.601 18.0624 401.375 17.5624 401.375 17.0156C401.375 16.6718 401.398 16.3593 401.445 16.0781C401.508 15.7968 401.562 15.5157 401.609 15.2344C400.875 15.2344 400.015 15.5312 399.031 16.125C398.047 16.7187 397.211 17.5625 396.523 18.6562V32.1093C396.523 32.6562 396.625 33.1016 396.828 33.4454C397.047 33.7891 397.383 34.0468 397.836 34.2188C398.226 34.375 398.726 34.4922 399.336 34.5704C399.961 34.6485 400.5 34.7031 400.953 34.7343V36.2812H388.765V34.7343C389.125 34.7031 389.492 34.6719 389.867 34.6407C390.258 34.6094 390.594 34.5469 390.875 34.4532C391.312 34.3125 391.633 34.0704 391.836 33.7266C392.055 33.3672 392.164 32.9062 392.164 32.3438V18.0704C392.164 17.586 392.047 17.1093 391.812 16.6406C391.594 16.1718 391.281 15.7968 390.875 15.5156C390.578 15.3281 390.226 15.1954 389.82 15.1172C389.414 15.0235 388.976 14.961 388.508 14.9297V13.4062L396.195 12.8906L396.523 13.2188V16.4765H396.641C397.609 15.2109 398.687 14.2501 399.875 13.5938C401.062 12.9374 402.148 12.6094 403.133 12.6094C404.117 12.6094 404.914 12.9296 405.523 13.5703C406.148 14.2109 406.461 15.0704 406.461 16.1485ZM431.384 30.8438C430.415 32.6875 429.119 34.1562 427.494 35.25C425.869 36.3437 424.001 36.8907 421.892 36.8907C420.033 36.8907 418.4 36.5624 416.994 35.9062C415.603 35.2501 414.455 34.3593 413.548 33.2343C412.642 32.1093 411.962 30.7969 411.509 29.2969C411.072 27.7969 410.853 26.2109 410.853 24.539C410.853 23.039 411.087 21.5704 411.556 20.1329C412.04 18.6797 412.744 17.375 413.665 16.2188C414.556 15.1093 415.658 14.2188 416.97 13.5469C418.298 12.8594 419.783 12.5156 421.423 12.5156C423.111 12.5156 424.556 12.7813 425.759 13.3125C426.962 13.8438 427.939 14.5703 428.689 15.4921C429.408 16.3671 429.939 17.3985 430.283 18.586C430.642 19.7735 430.822 21.0624 430.822 22.4531V24H415.517C415.517 25.5156 415.658 26.8906 415.939 28.125C416.236 29.3593 416.697 30.4454 417.322 31.3829C417.931 32.2891 418.728 33.0079 419.712 33.5391C420.697 34.0547 421.869 34.3125 423.228 34.3125C424.619 34.3125 425.814 33.9922 426.814 33.3516C427.83 32.6954 428.806 31.5235 429.744 29.836L431.384 30.8438ZM426.205 22.0312C426.205 21.1562 426.126 20.2188 425.97 19.2188C425.83 18.2188 425.595 17.3829 425.267 16.711C424.908 15.9922 424.415 15.4062 423.79 14.9531C423.165 14.5 422.361 14.2734 421.376 14.2734C419.736 14.2734 418.369 14.961 417.275 16.336C416.197 17.6954 415.611 19.5938 415.517 22.0312H426.205Z" fill="#E8C548"/>
</g>
<defs>
<filter id="filter0_di_401_24" x="0" y="0" width="40" height="77" filterUnits="userSpaceOnUse" color-interpolation-filters="sRGB">
<feFlood flood-opacity="0" result="BackgroundImageFix"/>
<feColorMatrix in="SourceAlpha" type="matrix" values="0 0 0 0 0 0 0 0 0 0 0 0 0 0 0 0 0 0 127 0" result="hardAlpha"/>
<feOffset dx="2" dy="3"/>
<feGaussianBlur stdDeviation="1.5"/>
<feComposite in2="hardAlpha" operator="out"/>
<feColorMatrix type="matrix" values="0 0 0 0 0.0958333 0 0 0 0 0.0958333 0 0 0 0 0.0958333 0 0 0 0.4 0"/>
<feBlend mode="normal" in2="BackgroundImageFix" result="effect1_dropShadow_401_24"/>
<feBlend mode="normal" in="SourceGraphic" in2="effect1_dropShadow_401_24" result="shape"/>
<feColorMatrix in="SourceAlpha" type="matrix" values="0 0 0 0 0 0 0 0 0 0 0 0 0 0 0 0 0 0 127 0" result="hardAlpha"/>
<feOffset dy="1"/>
<feGaussianBlur stdDeviation="2"/>
<feComposite in2="hardAlpha" operator="arithmetic" k2="-1" k3="1"/>
<feColorMatrix type="matrix" values="0 0 0 0 0 0 0 0 0 0 0 0 0 0 0 0 0 0 0.05 0"/>
<feBlend mode="normal" in2="shape" result="effect2_innerShadow_401_24"/>
</filter>
<filter id="filter1_di_401_24" x="48" y="54" width="380.953" height="23.4258" filterUnits="userSpaceOnUse" color-interpolation-filters="sRGB">
<feFlood flood-opacity="0" result="BackgroundImageFix"/>
<feColorMatrix in="SourceAlpha" type="matrix" values="0 0 0 0 0 0 0 0 0 0 0 0 0 0 0 0 0 0 127 0" result="hardAlpha"/>
<feOffset dx="1" dy="3"/>
<feGaussianBlur stdDeviation="1.5"/>
<feComposite in2="hardAlpha" operator="out"/>
<feColorMatrix type="matrix" values="0 0 0 0 0.0941176 0 0 0 0 0.0941176 0 0 0 0 0.0941176 0 0 0 0.4 0"/>
<feBlend mode="normal" in2="BackgroundImageFix" result="effect1_dropShadow_401_24"/>
<feBlend mode="normal" in="SourceGraphic" in2="effect1_dropShadow_401_24" result="shape"/>
<feColorMatrix in="SourceAlpha" type="matrix" values="0 0 0 0 0 0 0 0 0 0 0 0 0 0 0 0 0 0 127 0" result="hardAlpha"/>
<feOffset dy="1"/>
<feGaussianBlur stdDeviation="2"/>
<feComposite in2="hardAlpha" operator="arithmetic" k2="-1" k3="1"/>
<feColorMatrix type="matrix" values="0 0 0 0 0 0 0 0 0 0 0 0 0 0 0 0 0 0 0.05 0"/>
<feBlend mode="normal" in2="shape" result="effect2_innerShadow_401_24"/>
</filter>
<filter id="filter2_di_401_24" x="48" y="0" width="387.384" height="42.9609" filterUnits="userSpaceOnUse" color-interpolation-filters="sRGB">
<feFlood flood-opacity="0" result="BackgroundImageFix"/>
<feColorMatrix in="SourceAlpha" type="matrix" values="0 0 0 0 0 0 0 0 0 0 0 0 0 0 0 0 0 0 127 0" result="hardAlpha"/>
<feOffset dx="1" dy="3"/>
<feGaussianBlur stdDeviation="1.5"/>
<feComposite in2="hardAlpha" operator="out"/>
<feColorMatrix type="matrix" values="0 0 0 0 0.0941176 0 0 0 0 0.0941176 0 0 0 0 0.0941176 0 0 0 0.4 0"/>
<feBlend mode="normal" in2="BackgroundImageFix" result="effect1_dropShadow_401_24"/>
<feBlend mode="normal" in="SourceGraphic" in2="effect1_dropShadow_401_24" result="shape"/>
<feColorMatrix in="SourceAlpha" type="matrix" values="0 0 0 0 0 0 0 0 0 0 0 0 0 0 0 0 0 0 127 0" result="hardAlpha"/>
<feOffset dy="1"/>
<feGaussianBlur stdDeviation="2"/>
<feComposite in2="hardAlpha" operator="arithmetic" k2="-1" k3="1"/>
<feColorMatrix type="matrix" values="0 0 0 0 0 0 0 0 0 0 0 0 0 0 0 0 0 0 0.05 0"/>
<feBlend mode="normal" in2="shape" result="effect2_innerShadow_401_24"/>
</filter>
</defs>
</svg>
